<?xml version="1.0" encoding="utf-8"?>
<!-- Generator: Adobe Illustrator 16.0.0, SVG Export Plug-In . SVG Version: 6.00 Build 0)  -->
<!DOCTYPE svg PUBLIC "-//W3C//DTD SVG 1.1//EN" "http://www.w3.org/Graphics/SVG/1.1/DTD/svg11.dtd">
<svg version="1.1" id="Layer_1" xmlns="http://www.w3.org/2000/svg" xmlns:xlink="http://www.w3.org/1999/xlink" x="0px" y="0px"
	 width="524px" height="240px" viewBox="40.14 284.445 524 240" enable-background="new 40.14 284.445 524 240"
	 xml:space="preserve">
<path d="M248.457,471.973H55.352c-6.547,0-10.911-4.364-10.911-10.91s4.363-10.91,10.911-10.91h193.104
	c38.185,0,68.731-30.548,68.731-68.732c0-38.185-30.546-68.733-68.731-68.733s-68.733,30.548-68.733,68.733
	c0,13.091,3.273,25.093,9.819,36.002c3.273,5.455,1.092,12.001-3.272,15.273c-5.455,3.273-12.002,1.091-15.274-3.272
	c-8.729-14.183-13.092-30.548-13.092-46.913c0-50.186,40.367-90.552,90.552-90.552c50.185,0,90.552,40.367,90.552,90.552
	C339.009,432.696,298.642,471.973,248.457,471.973z"/>
<path d="M473.201,452.334l-49.096-49.095c-4.363-4.363-10.91-4.363-15.273,0c-4.364,4.365-4.364,10.911,0,15.274l30.548,30.548
	h-99.281c-6.545,0-10.908,4.364-10.908,10.909c0,6.547,4.363,10.911,10.908,10.911h98.189l-30.547,30.548
	c-4.365,4.363-4.365,10.908,0,15.273c2.183,2.182,5.454,3.272,7.638,3.272c2.182,0,5.453-1.091,7.635-3.272l49.096-49.095
	c2.182-2.183,3.273-4.364,3.273-7.638l0,0C476.473,457.789,475.383,454.517,473.201,452.334z"/>
<rect x="89.14" y="453.445" fill="none" width="71" height="15.5"/>
<text transform="matrix(1 0 0 1 89.1399 466.0586)" fill="#BB86FC" font-family="'Montserrat-Regular'" font-size="17">Define</text>
<rect x="228.14" y="297.945" fill="none" width="71" height="15.5"/>
<text transform="matrix(1 0 0 1 228.1399 310.5591)" fill="#BB86FC" font-family="'Montserrat-Regular'" font-size="17">Build</text>
<rect x="372.64" y="453.445" fill="none" width="71" height="15.5"/>
<text transform="matrix(1 0 0 1 372.6399 466.0586)" fill="#BB86FC" font-family="'Montserrat-Regular'" font-size="17">Release</text>
<rect x="498.14" y="453.445" fill="none" width="71" height="15.5"/>
<text transform="matrix(1 0 0 1 498.1399 466.0586)" fill="#6200EE" font-family="'Montserrat-Medium'" font-size="17">Repeat</text>
</svg>
