<?xml version="1.0" encoding="utf-8"?>
<!-- Generator: Adobe Illustrator 16.0.0, SVG Export Plug-In . SVG Version: 6.00 Build 0)  -->
<!DOCTYPE svg PUBLIC "-//W3C//DTD SVG 1.1//EN" "http://www.w3.org/Graphics/SVG/1.1/DTD/svg11.dtd">
<svg version="1.1" id="animation" xmlns="http://www.w3.org/2000/svg" xmlns:xlink="http://www.w3.org/1999/xlink" x="0px" y="0px"
	 width="10.25px" height="7.417px" viewBox="83.083 86.25 10.25 7.417" enable-background="new 83.083 86.25 10.25 7.417"
	 xml:space="preserve">
<linearGradient id="SVGID_1_" gradientUnits="userSpaceOnUse" x1="870.6709" y1="-967.9331" x2="818.0646" y2="-1010.1175" gradientTransform="matrix(0.3453 0 0 -0.3468 -207.5011 -249.7224)">
	<stop  offset="0.0199" style="stop-color:#6200EE"/>
	<stop  offset="0.445" style="stop-color:#4553C7"/>
	<stop  offset="0.5857" style="stop-color:#4563C9"/>
	<stop  offset="0.8398" style="stop-color:#447ACB"/>
	<stop  offset="1" style="stop-color:#4482CC"/>
</linearGradient>
<path fill="url(#SVGID_1_)" d="M82.822,86.25h10.511v7.506H82.822V86.25z"/>

	<g>
		<defs>
			<rect id="SVGID_2_" x="82.355" y="85.857" width="11.543" height="8.189"/>
		</defs>
		<clipPath id="SVGID_3_">
			<use xlink:href="#SVGID_2_"  overflow="visible"/>
		</clipPath>
		<g id="surface11" clip-path="url(#SVGID_3_)">

				<linearGradient id="SVGID_4_" gradientUnits="userSpaceOnUse" x1="-1258.5479" y1="-2708.6323" x2="-1258.5479" y2="-2692.6948" gradientTransform="matrix(0.2999 -0.1718 -0.3443 -0.202 -466.3721 -669.5639)">
				<stop  offset="0" style="stop-color:#5778FF"/>
				<stop  offset="0.0097" style="stop-color:#567CFF"/>
				<stop  offset="0.1262" style="stop-color:#4FABFF"/>
				<stop  offset="0.2375" style="stop-color:#49CFFF"/>
				<stop  offset="0.3408" style="stop-color:#45EAFF"/>
				<stop  offset="0.4332" style="stop-color:#43F9FF"/>
				<stop  offset="0.5054" style="stop-color:#42FFFF"/>
				<stop  offset="0.5719" style="stop-color:#43F7FF"/>
				<stop  offset="0.6727" style="stop-color:#46E3FF"/>
				<stop  offset="0.7952" style="stop-color:#4CC0FF"/>
				<stop  offset="0.9335" style="stop-color:#5391FF"/>
				<stop  offset="1" style="stop-color:#5778FF"/>
			</linearGradient>
			<path fill="url(#SVGID_4_)" d="M83.188,90.557l-0.027,0.015c-0.097,0.057-0.085,0.154,0.026,0.22l5.082,2.982
				c0.112,0.065,0.281,0.074,0.379,0.017l0.026-0.015c0.096-0.056,0.086-0.154-0.026-0.219l-5.082-2.982
				C83.453,90.509,83.284,90.501,83.188,90.557z"/>
		</g>
	</g>
</g>
<g id="line_left_second">
	<g>
		<defs>
			<rect id="SVGID_5_" x="82.355" y="85.857" width="11.543" height="8.189"/>
		</defs>
		<clipPath id="SVGID_6_">
			<use xlink:href="#SVGID_5_"  overflow="visible"/>
		</clipPath>
		<g id="surface19" clip-path="url(#SVGID_6_)">

				<linearGradient id="SVGID_7_" gradientUnits="userSpaceOnUse" x1="-1256.1812" y1="-2704.8179" x2="-1256.1812" y2="-2696.5112" gradientTransform="matrix(0.2999 -0.1718 -0.3443 -0.202 -466.3721 -669.5639)">
				<stop  offset="0" style="stop-color:#5778FF"/>
				<stop  offset="0.0097" style="stop-color:#567CFF"/>
				<stop  offset="0.1262" style="stop-color:#4FABFF"/>
				<stop  offset="0.2375" style="stop-color:#49CFFF"/>
				<stop  offset="0.3408" style="stop-color:#45EAFF"/>
				<stop  offset="0.4332" style="stop-color:#43F9FF"/>
				<stop  offset="0.5054" style="stop-color:#42FFFF"/>
				<stop  offset="0.5719" style="stop-color:#43F7FF"/>
				<stop  offset="0.6727" style="stop-color:#46E3FF"/>
				<stop  offset="0.7952" style="stop-color:#4CC0FF"/>
				<stop  offset="0.9335" style="stop-color:#5391FF"/>
				<stop  offset="1" style="stop-color:#5778FF"/>
			</linearGradient>
			<path fill="url(#SVGID_7_)" d="M85.211,90.92l-0.026,0.016c-0.098,0.056-0.086,0.154,0.026,0.221l2.455,1.438
				c0.11,0.066,0.28,0.074,0.378,0.019l0.025-0.016c0.099-0.055,0.086-0.153-0.025-0.219l-2.455-1.44
				C85.478,90.872,85.309,90.864,85.211,90.92z"/>
		</g>
	</g>
</g>
<g>
	<g>
		<defs>
			<rect id="SVGID_8_" x="82.355" y="85.857" width="11.543" height="8.189"/>
		</defs>
		<clipPath id="SVGID_9_">
			<use xlink:href="#SVGID_8_"  overflow="visible"/>
		</clipPath>
		<g id="surface27" clip-path="url(#SVGID_9_)">

				<linearGradient id="SVGID_10_" gradientUnits="userSpaceOnUse" x1="-1253.811" y1="-2708.6323" x2="-1253.811" y2="-2698.2183" gradientTransform="matrix(0.2999 -0.1718 -0.3443 -0.202 -466.3721 -669.5639)">
				<stop  offset="0" style="stop-color:#5778FF"/>
				<stop  offset="0.0097" style="stop-color:#567CFF"/>
				<stop  offset="0.1262" style="stop-color:#4FABFF"/>
				<stop  offset="0.2375" style="stop-color:#49CFFF"/>
				<stop  offset="0.3408" style="stop-color:#45EAFF"/>
				<stop  offset="0.4332" style="stop-color:#43F9FF"/>
				<stop  offset="0.5054" style="stop-color:#42FFFF"/>
				<stop  offset="0.5719" style="stop-color:#43F7FF"/>
				<stop  offset="0.6727" style="stop-color:#46E3FF"/>
				<stop  offset="0.7952" style="stop-color:#4CC0FF"/>
				<stop  offset="0.9335" style="stop-color:#5391FF"/>
				<stop  offset="1" style="stop-color:#5778FF"/>
			</linearGradient>
			<path fill="url(#SVGID_10_)" d="M86.509,90.859l-0.025,0.014c-0.099,0.057-0.086,0.155,0.025,0.221l3.181,1.865
				c0.11,0.065,0.28,0.074,0.378,0.018l0.026-0.015c0.098-0.056,0.085-0.154-0.026-0.22l-3.18-1.866
				C86.776,90.811,86.606,90.803,86.509,90.859z"/>
		</g>
	</g>
</g>
<g id="line_back">
	<g>
		<defs>
			<rect id="SVGID_11_" x="82.355" y="85.857" width="11.543" height="8.189"/>
		</defs>
		<clipPath id="SVGID_12_">
			<use xlink:href="#SVGID_11_"  overflow="visible"/>
		</clipPath>
		<g id="surface35" clip-path="url(#SVGID_12_)">

				<linearGradient id="SVGID_13_" gradientUnits="userSpaceOnUse" x1="-1251.4443" y1="-2708.6323" x2="-1251.4443" y2="-2688.3921" gradientTransform="matrix(0.2999 -0.1718 -0.3443 -0.202 -466.3721 -669.5639)">
				<stop  offset="0" style="stop-color:#5778FF"/>
				<stop  offset="0.0097" style="stop-color:#567CFF"/>
				<stop  offset="0.1262" style="stop-color:#4FABFF"/>
				<stop  offset="0.2375" style="stop-color:#49CFFF"/>
				<stop  offset="0.3408" style="stop-color:#45EAFF"/>
				<stop  offset="0.4332" style="stop-color:#43F9FF"/>
				<stop  offset="0.5054" style="stop-color:#42FFFF"/>
				<stop  offset="0.5719" style="stop-color:#43F7FF"/>
				<stop  offset="0.6727" style="stop-color:#46E3FF"/>
				<stop  offset="0.7952" style="stop-color:#4CC0FF"/>
				<stop  offset="0.9335" style="stop-color:#5391FF"/>
				<stop  offset="1" style="stop-color:#5778FF"/>
			</linearGradient>
			<path fill="url(#SVGID_13_)" d="M83.836,88.467l-0.025,0.016c-0.098,0.056-0.086,0.153,0.025,0.22l6.563,3.85
				c0.111,0.066,0.28,0.075,0.379,0.019l0.025-0.016c0.098-0.055,0.086-0.153-0.025-0.219l-6.563-3.851
				C84.104,88.419,83.934,88.411,83.836,88.467z"/>
		</g>
	</g>
</g>
<g id="right_second">
	<g>
		<defs>
			<rect id="SVGID_14_" x="82.355" y="85.857" width="11.543" height="8.189"/>
		</defs>
		<clipPath id="SVGID_15_">
			<use xlink:href="#SVGID_14_"  overflow="visible"/>
		</clipPath>
		<g id="surface43" clip-path="url(#SVGID_15_)">

				<linearGradient id="SVGID_16_" gradientUnits="userSpaceOnUse" x1="-1244.5908" y1="-2710.2651" x2="-1244.5908" y2="-2690.0229" gradientTransform="matrix(0.2999 -0.1718 -0.3443 -0.202 -466.3721 -669.5639)">
				<stop  offset="0" style="stop-color:#5778FF"/>
				<stop  offset="0.0097" style="stop-color:#567CFF"/>
				<stop  offset="0.1262" style="stop-color:#4FABFF"/>
				<stop  offset="0.2375" style="stop-color:#49CFFF"/>
				<stop  offset="0.3408" style="stop-color:#45EAFF"/>
				<stop  offset="0.4332" style="stop-color:#43F9FF"/>
				<stop  offset="0.5054" style="stop-color:#42FFFF"/>
				<stop  offset="0.5719" style="stop-color:#43F7FF"/>
				<stop  offset="0.6727" style="stop-color:#46E3FF"/>
				<stop  offset="0.7952" style="stop-color:#4CC0FF"/>
				<stop  offset="0.9335" style="stop-color:#5391FF"/>
				<stop  offset="1" style="stop-color:#5778FF"/>
			</linearGradient>
			<path fill="url(#SVGID_16_)" d="M86.453,87.618l-0.025,0.016c-0.099,0.056-0.086,0.154,0.025,0.221l6.563,3.851
				c0.111,0.064,0.28,0.072,0.379,0.017l0.025-0.016c0.098-0.055,0.086-0.153-0.025-0.219l-6.564-3.85
				C86.721,87.57,86.551,87.563,86.453,87.618z"/>
		</g>
	</g>
</g>
<g id="right_first">
	<defs>
		<rect id="SVGID_17_" x="82.355" y="85.857" width="11.543" height="8.189"/>
	</defs>
	<clipPath id="SVGID_18_">
		<use xlink:href="#SVGID_17_"  overflow="visible"/>
	</clipPath>

		<linearGradient id="SVGID_19_" gradientUnits="userSpaceOnUse" x1="-1242.3208" y1="-2705.5073" x2="-1242.3208" y2="-2685.2671" gradientTransform="matrix(0.2999 -0.1718 -0.3443 -0.202 -466.3721 -669.5639)">
		<stop  offset="0" style="stop-color:#5778FF"/>
		<stop  offset="0.0097" style="stop-color:#567CFF"/>
		<stop  offset="0.1262" style="stop-color:#4FABFF"/>
		<stop  offset="0.2375" style="stop-color:#49CFFF"/>
		<stop  offset="0.3408" style="stop-color:#45EAFF"/>
		<stop  offset="0.4332" style="stop-color:#43F9FF"/>
		<stop  offset="0.5054" style="stop-color:#42FFFF"/>
		<stop  offset="0.5719" style="stop-color:#43F7FF"/>
		<stop  offset="0.6727" style="stop-color:#46E3FF"/>
		<stop  offset="0.7952" style="stop-color:#4CC0FF"/>
		<stop  offset="0.9335" style="stop-color:#5391FF"/>
		<stop  offset="1" style="stop-color:#5778FF"/>
	</linearGradient>
	<path clip-path="url(#SVGID_18_)" fill="url(#SVGID_19_)" d="M85.496,86.268l-0.026,0.016c-0.098,0.057-0.086,0.154,0.025,0.22
		l6.564,3.851c0.11,0.066,0.28,0.074,0.378,0.017l0.026-0.014c0.097-0.056,0.085-0.155-0.026-0.22l-6.563-3.852
		C85.764,86.22,85.594,86.213,85.496,86.268z"/>
</g>
<g>
	<g>
		<defs>
			<rect id="SVGID_20_" x="82.355" y="85.857" width="11.543" height="8.189"/>
		</defs>
		<clipPath id="SVGID_21_">
			<use xlink:href="#SVGID_20_"  overflow="visible"/>
		</clipPath>
		<g id="surface59" clip-path="url(#SVGID_21_)">

				<linearGradient id="SVGID_22_" gradientUnits="userSpaceOnUse" x1="-1249.0737" y1="-2708.6362" x2="-1249.0737" y2="-2691.4312" gradientTransform="matrix(0.2999 -0.1718 -0.3443 -0.202 -466.3721 -669.5639)">
				<stop  offset="0" style="stop-color:#5778FF"/>
				<stop  offset="0.0097" style="stop-color:#567CFF"/>
				<stop  offset="0.1262" style="stop-color:#4FABFF"/>
				<stop  offset="0.2375" style="stop-color:#49CFFF"/>
				<stop  offset="0.3408" style="stop-color:#45EAFF"/>
				<stop  offset="0.4332" style="stop-color:#43F9FF"/>
				<stop  offset="0.5054" style="stop-color:#42FFFF"/>
				<stop  offset="0.5719" style="stop-color:#43F7FF"/>
				<stop  offset="0.6727" style="stop-color:#46E3FF"/>
				<stop  offset="0.7952" style="stop-color:#4CC0FF"/>
				<stop  offset="0.9335" style="stop-color:#5391FF"/>
				<stop  offset="1" style="stop-color:#5778FF"/>
			</linearGradient>
			<path fill="url(#SVGID_22_)" d="M85.592,88.674l-0.026,0.016c-0.096,0.056-0.086,0.153,0.026,0.219l5.518,3.237
				c0.111,0.065,0.281,0.073,0.379,0.019l0.026-0.016c0.096-0.057,0.085-0.153-0.026-0.221l-5.518-3.236
				C85.858,88.625,85.689,88.618,85.592,88.674z"/>
		</g>
	</g>
</g>
<g>
	<g>
		<defs>
			<rect id="SVGID_23_" x="82.355" y="85.857" width="11.543" height="8.189"/>
		</defs>
		<clipPath id="SVGID_24_">
			<use xlink:href="#SVGID_23_"  overflow="visible"/>
		</clipPath>
		<g id="surface67" clip-path="url(#SVGID_24_)">

				<linearGradient id="SVGID_25_" gradientUnits="userSpaceOnUse" x1="-1246.7056" y1="-2699.8823" x2="-1246.7056" y2="-2692.6987" gradientTransform="matrix(0.2999 -0.1718 -0.3443 -0.202 -466.3721 -669.5639)">
				<stop  offset="0" style="stop-color:#5778FF"/>
				<stop  offset="0.0097" style="stop-color:#567CFF"/>
				<stop  offset="0.1262" style="stop-color:#4FABFF"/>
				<stop  offset="0.2375" style="stop-color:#49CFFF"/>
				<stop  offset="0.3408" style="stop-color:#45EAFF"/>
				<stop  offset="0.4332" style="stop-color:#43F9FF"/>
				<stop  offset="0.5054" style="stop-color:#42FFFF"/>
				<stop  offset="0.5719" style="stop-color:#43F7FF"/>
				<stop  offset="0.6727" style="stop-color:#46E3FF"/>
				<stop  offset="0.7952" style="stop-color:#4CC0FF"/>
				<stop  offset="0.9335" style="stop-color:#5391FF"/>
				<stop  offset="1" style="stop-color:#5778FF"/>
			</linearGradient>
			<path fill="url(#SVGID_25_)" d="M86.738,88.522l-0.026,0.016c-0.097,0.055-0.086,0.154,0.026,0.219l2.067,1.214
				c0.111,0.064,0.28,0.073,0.378,0.017l0.026-0.013c0.098-0.057,0.085-0.156-0.025-0.222l-2.067-1.214
				C87.005,88.475,86.834,88.467,86.738,88.522z"/>
		</g>
	</g>
</g>
<g>
	<g>
		<defs>
			<rect id="SVGID_26_" x="82.355" y="85.857" width="11.543" height="8.189"/>
		</defs>
		<clipPath id="SVGID_27_">
			<use xlink:href="#SVGID_26_"  overflow="visible"/>
		</clipPath>
		<g id="surface75" clip-path="url(#SVGID_27_)">
			<path fill="#242993" d="M87.797,93l-3.537-3.809l2.018-0.628l2.193,2.598l0.816,1.853L87.797,93z"/>
		</g>
	</g>
</g>
<linearGradient id="SVGID_28_" gradientUnits="userSpaceOnUse" x1="-52.0459" y1="729.8652" x2="-47.1597" y2="738.6636" gradientTransform="matrix(0.2442 -0.2452 0.2442 0.2452 -77.7307 -99.4359)">
	<stop  offset="0" style="stop-color:#5778FF"/>
	<stop  offset="0.0398" style="stop-color:#5C7DFF"/>
	<stop  offset="0.0867" style="stop-color:#6A8AFF"/>
	<stop  offset="0.1372" style="stop-color:#82A0FF"/>
	<stop  offset="0.1899" style="stop-color:#A3BEFF"/>
	<stop  offset="0.2237" style="stop-color:#BCD5FF"/>
</linearGradient>
<path fill="url(#SVGID_28_)" d="M91.813,92.3l-0.076,0.286v-0.001c-0.001,0.004-0.004,0.007-0.01,0.008L88.17,93.55
	c-0.012,0.005-0.03-0.002-0.038-0.012l-0.426-0.427c-0.005-0.006-0.007-0.011-0.006-0.014l0,0c0-0.001,0-0.001,0-0.001l0.076-0.289
	l0.207,0.206l3.282-0.884c0.013-0.003,0.029,0.002,0.039,0.013l0.146,0.147L91.813,92.3z"/>
<linearGradient id="SVGID_29_" gradientUnits="userSpaceOnUse" x1="-46.0469" y1="729.8408" x2="-49.2939" y2="736.1884" gradientTransform="matrix(0.2442 -0.2452 0.2442 0.2452 -77.7307 -99.4359)">
	<stop  offset="0" style="stop-color:#C0D6FF"/>
	<stop  offset="0.2978" style="stop-color:#C5DBFF"/>
	<stop  offset="0.6488" style="stop-color:#D3E9FF"/>
	<stop  offset="1" style="stop-color:#E9FFFF"/>
</linearGradient>
<path fill="url(#SVGID_29_)" d="M91.344,91.843l-3.558,0.959c-0.013,0.002-0.014,0.012-0.005,0.023l0.428,0.427
	c0.009,0.011,0.026,0.015,0.038,0.013l3.558-0.958c0.011-0.004,0.012-0.013,0.003-0.023l-0.426-0.428
	C91.372,91.846,91.354,91.84,91.344,91.843z"/>
<g>
	<g>
		<defs>
			<rect id="SVGID_30_" x="82.355" y="85.857" width="11.543" height="8.189"/>
		</defs>
		<clipPath id="SVGID_31_">
			<use xlink:href="#SVGID_30_"  overflow="visible"/>
		</clipPath>
		<g id="surface83" clip-path="url(#SVGID_31_)">
			<path fill="#242993" d="M91.118,92.243l-2.789,0.727c0.008-0.102,0.006-0.208-0.006-0.313l2.791-0.751
				C91.126,92.021,91.128,92.134,91.118,92.243z"/>
		</g>
	</g>
</g>
<path fill="#242993" d="M91.406,92.037l-3.354,0.901c-0.007,0.002-0.009,0.011-0.002,0.018l0.106,0.106
	c0.008,0.008,0.02,0.011,0.027,0.009l3.354-0.902c0.008-0.002,0.009-0.01,0.002-0.017l-0.107-0.107
	C91.427,92.039,91.414,92.034,91.406,92.037z"/>
<path fill="#4553C7" d="M91.538,92.169l-0.068,0.019l-0.058-0.059c-0.007-0.006-0.02-0.011-0.026-0.008l-3.288,0.885l-0.048-0.051
	c-0.007-0.006-0.005-0.015,0.002-0.017l3.354-0.901c0.008-0.003,0.021,0.002,0.026,0.008l0.107,0.107
	C91.547,92.159,91.546,92.167,91.538,92.169z"/>
<g id="document">
	<g>
		<defs>
			<rect id="SVGID_32_" x="82.355" y="85.857" width="11.543" height="8.189"/>
		</defs>
		<clipPath id="SVGID_33_">
			<use xlink:href="#SVGID_32_"  overflow="visible"/>
		</clipPath>
		<g id="surface91" clip-path="url(#SVGID_33_)">

				<linearGradient id="SVGID_34_" gradientUnits="userSpaceOnUse" x1="-41.3071" y1="716.4355" x2="-51.4994" y2="734.4954" gradientTransform="matrix(0.2442 -0.2452 0.2442 0.2452 -77.7307 -99.4359)">
				<stop  offset="0" style="stop-color:#C0D6FF"/>
				<stop  offset="0.1196" style="stop-color:#D0E6FF"/>
				<stop  offset="0.2627" style="stop-color:#E9FFFF"/>
				<stop  offset="0.5143" style="stop-color:#C0D6FF"/>
				<stop  offset="0.6239" style="stop-color:#D0E6FF"/>
				<stop  offset="0.755" style="stop-color:#E9FFFF"/>
				<stop  offset="1" style="stop-color:#C0D6FF"/>
			</linearGradient>
			<path fill="url(#SVGID_34_)" d="M84.83,87.193l2.791-0.751c-0.117,0.437,0.047,1.048,0.363,1.366l2.823,2.836
				c0.374,0.375,0.566,1.093,0.43,1.605L88.446,93c0.136-0.512-0.056-1.23-0.429-1.605l-2.823-2.835
				C84.876,88.24,84.714,87.629,84.83,87.193z"/>
		</g>
	</g>
</g>
<g>
	<g>
		<defs>
			<rect id="SVGID_35_" x="82.355" y="85.857" width="11.543" height="8.189"/>
		</defs>
		<clipPath id="SVGID_36_">
			<use xlink:href="#SVGID_35_"  overflow="visible"/>
		</clipPath>
		<g id="surface99" clip-path="url(#SVGID_36_)">
			<path fill="#4553C7" d="M91.237,92.25L88.446,93c0.006-0.022,0.012-0.045,0.017-0.068l2.79-0.751
				C91.248,92.204,91.243,92.228,91.237,92.25z"/>
		</g>
	</g>
</g>
<g id="text">
	<g>
		<defs>
			<rect id="SVGID_37_" x="82.355" y="85.857" width="11.543" height="8.189"/>
		</defs>
		<clipPath id="SVGID_38_">
			<use xlink:href="#SVGID_37_"  overflow="visible"/>
		</clipPath>
		<g id="surface107" clip-path="url(#SVGID_38_)">
			<path fill="#4553C7" d="M88.006,90.27l-0.632,0.17l0.044,0.045l0.633-0.171L88.006,90.27z"/>
			<path fill="#4553C7" d="M88.329,90.182l-0.227,0.062l0.044,0.045l0.229-0.062L88.329,90.182z"/>
			<path fill="#4553C7" d="M88.581,90.114l-0.154,0.041l0.045,0.045l0.155-0.041L88.581,90.114z"/>
			<path fill="#4553C7" d="M87.616,90.244l-0.345,0.093l0.045,0.045l0.345-0.092L87.616,90.244z"/>
			<path fill="#4553C7" d="M88.135,90.104l-0.422,0.114l0.044,0.044l0.422-0.113L88.135,90.104z"/>
			<path fill="#4553C7" d="M88.387,90.037l-0.155,0.041l0.044,0.046l0.155-0.042L88.387,90.037z"/>
			<path fill="#4553C7" d="M88.626,89.973l-0.155,0.042l0.045,0.045l0.154-0.042L88.626,89.973z"/>
			<path fill="#4553C7" d="M87.418,90.168l-0.249,0.066l0.044,0.045l0.25-0.066L87.418,90.168z"/>
			<path fill="#4553C7" d="M87.601,90.118l-0.085,0.024l0.044,0.044l0.086-0.022L87.601,90.118z"/>
			<path fill="#4553C7" d="M87.852,90.051l-0.155,0.042l0.046,0.045l0.154-0.042L87.852,90.051z"/>
			<path fill="#4553C7" d="M87.987,89.885l-0.919,0.247l0.045,0.045l0.919-0.247L87.987,89.885z"/>
			<path fill="#4553C7" d="M88.312,89.798l-0.228,0.061l0.045,0.045l0.228-0.062L88.312,89.798z"/>
			<path fill="#4553C7" d="M87.215,89.963l-0.249,0.066l0.045,0.045l0.249-0.066L87.215,89.963z"/>
			<path fill="#4553C7" d="M87.799,89.806l-0.487,0.131l0.045,0.045l0.487-0.132L87.799,89.806z"/>
			<path fill="#4553C7" d="M88.051,89.737l-0.154,0.042l0.044,0.044l0.154-0.041L88.051,89.737z"/>
			<path fill="#4553C7" d="M87.374,89.79l-0.51,0.138l0.045,0.045l0.509-0.138L87.374,89.79z"/>
			<path fill="#4553C7" d="M87.84,89.665l-0.37,0.099l0.045,0.045l0.368-0.099L87.84,89.665z"/>
			<path fill="#4553C7" d="M88.185,89.571l-0.249,0.067l0.045,0.045l0.249-0.066L88.185,89.571z"/>
			<path fill="#4553C7" d="M86.934,89.778l-0.172,0.046l0.045,0.046l0.172-0.047L86.934,89.778z"/>
			<path fill="#4553C7" d="M87.258,89.691l-0.227,0.062l0.044,0.045l0.228-0.062L87.258,89.691z"/>
			<path fill="#4553C7" d="M87.722,89.566l-0.367,0.1l0.045,0.044l0.366-0.099L87.722,89.566z"/>
			<path fill="#4553C7" d="M87.187,89.581l-0.527,0.142l0.044,0.044l0.528-0.142L87.187,89.581z"/>
			<path fill="#4553C7" d="M87.777,89.422l-0.493,0.133l0.045,0.045l0.493-0.134L87.777,89.422z"/>
			<path fill="#4553C7" d="M88.029,89.354l-0.154,0.042l0.045,0.044l0.154-0.041L88.029,89.354z"/>
			<path fill="#4553C7" d="M88.271,89.289l-0.155,0.042l0.045,0.045l0.154-0.042L88.271,89.289z"/>
			<path fill="#4553C7" d="M86.873,89.535l-0.315,0.085l0.045,0.045l0.315-0.085L86.873,89.535z"/>
			<path fill="#4553C7" d="M89.287,89.925l0.439-0.118l0.044,0.045l-0.438,0.118L89.287,89.925z"/>
			<path fill="#4553C7" d="M89.279,89.797l0.345-0.093l0.045,0.045l-0.345,0.093L89.279,89.797z"/>
			<path fill="#4553C7" d="M89.273,89.669l0.249-0.067l0.044,0.045l-0.249,0.067L89.273,89.669z"/>
			<path fill="#4553C7" d="M89.058,89.597l0.362-0.098l0.045,0.045l-0.362,0.098L89.058,89.597z"/>
			<path fill="#4553C7" d="M89.069,89.464l0.249-0.067l0.045,0.045l-0.25,0.067L89.069,89.464z"/>
			<path fill="#4553C7" d="M88.9,89.379l0.316-0.084l0.044,0.044l-0.316,0.085L88.9,89.379z"/>
			<path fill="#4553C7" d="M88.942,89.238l0.172-0.047l0.045,0.046l-0.173,0.046L88.942,89.238z"/>
			<path fill="#4553C7" d="M88.679,89.179l0.334-0.089l0.045,0.044l-0.334,0.09L88.679,89.179z"/>
			<path fill="#4553C7" d="M88.595,89.072l0.315-0.085l0.044,0.045l-0.315,0.085L88.595,89.072z"/>
			<path fill="#4553C7" d="M87.104,89.473l-0.134,0.036l0.044,0.045l0.134-0.036L87.104,89.473z"/>
			<path fill="#4553C7" d="M87.503,89.366l-0.301,0.081l0.044,0.045l0.302-0.082L87.503,89.366z"/>
			<path fill="#4553C7" d="M87.318,88.739l-0.511,0.137l0.045,0.044l0.511-0.136L87.318,88.739z"/>
			<path fill="#4553C7" d="M87.668,88.645l-0.202,0.054l0.046,0.046l0.201-0.055L87.668,88.645z"/>
		</g>
	</g>
</g>
</svg>
