<?xml version="1.0" encoding="utf-8"?>
<!-- Generator: Adobe Illustrator 16.0.0, SVG Export Plug-In . SVG Version: 6.00 Build 0)  -->
<!DOCTYPE svg PUBLIC "-//W3C//DTD SVG 1.1//EN" "http://www.w3.org/Graphics/SVG/1.1/DTD/svg11.dtd">
<svg version="1.1" id="Ñëîé_1" xmlns="http://www.w3.org/2000/svg" xmlns:xlink="http://www.w3.org/1999/xlink" x="0px" y="0px"
	 width="306px" height="400px" viewBox="0 0 306 400" enable-background="new 0 0 306 400" xml:space="preserve">
<g>
	<path fill="#B2D3EA" d="M266.639,257.902c-0.784,0-1.567-0.209-2.265-0.627l-13.58-8.142l0.822-1.371l13.58,8.142
		c0.878,0.528,1.976,0.533,2.857,0.016l22.103-12.927c0.354-0.206,0.56-0.572,0.552-0.98c-0.007-0.407-0.227-0.765-0.585-0.958
		l-29.457-15.773l0.754-1.41l29.457,15.774c0.877,0.47,1.411,1.345,1.43,2.339c0.018,0.995-0.485,1.888-1.345,2.389l-22.101,12.926
		C268.175,257.701,267.406,257.902,266.639,257.902z"/>
	<path fill="#B2D3EA" d="M211.711,380.201c-0.959,0-1.917-0.239-2.78-0.719l-54.195-30.169c-0.799-0.444-1.277-1.256-1.281-2.169
		c-0.003-0.916,0.471-1.73,1.267-2.181l24.527-13.832c0.388-0.22,0.431-0.589,0.431-0.737c0.001-0.149-0.04-0.52-0.426-0.742
		l-27.288-15.668c-0.75-0.432-1.209-1.207-1.228-2.072s0.407-1.658,1.139-2.122l11.147-7.063l0.855,1.35l-11.147,7.064
		c-0.366,0.232-0.398,0.594-0.396,0.737c0.003,0.145,0.051,0.503,0.426,0.72l27.288,15.669c0.772,0.445,1.231,1.242,1.228,2.133
		c-0.003,0.892-0.468,1.686-1.243,2.124l-24.527,13.832c-0.411,0.232-0.454,0.625-0.454,0.782c0.001,0.158,0.047,0.549,0.46,0.779
		l54.195,30.168c1.289,0.718,2.875,0.688,4.14-0.076l20.607-12.669c0.163-0.1,0.188-0.253,0.188-0.335
		c-0.001-0.066-0.02-0.231-0.188-0.335l-14.915-9.066l0.83-1.365l14.915,9.066c0.598,0.363,0.955,0.998,0.956,1.696
		c0.002,0.698-0.353,1.334-0.947,1.7l-20.612,12.672C213.771,379.925,212.74,380.201,211.711,380.201z"/>
	<g>
		<path fill="#B2D3EA" d="M235.118,258.725l-26.129-15.085c-1.604-0.926-1.402-2.543,0.449-3.612l25.229-14.566
			c1.852-1.068,4.652-1.185,6.256-0.259l26.129,15.085c1.604,0.926,1.402,2.543-0.449,3.612l-25.229,14.566
			C239.522,259.535,236.722,259.65,235.118,258.725z"/>
		<g>
			<path fill="#396CAA" d="M275.721,228.797L275.721,228.797v-11.289l-25.314-0.014l-8.75-5.052
				c-2.008-1.159-5.516-1.015-7.834,0.324l-8.164,4.714l-25.337-0.015v11.61c-0.057,0.785,0.381,1.542,1.346,2.1l32.719,18.89
				c2.008,1.159,5.516,1.015,7.834-0.325l31.593-18.239C275.15,230.729,275.795,229.729,275.721,228.797z"/>
			<path fill="#396CAA" d="M238.021,211.666c-1.47,0.035-2.995,0.405-4.199,1.101l-8.164,4.714l-25.337-0.015v11.61
				c-0.057,0.785,0.381,1.542,1.346,2.1l32.719,18.89c0.965,0.558,2.276,0.81,3.636,0.776V211.666z"/>
			<path fill="#5793CE" d="M203.189,217.468l-2.868-0.002v11.61c-0.057,0.785,0.381,1.542,1.346,2.1l1.522,0.879V217.468z"/>
			<path fill="#5793CE" d="M234.89,250.313c1.732,0.742,4.237,0.701,6.263-0.071v-13.183h-6.263V250.313z"/>
			<path fill="#D4ECFF" d="M234.386,238.497l-32.719-18.89c-2.008-1.16-1.757-3.186,0.563-4.523l31.593-18.24
				c2.318-1.339,5.826-1.484,7.834-0.325l32.719,18.89c2.008,1.159,1.756,3.185-0.563,4.523l-31.593,18.239
				C239.901,239.511,236.394,239.656,234.386,238.497z"/>
			<path fill="#5793CE" d="M234.975,235.097l-27.419-15.83c-1.683-0.972-1.472-2.668,0.472-3.79l26.475-15.285
				c1.943-1.122,4.883-1.244,6.565-0.272l27.419,15.83c1.683,0.972,1.472,2.669-0.472,3.79l-26.475,15.286
				C239.597,235.947,236.657,236.068,234.975,235.097z"/>
			<g>
				<path fill="#D4ECFF" d="M263.686,231.776c0,0.843-0.591,1.868-1.321,2.289c-0.729,0.421-1.321,0.08-1.321-0.763
					s0.592-1.867,1.321-2.289C263.095,230.592,263.686,230.934,263.686,231.776z"/>
				<path fill="#D4ECFF" d="M267.938,229.322c0,0.842-0.592,1.867-1.321,2.288c-0.729,0.422-1.321,0.08-1.321-0.763
					s0.592-1.867,1.321-2.289C267.346,228.138,267.938,228.479,267.938,229.322z"/>
				<path fill="#D4ECFF" d="M272.189,226.867c0,0.843-0.592,1.867-1.321,2.289c-0.729,0.421-1.321,0.079-1.321-0.764
					s0.592-1.867,1.321-2.289C271.598,225.683,272.189,226.024,272.189,226.867z"/>
			</g>
		</g>
		<g>
			<path fill="#396CAA" d="M275.721,210.756L275.721,210.756v-11.289l-25.314-0.014l-8.75-5.052
				c-2.008-1.159-5.516-1.014-7.834,0.324l-8.164,4.714l-25.337-0.015v11.61c-0.057,0.785,0.381,1.542,1.346,2.1l32.719,18.89
				c2.008,1.159,5.516,1.015,7.834-0.325l31.593-18.239C275.15,212.688,275.795,211.688,275.721,210.756z"/>
			<path fill="#396CAA" d="M238.021,193.625c-1.47,0.036-2.995,0.406-4.199,1.101l-8.164,4.714l-25.337-0.015v11.61
				c-0.057,0.785,0.381,1.542,1.346,2.1l32.719,18.89c0.965,0.558,2.276,0.81,3.636,0.776V193.625z"/>
			<path fill="#5793CE" d="M203.189,199.427l-2.868-0.002v11.61c-0.057,0.785,0.381,1.542,1.346,2.1l1.522,0.879V199.427z"/>
			<path fill="#5793CE" d="M234.89,232.271c1.732,0.742,4.237,0.701,6.263-0.071v-13.183h-6.263V232.271z"/>
			<path fill="#D4ECFF" d="M234.386,220.456l-32.719-18.89c-2.008-1.16-1.757-3.185,0.563-4.523l31.593-18.24
				c2.318-1.339,5.826-1.484,7.834-0.325l32.719,18.89c2.008,1.159,1.756,3.185-0.563,4.523l-31.593,18.239
				C239.901,221.47,236.394,221.615,234.386,220.456z"/>
			<path fill="#5793CE" d="M234.975,217.057l-27.419-15.831c-1.683-0.971-1.472-2.668,0.472-3.79l26.475-15.285
				c1.943-1.122,4.883-1.244,6.565-0.272l27.419,15.83c1.683,0.972,1.472,2.669-0.472,3.79l-26.475,15.286
				C239.597,217.906,236.657,218.027,234.975,217.057z"/>
			<g>
				<path fill="#D4ECFF" d="M263.686,213.735c0,0.843-0.591,1.868-1.321,2.289c-0.729,0.421-1.321,0.08-1.321-0.763
					s0.592-1.867,1.321-2.289C263.095,212.551,263.686,212.893,263.686,213.735z"/>
				<path fill="#D4ECFF" d="M267.938,211.281c0,0.842-0.592,1.867-1.321,2.288c-0.729,0.422-1.321,0.08-1.321-0.763
					s0.592-1.867,1.321-2.289C267.346,210.097,267.938,210.438,267.938,211.281z"/>
				<path fill="#D4ECFF" d="M272.189,208.826c0,0.843-0.592,1.867-1.321,2.289c-0.729,0.421-1.321,0.079-1.321-0.764
					s0.592-1.867,1.321-2.289C271.598,207.642,272.189,207.983,272.189,208.826z"/>
			</g>
		</g>
		<g>
			<path fill="#396CAA" d="M275.721,192.715L275.721,192.715v-11.29l-25.314-0.014l-8.75-5.052
				c-2.008-1.159-5.516-1.014-7.834,0.325l-8.164,4.713l-25.337-0.015v11.611c-0.057,0.785,0.381,1.542,1.346,2.099l32.719,18.89
				c2.008,1.159,5.516,1.015,7.834-0.324l31.593-18.24C275.15,194.647,275.795,193.646,275.721,192.715z"/>
			<path fill="#396CAA" d="M238.021,175.583c-1.47,0.036-2.995,0.406-4.199,1.102l-8.164,4.713l-25.337-0.015v11.611
				c-0.057,0.785,0.381,1.542,1.346,2.099l32.719,18.89c0.965,0.558,2.276,0.81,3.636,0.776V175.583z"/>
			<path fill="#5793CE" d="M203.189,181.386l-2.868-0.002v11.611c-0.057,0.785,0.381,1.542,1.346,2.099l1.522,0.879V181.386z"/>
			<path fill="#5793CE" d="M234.89,214.23c1.732,0.742,4.237,0.701,6.263-0.071v-13.183h-6.263V214.23z"/>
			<path fill="#D4ECFF" d="M234.386,202.415l-32.719-18.89c-2.008-1.159-1.757-3.184,0.563-4.523l31.593-18.24
				c2.318-1.339,5.826-1.484,7.834-0.325l32.719,18.89c2.008,1.159,1.756,3.185-0.563,4.523L242.22,202.09
				C239.901,203.43,236.394,203.574,234.386,202.415z"/>
			<path fill="#FFFFFF" d="M273.813,181.629l-31.593,18.24c-2.318,1.338-5.826,1.484-7.834,0.324l-32.719-18.89
				c-0.448-0.258-0.776-0.561-1.002-0.889c-0.69,1.11-0.377,2.315,1.002,3.111l32.719,18.89c2.008,1.159,5.516,1.014,7.834-0.325
				l31.593-18.239c1.802-1.04,2.35-2.494,1.564-3.634C275.063,180.723,274.539,181.209,273.813,181.629z"/>
			<g>
				<path fill="#D4ECFF" d="M263.686,195.694c0,0.843-0.591,1.868-1.321,2.289c-0.729,0.422-1.321,0.08-1.321-0.763
					s0.592-1.868,1.321-2.289C263.095,194.51,263.686,194.852,263.686,195.694z"/>
				<path fill="#D4ECFF" d="M267.938,193.24c0,0.843-0.592,1.868-1.321,2.289s-1.321,0.08-1.321-0.763s0.592-1.867,1.321-2.289
					C267.346,192.056,267.938,192.397,267.938,193.24z"/>
				<path fill="#D4ECFF" d="M272.189,190.785c0,0.843-0.592,1.867-1.321,2.289s-1.321,0.08-1.321-0.763s0.592-1.868,1.321-2.289
					S272.189,189.942,272.189,190.785z"/>
			</g>
			<g>
				<path fill="#5793CE" d="M236.32,190.704l-15.311-8.839c-0.939-0.543-0.822-1.49,0.263-2.117l14.784-8.535
					c1.085-0.626,2.727-0.694,3.666-0.152l15.311,8.84c0.939,0.543,0.822,1.49-0.263,2.117l-14.784,8.536
					C238.901,191.178,237.26,191.246,236.32,190.704z"/>
				<path fill="#D4ECFF" d="M237.786,183.302l-2.118-1.223c-0.13-0.075-0.114-0.206,0.036-0.293l2.046-1.181
					c0.149-0.087,0.377-0.096,0.507-0.021l2.118,1.224c0.13,0.075,0.114,0.206-0.036,0.293l-2.046,1.181
					C238.144,183.368,237.916,183.377,237.786,183.302z"/>
				<path fill="#396CAA" d="M221.01,181.864l0.043,0.024c0.071-0.051,0.138-0.104,0.22-0.151l14.784-8.535
					c1.085-0.626,2.727-0.694,3.666-0.152l15.268,8.815c0.866-0.62,0.911-1.464,0.043-1.966l-15.311-8.84
					c-0.939-0.542-2.581-0.475-3.666,0.152l-14.784,8.535C220.188,180.374,220.07,181.321,221.01,181.864z"/>
			</g>
		</g>
	</g>
	<g>
		<g>
			<g>
				<path fill="#B2D3EA" d="M176.263,312.856l-56.472-32.2c-2.065-1.193-1.807-3.275,0.578-4.652l32.492-18.76
					c2.385-1.377,5.992-1.526,8.058-0.334l56.472,32.201c2.065,1.191,1.807,3.275-0.578,4.651l-32.492,18.76
					C181.936,313.899,178.328,314.049,176.263,312.856z"/>
				<path fill="#396CAA" d="M222.426,278.271L222.426,278.271V146.436l-52.411-13.718l-9.653-5.573
					c-2.216-1.279-6.086-1.119-8.645,0.358l-9.007,5.2l-27.954-0.016l8.277,127.269c-0.063,0.866,0.42,1.701,1.484,2.315
					l52.303,39.466c2.216,1.278,6.086,1.118,8.644-0.358l34.857-20.125C221.797,280.402,222.509,279.299,222.426,278.271z"/>
				<path fill="#D4ECFF" d="M156.351,126.287c-1.622,0.04-3.305,0.448-4.634,1.216l-9.007,5.2l-27.954-0.016v132.19
					c-0.063,0.865,0.42,1.701,1.484,2.315l60.58,34.544c1.064,0.614,2.513,0.894,4.012,0.856l0.625-133.016L156.351,126.287z"/>
				<path fill="#5793CE" d="M177.377,302.01c1.911,0.818,4.675,0.772,6.909-0.079V168.005h-6.909V302.01z"/>
				<path fill="#D4ECFF" d="M176.82,169.593l-60.58-34.543c-2.216-1.279-1.938-3.513,0.62-4.991l34.856-20.124
					c2.559-1.477,6.429-1.638,8.645-0.358l60.58,34.543c2.216,1.279,1.938,3.514-0.62,4.991l-34.857,20.124
					C182.906,170.712,179.036,170.872,176.82,169.593z"/>
				<path fill="#FAFDFF" d="M220.321,146.659l-34.857,20.124c-2.558,1.478-6.428,1.638-8.644,0.358l-60.58-34.543
					c-0.494-0.285-0.857-0.62-1.105-0.981c-0.762,1.225-0.416,2.554,1.105,3.432l60.58,34.543c2.216,1.279,6.086,1.119,8.644-0.358
					l34.857-20.124c1.987-1.147,2.592-2.751,1.726-4.01C221.699,145.659,221.122,146.196,220.321,146.659z"/>
				<g>
					<path fill="#173D7A" d="M178.534,155.593l-40.333-23.38c-1.037-0.599-0.907-1.644,0.29-2.335l16.312-9.417
						c1.197-0.691,3.008-0.766,4.045-0.167l40.333,23.38c1.037,0.599,0.906,1.644-0.29,2.335l-16.312,9.417
						C181.382,156.116,179.571,156.191,178.534,155.593z"/>
					<g>
						<path fill="#D4ECFF" d="M156.76,133.263l-2.337-1.349c-0.144-0.083-0.126-0.228,0.04-0.323l2.257-1.303
							c0.165-0.096,0.416-0.106,0.56-0.023l2.337,1.35c0.144,0.083,0.125,0.227-0.04,0.323l-2.257,1.303
							C157.153,133.335,156.903,133.346,156.76,133.263z"/>
						<path fill="#D4ECFF" d="M164.567,137.753l-2.337-1.35c-0.144-0.083-0.125-0.228,0.04-0.323l2.257-1.303
							c0.166-0.096,0.416-0.106,0.56-0.023l2.338,1.35c0.143,0.083,0.125,0.228-0.041,0.323l-2.257,1.303
							C164.962,137.825,164.711,137.836,164.567,137.753z"/>
						<path fill="#D4ECFF" d="M172.376,142.242l-2.337-1.349c-0.144-0.083-0.126-0.228,0.04-0.323l2.257-1.303
							c0.165-0.096,0.416-0.106,0.56-0.023l2.337,1.349c0.144,0.083,0.125,0.228-0.04,0.323l-2.257,1.303
							C172.77,142.315,172.52,142.325,172.376,142.242z"/>
						<path fill="#D4ECFF" d="M180.184,146.732l-2.337-1.35c-0.144-0.083-0.125-0.228,0.04-0.323l2.257-1.303
							c0.166-0.096,0.416-0.106,0.56-0.023l2.338,1.35c0.143,0.083,0.125,0.228-0.041,0.323l-2.257,1.303
							C180.578,146.805,180.327,146.815,180.184,146.732z"/>
					</g>
					<path fill="#5793CE" d="M138.201,132.213l0.048,0.028c0.078-0.056,0.151-0.115,0.242-0.167l16.312-9.417
						c1.197-0.691,3.008-0.766,4.045-0.167l40.285,23.352c0.956-0.684,1.006-1.616,0.048-2.168l-40.333-23.38
						c-1.037-0.599-2.848-0.523-4.045,0.167l-16.312,9.417C137.294,130.569,137.164,131.614,138.201,132.213z"/>
				</g>
			</g>
			<g>
				<path fill="#173D7A" d="M192.271,195.713l22.932-13.13c1.291-0.745,2.337-2.744,2.337-4.465v-8.2
					c0-1.721-1.046-2.512-2.337-1.767l-22.932,13.13c-1.291,0.745-2.337,2.744-2.337,4.464v8.201
					C189.934,195.667,190.979,196.458,192.271,195.713z"/>
				<path fill="#FFFFFF" d="M216.338,167.904c0.36,0.34,0.586,0.919,0.586,1.707v8.201c0,1.72-1.046,3.719-2.337,4.464
					l-22.932,13.13c-0.414,0.239-0.798,0.305-1.135,0.247c0.428,0.404,1.049,0.465,1.75,0.061l22.932-13.13
					c1.291-0.745,2.337-2.744,2.337-4.465v-8.2C217.539,168.749,217.051,168.025,216.338,167.904z"/>
				<g>
					<path fill="#396CAA" d="M199.167,186.804l2.104-1.214c0.281-0.163,0.509-0.599,0.509-0.974v-2.247
						c0-0.375-0.228-0.547-0.509-0.385l-2.104,1.215c-0.28,0.162-0.509,0.598-0.509,0.973v2.247
						C198.658,186.794,198.887,186.967,199.167,186.804z"/>
					<path fill="#FFFFFF" d="M206.201,182.743l2.104-1.215c0.281-0.162,0.51-0.598,0.51-0.973v-2.247
						c0-0.375-0.229-0.548-0.51-0.385l-2.104,1.214c-0.281,0.163-0.509,0.599-0.509,0.974v2.247
						C205.692,182.733,205.92,182.905,206.201,182.743z"/>
				</g>
			</g>
			<g>
				<path fill="#173D7A" d="M192.271,254.973l22.932-13.13c1.291-0.745,2.337-2.743,2.337-4.464v-8.201
					c0-1.721-1.046-2.512-2.337-1.767l-22.932,13.13c-1.291,0.745-2.337,2.744-2.337,4.465v8.201
					C189.934,254.928,190.979,255.718,192.271,254.973z"/>
				<path fill="#FFFFFF" d="M216.338,227.164c0.36,0.34,0.586,0.92,0.586,1.706v8.201c0,1.721-1.046,3.72-2.337,4.464
					l-22.932,13.131c-0.414,0.238-0.798,0.304-1.135,0.246c0.428,0.404,1.049,0.465,1.75,0.061l22.932-13.13
					c1.291-0.745,2.337-2.743,2.337-4.464v-8.201C217.539,228.01,217.051,227.285,216.338,227.164z"/>
				<g>
					<path fill="#396CAA" d="M199.167,246.064l2.104-1.215c0.281-0.162,0.509-0.598,0.509-0.973v-2.247
						c0-0.375-0.228-0.548-0.509-0.385l-2.104,1.214c-0.28,0.162-0.509,0.599-0.509,0.974v2.247
						C198.658,246.055,198.887,246.227,199.167,246.064z"/>
					<path fill="#396CAA" d="M206.201,242.004l2.104-1.215c0.281-0.163,0.51-0.598,0.51-0.974v-2.247
						c0-0.375-0.229-0.547-0.51-0.385l-2.104,1.215c-0.281,0.162-0.509,0.598-0.509,0.973v2.247
						C205.692,241.993,205.92,242.166,206.201,242.004z"/>
				</g>
			</g>
			<g>
				<path fill="#173D7A" d="M192.271,284.604l22.932-13.131c1.291-0.744,2.337-2.743,2.337-4.464v-8.201
					c0-1.721-1.046-2.511-2.337-1.767l-22.932,13.131c-1.291,0.744-2.337,2.743-2.337,4.464v8.201
					C189.934,284.557,190.979,285.348,192.271,284.604z"/>
				<path fill="#FFFFFF" d="M216.338,256.794c0.36,0.341,0.586,0.92,0.586,1.706v8.201c0,1.721-1.046,3.72-2.337,4.465
					l-22.932,13.129c-0.414,0.24-0.798,0.305-1.135,0.248c0.428,0.403,1.049,0.465,1.75,0.061l22.932-13.131
					c1.291-0.744,2.337-2.743,2.337-4.464v-8.201C217.539,257.64,217.051,256.916,216.338,256.794z"/>
				<g>
					<path fill="#FFFFFF" d="M199.167,275.694l2.104-1.214c0.281-0.163,0.509-0.599,0.509-0.974v-2.247
						c0-0.375-0.228-0.547-0.509-0.385l-2.104,1.215c-0.28,0.162-0.509,0.598-0.509,0.973v2.247
						C198.658,275.685,198.887,275.857,199.167,275.694z"/>
					<path fill="#396CAA" d="M206.201,271.634l2.104-1.215c0.281-0.163,0.51-0.599,0.51-0.974v-2.246
						c0-0.375-0.229-0.548-0.51-0.385l-2.104,1.214c-0.281,0.162-0.509,0.598-0.509,0.974v2.246
						C205.692,271.623,205.92,271.796,206.201,271.634z"/>
				</g>
			</g>
			<g>
				<path fill="#173D7A" d="M192.271,225.343l22.932-13.13c1.291-0.745,2.337-2.744,2.337-4.465v-8.2
					c0-1.721-1.046-2.512-2.337-1.767l-22.932,13.13c-1.291,0.745-2.337,2.744-2.337,4.465v8.2
					C189.934,225.297,190.979,226.088,192.271,225.343z"/>
				<path fill="#FFFFFF" d="M216.338,197.534c0.36,0.34,0.586,0.919,0.586,1.706v8.201c0,1.721-1.046,3.719-2.337,4.464
					l-22.932,13.13c-0.414,0.239-0.798,0.305-1.135,0.247c0.428,0.404,1.049,0.465,1.75,0.061l22.932-13.13
					c1.291-0.745,2.337-2.744,2.337-4.465v-8.2C217.539,198.379,217.051,197.655,216.338,197.534z"/>
				<g>
					<path fill="#FFFFFF" d="M199.167,216.435l2.104-1.215c0.281-0.162,0.509-0.599,0.509-0.974V212
						c0-0.375-0.228-0.548-0.509-0.385l-2.104,1.214c-0.28,0.162-0.509,0.599-0.509,0.974v2.246
						C198.658,216.424,198.887,216.597,199.167,216.435z"/>
					<path fill="#FFFFFF" d="M206.201,212.373l2.104-1.215c0.281-0.162,0.51-0.598,0.51-0.973v-2.247
						c0-0.375-0.229-0.548-0.51-0.385l-2.104,1.214c-0.281,0.163-0.509,0.599-0.509,0.974v2.247
						C205.692,212.363,205.92,212.535,206.201,212.373z"/>
				</g>
			</g>
		</g>
		<g>
			<path fill="#5793CE" d="M172.408,187.318l-52.907-30.545c-1.184-0.684-2.144-2.518-2.144-4.097v-10.089
				c0-1.579,0.96-2.305,2.144-1.621l52.907,30.546c1.184,0.684,2.144,2.518,2.144,4.097v10.089
				C174.552,187.276,173.592,188.001,172.408,187.318z"/>
			<path opacity="0.4" fill="#D4ECFF" d="M170.889,183.78l-49.868-28.792c-0.602-0.347-1.089-1.277-1.089-2.078v-7.584
				c0-0.801,0.487-1.17,1.089-0.823l49.868,28.792c0.602,0.347,1.088,1.277,1.088,2.079v7.584
				C171.977,183.759,171.49,184.127,170.889,183.78z"/>
			<path fill="#D4ECFF" d="M131.413,157.155l-7.442-4.297c-0.584-0.337-1.057-1.241-1.057-2.018l0,0
				c0-0.778,0.473-1.136,1.057-0.799l7.442,4.297c0.583,0.337,1.056,1.24,1.056,2.019l0,0
				C132.469,157.134,131.996,157.491,131.413,157.155z"/>
			<path fill="#173D7A" d="M137.755,159.408c0,0.778-0.546,1.093-1.22,0.705c-0.674-0.389-1.22-1.335-1.22-2.113
				c0-0.777,0.546-1.093,1.22-0.704C137.209,157.684,137.755,158.63,137.755,159.408z"/>
			<path fill="#173D7A" d="M142.058,161.893c0,0.777-0.546,1.093-1.22,0.704c-0.674-0.389-1.22-1.335-1.22-2.113
				s0.546-1.093,1.22-0.705C141.512,160.168,142.058,161.114,142.058,161.893z"/>
			<path fill="#D4ECFF" d="M146.361,164.377c0,0.777-0.546,1.093-1.22,0.704s-1.22-1.335-1.22-2.113s0.546-1.093,1.22-0.705
				C145.815,162.653,146.361,163.599,146.361,164.377z"/>
			<path fill="#173D7A" d="M150.664,166.861c0,0.777-0.546,1.093-1.22,0.704s-1.22-1.335-1.22-2.112c0-0.778,0.546-1.094,1.22-0.705
				S150.664,166.083,150.664,166.861z"/>
			<path fill="#173D7A" d="M168.792,179.557l-2.507-1.448c-0.375-0.216-0.679-0.796-0.679-1.295v-2.652
				c0-0.499,0.304-0.729,0.679-0.513l2.507,1.447c0.374,0.217,0.678,0.796,0.678,1.296v2.652
				C169.47,179.544,169.166,179.773,168.792,179.557z"/>
		</g>
		<g>
			<path fill="#5793CE" d="M172.408,205.107l-52.907-30.545c-1.184-0.684-2.144-2.518-2.144-4.097v-10.088
				c0-1.579,0.96-2.305,2.144-1.621l52.907,30.546c1.184,0.684,2.144,2.518,2.144,4.097v10.088
				C174.552,205.066,173.592,205.791,172.408,205.107z"/>
			<path opacity="0.4" fill="#D4ECFF" d="M170.889,201.57l-49.868-28.792c-0.602-0.347-1.089-1.277-1.089-2.078v-7.584
				c0-0.801,0.487-1.17,1.089-0.823l49.868,28.792c0.602,0.347,1.088,1.278,1.088,2.079v7.584
				C171.977,201.549,171.49,201.917,170.889,201.57z"/>
			<path fill="#D4ECFF" d="M131.413,174.944l-7.442-4.296c-0.584-0.337-1.057-1.241-1.057-2.019l0,0
				c0-0.778,0.473-1.135,1.057-0.798l7.442,4.297c0.583,0.337,1.056,1.24,1.056,2.018l0,0
				C132.469,174.924,131.996,175.281,131.413,174.944z"/>
			<path fill="#FFFFFF" d="M137.755,177.198c0,0.778-0.546,1.093-1.22,0.705c-0.674-0.39-1.22-1.335-1.22-2.113
				c0-0.777,0.546-1.093,1.22-0.704C137.209,175.474,137.755,176.42,137.755,177.198z"/>
			<path fill="#173D7A" d="M142.058,179.682c0,0.778-0.546,1.093-1.22,0.705c-0.674-0.389-1.22-1.335-1.22-2.113
				s0.546-1.093,1.22-0.705C141.512,177.958,142.058,178.904,142.058,179.682z"/>
			<path fill="#D4ECFF" d="M146.361,182.167c0,0.777-0.546,1.093-1.22,0.704c-0.674-0.389-1.22-1.335-1.22-2.113
				s0.546-1.093,1.22-0.705C145.815,180.443,146.361,181.389,146.361,182.167z"/>
			<path fill="#173D7A" d="M150.664,184.651c0,0.777-0.546,1.093-1.22,0.704c-0.674-0.389-1.22-1.335-1.22-2.113
				s0.546-1.093,1.22-0.705C150.118,182.927,150.664,183.873,150.664,184.651z"/>
			<path fill="#173D7A" d="M168.792,197.347l-2.507-1.447c-0.375-0.216-0.679-0.796-0.679-1.295v-2.652
				c0-0.499,0.304-0.729,0.679-0.513l2.507,1.447c0.374,0.216,0.678,0.796,0.678,1.295v2.652
				C169.47,197.334,169.166,197.563,168.792,197.347z"/>
		</g>
		<g>
			<path fill="#5793CE" d="M172.408,222.898l-52.907-30.546c-1.184-0.684-2.144-2.518-2.144-4.097v-10.088
				c0-1.579,0.96-2.305,2.144-1.621l52.907,30.546c1.184,0.684,2.144,2.518,2.144,4.097v10.089
				C174.552,222.855,173.592,223.582,172.408,222.898z"/>
			<path opacity="0.4" fill="#D4ECFF" d="M170.889,219.36l-49.868-28.792c-0.602-0.347-1.089-1.277-1.089-2.078v-7.584
				c0-0.802,0.487-1.17,1.089-0.823l49.868,28.792c0.602,0.348,1.088,1.277,1.088,2.079v7.584
				C171.977,219.339,171.49,219.707,170.889,219.36z"/>
			<path fill="#D4ECFF" d="M131.413,192.734l-7.442-4.296c-0.584-0.337-1.057-1.241-1.057-2.019l0,0
				c0-0.778,0.473-1.135,1.057-0.798l7.442,4.297c0.583,0.337,1.056,1.24,1.056,2.018l0,0
				C132.469,192.714,131.996,193.071,131.413,192.734z"/>
			<path fill="#FFFFFF" d="M137.755,194.988c0,0.778-0.546,1.093-1.22,0.704s-1.22-1.334-1.22-2.113c0-0.777,0.546-1.093,1.22-0.704
				S137.755,194.21,137.755,194.988z"/>
			<path fill="#173D7A" d="M142.058,197.472c0,0.778-0.546,1.093-1.22,0.705c-0.674-0.39-1.22-1.335-1.22-2.113
				s0.546-1.093,1.22-0.705C141.512,195.749,142.058,196.694,142.058,197.472z"/>
			<path fill="#D4ECFF" d="M146.361,199.957c0,0.778-0.546,1.093-1.22,0.705c-0.674-0.389-1.22-1.335-1.22-2.113
				c0-0.777,0.546-1.093,1.22-0.704C145.815,198.233,146.361,199.179,146.361,199.957z"/>
			<path fill="#173D7A" d="M150.664,202.441c0,0.777-0.546,1.093-1.22,0.704c-0.674-0.39-1.22-1.335-1.22-2.113
				c0-0.777,0.546-1.093,1.22-0.704C150.118,200.717,150.664,201.663,150.664,202.441z"/>
			<path fill="#173D7A" d="M168.792,215.137l-2.507-1.447c-0.375-0.216-0.679-0.796-0.679-1.295v-2.652
				c0-0.499,0.304-0.729,0.679-0.513l2.507,1.447c0.374,0.216,0.678,0.796,0.678,1.296v2.652
				C169.47,215.123,169.166,215.354,168.792,215.137z"/>
		</g>
		<g>
			<path fill="#5793CE" d="M172.408,240.688l-52.907-30.545c-1.184-0.685-2.144-2.519-2.144-4.098v-10.088
				c0-1.579,0.96-2.305,2.144-1.621l52.907,30.546c1.184,0.684,2.144,2.518,2.144,4.097v10.088
				C174.552,240.646,173.592,241.371,172.408,240.688z"/>
			<path opacity="0.4" fill="#D4ECFF" d="M170.889,237.15l-49.868-28.792c-0.602-0.347-1.089-1.277-1.089-2.078v-7.585
				c0-0.801,0.487-1.169,1.089-0.822l49.868,28.792c0.602,0.347,1.088,1.277,1.088,2.079v7.584
				C171.977,237.129,171.49,237.497,170.889,237.15z"/>
			<path fill="#D4ECFF" d="M131.413,210.524l-7.442-4.297c-0.584-0.337-1.057-1.24-1.057-2.019l0,0c0-0.777,0.473-1.135,1.057-0.798
				l7.442,4.296c0.583,0.338,1.056,1.241,1.056,2.019l0,0C132.469,210.504,131.996,210.861,131.413,210.524z"/>
			<path fill="#173D7A" d="M137.755,212.777c0,0.778-0.546,1.094-1.22,0.705c-0.674-0.39-1.22-1.336-1.22-2.113
				s0.546-1.093,1.22-0.704S137.755,212,137.755,212.777z"/>
			<path fill="#173D7A" d="M142.058,215.262c0,0.778-0.546,1.094-1.22,0.705c-0.674-0.39-1.22-1.335-1.22-2.113
				c0-0.777,0.546-1.093,1.22-0.704S142.058,214.484,142.058,215.262z"/>
			<path fill="#D4ECFF" d="M146.361,217.746c0,0.778-0.546,1.094-1.22,0.705c-0.674-0.39-1.22-1.335-1.22-2.113
				c0-0.777,0.546-1.093,1.22-0.704S146.361,216.969,146.361,217.746z"/>
			<path fill="#173D7A" d="M150.664,220.23c0,0.778-0.546,1.094-1.22,0.705s-1.22-1.335-1.22-2.113c0-0.777,0.546-1.093,1.22-0.704
				C150.118,218.508,150.664,219.453,150.664,220.23z"/>
			<path fill="#D4ECFF" d="M168.792,232.927l-2.507-1.447c-0.375-0.216-0.679-0.796-0.679-1.295v-2.652
				c0-0.499,0.304-0.729,0.679-0.513l2.507,1.447c0.374,0.216,0.678,0.796,0.678,1.295v2.652
				C169.47,232.914,169.166,233.143,168.792,232.927z"/>
		</g>
		<g>
			<path fill="#5793CE" d="M172.408,258.478l-52.907-30.546c-1.184-0.684-2.144-2.518-2.144-4.097v-10.088
				c0-1.579,0.96-2.305,2.144-1.621l52.907,30.546c1.184,0.684,2.144,2.518,2.144,4.097v10.089
				C174.552,258.436,173.592,259.161,172.408,258.478z"/>
			<path opacity="0.4" fill="#D4ECFF" d="M170.889,254.94l-49.868-28.792c-0.602-0.347-1.089-1.277-1.089-2.078v-7.585
				c0-0.801,0.487-1.169,1.089-0.822l49.868,28.792c0.602,0.347,1.088,1.277,1.088,2.078v7.585
				C171.977,254.919,171.49,255.287,170.889,254.94z"/>
			<path fill="#D4ECFF" d="M131.413,228.314l-7.442-4.297c-0.584-0.337-1.057-1.24-1.057-2.019l0,0c0-0.777,0.473-1.136,1.057-0.798
				l7.442,4.297c0.583,0.336,1.056,1.24,1.056,2.018l0,0C132.469,228.294,131.996,228.651,131.413,228.314z"/>
			<path fill="#173D7A" d="M137.755,230.567c0,0.778-0.546,1.094-1.22,0.704c-0.674-0.389-1.22-1.334-1.22-2.112
				s0.546-1.093,1.22-0.704S137.755,229.789,137.755,230.567z"/>
			<path fill="#FFFFFF" d="M142.058,233.052c0,0.778-0.546,1.094-1.22,0.704c-0.674-0.389-1.22-1.334-1.22-2.112
				c0-0.777,0.546-1.093,1.22-0.704S142.058,232.274,142.058,233.052z"/>
			<path fill="#D4ECFF" d="M146.361,235.537c0,0.777-0.546,1.093-1.22,0.704c-0.674-0.39-1.22-1.335-1.22-2.113
				s0.546-1.093,1.22-0.704S146.361,234.759,146.361,235.537z"/>
			<path fill="#FFFFFF" d="M150.664,238.021c0,0.777-0.546,1.093-1.22,0.703c-0.674-0.389-1.22-1.334-1.22-2.112
				c0-0.777,0.546-1.093,1.22-0.704S150.664,237.243,150.664,238.021z"/>
			<path fill="#D4ECFF" d="M168.792,250.717l-2.507-1.447c-0.375-0.217-0.679-0.796-0.679-1.295v-2.652
				c0-0.5,0.304-0.729,0.679-0.513l2.507,1.447c0.374,0.216,0.678,0.796,0.678,1.295v2.652
				C169.47,250.703,169.166,250.934,168.792,250.717z"/>
		</g>
		<g>
			<path fill="#5793CE" d="M172.408,276.268l-52.907-30.546c-1.184-0.684-2.144-2.518-2.144-4.097v-10.088
				c0-1.579,0.96-2.305,2.144-1.621l52.907,30.545c1.184,0.685,2.144,2.519,2.144,4.098v10.088
				C174.552,276.226,173.592,276.951,172.408,276.268z"/>
			<path opacity="0.4" fill="#D4ECFF" d="M170.889,272.73l-49.868-28.792c-0.602-0.347-1.089-1.277-1.089-2.079v-7.584
				c0-0.801,0.487-1.169,1.089-0.822l49.868,28.792c0.602,0.347,1.088,1.277,1.088,2.078v7.585
				C171.977,272.709,171.49,273.077,170.889,272.73z"/>
			<path fill="#D4ECFF" d="M131.413,246.104l-7.442-4.297c-0.584-0.337-1.057-1.24-1.057-2.019l0,0c0-0.777,0.473-1.135,1.057-0.799
				l7.442,4.297c0.583,0.337,1.056,1.24,1.056,2.019l0,0C132.469,246.084,131.996,246.441,131.413,246.104z"/>
			<path fill="#173D7A" d="M137.755,248.357c0,0.778-0.546,1.094-1.22,0.704c-0.674-0.389-1.22-1.335-1.22-2.112
				c0-0.778,0.546-1.094,1.22-0.704C137.209,246.634,137.755,247.58,137.755,248.357z"/>
			<path fill="#173D7A" d="M142.058,250.842c0,0.778-0.546,1.094-1.22,0.704c-0.674-0.389-1.22-1.335-1.22-2.112
				c0-0.778,0.546-1.094,1.22-0.704C141.512,249.118,142.058,250.064,142.058,250.842z"/>
			<path fill="#D4ECFF" d="M146.361,253.326c0,0.778-0.546,1.094-1.22,0.704c-0.674-0.389-1.22-1.335-1.22-2.112
				s0.546-1.094,1.22-0.704C145.815,251.603,146.361,252.549,146.361,253.326z"/>
			<path fill="#173D7A" d="M150.664,255.811c0,0.778-0.546,1.094-1.22,0.705c-0.674-0.39-1.22-1.336-1.22-2.113
				s0.546-1.093,1.22-0.704S150.664,255.033,150.664,255.811z"/>
			<path fill="#173D7A" d="M168.792,268.507l-2.507-1.447c-0.375-0.216-0.679-0.796-0.679-1.296v-2.652
				c0-0.499,0.304-0.729,0.679-0.512l2.507,1.447c0.374,0.216,0.678,0.796,0.678,1.295v2.652
				C169.47,268.493,169.166,268.723,168.792,268.507z"/>
		</g>
		<g>
			<path fill="#5793CE" d="M172.408,294.058l-52.907-30.546c-1.184-0.684-2.144-2.518-2.144-4.097v-10.088
				c0-1.579,0.96-2.305,2.144-1.621l52.907,30.546c1.184,0.684,2.144,2.518,2.144,4.096v10.089
				C174.552,294.016,173.592,294.741,172.408,294.058z"/>
			<path opacity="0.4" fill="#D4ECFF" d="M170.889,290.521l-49.868-28.792c-0.602-0.348-1.089-1.277-1.089-2.078v-7.585
				c0-0.801,0.487-1.169,1.089-0.822l49.868,28.792c0.602,0.347,1.088,1.277,1.088,2.078v7.584
				C171.977,290.499,171.49,290.867,170.889,290.521z"/>
			<path fill="#D4ECFF" d="M131.413,263.895l-7.442-4.297c-0.584-0.337-1.057-1.24-1.057-2.019l0,0c0-0.778,0.473-1.136,1.057-0.799
				l7.442,4.297c0.583,0.337,1.056,1.241,1.056,2.019l0,0C132.469,263.873,131.996,264.231,131.413,263.895z"/>
			<path fill="#FFFFFF" d="M137.755,266.147c0,0.778-0.546,1.093-1.22,0.704s-1.22-1.335-1.22-2.112c0-0.778,0.546-1.094,1.22-0.704
				C137.209,264.424,137.755,265.369,137.755,266.147z"/>
			<path fill="#173D7A" d="M142.058,268.632c0,0.778-0.546,1.093-1.22,0.704s-1.22-1.335-1.22-2.112c0-0.778,0.546-1.093,1.22-0.704
				S142.058,267.854,142.058,268.632z"/>
			<path fill="#D4ECFF" d="M146.361,271.116c0,0.778-0.546,1.093-1.22,0.704s-1.22-1.334-1.22-2.112s0.546-1.093,1.22-0.704
				S146.361,270.339,146.361,271.116z"/>
			<path fill="#173D7A" d="M150.664,273.601c0,0.778-0.546,1.094-1.22,0.704c-0.674-0.389-1.22-1.334-1.22-2.112
				s0.546-1.093,1.22-0.704S150.664,272.823,150.664,273.601z"/>
			<path fill="#D4ECFF" d="M168.792,286.297l-2.507-1.447c-0.375-0.217-0.679-0.797-0.679-1.296v-2.651
				c0-0.5,0.304-0.729,0.679-0.514l2.507,1.447c0.374,0.217,0.678,0.797,0.678,1.296v2.652
				C169.47,286.283,169.166,286.513,168.792,286.297z"/>
		</g>
	</g>
	<g>
		<path fill="#5793CE" d="M157.02,132.011c-0.441,0-0.799-0.357-0.799-0.799V98.324c0-0.441,0.357-0.798,0.799-0.798
			s0.799,0.357,0.799,0.798v32.888C157.818,131.653,157.461,132.011,157.02,132.011z"/>
		<g>
			<g>
				<rect x="154.162" y="96.256" fill="#5793CE" width="5.714" height="12.33"/>
				<path fill="#5793CE" d="M159.039,109.752c-1.115,0.644-2.924,0.644-4.04,0c-1.115-0.644-1.115-1.688,0-2.332
					c1.116-0.645,2.925-0.645,4.04,0C160.155,108.063,160.155,109.108,159.039,109.752z"/>
			</g>
			<g>
				<rect x="152.39" y="79.072" fill="#5793CE" width="9.259" height="19.338"/>
				<path fill="#396CAA" d="M154.162,98.284v4.173c1.677,0.766,4.037,0.766,5.714,0v-4.173
					C158.199,97.519,155.839,97.519,154.162,98.284z"/>
				<path fill="#5793CE" d="M160.293,100.3c-1.808,1.044-4.739,1.044-6.547,0c-1.808-1.043-1.809-2.736,0-3.779
					c1.808-1.044,4.738-1.044,6.547,0C162.101,97.564,162.101,99.256,160.293,100.3z"/>
			</g>
		</g>
	</g>
	<g>
		<path fill="#5793CE" d="M164.827,136.673c-0.441,0-0.799-0.357-0.799-0.799v-32.888c0-0.441,0.357-0.799,0.799-0.799
			s0.799,0.357,0.799,0.799v32.888C165.626,136.316,165.269,136.673,164.827,136.673z"/>
		<g>
			<g>
				<rect x="161.971" y="100.919" fill="#5793CE" width="5.714" height="12.33"/>
				<path fill="#5793CE" d="M166.848,114.415c-1.115,0.644-2.925,0.644-4.04,0c-1.116-0.645-1.116-1.688,0-2.333
					c1.115-0.644,2.924-0.644,4.04,0C167.963,112.727,167.963,113.771,166.848,114.415z"/>
			</g>
			<g>
				<rect x="160.198" y="83.734" fill="#5793CE" width="9.259" height="19.338"/>
				<path fill="#396CAA" d="M161.971,102.947v4.172c1.677,0.767,4.037,0.767,5.714,0v-4.173
					C166.008,102.181,163.647,102.181,161.971,102.947z"/>
				<path fill="#5793CE" d="M168.101,104.963c-1.808,1.043-4.738,1.043-6.547,0c-1.808-1.044-1.808-2.736,0-3.78
					s4.739-1.044,6.547,0C169.909,102.227,169.909,103.919,168.101,104.963z"/>
			</g>
		</g>
	</g>
	<g>
		<path fill="#5793CE" d="M172.636,141.336c-0.441,0-0.799-0.357-0.799-0.799v-32.888c0-0.441,0.357-0.799,0.799-0.799
			s0.799,0.357,0.799,0.799v32.888C173.435,140.979,173.077,141.336,172.636,141.336z"/>
		<g>
			<g>
				<rect x="169.778" y="105.581" fill="#5793CE" width="5.714" height="12.33"/>
				<path fill="#5793CE" d="M174.655,119.077c-1.115,0.645-2.924,0.645-4.04,0c-1.115-0.644-1.115-1.688,0-2.333
					c1.116-0.644,2.925-0.644,4.04,0C175.771,117.389,175.771,118.433,174.655,119.077z"/>
			</g>
			<g>
				<rect x="168.006" y="88.396" fill="#5793CE" width="9.259" height="19.339"/>
				<path fill="#396CAA" d="M169.778,107.609v4.173c1.677,0.766,4.037,0.766,5.714,0v-4.173
					C173.815,106.844,171.455,106.844,169.778,107.609z"/>
				<path fill="#5793CE" d="M175.909,109.625c-1.808,1.044-4.739,1.044-6.547,0s-1.809-2.736,0-3.78
					c1.808-1.044,4.738-1.044,6.547,0C177.717,106.889,177.717,108.581,175.909,109.625z"/>
			</g>
		</g>
	</g>
	<g>
		<path fill="#5793CE" d="M180.443,145.998c-0.441,0-0.799-0.357-0.799-0.799v-32.888c0-0.441,0.357-0.799,0.799-0.799
			s0.799,0.357,0.799,0.799v32.888C181.242,145.641,180.885,145.998,180.443,145.998z"/>
		<g>
			<g>
				<rect x="177.587" y="110.243" fill="#5793CE" width="5.714" height="12.33"/>
				<path fill="#5793CE" d="M182.464,123.74c-1.116,0.644-2.925,0.644-4.04,0c-1.116-0.644-1.116-1.689,0-2.333
					c1.115-0.645,2.924-0.645,4.04,0C183.579,122.051,183.579,123.096,182.464,123.74z"/>
			</g>
			<g>
				<rect x="175.814" y="93.06" fill="#5793CE" width="9.259" height="19.338"/>
				<path fill="#396CAA" d="M177.587,112.272v4.172c1.677,0.766,4.037,0.766,5.714,0v-4.172
					C181.624,111.506,179.264,111.506,177.587,112.272z"/>
				<path fill="#5793CE" d="M183.717,114.287c-1.808,1.044-4.738,1.044-6.547,0c-1.808-1.043-1.808-2.736,0-3.779
					c1.808-1.044,4.739-1.044,6.547,0C185.525,111.552,185.525,113.244,183.717,114.287z"/>
			</g>
		</g>
	</g>
	<g>
		<g>
			<polygon fill="#5793CE" points="216.732,128.415 229.146,121.104 217.324,106.348 214.216,111.426 			"/>
			<path fill="#5793CE" d="M126.593,47.43l19.813-11.398c0,0-0.745,11.375-0.745,11.398s-11.382,3.525-11.382,3.525L126.593,47.43z"
				/>
			<path fill="#5793CE" d="M220.183,91.31c-1.508-0.871-2.947-1.379-4.286-1.589c-1.998-10.498-9.303-21.647-18.014-26.676
				c-2.619-1.512-5.111-2.321-7.371-2.495c-1.189-12.725-10.037-27.187-20.781-33.389c-5.612-3.241-10.704-3.624-14.462-1.639
				l0.001-0.01l-0.183,0.105c-0.096,0.053-0.191,0.108-0.285,0.164l-11.684,6.9l3.883,3.066c-3.485,1.522-5.688,5.431-5.688,11.208
				c0,10.654,7.479,23.609,16.706,28.936l62.163,44.389c6.929,4,12.545,0.758,12.545-7.242S227.111,95.31,220.183,91.31z"/>
			<path fill="#5793CE" d="M141.89,42.265l26.815-15.667c-5.206-2.715-9.909-2.939-13.437-1.076l0.001-0.01l-0.183,0.105
				c-0.096,0.053-0.191,0.108-0.285,0.164l-11.684,6.9l3.883,3.066C144.564,36.812,142.759,39.045,141.89,42.265z"/>
			<path fill="#5793CE" d="M191.41,88.354l19.565-11.481c-3.356-5.805-7.977-10.875-13.093-13.829
				c-0.677-0.391-1.345-0.733-2.003-1.031l-24.886,14.554L191.41,88.354z"/>
			<path fill="#D4ECFF" d="M148.631,33.962l8.72,5.034l15.968-9.404c-1.166-0.906-2.364-1.725-3.588-2.431
				c-1.934-1.117-3.803-1.886-5.58-2.344L148.631,33.962z"/>
			<path fill="#D4ECFF" d="M208.817,73.495l-15.615,9.201l5.431,6.058l14.176-8.37C211.688,77.982,210.341,75.661,208.817,73.495z"
				/>
			<path fill="#D4ECFF" d="M207.917,98.535c-1.508-0.871-2.947-1.379-4.287-1.589c-1.997-10.498-9.303-21.647-18.013-26.677
				c-2.62-1.512-5.111-2.32-7.371-2.494c-1.189-12.725-10.037-27.187-20.781-33.39c-11.555-6.671-20.922-1.264-20.922,12.078
				c0,0.453,0.013,0.909,0.034,1.368c-8.449-3.919-15.052,0.497-15.052,10.506c0,10.653,7.48,23.608,16.707,28.936l69.685,40.232
				c6.929,4,12.545,0.758,12.545-7.243C220.462,112.263,214.846,102.535,207.917,98.535z"/>
			<g>
				<path fill="#FFFFFF" d="M136.577,47.832c-0.021-0.459-0.034-0.915-0.034-1.368c0-0.019,0.001-0.037,0.001-0.056
					c-4.668-1.815-8.679-1.025-11.196,1.887C128.082,46.044,132.06,45.737,136.577,47.832z"/>
				<path fill="#FFFFFF" d="M208.938,97.541c-1.509-0.871-2.948-1.378-4.287-1.588c-1.997-10.499-9.303-21.647-18.013-26.677
					c-2.62-1.513-5.111-2.32-7.372-2.494c-1.188-12.726-10.036-27.187-20.78-33.39c-7.199-4.156-13.548-3.623-17.312,0.596
					c3.835-3.277,9.706-3.403,16.291,0.398c10.744,6.203,19.592,20.665,20.781,33.39c2.26,0.174,4.751,0.982,7.371,2.494
					c8.71,5.029,16.016,16.178,18.013,26.677c1.34,0.21,2.779,0.718,4.287,1.589c6.929,4,12.545,13.728,12.545,21.728
					c0,2.887-0.739,5.143-2,6.674c1.879-1.448,3.021-4.072,3.021-7.668C221.482,111.269,215.865,101.541,208.938,97.541z"/>
			</g>
			<g>
				<path fill="#396CAA" d="M135.104,51.01l5.238,2.429l-0.267-5.768c-0.019-0.405-0.03-0.807-0.03-1.207
					c0-5.148,1.555-8.881,4.377-10.511c2.822-1.628,6.833-1.108,11.292,1.466c9.589,5.536,17.954,19.014,19.045,30.682l0.274,2.94
					l2.944,0.227c1.81,0.139,3.79,0.823,5.889,2.035c7.616,4.397,14.481,14.616,16.323,24.298l0.461,2.424l2.438,0.381
					c0.971,0.153,2.006,0.543,3.078,1.163c5.851,3.378,10.794,11.939,10.794,18.694c0,2.528-0.701,4.384-1.924,5.089
					c-1.221,0.705-3.178,0.385-5.368-0.879L139.983,84.24c-8.106-4.68-14.955-16.542-14.955-25.903c0-3.673,1.083-6.471,2.972-7.678
					c0.777-0.496,1.718-0.743,2.777-0.743C132.067,49.917,133.535,50.282,135.104,51.01z"/>
			</g>
		</g>
		<g>
			<polygon fill="#5793CE" points="169.883,94.684 171.721,93.761 169.911,92.39 			"/>
			<polygon fill="#5793CE" points="164.361,69.852 166.146,68.949 166.179,69.883 			"/>
			<polygon fill="#5793CE" points="175.127,88.879 176.989,87.942 173.404,84.533 			"/>
			<g>
				<path fill="#5793CE" d="M171.183,93.702l-8.703-5.126c-0.441-0.26-0.798-0.916-0.797-1.464l0.028-10.075l10.303,6.068
					l-0.028,10.076C171.984,93.729,171.625,93.962,171.183,93.702z"/>
				<path fill="#5793CE" d="M166.127,68.96l-9.399,6.048c-0.399,0.257-0.077,1.214,0.529,1.57l9.6,5.654l9.601,5.654
					c0.605,0.356,0.933-0.218,0.536-0.943l-9.334-17.083C167.256,69.125,166.533,68.699,166.127,68.96z"/>
			</g>
			<g>
				<path fill="#D4ECFF" d="M169.316,94.642l-8.703-5.126c-0.441-0.26-0.799-0.915-0.797-1.463l0.028-10.076l10.303,6.068
					l-0.028,10.076C170.117,94.668,169.758,94.902,169.316,94.642z"/>
				<path fill="#D4ECFF" d="M164.261,69.9l-9.399,6.049c-0.399,0.256-0.077,1.213,0.528,1.57l9.601,5.654l9.6,5.654
					c0.606,0.357,0.933-0.218,0.537-0.942l-9.335-17.083C165.389,70.064,164.667,69.639,164.261,69.9z"/>
			</g>
		</g>
	</g>
	<polygon fill="#FFFFFF" points="200.752,273.284 199.686,273.284 199.686,213.717 206.72,209.655 206.72,180.333 207.786,180.333 
		207.786,210.271 200.752,214.332 	"/>
	<g>
		<path fill="#B2D3EA" d="M31.653,286.153c-0.62,0-1.24-0.159-1.802-0.478L10.415,274.67c-0.59-0.333-0.944-0.938-0.948-1.615
			c-0.002-0.678,0.346-1.285,0.932-1.624l48.482-28.045c2.782-1.608,6.238-1.605,9.019-0.001l55.415,32.028l-0.801,1.386
			L67.1,244.77c-2.287-1.32-5.13-1.32-7.419,0l-48.481,28.044c-0.117,0.068-0.134,0.177-0.134,0.233
			c0,0.059,0.019,0.166,0.136,0.232l19.438,11.006c0.67,0.379,1.484,0.356,2.13-0.063l8.214-5.311l0.868,1.342l-8.214,5.313
			C33.032,285.957,32.344,286.153,31.653,286.153z"/>
	</g>
	<g>
		<path fill="#B2D3EA" d="M56.963,290.406l-26.129-15.085c-1.604-0.927-1.402-2.544,0.449-3.612l25.229-14.566
			c1.852-1.068,4.652-1.186,6.256-0.259l26.129,15.085c1.604,0.926,1.402,2.543-0.449,3.612l-25.229,14.565
			C61.367,291.216,58.566,291.332,56.963,290.406z"/>
		<g>
			<path fill="#396CAA" d="M97.565,260.479L97.565,260.479v-11.289l-25.314-0.014l-8.75-5.053c-2.008-1.159-5.516-1.014-7.834,0.325
				l-8.164,4.714l-25.337-0.015v11.61c-0.057,0.785,0.38,1.542,1.345,2.1l32.719,18.89c2.008,1.159,5.516,1.014,7.834-0.325
				l31.593-18.239C96.995,262.41,97.641,261.41,97.565,260.479z"/>
			<path fill="#396CAA" d="M59.866,243.347c-1.47,0.036-2.994,0.406-4.199,1.102l-8.164,4.714l-25.337-0.015v11.61
				c-0.057,0.785,0.38,1.542,1.345,2.1l32.719,18.89c0.965,0.558,2.276,0.81,3.636,0.776V243.347z"/>
			<path fill="#5793CE" d="M25.034,249.148l-2.868-0.001v11.61c-0.057,0.785,0.38,1.542,1.345,2.1l1.522,0.878V249.148z"/>
			<path fill="#5793CE" d="M56.734,281.994c1.732,0.742,4.237,0.7,6.263-0.072v-13.183h-6.263V281.994z"/>
			<path fill="#D4ECFF" d="M56.23,270.179l-32.719-18.891c-2.008-1.159-1.756-3.185,0.563-4.522l31.593-18.24
				c2.318-1.339,5.826-1.484,7.834-0.325l32.719,18.891c2.009,1.159,1.757,3.185-0.563,4.523l-31.593,18.239
				C61.746,271.192,58.238,271.338,56.23,270.179z"/>
			<path fill="#5793CE" d="M56.819,266.778l-27.418-15.83c-1.683-0.972-1.472-2.669,0.471-3.79l26.475-15.285
				c1.943-1.122,4.883-1.244,6.565-0.272l27.419,15.83c1.683,0.972,1.472,2.669-0.472,3.79l-26.475,15.285
				C61.441,267.628,58.502,267.75,56.819,266.778z"/>
			<g>
				<path fill="#D4ECFF" d="M85.531,263.458c0,0.843-0.592,1.867-1.322,2.289c-0.729,0.421-1.321,0.08-1.321-0.763
					c0-0.844,0.592-1.868,1.321-2.289C84.939,262.273,85.531,262.615,85.531,263.458z"/>
				<path fill="#D4ECFF" d="M89.783,261.003c0,0.843-0.592,1.868-1.322,2.289c-0.729,0.421-1.321,0.08-1.321-0.763
					s0.592-1.867,1.321-2.289C89.191,259.818,89.783,260.16,89.783,261.003z"/>
				<path fill="#D4ECFF" d="M94.034,258.549c0,0.842-0.591,1.867-1.321,2.288c-0.729,0.422-1.321,0.08-1.321-0.763
					s0.592-1.867,1.321-2.289C93.443,257.364,94.034,257.705,94.034,258.549z"/>
			</g>
		</g>
		<g>
			<path fill="#396CAA" d="M97.565,242.438L97.565,242.438v-11.289l-25.314-0.014l-8.75-5.053c-2.008-1.158-5.516-1.014-7.834,0.325
				l-8.164,4.714l-25.337-0.015v11.61c-0.057,0.785,0.38,1.542,1.345,2.1l32.719,18.89c2.008,1.159,5.516,1.014,7.834-0.325
				l31.593-18.239C96.995,244.369,97.641,243.369,97.565,242.438z"/>
			<path fill="#396CAA" d="M59.866,225.306c-1.47,0.036-2.994,0.406-4.199,1.102l-8.164,4.714l-25.337-0.015v11.61
				c-0.057,0.785,0.38,1.542,1.345,2.1l32.719,18.89c0.965,0.558,2.276,0.81,3.636,0.776V225.306z"/>
			<path fill="#5793CE" d="M25.034,231.107l-2.868-0.001v11.61c-0.057,0.785,0.38,1.542,1.345,2.1l1.522,0.879V231.107z"/>
			<path fill="#5793CE" d="M56.734,263.953c1.732,0.742,4.237,0.7,6.263-0.072v-13.182h-6.263V263.953z"/>
			<path fill="#D4ECFF" d="M56.23,252.138l-32.719-18.891c-2.008-1.159-1.756-3.185,0.563-4.522l31.593-18.24
				c2.318-1.339,5.826-1.484,7.834-0.325L96.22,229.05c2.009,1.159,1.757,3.185-0.563,4.522l-31.593,18.24
				C61.746,253.151,58.238,253.297,56.23,252.138z"/>
			<path fill="#5793CE" d="M56.819,248.737l-27.418-15.83c-1.683-0.972-1.472-2.669,0.471-3.79l26.475-15.285
				c1.943-1.122,4.883-1.244,6.565-0.272l27.419,15.83c1.683,0.972,1.472,2.669-0.472,3.79l-26.475,15.285
				C61.441,249.587,58.502,249.709,56.819,248.737z"/>
			<g>
				<path fill="#D4ECFF" d="M85.531,245.417c0,0.843-0.592,1.867-1.322,2.289c-0.729,0.421-1.321,0.08-1.321-0.763
					s0.592-1.868,1.321-2.289C84.939,244.232,85.531,244.574,85.531,245.417z"/>
				<path fill="#D4ECFF" d="M89.783,242.962c0,0.843-0.592,1.868-1.322,2.289c-0.729,0.422-1.321,0.08-1.321-0.763
					s0.592-1.867,1.321-2.289C89.191,241.777,89.783,242.119,89.783,242.962z"/>
				<path fill="#D4ECFF" d="M94.034,240.508c0,0.842-0.591,1.867-1.321,2.289c-0.729,0.421-1.321,0.079-1.321-0.764
					s0.592-1.867,1.321-2.289C93.443,239.323,94.034,239.664,94.034,240.508z"/>
			</g>
		</g>
		<g>
			<path fill="#396CAA" d="M97.565,224.396L97.565,224.396v-11.289l-25.314-0.014l-8.75-5.052c-2.008-1.159-5.516-1.015-7.834,0.324
				l-8.164,4.714l-25.337-0.015v11.61c-0.057,0.785,0.38,1.542,1.345,2.1l32.719,18.89c2.008,1.159,5.516,1.014,7.834-0.325
				l31.593-18.239C96.995,226.328,97.641,225.328,97.565,224.396z"/>
			<path fill="#396CAA" d="M59.866,207.265c-1.47,0.036-2.994,0.406-4.199,1.102l-8.164,4.714l-25.337-0.015v11.61
				c-0.057,0.785,0.38,1.542,1.345,2.1l32.719,18.89c0.965,0.558,2.276,0.81,3.636,0.776V207.265z"/>
			<path fill="#5793CE" d="M25.034,213.067l-2.868-0.002v11.61c-0.057,0.785,0.38,1.542,1.345,2.1l1.522,0.879V213.067z"/>
			<path fill="#5793CE" d="M56.734,245.912c1.732,0.742,4.237,0.7,6.263-0.072v-13.182h-6.263V245.912z"/>
			<path fill="#D4ECFF" d="M56.23,234.097l-32.719-18.89c-2.008-1.16-1.756-3.186,0.563-4.523l31.593-18.24
				c2.318-1.339,5.826-1.484,7.834-0.325l32.719,18.891c2.009,1.159,1.757,3.185-0.563,4.522l-31.593,18.24
				C61.746,235.11,58.238,235.256,56.23,234.097z"/>
			<path fill="#FFFFFF" d="M95.657,213.311L64.064,231.55c-2.318,1.339-5.826,1.484-7.834,0.325l-32.719-18.891
				c-0.448-0.258-0.777-0.561-1.002-0.889c-0.69,1.11-0.377,2.314,1.002,3.11l32.719,18.891c2.008,1.159,5.516,1.014,7.834-0.325
				l31.593-18.24c1.802-1.039,2.35-2.492,1.564-3.634C96.907,212.404,96.384,212.891,95.657,213.311z"/>
			<g>
				<path fill="#D4ECFF" d="M85.531,227.376c0,0.843-0.592,1.867-1.322,2.289c-0.729,0.421-1.321,0.08-1.321-0.763
					s0.592-1.868,1.321-2.289C84.939,226.191,85.531,226.533,85.531,227.376z"/>
				<path fill="#D4ECFF" d="M89.783,224.921c0,0.843-0.592,1.868-1.322,2.289c-0.729,0.422-1.321,0.08-1.321-0.763
					s0.592-1.867,1.321-2.289C89.191,223.736,89.783,224.078,89.783,224.921z"/>
				<path fill="#D4ECFF" d="M94.034,222.467c0,0.842-0.591,1.867-1.321,2.289c-0.729,0.421-1.321,0.079-1.321-0.764
					s0.592-1.867,1.321-2.289C93.443,221.282,94.034,221.623,94.034,222.467z"/>
			</g>
			<g>
				<path fill="#5793CE" d="M58.165,222.385l-15.311-8.84c-0.94-0.542-0.822-1.49,0.263-2.116l14.784-8.535
					c1.085-0.627,2.727-0.694,3.666-0.152l15.311,8.84c0.94,0.542,0.822,1.49-0.263,2.116l-14.784,8.535
					C60.746,222.859,59.104,222.928,58.165,222.385z"/>
				<path fill="#D4ECFF" d="M59.631,214.983l-2.118-1.223c-0.13-0.075-0.113-0.206,0.036-0.293l2.046-1.181
					c0.149-0.087,0.377-0.096,0.507-0.021l2.118,1.223c0.13,0.075,0.114,0.207-0.036,0.293l-2.046,1.182
					C59.988,215.049,59.761,215.059,59.631,214.983z"/>
				<path fill="#396CAA" d="M42.854,213.545l0.043,0.025c0.071-0.051,0.137-0.104,0.22-0.151l14.784-8.535
					c1.085-0.626,2.727-0.694,3.666-0.151l15.268,8.814c0.866-0.621,0.911-1.465,0.043-1.966l-15.311-8.84
					c-0.939-0.542-2.581-0.475-3.666,0.152l-14.784,8.535C42.033,212.055,41.915,213.003,42.854,213.545z"/>
			</g>
		</g>
		<g>
			<path fill="#D4ECFF" d="M54.122,237.396c0,0.567-0.398,0.797-0.89,0.514c-0.491-0.284-0.89-0.974-0.89-1.54
				c0-0.567,0.398-0.797,0.89-0.514S54.122,236.828,54.122,237.396z"/>
			<path fill="#D4ECFF" d="M51.363,235.813c0,0.567-0.398,0.797-0.89,0.514c-0.491-0.284-0.89-0.974-0.89-1.541
				s0.398-0.797,0.89-0.513C50.965,234.557,51.363,235.246,51.363,235.813z"/>
			<path fill="#D4ECFF" d="M54.122,240.725c0,0.567-0.398,0.797-0.89,0.514s-0.89-0.973-0.89-1.54s0.398-0.797,0.89-0.514
				C53.724,239.469,54.122,240.158,54.122,240.725z"/>
			<path fill="#D4ECFF" d="M51.363,239.143c0,0.567-0.398,0.797-0.89,0.514s-0.89-0.974-0.89-1.541c0-0.566,0.398-0.797,0.89-0.513
				C50.965,237.886,51.363,238.575,51.363,239.143z"/>
		</g>
		<g>
			<path fill="#D4ECFF" d="M54.122,255.347c0,0.567-0.398,0.798-0.89,0.514c-0.491-0.283-0.89-0.974-0.89-1.54
				c0-0.567,0.398-0.797,0.89-0.514S54.122,254.78,54.122,255.347z"/>
			<path fill="#D4ECFF" d="M51.363,253.765c0,0.567-0.398,0.797-0.89,0.514c-0.491-0.284-0.89-0.974-0.89-1.54
				c0-0.567,0.398-0.797,0.89-0.514S51.363,253.197,51.363,253.765z"/>
			<path fill="#D4ECFF" d="M54.122,258.677c0,0.566-0.398,0.797-0.89,0.513c-0.491-0.283-0.89-0.973-0.89-1.54
				s0.398-0.797,0.89-0.513C53.724,257.42,54.122,258.109,54.122,258.677z"/>
			<path fill="#D4ECFF" d="M51.363,257.094c0,0.567-0.398,0.797-0.89,0.514s-0.89-0.973-0.89-1.54s0.398-0.797,0.89-0.514
				C50.965,255.838,51.363,256.527,51.363,257.094z"/>
		</g>
		<g>
			<path fill="#D4ECFF" d="M54.122,273.299c0,0.566-0.398,0.797-0.89,0.513c-0.491-0.283-0.89-0.973-0.89-1.54
				s0.398-0.797,0.89-0.514C53.724,272.042,54.122,272.731,54.122,273.299z"/>
			<path fill="#D4ECFF" d="M51.363,271.716c0,0.567-0.398,0.797-0.89,0.514s-0.89-0.974-0.89-1.54c0-0.567,0.398-0.797,0.89-0.514
				S51.363,271.148,51.363,271.716z"/>
			<path fill="#D4ECFF" d="M54.122,276.628c0,0.567-0.398,0.797-0.89,0.513c-0.491-0.283-0.89-0.973-0.89-1.54
				c0-0.566,0.398-0.797,0.89-0.513C53.724,275.371,54.122,276.061,54.122,276.628z"/>
			<path fill="#D4ECFF" d="M51.363,275.045c0,0.567-0.398,0.798-0.89,0.514c-0.491-0.283-0.89-0.973-0.89-1.54
				s0.398-0.797,0.89-0.514C50.965,273.789,51.363,274.479,51.363,275.045z"/>
		</g>
	</g>
	<path fill="#B2D3EA" d="M60.291,303.832c-0.937,0-1.872-0.242-2.706-0.725l-16.487-9.569c-0.561-0.326-0.895-0.907-0.895-1.554
		c0-0.648,0.335-1.229,0.896-1.555l10.843-6.288l0.803,1.384l-10.842,6.287c-0.083,0.049-0.1,0.119-0.1,0.172
		c0,0.052,0.017,0.125,0.098,0.171l16.487,9.568c1.164,0.675,2.612,0.679,3.78,0.015l32.293-18.402
		c1.663-0.946,3.725-0.938,5.378,0.023l27.051,15.623c1.175,0.684,2.634,0.686,3.807,0.006l13.043-7.543l0.801,1.385l-13.043,7.543
		c-1.67,0.966-3.741,0.962-5.409-0.008l-27.05-15.623c-1.166-0.678-2.616-0.684-3.786-0.018l-32.293,18.402
		C62.135,303.597,61.213,303.832,60.291,303.832z"/>
	<g>
		<path fill="#B2D3EA" d="M203.517,364.705l-26.128-15.085c-1.604-0.926-1.403-2.543,0.449-3.612l25.229-14.565
			c1.852-1.069,4.653-1.186,6.257-0.26l26.128,15.085c1.604,0.926,1.403,2.543-0.449,3.612l-25.229,14.566
			C207.922,365.516,205.12,365.631,203.517,364.705z"/>
		<g>
			<path fill="#396CAA" d="M244.119,334.777L244.119,334.777v-11.288l-25.314-0.015l-8.749-5.052
				c-2.009-1.159-5.517-1.014-7.835,0.325l-8.163,4.713l-25.337-0.015v11.61c-0.058,0.785,0.38,1.543,1.345,2.1l32.719,18.89
				c2.009,1.159,5.516,1.015,7.835-0.324l31.592-18.24C243.549,336.709,244.194,335.709,244.119,334.777z"/>
			<path fill="#396CAA" d="M206.42,317.646c-1.469,0.035-2.994,0.405-4.199,1.102l-8.163,4.713l-25.337-0.015v11.61
				c-0.058,0.785,0.38,1.543,1.345,2.1l32.719,18.89c0.965,0.558,2.277,0.81,3.636,0.777V317.646z"/>
			<path fill="#5793CE" d="M171.588,323.448l-2.867-0.002v11.61c-0.058,0.785,0.38,1.543,1.345,2.1l1.522,0.879V323.448z"/>
			<path fill="#5793CE" d="M203.289,356.293c1.731,0.742,4.236,0.701,6.262-0.071v-13.183h-6.262V356.293z"/>
			<path fill="#D4ECFF" d="M202.784,344.479l-32.719-18.891c-2.008-1.16-1.756-3.185,0.563-4.523l31.593-18.24
				c2.318-1.338,5.826-1.484,7.835-0.324l32.718,18.89c2.009,1.159,1.757,3.185-0.563,4.523l-31.592,18.239
				C208.3,345.492,204.793,345.637,202.784,344.479z"/>
			<path fill="#5793CE" d="M203.373,341.078l-27.418-15.83c-1.683-0.972-1.472-2.669,0.471-3.791l26.476-15.285
				c1.942-1.122,4.882-1.244,6.565-0.272l27.418,15.83c1.683,0.972,1.472,2.669-0.472,3.791l-26.475,15.285
				C207.995,341.928,205.057,342.049,203.373,341.078z"/>
			<g>
				<path fill="#D4ECFF" d="M232.085,337.758c0,0.842-0.592,1.867-1.321,2.288c-0.73,0.422-1.322,0.08-1.322-0.763
					s0.592-1.867,1.322-2.289C231.493,336.572,232.085,336.914,232.085,337.758z"/>
				<path fill="#D4ECFF" d="M236.337,335.303c0,0.842-0.592,1.867-1.321,2.289c-0.73,0.421-1.322,0.079-1.322-0.764
					s0.592-1.867,1.322-2.289C235.745,334.118,236.337,334.46,236.337,335.303z"/>
				<path fill="#D4ECFF" d="M240.589,332.848c0,0.843-0.592,1.867-1.322,2.289c-0.729,0.421-1.321,0.08-1.321-0.764
					c0-0.842,0.592-1.867,1.321-2.288C239.997,331.663,240.589,332.005,240.589,332.848z"/>
			</g>
		</g>
		<g>
			<path fill="#396CAA" d="M244.119,316.736L244.119,316.736v-11.288l-25.314-0.015l-8.749-5.052
				c-2.009-1.159-5.517-1.014-7.835,0.325l-8.163,4.713l-25.337-0.015v11.61c-0.058,0.785,0.38,1.543,1.345,2.1l32.719,18.89
				c2.009,1.159,5.516,1.015,7.835-0.324l31.592-18.24C243.549,318.668,244.194,317.668,244.119,316.736z"/>
			<path fill="#396CAA" d="M206.42,299.605c-1.469,0.035-2.994,0.405-4.199,1.102l-8.163,4.713l-25.337-0.015v11.61
				c-0.058,0.785,0.38,1.543,1.345,2.1l32.719,18.89c0.965,0.558,2.277,0.81,3.636,0.777V299.605z"/>
			<path fill="#5793CE" d="M171.588,305.407l-2.867-0.002v11.61c-0.058,0.785,0.38,1.543,1.345,2.1l1.522,0.879V305.407z"/>
			<path fill="#5793CE" d="M203.289,338.252c1.731,0.742,4.236,0.701,6.262-0.071v-13.183h-6.262V338.252z"/>
			<path fill="#D4ECFF" d="M202.784,326.438l-32.719-18.891c-2.008-1.16-1.756-3.185,0.563-4.523l31.593-18.24
				c2.318-1.338,5.826-1.484,7.835-0.324l32.718,18.89c2.009,1.159,1.757,3.185-0.563,4.523l-31.592,18.24
				C208.3,327.451,204.793,327.596,202.784,326.438z"/>
			<path fill="#5793CE" d="M203.373,323.037l-27.418-15.83c-1.683-0.972-1.472-2.669,0.471-3.791l26.476-15.285
				c1.942-1.122,4.882-1.244,6.565-0.271l27.418,15.829c1.683,0.972,1.472,2.669-0.472,3.791l-26.475,15.285
				C207.995,323.887,205.057,324.008,203.373,323.037z"/>
			<g>
				<path fill="#D4ECFF" d="M232.085,319.717c0,0.842-0.592,1.867-1.321,2.288c-0.73,0.422-1.322,0.08-1.322-0.763
					s0.592-1.867,1.322-2.289C231.493,318.532,232.085,318.873,232.085,319.717z"/>
				<path fill="#D4ECFF" d="M236.337,317.262c0,0.843-0.592,1.867-1.321,2.289c-0.73,0.421-1.322,0.079-1.322-0.764
					s0.592-1.867,1.322-2.289C235.745,316.077,236.337,316.419,236.337,317.262z"/>
				<path fill="#D4ECFF" d="M240.589,314.807c0,0.843-0.592,1.867-1.322,2.289c-0.729,0.421-1.321,0.08-1.321-0.764
					c0-0.842,0.592-1.867,1.321-2.288C239.997,313.622,240.589,313.964,240.589,314.807z"/>
			</g>
		</g>
		<g>
			<path fill="#396CAA" d="M244.119,298.696L244.119,298.696v-11.289l-25.314-0.015l-8.749-5.052
				c-2.009-1.159-5.517-1.014-7.835,0.325l-8.163,4.713l-25.337-0.014v11.61c-0.058,0.784,0.38,1.542,1.345,2.099l32.719,18.891
				c2.009,1.158,5.516,1.014,7.835-0.325l31.592-18.24C243.549,300.627,244.194,299.627,244.119,298.696z"/>
			<path fill="#396CAA" d="M206.42,281.564c-1.469,0.035-2.994,0.405-4.199,1.102l-8.163,4.713l-25.337-0.014v11.61
				c-0.058,0.784,0.38,1.542,1.345,2.099l32.719,18.891c0.965,0.557,2.277,0.81,3.636,0.776V281.564z"/>
			<path fill="#5793CE" d="M171.588,287.366l-2.867-0.001v11.61c-0.058,0.784,0.38,1.542,1.345,2.099l1.522,0.879V287.366z"/>
			<path fill="#5793CE" d="M203.289,320.211c1.731,0.742,4.236,0.701,6.262-0.071v-13.183h-6.262V320.211z"/>
			<path fill="#D4ECFF" d="M202.784,308.396l-32.719-18.89c-2.008-1.16-1.756-3.185,0.563-4.523l31.593-18.24
				c2.318-1.338,5.826-1.484,7.835-0.324l32.718,18.89c2.009,1.159,1.757,3.185-0.563,4.523l-31.592,18.24
				C208.3,309.41,204.793,309.555,202.784,308.396z"/>
			<path fill="#FFFFFF" d="M242.211,287.609l-31.592,18.24c-2.319,1.338-5.826,1.484-7.835,0.324l-32.719-18.89
				c-0.447-0.259-0.776-0.562-1.002-0.89c-0.689,1.11-0.377,2.314,1.002,3.111l32.719,18.89c2.009,1.159,5.516,1.015,7.835-0.324
				l31.592-18.24c1.802-1.04,2.35-2.493,1.564-3.634C243.461,286.703,242.938,287.19,242.211,287.609z"/>
			<g>
				<path fill="#D4ECFF" d="M232.085,301.676c0,0.842-0.592,1.867-1.321,2.288c-0.73,0.422-1.322,0.08-1.322-0.763
					s0.592-1.867,1.322-2.289C231.493,300.491,232.085,300.832,232.085,301.676z"/>
				<path fill="#D4ECFF" d="M236.337,299.221c0,0.843-0.592,1.867-1.321,2.289c-0.73,0.421-1.322,0.079-1.322-0.764
					s0.592-1.867,1.322-2.289C235.745,298.036,236.337,298.378,236.337,299.221z"/>
				<path fill="#D4ECFF" d="M240.589,296.766c0,0.843-0.592,1.867-1.322,2.289c-0.729,0.421-1.321,0.08-1.321-0.763
					s0.592-1.868,1.321-2.289C239.997,295.581,240.589,295.923,240.589,296.766z"/>
			</g>
			<g>
				<path fill="#5793CE" d="M204.719,296.685l-15.311-8.84c-0.939-0.543-0.821-1.49,0.264-2.116l14.783-8.536
					c1.085-0.626,2.727-0.694,3.666-0.151l15.312,8.839c0.939,0.543,0.821,1.49-0.264,2.117l-14.784,8.535
					C207.3,297.159,205.659,297.227,204.719,296.685z"/>
				<path fill="#D4ECFF" d="M206.185,289.283l-2.118-1.224c-0.13-0.075-0.113-0.206,0.037-0.293l2.045-1.181
					c0.15-0.087,0.377-0.096,0.507-0.021l2.119,1.224c0.13,0.075,0.113,0.206-0.037,0.293l-2.045,1.181
					C206.542,289.349,206.314,289.357,206.185,289.283z"/>
				<path fill="#396CAA" d="M189.408,287.845l0.044,0.024c0.071-0.051,0.137-0.104,0.22-0.15l14.783-8.536
					c1.085-0.626,2.727-0.694,3.666-0.151l15.268,8.814c0.866-0.62,0.912-1.465,0.044-1.966l-15.312-8.839
					c-0.939-0.543-2.581-0.475-3.666,0.151l-14.783,8.536C188.587,286.354,188.469,287.302,189.408,287.845z"/>
			</g>
		</g>
	</g>
	<path fill="#D4ECFF" d="M156.143,106.449c0,0.567-0.398,0.797-0.89,0.513c-0.491-0.283-0.89-0.973-0.89-1.54
		c0-0.567,0.398-0.797,0.89-0.514C155.744,105.192,156.143,105.882,156.143,106.449z"/>
	<path fill="#D4ECFF" d="M163.976,111.199c0,0.567-0.398,0.797-0.89,0.513c-0.491-0.283-0.889-0.973-0.889-1.54
		c0-0.567,0.397-0.797,0.889-0.514C163.577,109.942,163.976,110.632,163.976,111.199z"/>
	<path fill="#D4ECFF" d="M171.809,115.949c0,0.567-0.398,0.797-0.889,0.513c-0.491-0.283-0.89-0.973-0.89-1.54
		c0-0.567,0.398-0.797,0.89-0.514C171.41,114.692,171.809,115.382,171.809,115.949z"/>
	<path fill="#D4ECFF" d="M179.643,120.699c0,0.567-0.398,0.797-0.89,0.513c-0.491-0.283-0.89-0.973-0.89-1.54
		c0-0.567,0.398-0.797,0.89-0.514C179.244,119.442,179.643,120.132,179.643,120.699z"/>
</g>
<circle fill="#D4ECFF" cx="160.802" cy="115.926" r="0.8"/>
<circle fill="#D4ECFF" cx="168.105" cy="120.301" r="0.8"/>
<circle fill="#D4ECFF" cx="175.408" cy="124.676" r="0.8"/>
<circle fill="#D4ECFF" cx="182.712" cy="128.881" r="0.8"/>
</svg>
