<?xml version="1.0" encoding="utf-8"?>
<!-- Generator: Adobe Illustrator 16.0.0, SVG Export Plug-In . SVG Version: 6.00 Build 0)  -->
<!DOCTYPE svg PUBLIC "-//W3C//DTD SVG 1.1//EN" "http://www.w3.org/Graphics/SVG/1.1/DTD/svg11.dtd">
<svg version="1.1" xmlns="http://www.w3.org/2000/svg" xmlns:xlink="http://www.w3.org/1999/xlink" x="0px" y="0px"
	 width="715.464px" height="293.985px" viewBox="0 0 715.464 293.985" enable-background="new 0 0 715.464 293.985"
	 xml:space="preserve">
<g id="agile">
	<linearGradient id="SVGID_1_" gradientUnits="userSpaceOnUse" x1="497.9746" y1="229.3643" x2="711.6777" y2="229.3643">
		<stop  offset="0" style="stop-color:#7C0EFF"/>
		<stop  offset="1" style="stop-color:#AE8FF6"/>
	</linearGradient>
	<path fill="url(#SVGID_1_)" d="M708.972,223.063l-50.904-40.511c-4.523-3.598-11.311-3.598-15.836,0
		c-4.523,3.603-4.523,9.004,0,12.604l31.674,25.205h-175.28c-6.786,0,41.767,3.603,41.767,9.002c0,5.402-40.553,8.539-33.767,8.539
		l166.147,0.465l-31.672,25.207c-4.525,3.6-4.525,8.999,0,12.6c2.264,1.803,5.656,2.701,7.92,2.701c2.262,0,5.654-0.9,7.916-2.701
		l50.904-40.508c2.262-1.801,3.394-3.604,3.394-6.303l0,0C712.364,227.564,711.234,224.864,708.972,223.063z"/>
	<rect x="552.031" y="233.346" fill="none" width="71" height="15.5"/>
	<path d="M131.339,222.792c-11.28,9.292-27.289,13.938-48.024,13.938H7.5v-10.874H81.2c17.314,0,30.705-3.346,40.17-10.035
		c9.465-7.085,14.197-17.124,14.197-30.093c0-9.934-2.718-18.496-8.156-25.69c-5.435-7.19-13.695-12.817-24.768-16.871
		c-10.268-3.647-20.54-7.041-30.809-10.181c-10.268-3.146-20.539-6.44-30.809-9.884C18.676,112.765,7.5,96.148,7.5,73.248
		c0-15.404,5.333-27.358,16.008-35.872c9.864-7.25,22.653-10.873,38.36-10.873h74.909v10.873H67.003
		c-16.312,0-28.194,3.134-35.642,9.392c-7.25,6.465-10.874,15.655-10.874,27.571c0,18.376,11.071,31.509,33.224,39.385
		c10.271,3.639,20.542,7.071,30.81,10.304c10.271,3.233,20.541,6.562,30.809,9.991c22.352,10.707,33.529,27.167,33.529,49.386
		C148.859,200.374,143.015,213.504,131.339,222.792z"/>
	<path d="M296.554,217.698c-13.894,14.702-30.913,22.05-51.045,22.05c-20.341,0-37.455-7.148-51.349-21.443
		c-13.894-14.501-20.841-32.019-20.841-52.56c0-20.333,6.947-37.756,20.841-52.251c13.894-14.5,30.91-21.752,51.046-21.752
		c20.337,0,37.455,7.252,51.348,21.752c14.094,14.698,21.144,32.116,21.144,52.251C317.698,185.682,310.648,203.004,296.554,217.698
		z M305.616,165.899c0-16.875-5.738-31.635-17.215-44.292c-11.48-12.66-25.78-18.989-42.892-18.989
		c-17.118,0-31.414,6.229-42.89,18.682c-11.681,12.856-17.519,27.725-17.519,44.599c0,16.67,5.739,31.336,17.216,43.993
		c11.478,12.656,25.773,18.984,42.89,18.984c17.318,0,31.612-6.229,42.892-18.687c11.477-12.252,17.217-27.015,17.217-44.291
		H305.616z"/>
	<path d="M354.543,105.333v131.396h-11.174V105.036h-14.5V94.462h14.5V83.284V70.6c0-13.894,5.134-24.965,15.403-33.224
		c9.061-7.25,19.633-10.873,31.715-10.873h22.955v10.873h-22.955c-9.666,0-17.721,2.821-24.164,8.457
		c-7.852,6.644-11.78,15.909-11.78,27.79v20.84h58.899v10.871H354.543z"/>
	<g>
		<linearGradient id="SVGID_2_" gradientUnits="userSpaceOnUse" x1="428.1846" y1="36.1357" x2="446.5391" y2="36.1357">
			<stop  offset="0" style="stop-color:#7C0EFF"/>
			<stop  offset="1" style="stop-color:#AE8FF6"/>
		</linearGradient>
		<path fill="url(#SVGID_2_)" d="M444.093,42.408c1.627-1.63,2.446-3.772,2.446-6.425c0-2.647-0.917-4.79-2.754-6.424
			c-2.042-1.63-4.183-2.447-6.423-2.447c-2.86,0-5.001,0.918-6.425,2.752c-1.836,1.637-2.753,3.671-2.753,6.119
			c0,2.653,0.917,4.895,2.753,6.73c1.629,1.635,3.771,2.448,6.425,2.448C440.01,45.16,442.257,44.243,444.093,42.408z"/>
		<linearGradient id="SVGID_3_" gradientUnits="userSpaceOnUse" x1="428.0576" y1="164.1758" x2="616.9443" y2="164.1758">
			<stop  offset="0" style="stop-color:#7C0EFF"/>
			<stop  offset="1" style="stop-color:#AE8FF6"/>
		</linearGradient>
		<path fill="url(#SVGID_3_)" d="M542.228,89.908c-41.41,0-74.718,33.306-74.718,74.717c0,13.504,3.601,27.006,10.804,38.709
			c2.699,3.6,8.102,5.399,12.602,2.699c3.602-2.699,5.4-8.1,2.701-12.602c-5.401-9.002-8.103-18.904-8.103-29.705
			c0-31.508,25.206-56.715,56.714-56.715c31.507,0,56.711,25.207,56.711,56.715c0,31.506-25.204,56.71-56.711,56.71l-96.086-0.032
			V94.237h-18.038v132.751h0.007l-0.053,10.954l114.17,0.501c41.409,0,74.718-32.41,74.717-73.818
			C616.944,123.216,583.636,89.908,542.228,89.908z"/>
	</g>
</g>
<g id="colors" display="none">
	<linearGradient id="SVGID_4_" gradientUnits="userSpaceOnUse" x1="893.4053" y1="1148.7568" x2="793.3887" y2="1321.9907">
		<stop  offset="0" style="stop-color:#00FFFF"/>
		<stop  offset="1" style="stop-color:#00FFA1"/>
	</linearGradient>
	<circle display="inline" fill="url(#SVGID_4_)" cx="843.396" cy="1235.373" r="100"/>
	<linearGradient id="SVGID_5_" gradientUnits="userSpaceOnUse" x1="618.4043" y1="1148.7559" x2="518.3877" y2="1321.9897">
		<stop  offset="0" style="stop-color:#81FBB8"/>
		<stop  offset="1" style="stop-color:#28C76F"/>
	</linearGradient>
	<circle display="inline" fill="url(#SVGID_5_)" cx="568.396" cy="1235.373" r="100"/>
	<linearGradient id="SVGID_6_" gradientUnits="userSpaceOnUse" x1="343.4043" y1="1148.7559" x2="243.3877" y2="1321.9897">
		<stop  offset="0" style="stop-color:#EFFF6D"/>
		<stop  offset="1" style="stop-color:#13B5BB"/>
	</linearGradient>
	<circle display="inline" fill="url(#SVGID_6_)" cx="293.396" cy="1235.373" r="100"/>
	<linearGradient id="SVGID_7_" gradientUnits="userSpaceOnUse" x1="68.4043" y1="1148.7559" x2="-31.6123" y2="1321.9897">
		<stop  offset="0" style="stop-color:#69E868"/>
		<stop  offset="1" style="stop-color:#4F78FD"/>
	</linearGradient>
	<circle display="inline" fill="url(#SVGID_7_)" cx="18.396" cy="1235.373" r="100"/>
	<linearGradient id="SVGID_8_" gradientUnits="userSpaceOnUse" x1="893.4043" y1="873.7568" x2="793.3877" y2="1046.9907">
		<stop  offset="0" style="stop-color:#FFDC60"/>
		<stop  offset="1" style="stop-color:#FDA76F"/>
	</linearGradient>
	<circle display="inline" fill="url(#SVGID_8_)" cx="843.396" cy="960.373" r="100"/>
	<linearGradient id="SVGID_9_" gradientUnits="userSpaceOnUse" x1="618.4033" y1="873.7559" x2="518.3867" y2="1046.9897">
		<stop  offset="2.003000e-005" style="stop-color:#FFC76B"/>
		<stop  offset="0.9997" style="stop-color:#FF5B9D"/>
	</linearGradient>
	<circle display="inline" fill="url(#SVGID_9_)" cx="568.396" cy="960.373" r="100"/>
	<linearGradient id="SVGID_10_" gradientUnits="userSpaceOnUse" x1="343.4043" y1="873.7568" x2="243.3877" y2="1046.9907">
		<stop  offset="6.810900e-004" style="stop-color:#FC6767"/>
		<stop  offset="0.9997" style="stop-color:#EC008C"/>
	</linearGradient>
	<circle display="inline" fill="url(#SVGID_10_)" cx="293.396" cy="960.373" r="100"/>
	<linearGradient id="SVGID_11_" gradientUnits="userSpaceOnUse" x1="68.4043" y1="873.7559" x2="-31.6123" y2="1046.9897">
		<stop  offset="0" style="stop-color:#ED1E79"/>
		<stop  offset="1" style="stop-color:#662D8C"/>
	</linearGradient>
	<circle display="inline" fill="url(#SVGID_11_)" cx="18.396" cy="960.373" r="100"/>
	<linearGradient id="SVGID_12_" gradientUnits="userSpaceOnUse" x1="893.4053" y1="598.7568" x2="793.3887" y2="771.9907">
		<stop  offset="0" style="stop-color:#FFA4DD"/>
		<stop  offset="1" style="stop-color:#FF5B9D"/>
	</linearGradient>
	<circle display="inline" fill="url(#SVGID_12_)" cx="843.396" cy="685.373" r="100"/>
	<linearGradient id="SVGID_13_" gradientUnits="userSpaceOnUse" x1="618.4033" y1="598.7559" x2="518.3867" y2="771.9897">
		<stop  offset="0" style="stop-color:#FB4ECB"/>
		<stop  offset="1" style="stop-color:#AC26AD"/>
	</linearGradient>
	<circle display="inline" fill="url(#SVGID_13_)" cx="568.396" cy="685.373" r="100"/>
	<linearGradient id="SVGID_14_" gradientUnits="userSpaceOnUse" x1="343.4038" y1="598.7559" x2="243.3872" y2="771.9897">
		<stop  offset="0" style="stop-color:#FF5B9D"/>
		<stop  offset="0.9997" style="stop-color:#7C0EFF"/>
	</linearGradient>
	<circle display="inline" fill="url(#SVGID_14_)" cx="293.396" cy="685.373" r="100"/>
	<linearGradient id="SVGID_15_" gradientUnits="userSpaceOnUse" x1="68.4038" y1="598.7559" x2="-31.6128" y2="771.9897">
		<stop  offset="0" style="stop-color:#B22D91"/>
		<stop  offset="1" style="stop-color:#312A6C"/>
	</linearGradient>
	<circle display="inline" fill="url(#SVGID_15_)" cx="18.396" cy="685.373" r="100"/>
	<linearGradient id="SVGID_16_" gradientUnits="userSpaceOnUse" x1="893.4043" y1="323.7568" x2="793.3876" y2="496.9909">
		<stop  offset="0" style="stop-color:#00FFEE"/>
		<stop  offset="1" style="stop-color:#D585FF"/>
	</linearGradient>
	<circle display="inline" fill="url(#SVGID_16_)" cx="843.396" cy="410.373" r="100"/>
	<linearGradient id="SVGID_17_" gradientUnits="userSpaceOnUse" x1="618.4033" y1="323.7559" x2="518.3866" y2="496.9899">
		<stop  offset="0" style="stop-color:#63E2FF"/>
		<stop  offset="1" style="stop-color:#B066FE"/>
	</linearGradient>
	<circle display="inline" fill="url(#SVGID_17_)" cx="568.396" cy="410.373" r="100"/>
	<linearGradient id="SVGID_18_" gradientUnits="userSpaceOnUse" x1="222.686" y1="481.085" x2="364.1072" y2="339.6638">
		<stop  offset="0" style="stop-color:#7C0EFF"/>
		<stop  offset="1" style="stop-color:#AE8FF6"/>
	</linearGradient>
	<circle display="inline" fill="url(#SVGID_18_)" cx="293.396" cy="410.373" r="100"/>
	<linearGradient id="SVGID_19_" gradientUnits="userSpaceOnUse" x1="-52.3145" y1="481.084" x2="89.1067" y2="339.6628">
		<stop  offset="0" style="stop-color:#4F08A1"/>
		<stop  offset="0.9997" style="stop-color:#9136FF"/>
	</linearGradient>
	<circle display="inline" fill="url(#SVGID_19_)" cx="18.396" cy="410.373" r="100"/>
</g>
</svg>
