<?xml version="1.0" encoding="utf-8"?>
<!-- Generator: Adobe Illustrator 16.0.0, SVG Export Plug-In . SVG Version: 6.00 Build 0)  -->
<!DOCTYPE svg PUBLIC "-//W3C//DTD SVG 1.1//EN" "http://www.w3.org/Graphics/SVG/1.1/DTD/svg11.dtd">
<svg version="1.1" xmlns="http://www.w3.org/2000/svg" xmlns:xlink="http://www.w3.org/1999/xlink" x="0px" y="0px" width="506px"
	 height="389px" viewBox="0 0 506 389" enable-background="new 0 0 506 389" xml:space="preserve">
<g id="Layer_1">
	<rect x="-23" y="-32" display="none" fill="#9CD8E2" width="550" height="450"/>
	<polygon fill="#E9F0F4" points="250.86,180.634 196.166,212.356 118.93,167.613 118.93,167.437 173.616,136.04 250.86,180.466 	"/>
	<polygon fill="#CFE4E7" points="334.422,323.67 279.737,355.247 202.492,310.642 257.178,279.072 	"/>
	<polygon fill="#CFE4E7" points="306.181,344.295 251.496,375.872 174.251,331.267 228.937,299.697 	"/>
	<polygon fill="#CFE8EA" points="329.513,204.51 379.844,175.836 454.138,218.723 403.854,247.44 	"/>
	<polygon fill="#2010F9" points="197.261,328.393 239.084,304.246 313.38,347.132 271.603,371.323 	"/>
	<polygon fill="#CFE4E7" points="371.519,205.477 413.342,181.33 487.636,224.217 445.859,248.407 	"/>
	<polygon fill="#CFE8EA" points="5.852,231.707 47.676,207.561 121.97,250.447 80.194,274.638 	"/>
	<polygon fill="#E2E7E8" points="382.03,220.146 423.854,195.999 498.148,238.885 456.371,263.077 	"/>
	<polygon fill="#2010F9" points="382.03,218.246 423.854,194.1 498.148,236.985 456.371,261.177 	"/>
	<polygon fill="#CFE8EA" points="149.206,154.825 191.028,130.678 265.324,173.564 223.546,197.756 	"/>
	<polygon fill="#CFE8EA" points="359.822,234.709 401.646,210.563 475.94,253.448 434.164,277.639 	"/>
	<polygon fill="#CFE8EA" points="231.26,287.851 189.437,263.703 115.143,306.589 156.919,330.78 	"/>
	<polygon fill="#CFE8EA" points="338.124,148.088 296.302,123.941 222.007,166.828 263.783,191.019 	"/>
	<g>
		<polygon fill="#E2E7E8" points="305.688,151.728 267.21,174.043 212.875,142.567 212.875,142.443 251.346,120.355 
			305.688,151.609 		"/>
		<polygon fill="#E9F0F4" points="305.688,149.056 267.21,171.372 212.875,139.895 212.875,139.771 251.346,117.682 
			305.688,148.937 		"/>
	</g>
	<g>
		<polygon fill="#E2E7E8" points="471.735,243.831 411.977,209.32 327.568,258.063 327.572,258.25 387.335,292.918 471.738,244.018 
					"/>
		<g>
			<polygon fill="#E9F0F4" points="327.572,240.207 387.335,274.875 471.738,225.975 471.735,225.787 411.977,191.476 
				327.568,240.019 			"/>
			<polygon fill="#FCFBFA" points="327.568,240.019 387.322,274.523 471.735,225.787 411.977,191.277 			"/>
			<g>
				<polygon fill="#C2C7D4" points="391.825,210.873 407.535,219.94 409.405,218.861 393.689,209.798 				"/>
			</g>
			<g>
				<polygon fill="#C2C7D4" points="387.037,213.64 402.752,222.701 404.615,221.625 388.906,212.56 				"/>
			</g>
			<g>
				<polygon fill="#C2C7D4" points="382.248,216.403 397.957,225.47 399.826,224.39 384.107,215.321 				"/>
			</g>
			<g>
				<polygon fill="#C2C7D4" points="377.458,219.17 393.176,228.23 395.037,227.155 379.329,218.089 				"/>
			</g>
			<g>
				<polygon fill="#C2C7D4" points="372.67,221.934 388.38,230.999 390.257,229.916 374.529,220.853 				"/>
			</g>
			<g>
				<polygon fill="#C2C7D4" points="360.61,228.896 376.327,237.957 378.199,236.877 362.489,227.812 				"/>
			</g>
			<g>
				<polygon fill="#C2C7D4" points="355.83,231.657 371.531,240.727 373.41,239.643 357.708,230.571 				"/>
			</g>
			<g>
				<polygon fill="#C2C7D4" points="351.034,234.426 366.758,243.5 368.613,242.413 352.911,233.342 				"/>
			</g>
			<g>
				<polygon fill="#C2C7D4" points="346.243,237.191 361.959,246.265 363.832,245.174 348.123,236.108 				"/>
			</g>
			<g>
				<polygon fill="#C2C7D4" points="409.329,199.898 450.311,223.563 452.181,222.484 411.2,198.818 				"/>
			</g>
			<g>
				<polygon fill="#C2C7D4" points="404.858,202.479 452.428,229.945 454.297,228.865 406.736,201.395 				"/>
			</g>
			<g>
				<polygon fill="#C2C7D4" points="400.244,205.105 447.806,232.557 449.684,231.473 402.122,204.021 				"/>
			</g>
			<polygon fill="#EBECF1" points="425.957,245.834 406.125,234.385 370.945,254.697 390.734,266.174 			"/>
			<polygon fill="#F2C2A0" points="413.904,224.652 416.878,222.934 433.931,232.779 430.955,234.495 			"/>
			<polygon fill="#6CD2F2" points="408.732,227.629 412.121,225.68 435.158,238.981 431.8,240.944 			"/>
			<polygon fill="#A6D0F0" points="403.708,230.532 406.865,228.715 421.2,236.992 418.035,238.805 			"/>
			<polygon fill="#C3F1C8" points="395.614,235.201 402.283,231.358 408.731,235.082 402.082,238.936 			"/>
			<polygon fill="#FF6D00" points="390.18,238.341 393.572,236.38 412.788,247.474 409.401,249.438 			"/>
		</g>
	</g>
	<g>
		<polygon fill="#E2E7E8" points="309.979,140.125 250.22,105.616 165.811,154.357 165.814,154.545 225.578,189.214 309.98,140.313 
					"/>
		<g>
			<polygon fill="#E9F0F4" points="166.223,136.502 225.986,171.169 310.391,122.27 310.387,122.083 250.628,87.771 166.22,136.314 
							"/>
			<polygon fill="#FCFBFA" points="166.22,136.314 225.974,170.818 310.387,122.083 250.628,87.572 			"/>
			<g>
				<polygon fill="#C2C7D4" points="230.476,107.169 246.186,116.235 248.058,115.155 232.34,106.093 				"/>
			</g>
			<g>
				<polygon fill="#C2C7D4" points="225.688,109.934 241.404,118.996 243.267,117.92 227.558,108.855 				"/>
			</g>
			<g>
				<polygon fill="#C2C7D4" points="220.899,112.698 236.608,121.765 238.478,120.685 222.757,111.616 				"/>
			</g>
			<g>
				<polygon fill="#C2C7D4" points="216.11,115.465 231.827,124.525 233.689,123.452 217.98,114.384 				"/>
			</g>
			<g>
				<polygon fill="#C2C7D4" points="211.321,118.229 227.032,127.294 228.909,126.211 213.18,117.146 				"/>
			</g>
			<g>
				<polygon fill="#C2C7D4" points="199.262,125.19 214.979,134.252 216.851,133.172 201.14,124.107 				"/>
			</g>
			<g>
				<polygon fill="#C2C7D4" points="194.482,127.951 210.184,137.021 212.062,135.938 196.36,126.868 				"/>
			</g>
			<g>
				<polygon fill="#C2C7D4" points="189.685,130.721 205.41,139.795 207.265,138.708 191.563,129.637 				"/>
			</g>
			<g>
				<polygon fill="#C2C7D4" points="184.896,133.487 200.609,142.56 202.483,141.468 186.774,132.403 				"/>
			</g>
			<g>
				<polygon fill="#C2C7D4" points="247.98,96.194 288.961,119.858 290.832,118.779 249.852,95.113 				"/>
			</g>
			<g>
				<polygon fill="#C2C7D4" points="243.509,98.773 291.08,126.241 292.948,125.16 245.388,97.69 				"/>
			</g>
			<g>
				<polygon fill="#C2C7D4" points="238.896,101.401 286.457,128.852 288.334,127.767 240.773,100.316 				"/>
			</g>
			<polygon fill="#EBECF1" points="264.608,142.129 244.776,130.681 209.598,150.992 229.386,162.468 			"/>
			<polygon fill="#F2C2A0" points="252.556,120.947 255.529,119.229 272.583,129.074 269.607,130.791 			"/>
			<polygon fill="#6CD2F2" points="247.385,123.923 250.773,121.975 273.811,135.276 270.45,137.239 			"/>
			<polygon fill="#A6D0F0" points="242.359,126.828 245.516,125.01 259.852,133.287 256.687,135.1 			"/>
			<polygon fill="#C3F1C8" points="234.265,131.496 240.934,127.654 247.384,131.376 240.734,135.231 			"/>
			<polygon fill="#FF6D00" points="228.83,134.635 232.224,132.674 251.44,143.768 248.052,145.732 			"/>
		</g>
	</g>
	<g>
		<polygon fill="#E9F0F4" points="143.104,299.744 203.739,334.92 289.396,285.303 289.393,285.112 228.746,250.299 
			143.094,299.558 		"/>
		<polygon fill="#FCFBFA" points="143.094,299.558 203.736,334.566 289.393,285.112 228.75,250.104 		"/>
		<g>
			<path fill="#6CD2F2" d="M212.307,306.163c3.408,0.773,6.101,2.45,7.073,4.581l-11.404,1.743L212.307,306.163z"/>
			<path fill="#9BA5E3" d="M219.38,310.744c0.119,0.239,0.201,0.479,0.267,0.727c0.34,1.319-0.007,2.593-0.86,3.737l-10.811-2.721
				L219.38,310.744z"/>
			<path fill="#60C2EC" d="M207.5,319.289c-3.521-0.074-6.72-1.065-8.822-2.613l9.297-4.188L207.5,319.289z"/>
			<path fill="#C3F1C8" d="M207.976,312.487l-9.297,4.188c-1.213-0.89-2.062-1.963-2.368-3.175
				c-0.961-3.721,3.477-7.192,9.921-7.751c2.131-0.176,4.215-0.018,6.076,0.413L207.976,312.487z"/>
			<path fill="#DAEEB2" d="M218.787,315.208c-1.573,2.077-4.895,3.66-9.057,4.022c-0.751,0.059-1.499,0.079-2.229,0.059l0.475-6.802
				L218.787,315.208z"/>
		</g>
		<g>
			<path fill="#A6D0F0" d="M239.578,290.408c3.4,0.778,6.099,2.462,7.067,4.604l-11.418,1.741L239.578,290.408z"/>
			<path fill="#F2C2A0" d="M246.645,295.013c0.115,0.23,0.207,0.476,0.278,0.73c0.331,1.303-0.008,2.592-0.866,3.73l-10.83-2.72
				L246.645,295.013z"/>
			<path fill="#6CD2F2" d="M234.764,303.568c-3.532-0.088-6.737-1.075-8.846-2.617l9.309-4.197L234.764,303.568z"/>
			<path fill="#A6D0F0" d="M235.227,296.754l-9.309,4.197c-1.218-0.899-2.071-1.977-2.371-3.194
				c-0.971-3.726,3.476-7.194,9.929-7.756c2.138-0.182,4.228-0.015,6.101,0.407L235.227,296.754z"/>
			<path fill="#F2C2A0" d="M246.057,299.474c-1.574,2.068-4.897,3.669-9.07,4.028c-0.75,0.06-1.499,0.079-2.224,0.066l0.463-6.814
				L246.057,299.474z"/>
		</g>
		<g>
			<polygon fill="#C2C7D4" points="208.299,269.984 224.247,279.179 226.139,278.087 210.197,268.887 			"/>
		</g>
		<g>
			<polygon fill="#C2C7D4" points="203.438,272.789 219.391,281.992 221.286,280.889 205.344,271.688 			"/>
		</g>
		<g>
			<polygon fill="#C2C7D4" points="198.578,275.594 214.527,284.791 216.417,283.699 200.477,274.498 			"/>
		</g>
		<g>
			<polygon fill="#C2C7D4" points="193.719,278.4 209.669,287.597 211.566,286.5 195.616,277.305 			"/>
		</g>
		<g>
			<polygon fill="#C2C7D4" points="188.86,281.206 204.813,290.408 206.699,289.311 190.752,280.104 			"/>
		</g>
		<g>
			<polygon fill="#C2C7D4" points="176.624,288.271 192.573,297.466 194.47,296.37 178.528,287.171 			"/>
		</g>
		<g>
			<polygon fill="#C2C7D4" points="171.771,291.072 187.713,300.272 189.611,299.175 173.668,289.976 			"/>
		</g>
		<g>
			<polygon fill="#C2C7D4" points="166.905,293.882 182.863,303.08 184.752,301.981 168.817,292.777 			"/>
		</g>
		<g>
			<polygon fill="#C2C7D4" points="162.052,296.685 177.996,305.89 179.892,304.787 163.95,295.588 			"/>
		</g>
		<g>
			<polygon fill="#C2C7D4" points="226.069,258.842 267.642,282.853 269.547,281.752 227.96,257.75 			"/>
		</g>
		<g>
			<polygon fill="#C2C7D4" points="221.531,261.461 269.802,289.33 271.688,288.232 223.43,260.364 			"/>
		</g>
		<g>
			<polygon fill="#C2C7D4" points="216.839,264.123 265.113,291.988 267.004,290.897 218.737,263.028 			"/>
		</g>
	</g>
	<g>
		<path fill="#E2E7E8" d="M249.03,275.554l-63.959,36.929c-3.291-1.331-7.849-1.146-10.783,0.549l-5.564,3.211
			c-2.934,1.694-3.248,4.321-0.957,6.229l-10.123,5.845l0.002,0.2l0.43,0.249l-0.479,0.277l-0.007,0.205l2.675,1.553l-0.932,0.537
			l-0.008,0.188l60.646,35.178l1.104-0.639l1.228,0.713l91.368-52.945l0.055-0.72l0.007-0.205L249.03,275.554z"/>
		<g>
			<linearGradient id="SVGID_1_" gradientUnits="userSpaceOnUse" x1="157.5889" y1="308.2324" x2="313.6768" y2="308.2324">
				<stop  offset="0" style="stop-color:#B1ECF2"/>
				<stop  offset="0.9559" style="stop-color:#B1F2F2"/>
			</linearGradient>
			<polygon fill="url(#SVGID_1_)" points="157.596,315.747 157.589,315.953 222.302,353.481 313.67,300.537 313.677,300.345 
				248.97,262.983 			"/>
			<g>
				<polygon fill="#E9F0F4" points="159.324,318.229 219.971,353.408 305.614,303.782 305.624,303.602 244.974,268.78 
					159.332,318.044 				"/>
				<polygon fill="#FCFBFA" points="159.332,318.044 219.968,353.055 305.624,303.602 244.981,268.594 				"/>
				<g>
					<path fill="#6CD2F2" d="M228.539,324.651c3.4,0.778,6.088,2.447,7.068,4.574l-11.397,1.76L228.539,324.651z"/>
					<path fill="#9BA5E3" d="M235.607,329.226c0.116,0.249,0.208,0.494,0.268,0.747c0.336,1.312-0.004,2.58-0.862,3.719
						l-10.803-2.706L235.607,329.226z"/>
					<path fill="#60C2EC" d="M223.737,337.785c-3.52-0.086-6.73-1.068-8.814-2.617l9.287-4.183L223.737,337.785z"/>
					<path fill="#C3F1C8" d="M224.21,330.985l-9.287,4.183c-1.226-0.892-2.071-1.976-2.388-3.174
						c-0.958-3.732,3.476-7.193,9.929-7.755c2.13-0.177,4.204-0.022,6.076,0.412L224.21,330.985z"/>
					<path fill="#DAEEB2" d="M235.013,333.691c-1.572,2.076-4.883,3.663-9.063,4.024c-0.741,0.063-1.49,0.074-2.213,0.069l0.473-6.8
						L235.013,333.691z"/>
				</g>
				<g>
					<path fill="#A6D0F0" d="M255.808,308.909c3.401,0.777,6.098,2.441,7.073,4.581l-11.425,1.746L255.808,308.909z"/>
					<path fill="#F2C2A0" d="M262.881,313.49c0.112,0.242,0.204,0.487,0.27,0.735c0.341,1.318-0.007,2.593-0.864,3.729
						l-10.831-2.719L262.881,313.49z"/>
					<path fill="#6CD2F2" d="M250.991,322.052c-3.528-0.082-6.741-1.066-8.83-2.608l9.294-4.207L250.991,322.052z"/>
					<path fill="#A6D0F0" d="M251.456,315.236l-9.294,4.207c-1.23-0.901-2.079-1.992-2.386-3.187
						c-0.973-3.743,3.476-7.212,9.932-7.767c2.137-0.188,4.226-0.024,6.101,0.419L251.456,315.236z"/>
					<path fill="#F2C2A0" d="M262.286,317.955c-1.568,2.083-4.901,3.664-9.075,4.021c-0.748,0.068-1.494,0.089-2.22,0.076
						l0.464-6.815L262.286,317.955z"/>
				</g>
				<g>
					<polygon fill="#C2C7D4" points="224.518,288.469 240.475,297.66 242.366,296.568 226.431,287.364 					"/>
				</g>
				<g>
					<polygon fill="#C2C7D4" points="219.666,291.271 235.607,300.471 237.505,299.375 221.57,290.17 					"/>
				</g>
				<g>
					<polygon fill="#C2C7D4" points="214.799,294.08 230.748,303.277 232.645,302.181 216.711,292.977 					"/>
				</g>
				<g>
					<polygon fill="#C2C7D4" points="209.946,296.881 225.888,306.081 227.793,304.981 211.851,295.782 					"/>
				</g>
				<g>
					<polygon fill="#C2C7D4" points="205.079,299.69 221.037,308.884 222.927,307.791 206.981,298.584 					"/>
				</g>
				<g>
					<polygon fill="#C2C7D4" points="192.859,306.748 208.793,315.952 210.705,314.847 194.756,305.651 					"/>
				</g>
				<g>
					<polygon fill="#C2C7D4" points="188.005,309.551 203.94,318.753 205.846,317.653 189.896,308.459 					"/>
				</g>
				<g>
					<polygon fill="#C2C7D4" points="183.138,312.359 199.085,321.566 200.972,320.468 185.044,311.26 					"/>
				</g>
				<g>
					<polygon fill="#C2C7D4" points="178.286,315.161 194.22,324.365 196.111,323.272 180.177,314.07 					"/>
				</g>
				<g>
					<polygon fill="#C2C7D4" points="242.293,277.335 283.875,301.34 285.78,300.241 244.197,276.236 					"/>
				</g>
				<g>
					<polygon fill="#C2C7D4" points="237.764,279.951 286.018,307.81 287.923,306.709 239.654,278.858 					"/>
				</g>
				<g>
					<polygon fill="#C2C7D4" points="233.077,282.606 281.338,310.465 283.228,309.371 234.968,281.515 					"/>
				</g>
			</g>
			
				<linearGradient id="SVGID_2_" gradientUnits="userSpaceOnUse" x1="530.2227" y1="158.1338" x2="530.8251" y2="57.1194" gradientTransform="matrix(-0.5 -0.866 0.866 -0.5 410.462 816.6652)">
				<stop  offset="0" style="stop-color:#B1ECF2"/>
				<stop  offset="0.9559" style="stop-color:#B1F2F2"/>
			</linearGradient>
			<path fill="url(#SVGID_2_)" d="M167.767,309.176l-10.123,5.846l0.002,0.201l64.706,37.53l91.373-52.937l0.007-0.205
				L249.03,262.26l-63.959,36.927c-3.291-1.331-7.849-1.144-10.783,0.549l-5.564,3.213
				C165.79,304.642,165.477,307.269,167.767,309.176z"/>
			
				<linearGradient id="SVGID_3_" gradientUnits="userSpaceOnUse" x1="495.3584" y1="162.2056" x2="495.8038" y2="87.516" gradientTransform="matrix(-0.5 -0.866 0.866 -0.5 410.462 816.6652)">
				<stop  offset="0" style="stop-color:#2ACAFF"/>
				<stop  offset="0.9559" style="stop-color:#2ADEFF"/>
			</linearGradient>
			<polygon fill="url(#SVGID_3_)" points="222.302,353.481 222.352,352.753 313.725,299.816 313.67,300.537 			"/>
		</g>
	</g>
	<g>
		<polygon fill="#E2E7E8" points="422.412,286.309 422.706,286.139 353.891,246.446 353.199,246.047 255.52,302.704 255.52,302.92 
			324.722,342.611 324.871,342.524 325.016,342.608 400.028,299.245 422.412,286.358 		"/>
		<polygon fill="#E9F0F4" points="422.405,274.753 353.193,234.651 255.513,291.309 255.513,291.524 324.716,331.216 
			422.406,274.963 		"/>
		<polygon fill="#F7F7F7" points="422.701,274.743 353.505,234.833 255.809,291.303 325.011,331.212 		"/>
		<g>
			<g>
				<path fill="#C2C7D4" d="M352.281,241.758l55.762,32.161l-32.548,18.813l-55.763-32.16L352.281,241.758z M407.686,273.919
					l-55.404-31.955L320.09,260.57l55.405,31.953L407.686,273.919z"/>
			</g>
			<g>
				<polygon fill="#C2C7D4" points="328.773,255.45 384.355,287.509 384.176,287.612 328.592,255.554 				"/>
			</g>
			<g>
				<polygon fill="#C2C7D4" points="336.654,250.893 392.24,282.95 392.061,283.055 336.479,250.996 				"/>
			</g>
			<g>
				<polygon fill="#C2C7D4" points="344.225,246.518 399.812,278.574 399.63,278.678 344.047,246.62 				"/>
			</g>
			<g>
				<polygon fill="#C2C7D4" points="388.283,262.629 388.464,262.729 356.096,281.44 355.917,281.336 				"/>
			</g>
			<g>
				<polygon fill="#C2C7D4" points="369.85,251.996 370.029,252.101 337.662,270.808 337.483,270.707 				"/>
			</g>
			<g>
				<path fill="#F2C2A0" d="M351.435,241.32l-2.103,2.162l-6.4,5.759l5.752-1.09l8.839-2.837l-0.184,2.151l1.738,1.005l-0.093,0.096
					c-1.566,1.61-4.083,4.259-4.176,4.507c0,0,0.005-0.012,0.001-0.031c0.014,0.117-0.458,0.59-9.397,7.958
					c-3.699,3.052-7.442,6.12-8.838,7.263l5.77-1.63l3.057,0.181l4.848-0.65l0.035,2.278l-2.633,3.703l4.417-0.572l19.349-9.168
					l0.551,2.023l-5.201,4.949l0.653,1.733l3.019,1.127l-1.013,2.441l3.78-0.103l8.78-3.734l2.175,1.258l-6.702,6.462l2.036,0.751
					l7.067-0.043l2.514,1.452l-12.563,9.189l6.729,0.278l-0.038,0.289l-7.683-0.316l12.877-9.419l-2.046-1.177l-7.004,0.037
					l-2.58-0.947l6.753-6.514l-1.587-0.915l-8.554,3.636l-4.604,0.127l1.086-2.619l-2.892-1.079l-0.745-1.965l5.212-4.961
					l-0.386-1.411l-18.755,8.887l-5.482,0.71l2.96-4.165l-0.028-1.857l-4.313,0.578l-2.998-0.178l-7.417,2.101l0.572-0.468
					c5.096-4.172,18.396-15.096,18.729-15.543c0,0.002-0.021,0.03-0.011,0.067c-0.018-0.094,0.17-0.479,4.142-4.568l-1.629-0.938
					l0.151-1.755l-8.108,2.599l-7.127,1.351l7.161-6.443l2.098-2.155L351.435,241.32z"/>
			</g>
			<g>
				<path fill="#9BA5E3" d="M352.034,245.282l-0.094,0.097c-1.565,1.609-4.082,4.259-4.176,4.508c0,0,0.005-0.013,0.002-0.03
					c0.013,0.116-0.459,0.59-9.398,7.956c-3.698,3.052-7.443,6.12-8.838,7.264l5.769-1.63l3.058,0.18l4.848-0.649l0.034,2.279
					l-2.632,3.701l4.418-0.571l19.347-9.168l0.553,2.023l-5.203,4.948l0.654,1.734l3.018,1.126l-1.012,2.442l3.78-0.104l8.78-3.734
					l2.175,1.257l-6.702,6.466l2.036,0.749l7.067-0.042l2.513,1.451l-12.563,9.188l-0.99,0.253l12.879-9.419l-2.046-1.178
					l-7.005,0.038l-2.58-0.947l6.754-6.513l-1.588-0.917l-8.553,3.636l-4.606,0.127l1.086-2.618l-2.891-1.08l-0.745-1.964
					l5.213-4.961l-0.388-1.409l-18.754,8.885l-5.483,0.71l2.962-4.165l-0.029-1.857l-4.313,0.577l-2.999-0.177l-7.417,2.101
					l0.571-0.469c5.096-4.171,18.398-15.095,18.729-15.542c0,0.002-0.02,0.029-0.01,0.067c-0.02-0.093,0.17-0.479,4.142-4.566
					L352.034,245.282z"/>
			</g>
		</g>
		<g>
			<g>
				<path fill="#C2C7D4" d="M313.417,265.311l55.764,32.161l-32.548,18.813l-55.762-32.16L313.417,265.311z M368.823,297.473
					l-55.406-31.954l-32.189,18.604l55.405,31.953L368.823,297.473z"/>
			</g>
			<g>
				<polygon fill="#C2C7D4" points="289.91,279.002 345.493,311.061 345.313,311.164 289.729,279.107 				"/>
			</g>
			<g>
				<polygon fill="#C2C7D4" points="297.792,274.445 353.378,306.504 353.198,306.607 297.614,274.549 				"/>
			</g>
			<g>
				<polygon fill="#C2C7D4" points="305.362,270.07 360.949,302.128 360.768,302.231 305.184,270.172 				"/>
			</g>
			<g>
				<polygon fill="#C2C7D4" points="349.421,286.18 349.6,286.283 317.232,304.991 317.054,304.889 				"/>
			</g>
			<g>
				<polygon fill="#C2C7D4" points="330.986,275.549 331.166,275.651 298.8,294.36 298.62,294.257 				"/>
			</g>
			<g>
				<path fill="#C3F1C8" d="M312.572,264.872l-2.103,2.162l-6.402,5.759l5.753-1.089l8.839-2.836l-0.183,2.149l1.738,1.004
					l-0.094,0.097c-1.566,1.61-4.083,4.26-4.176,4.507c0,0,0.006-0.012,0.002-0.029c0.014,0.114-4.561,13.12-4.561,13.12
					l0.034,2.278l-2.632,3.704l4.415-0.575l19.349-9.168l0.553,2.025l-1.53,7.809l-1.013,2.44l10.068,4.634l7.067-0.041l2.514,1.449
					l-12.563,9.19l6.729,0.278l-0.037,0.289l-7.683-0.315l12.875-9.418l-2.043-1.18l-7.006,0.04l-10.571-4.613l1.086-2.62
					l1.576-8.004l-0.387-1.409l-18.756,8.885l-5.484,0.71l2.963-4.165l-0.029-1.854c0,0,4.24-13.065,4.573-13.513
					c0,0.002-0.021,0.029-0.011,0.066c-0.019-0.091,0.171-0.479,4.14-4.567l-1.627-0.937l0.15-1.757L310,271.977l-7.127,1.351
					l7.16-6.443l2.099-2.155L312.572,264.872z"/>
			</g>
			<g>
				<path fill="#FF6D00" d="M313.172,268.835l-0.094,0.096c-1.566,1.611-4.083,4.26-4.177,4.508c0,0,0.006-0.011,0.003-0.029
					c0.013,0.115-0.46,0.589-9.398,7.956c-3.698,3.05-7.444,6.12-8.84,7.264l5.77-1.632l3.059,0.181l4.848-0.648l0.034,2.278
					l-2.632,3.703l4.417-0.573l19.347-9.168l0.554,2.023l-5.203,4.948l0.654,1.736l3.018,1.124l-1.013,2.441l3.781-0.102
					l8.779-3.734l2.175,1.256l-6.702,6.467l2.036,0.748l7.068-0.041l2.512,1.449l-12.563,9.189l-0.99,0.253l12.877-9.42
					l-2.044-1.179l-7.006,0.041l-2.581-0.948l6.755-6.514l-1.588-0.915l-8.553,3.637l-4.606,0.125l1.087-2.619l-2.891-1.079
					l-0.745-1.966l5.213-4.959l-0.388-1.41l-18.755,8.887l-5.483,0.711l2.961-4.168l-0.029-1.854l-4.313,0.577l-2.997-0.177
					l-7.417,2.098l0.569-0.467c5.097-4.173,18.398-15.096,18.729-15.543c0,0.002-0.019,0.029-0.01,0.066
					c-0.019-0.091,0.171-0.479,4.142-4.566L313.172,268.835z"/>
			</g>
		</g>
		<g>
			<polygon fill="#C2C7D4" points="274.035,287.562 331.011,320.42 333.34,319.074 276.363,286.214 			"/>
			<polygon fill="#C2C7D4" points="267.586,291.29 324.56,324.148 326.889,322.802 269.915,289.944 			"/>
		</g>
	</g>
	<g>
		<polygon fill="#E2E7E8" points="125.625,209.341 180.309,240.913 257.549,196.311 202.864,164.741 		"/>
		<polygon fill="#E9F0F4" points="126.211,208.812 180.905,240.532 258.141,195.791 258.141,195.615 203.456,164.217 
			126.211,208.644 		"/>
		<polygon fill="#F2F1E7" points="126.211,208.644 180.895,240.219 258.141,195.615 203.456,164.046 		"/>
		<g>
			<g>
				<polygon fill="#A6D0F0" points="207.078,191.639 205.503,192.55 182.996,179.55 184.57,178.639 				"/>
				<polygon fill="#FF6D00" points="208.657,190.726 207.078,191.639 191.688,182.748 193.263,181.837 				"/>
				<polygon fill="#F2C2A0" points="210.231,189.82 208.657,190.726 198.977,185.137 200.551,184.229 				"/>
				<polygon fill="#C3F1C8" points="211.804,188.909 210.231,189.82 191.326,178.901 192.899,177.99 				"/>
			</g>
			<g>
				<polygon fill="#A6D0F0" points="218.558,185.011 216.984,185.919 199.873,176.042 201.448,175.133 				"/>
				<polygon fill="#FF6D00" points="220.131,184.097 218.558,185.011 206.856,178.251 208.436,177.346 				"/>
				<polygon fill="#F2C2A0" points="221.706,183.189 220.131,184.097 212.777,179.849 214.35,178.943 				"/>
				<polygon fill="#C3F1C8" points="223.285,182.281 221.706,183.189 216.574,180.224 218.142,179.31 				"/>
			</g>
			<g>
				<polygon fill="#A6D0F0" points="182.764,205.371 181.192,206.276 169.942,199.783 171.515,198.871 				"/>
				<polygon fill="#FF6D00" points="184.349,204.461 182.764,205.371 167.376,196.484 168.955,195.57 				"/>
				<polygon fill="#F2C2A0" points="185.923,203.553 184.349,204.461 174.669,198.871 176.242,197.96 				"/>
				<polygon fill="#C3F1C8" points="187.496,202.641 185.923,203.553 167.018,192.631 168.591,191.723 				"/>
			</g>
			<g>
				<polygon fill="#A6D0F0" points="194.249,198.741 192.672,199.654 189.076,197.576 190.649,196.661 				"/>
				<polygon fill="#FF6D00" points="195.824,197.833 194.249,198.741 182.547,191.99 184.122,191.079 				"/>
				<polygon fill="#F2C2A0" points="197.396,196.926 195.824,197.833 179.463,188.391 181.043,187.48 				"/>
				<polygon fill="#C3F1C8" points="198.972,196.015 197.396,196.926 192.259,193.955 193.833,193.047 				"/>
			</g>
			<polygon fill="#C2C7D4" points="160.7,201.984 146.769,210.023 145.433,209.25 159.359,201.21 			"/>
			<polygon fill="#C2C7D4" points="163.494,203.599 149.564,211.638 148.228,210.868 162.159,202.824 			"/>
			<polygon fill="#C2C7D4" points="166.288,205.211 152.356,213.254 151.02,212.478 164.952,204.434 			"/>
			<polygon fill="#C2C7D4" points="169.082,206.82 155.155,214.865 153.814,214.093 167.739,206.05 			"/>
			<polygon fill="#C2C7D4" points="171.875,208.438 157.944,216.48 156.607,215.707 170.534,207.666 			"/>
			<polygon fill="#C2C7D4" points="174.669,210.052 160.744,218.092 159.405,217.32 173.334,209.275 			"/>
			<polygon fill="#C2C7D4" points="182.875,215.83 168.95,223.873 167.609,223.1 181.534,215.06 			"/>
			<polygon fill="#C2C7D4" points="185.67,217.444 171.744,225.486 170.4,224.714 184.328,216.67 			"/>
			<polygon fill="#C2C7D4" points="188.462,219.058 174.536,227.102 173.201,226.326 187.121,218.282 			"/>
			<polygon fill="#C2C7D4" points="191.257,220.673 177.331,228.714 175.989,227.937 189.918,219.896 			"/>
			<polygon fill="#C2C7D4" points="194.05,222.279 180.125,230.324 178.783,229.551 192.713,221.508 			"/>
			<polygon fill="#C2C7D4" points="196.849,223.897 182.916,231.938 181.581,231.166 195.509,223.124 			"/>
			<g>
				<path fill="#C3F1C8" d="M227.979,190.263c-2.877,0.665-5.164,2.083-5.998,3.901l9.69,1.475L227.979,190.263z"/>
				<path fill="#FF6D00" d="M221.981,194.164c-0.085,0.202-0.169,0.411-0.221,0.617c-0.293,1.115,0,2.203,0.728,3.17l9.184-2.313
					L221.981,194.164z"/>
				<path fill="#F2C2A0" d="M232.072,201.422c2.99-0.068,5.709-0.903,7.499-2.219l-7.9-3.564L232.072,201.422z"/>
				<path fill="#A6D0F0" d="M231.671,195.639l7.9,3.564c1.034-0.762,1.749-1.688,2.018-2.7c0.818-3.166-2.958-6.103-8.428-6.586
					c-1.817-0.158-3.585-0.016-5.182,0.346L231.671,195.639z"/>
				<path fill="#FF6D00" d="M222.488,197.951c1.335,1.762,4.155,3.104,7.7,3.415c0.635,0.056,1.272,0.067,1.885,0.056l-0.401-5.783
					L222.488,197.951z"/>
			</g>
			<g>
				<path fill="#C3F1C8" d="M207.384,201.402c-2.878,0.663-5.164,2.083-5.998,3.896l9.69,1.481L207.384,201.402z"/>
				<path fill="#F2C2A0" d="M201.386,205.299c-0.08,0.205-0.169,0.416-0.224,0.621c-0.291,1.117,0,2.201,0.73,3.167l9.184-2.307
					L201.386,205.299z"/>
				<path fill="#A6D0F0" d="M211.477,212.559c2.989-0.061,5.708-0.897,7.494-2.218l-7.895-3.561L211.477,212.559z"/>
				<path fill="#C3F1C8" d="M211.076,206.78l7.895,3.561c1.035-0.763,1.755-1.683,2.022-2.694c0.819-3.171-2.957-6.107-8.433-6.587
					c-1.806-0.161-3.581-0.019-5.176,0.343L211.076,206.78z"/>
				<path fill="#FF6D00" d="M201.893,209.087c1.335,1.767,4.156,3.105,7.693,3.42c0.639,0.052,1.278,0.07,1.891,0.052l-0.401-5.778
					L201.893,209.087z"/>
			</g>
		</g>
	</g>
	<g>
		<polygon fill="#E2E7E8" points="395.012,197.266 340.317,228.985 263.083,184.244 263.083,184.068 317.768,152.67 
			395.012,197.097 		"/>
		<polygon fill="#E9F0F4" points="395.012,193.467 340.317,225.188 263.083,180.446 263.083,180.269 317.768,148.872 
			395.012,193.298 		"/>
	</g>
	<g>
		<polygon fill="#E2E7E8" points="343.475,149.102 261.658,196.342 261.658,196.515 319.584,230.112 401.388,182.721 
			401.388,182.54 		"/>
		<g>
			<polygon fill="#E9F0F4" points="261.658,187.018 319.584,220.615 401.388,173.225 401.388,173.043 343.475,139.792 
				261.658,186.844 			"/>
			<polygon fill="#FCFBFA" points="261.658,186.844 319.578,220.283 401.388,173.043 343.475,139.605 			"/>
			<g>
				<path fill="#6CD2F2" d="M327.772,193.146c3.251,0.747,5.817,2.342,6.748,4.381l-10.893,1.671L327.772,193.146z"/>
				<path fill="#FF6D00" d="M334.521,197.526c0.102,0.235,0.193,0.468,0.255,0.704c0.327,1.252-0.005,2.475-0.821,3.553
					l-10.326-2.586L334.521,197.526z"/>
				<path fill="#60C2EC" d="M323.181,205.693c-3.362-0.077-6.427-1.021-8.428-2.498l8.875-3.998L323.181,205.693z"/>
				<path fill="#C3F1C8" d="M323.628,199.197l-8.875,3.998c-1.157-0.859-1.97-1.889-2.264-3.037
					c-0.924-3.557,3.312-6.869,9.466-7.397c2.042-0.173,4.027-0.021,5.817,0.385L323.628,199.197z"/>
				<path fill="#DAEEB2" d="M333.954,201.783c-1.498,1.986-4.676,3.502-8.651,3.844c-0.72,0.064-1.426,0.082-2.122,0.066
					l0.447-6.496L333.954,201.783z"/>
			</g>
			<g>
				<path fill="#F2C2A0" d="M353.813,178.109c3.246,0.742,5.824,2.341,6.758,4.386l-10.908,1.659L353.813,178.109z"/>
				<path fill="#A6D0F0" d="M360.57,182.496c0.103,0.228,0.194,0.465,0.258,0.695c0.325,1.258-0.011,2.481-0.822,3.569
					l-10.344-2.604L360.57,182.496z"/>
				<path fill="#6CD2F2" d="M349.215,190.665c-3.37-0.074-6.437-1.014-8.444-2.495l8.892-4.015L349.215,190.665z"/>
				<path fill="#F2C2A0" d="M349.662,184.155l-8.892,4.015c-1.171-0.858-1.974-1.896-2.271-3.042
					c-0.928-3.567,3.325-6.873,9.485-7.409c2.046-0.179,4.035-0.022,5.827,0.391L349.662,184.155z"/>
				<path fill="#A6D0F0" d="M360.006,186.759c-1.506,1.987-4.681,3.495-8.668,3.846c-0.723,0.06-1.437,0.081-2.123,0.06l0.447-6.51
					L360.006,186.759z"/>
			</g>
			<g>
				<polygon fill="#C2C7D4" points="323.929,158.585 339.166,167.376 340.975,166.333 325.744,157.539 				"/>
			</g>
			<g>
				<polygon fill="#C2C7D4" points="319.293,161.266 334.524,170.061 336.339,169.014 321.106,160.216 				"/>
			</g>
			<g>
				<polygon fill="#C2C7D4" points="314.655,163.949 329.883,172.74 331.696,171.693 316.463,162.896 				"/>
			</g>
			<g>
				<polygon fill="#C2C7D4" points="310.006,166.629 325.24,175.417 327.054,174.374 311.82,165.577 				"/>
			</g>
			<g>
				<polygon fill="#C2C7D4" points="305.36,169.305 320.6,178.104 322.411,177.056 307.179,168.254 				"/>
			</g>
			<g>
				<polygon fill="#C2C7D4" points="293.685,176.051 308.92,184.851 310.732,183.798 295.505,175.004 				"/>
			</g>
			<g>
				<polygon fill="#C2C7D4" points="289.051,178.731 304.277,187.526 306.089,186.476 290.861,177.683 				"/>
			</g>
			<g>
				<polygon fill="#C2C7D4" points="284.401,181.412 299.635,190.207 301.441,189.16 286.215,180.359 				"/>
			</g>
			<g>
				<polygon fill="#C2C7D4" points="279.759,184.087 294.996,192.887 296.81,191.837 281.571,183.043 				"/>
			</g>
			<g>
				<polygon fill="#C2C7D4" points="340.907,147.956 380.623,170.887 382.435,169.837 342.721,146.903 				"/>
			</g>
			<g>
				<polygon fill="#C2C7D4" points="336.572,150.456 382.675,177.072 384.49,176.026 338.388,149.409 				"/>
			</g>
			<g>
				<polygon fill="#C2C7D4" points="332.102,152.996 378.194,179.611 380.013,178.56 333.909,151.947 				"/>
			</g>
		</g>
	</g>
	<path fill="#E2E7E8" d="M316.599,187.791l-0.485-0.28l0.439-0.253l-0.004-0.193l-10.137-5.852c2.295-1.897,1.993-4.527-0.956-6.228
		l-5.558-3.208c-2.939-1.698-7.486-1.878-10.788-0.556l-63.954-36.922l-64.688,37.35l0.006,0.205l0.042,0.724l91.382,52.94
		l1.218-0.707l1.101,0.639l60.646-35.179l0.004-0.189l-0.935-0.54l2.666-1.547V187.791z"/>
	<g>
		
			<linearGradient id="SVGID_4_" gradientUnits="userSpaceOnUse" x1="569.9951" y1="675.46" x2="559.8775" y2="782.1293" gradientTransform="matrix(0.5 -0.866 -0.866 -0.5 591.2587 1019.6027)">
			<stop  offset="0" style="stop-color:#B1ECF2"/>
			<stop  offset="0.9559" style="stop-color:#B1F2F2"/>
		</linearGradient>
		<polygon fill="url(#SVGID_4_)" points="316.599,171.647 316.599,171.849 251.898,209.371 160.516,156.433 160.511,156.228 
			225.216,118.879 		"/>
		<g>
			<polygon fill="#E9F0F4" points="314.863,174.125 254.217,209.304 168.571,159.684 168.574,159.493 229.213,124.675 
				314.867,173.936 			"/>
			<polygon fill="#FCFBFA" points="314.867,173.936 254.23,208.946 168.574,159.493 229.214,124.474 			"/>
			<g>
				<path fill="#6CD2F2" d="M245.652,180.541c-3.401,0.777-6.095,2.452-7.071,4.592l11.41,1.736L245.652,180.541z"/>
				<path fill="#9BA5E3" d="M238.582,185.133c-0.107,0.235-0.199,0.478-0.267,0.727c-0.338,1.319,0.008,2.593,0.851,3.723
					l10.825-2.713L238.582,185.133z"/>
				<path fill="#60C2EC" d="M250.457,193.665c3.522-0.067,6.719-1.058,8.826-2.601l-9.291-4.195L250.457,193.665z"/>
				<path fill="#C3F1C8" d="M249.991,186.869l9.291,4.195c1.212-0.901,2.058-1.985,2.372-3.194c0.964-3.709-3.48-7.185-9.919-7.74
					c-2.139-0.18-4.216-0.019-6.083,0.411L249.991,186.869z"/>
				<path fill="#DAEEB2" d="M239.166,189.583c1.577,2.068,4.901,3.664,9.068,4.017c0.755,0.07,1.501,0.09,2.223,0.065l-0.465-6.796
					L239.166,189.583z"/>
			</g>
			<g>
				<path fill="#A6D0F0" d="M218.377,164.793c-3.394,0.781-6.095,2.452-7.07,4.592l11.425,1.746L218.377,164.793z"/>
				<path fill="#F2C2A0" d="M211.307,169.386c-0.1,0.239-0.199,0.479-0.267,0.727c-0.339,1.319,0.012,2.604,0.862,3.738l10.83-2.719
					L211.307,169.386z"/>
				<path fill="#6CD2F2" d="M223.208,177.944c3.522-0.076,6.728-1.063,8.836-2.606l-9.311-4.207L223.208,177.944z"/>
				<path fill="#A6D0F0" d="M222.732,171.131l9.311,4.207c1.216-0.909,2.058-1.985,2.372-3.194c0.976-3.73-3.472-7.2-9.938-7.759
					c-2.133-0.187-4.222-0.024-6.1,0.408L222.732,171.131z"/>
				<path fill="#F2C2A0" d="M211.902,173.851c1.571,2.077,4.9,3.663,9.07,4.03c0.759,0.063,1.497,0.078,2.235,0.063l-0.475-6.813
					L211.902,173.851z"/>
			</g>
			<g>
				<polygon fill="#C2C7D4" points="249.662,144.36 233.72,153.559 231.821,152.463 247.771,143.269 				"/>
			</g>
			<g>
				<polygon fill="#C2C7D4" points="254.521,147.166 238.572,156.362 236.682,155.27 252.624,146.071 				"/>
			</g>
			<g>
				<polygon fill="#C2C7D4" points="259.382,149.972 243.439,159.172 241.542,158.076 257.495,148.873 				"/>
			</g>
			<g>
				<polygon fill="#C2C7D4" points="264.24,152.776 248.292,161.973 246.4,160.882 262.342,151.682 				"/>
			</g>
			<g>
				<polygon fill="#C2C7D4" points="269.101,155.583 253.157,164.782 251.253,163.683 267.214,154.485 				"/>
			</g>
			<g>
				<polygon fill="#C2C7D4" points="281.337,162.647 265.389,171.843 263.489,170.747 279.431,161.547 				"/>
			</g>
			<g>
				<polygon fill="#C2C7D4" points="286.188,165.448 270.254,174.654 268.349,173.554 284.282,164.349 				"/>
			</g>
			<g>
				<polygon fill="#C2C7D4" points="291.055,168.259 275.099,177.469 273.216,176.363 289.15,167.158 				"/>
			</g>
			<g>
				<polygon fill="#C2C7D4" points="295.914,171.065 279.969,180.272 278.068,179.164 294.009,169.965 				"/>
			</g>
			<g>
				<polygon fill="#C2C7D4" points="231.899,133.222 190.313,157.237 188.416,156.141 230,132.126 				"/>
			</g>
			<g>
				<polygon fill="#C2C7D4" points="236.436,135.841 188.166,163.712 186.268,162.616 234.531,134.741 				"/>
			</g>
			<g>
				<polygon fill="#C2C7D4" points="241.117,138.507 192.855,166.362 190.951,165.263 239.212,137.406 				"/>
			</g>
		</g>
		
			<linearGradient id="SVGID_5_" gradientUnits="userSpaceOnUse" x1="567.001" y1="788.5186" x2="567.6034" y2="687.5049" gradientTransform="matrix(0.5 -0.866 -0.866 -0.5 591.2587 1019.6027)">
			<stop  offset="0" style="stop-color:#B1ECF2"/>
			<stop  offset="0.9559" style="stop-color:#B1F2F2"/>
		</linearGradient>
		<path fill="url(#SVGID_5_)" d="M306.412,165.068l10.137,5.852l0.004,0.193l-64.707,37.531l-91.371-52.935l-0.006-0.206
			l64.688-37.349l63.954,36.922c3.302-1.323,7.849-1.143,10.788,0.554l5.558,3.208C308.405,160.541,308.707,163.171,306.412,165.068
			z"/>
		
			<linearGradient id="SVGID_6_" gradientUnits="userSpaceOnUse" x1="532.1426" y1="792.5898" x2="532.588" y2="717.9009" gradientTransform="matrix(0.5 -0.866 -0.866 -0.5 591.2587 1019.6027)">
			<stop  offset="0" style="stop-color:#B1ECF2"/>
			<stop  offset="0.9559" style="stop-color:#B1F2F2"/>
		</linearGradient>
		<polygon fill="url(#SVGID_6_)" points="251.898,209.371 251.846,208.644 160.475,155.709 160.516,156.433 		"/>
	</g>
	<polygon fill="#2010F9" points="213.332,213.272 213.332,213.473 148.629,250.997 57.25,198.057 57.244,197.852 121.95,160.503 	
		"/>
	<g>
		<polygon fill="#E2E7E8" points="156.98,248.174 102.287,279.895 25.051,235.152 25.051,234.976 79.736,203.578 156.98,248.005 		
			"/>
		<polygon fill="#E9F0F4" points="156.98,244.375 102.287,276.096 25.051,231.353 25.051,231.178 79.736,199.779 156.98,244.206 		
			"/>
	</g>
	<polygon fill="#E2E7E8" points="222.946,208.494 168.262,240.072 91.017,195.467 145.701,163.896 	"/>
	<polygon fill="#CFE8EA" points="222.946,203.746 168.262,235.324 91.017,190.718 145.701,159.148 	"/>
	<g>
		<polygon fill="#E2E7E8" points="207.114,247.141 207.41,246.971 138.614,207.248 137.921,206.846 40.215,263.458 40.215,263.674 
			109.397,303.399 109.549,303.313 109.692,303.396 184.728,260.068 207.115,247.19 		"/>
		<g>
			<polygon fill="#E9F0F4" points="207.113,235.586 137.921,195.451 40.215,252.062 40.215,252.277 109.397,292.004 
				207.115,235.795 			"/>
			<polygon fill="#F7F7F7" points="207.41,235.574 138.234,195.633 40.509,252.057 109.692,292 			"/>
			<g>
				<g>
					<path fill="#C2C7D4" d="M190.394,233.425l-83.625,48.281L57.931,253.51l83.626-48.283L190.394,233.425z M106.769,281.396
						l83.089-47.973l-48.301-27.887L58.469,253.51L106.769,281.396z"/>
				</g>
				<g>
					<polygon fill="#C2C7D4" points="176.83,225.748 93.474,273.878 93.743,274.032 177.101,225.904 					"/>
				</g>
				<g>
					<polygon fill="#C2C7D4" points="165.001,218.918 81.643,267.045 81.912,267.201 165.27,219.073 					"/>
				</g>
				<g>
					<polygon fill="#C2C7D4" points="153.644,212.36 70.284,260.486 70.554,260.643 153.911,212.514 					"/>
				</g>
				<g>
					<polygon fill="#C2C7D4" points="87.565,236.559 87.294,236.711 135.861,264.754 136.13,264.598 					"/>
				</g>
				<g>
					<polygon fill="#C2C7D4" points="115.208,220.596 114.939,220.752 163.506,248.791 163.774,248.639 					"/>
				</g>
				<g>
					<path fill="#F2C2A0" d="M142.824,204.568l3.158,3.24l9.606,8.637l-8.63-1.631l-13.261-4.247l0.275,3.223l-2.606,1.509
						l0.139,0.145c2.35,2.414,6.128,6.386,6.267,6.759c0,0-0.007-0.02-0.002-0.047c-0.021,0.175,0.688,0.884,14.103,11.931
						c5.552,4.573,11.171,9.175,13.266,10.889l-8.657-2.441l-4.586,0.271l-7.272-0.971l-0.05,3.419l3.951,5.552l-6.626-0.855
						l-29.029-13.738l-0.827,3.035l7.809,7.421l-0.981,2.602l-4.525,1.689l1.518,3.662l-5.67-0.149l-13.171-5.596l-3.263,1.887
						l10.058,9.692l-3.053,1.125l-10.602-0.057l-3.769,2.177l18.852,13.774l-10.096,0.422l0.055,0.437l11.526-0.48l-19.324-14.117
						l3.066-1.771l10.509,0.055l3.869-1.423l-10.136-9.767l2.381-1.373l12.834,5.448l6.907,0.185l-1.63-3.93l4.336-1.618l1.116-2.95
						l-7.823-7.435l0.579-2.117l28.141,13.315l8.227,1.063l-4.446-6.248l0.043-2.784l6.47,0.863l4.497-0.267l11.127,3.142
						l-0.857-0.701c-7.647-6.254-27.609-22.63-28.105-23.302c0,0.003,0.03,0.045,0.015,0.101c0.028-0.138-0.256-0.719-6.214-6.848
						l2.44-1.408l-0.228-2.633l12.164,3.894l10.694,2.02l-10.746-9.663l-3.151-3.229L142.824,204.568z"/>
				</g>
				<g>
					<path fill="#9BA5E3" d="M141.93,210.514l0.139,0.145c2.35,2.413,6.128,6.386,6.267,6.758c0,0-0.007-0.019-0.002-0.045
						c-0.021,0.174,0.688,0.883,14.103,11.93c5.552,4.572,11.171,9.176,13.266,10.889l-8.657-2.443l-4.586,0.273l-7.272-0.97
						l-0.05,3.418l3.95,5.552l-6.625-0.855l-29.029-13.737l-0.827,3.033l7.808,7.421l-0.981,2.603l-4.526,1.69l1.52,3.661
						l-5.671-0.149l-13.173-5.596l-3.262,1.887l10.058,9.691l-3.053,1.127l-10.603-0.059l-3.768,2.179l18.852,13.771l1.485,0.38
						L97.97,258.947l3.065-1.769l10.509,0.054l3.869-1.424l-10.136-9.765l2.381-1.375l12.833,5.448l6.907,0.185l-1.629-3.929
						l4.335-1.62l1.117-2.948l-7.823-7.437l0.578-2.116l28.141,13.316l8.227,1.063l-4.446-6.246l0.042-2.784l6.469,0.862
						l4.498-0.267l11.127,3.141l-0.857-0.7c-7.646-6.255-27.609-22.631-28.107-23.302c0,0.004,0.031,0.045,0.015,0.101
						c0.029-0.138-0.255-0.718-6.213-6.848L141.93,210.514z"/>
				</g>
			</g>
		</g>
	</g>
	<polygon fill="#E2E7E8" points="263.31,177.433 208.625,145.863 131.38,190.461 131.38,190.629 131.544,190.725 130.793,191.158 
		185.478,222.73 262.719,178.127 262.564,178.038 263.31,177.607 	"/>
	<g>
		<polygon fill="#E2E7E8" points="130.793,180.712 185.478,212.284 262.719,167.681 208.033,136.112 		"/>
		<polygon fill="#E9F0F4" points="131.38,180.184 186.074,211.903 263.31,167.161 263.31,166.986 208.625,135.588 131.38,180.015 		
			"/>
		<polygon fill="#F7F7F7" points="131.38,180.015 186.064,211.59 263.31,166.986 208.625,135.417 		"/>
		<g>
			<g>
				<polygon fill="#FF6D00" points="212.248,163.01 210.672,163.921 188.165,150.921 189.739,150.01 				"/>
				<polygon fill="#A6D0F0" points="213.826,162.097 212.248,163.01 196.857,154.119 198.433,153.208 				"/>
				<polygon fill="#C3F1C8" points="215.4,161.191 213.826,162.097 204.146,156.508 205.72,155.601 				"/>
				<polygon fill="#F2C2A0" points="216.975,160.28 215.4,161.191 196.495,150.272 198.068,149.361 				"/>
			</g>
			<g>
				<polygon fill="#FF6D00" points="223.729,156.383 222.153,157.291 205.043,147.413 206.617,146.504 				"/>
				<polygon fill="#A6D0F0" points="225.301,155.468 223.729,156.383 212.025,149.623 213.605,148.717 				"/>
				<polygon fill="#C3F1C8" points="226.875,154.56 225.301,155.468 217.946,151.22 219.519,150.314 				"/>
				<polygon fill="#F2C2A0" points="228.455,153.652 226.875,154.56 221.743,151.595 223.311,150.681 				"/>
			</g>
			<g>
				<polygon fill="#FF6D00" points="187.933,176.74 186.361,177.648 175.112,171.155 176.684,170.242 				"/>
				<polygon fill="#A6D0F0" points="189.518,175.832 187.933,176.74 172.546,167.854 174.124,166.942 				"/>
				<polygon fill="#C3F1C8" points="191.092,174.924 189.518,175.832 179.839,170.242 181.411,169.331 				"/>
				<polygon fill="#F2C2A0" points="192.665,174.013 191.092,174.924 172.187,164.003 173.761,163.094 				"/>
			</g>
			<g>
				<polygon fill="#FF6D00" points="199.419,170.113 197.841,171.026 194.246,168.948 195.818,168.033 				"/>
				<polygon fill="#A6D0F0" points="200.993,169.204 199.419,170.113 187.716,163.361 189.291,162.45 				"/>
				<polygon fill="#C3F1C8" points="202.566,168.296 200.993,169.204 184.632,159.762 186.212,158.852 				"/>
				<polygon fill="#F2C2A0" points="204.141,167.385 202.566,168.296 197.428,165.326 199.002,164.418 				"/>
			</g>
			<polygon fill="#C2C7D4" points="165.87,173.355 151.938,181.395 150.602,180.622 164.528,172.581 			"/>
			<polygon fill="#C2C7D4" points="168.663,174.971 154.734,183.009 153.396,182.238 167.328,174.194 			"/>
			<polygon fill="#C2C7D4" points="171.457,176.583 157.526,184.624 156.19,183.848 170.121,175.806 			"/>
			<polygon fill="#C2C7D4" points="174.251,178.193 160.324,186.236 158.983,185.464 172.908,177.421 			"/>
			<polygon fill="#C2C7D4" points="177.043,179.809 163.114,187.852 161.776,187.078 175.703,179.038 			"/>
			<polygon fill="#C2C7D4" points="179.839,181.422 165.913,189.462 164.574,188.692 178.503,180.648 			"/>
			<polygon fill="#C2C7D4" points="188.043,187.203 174.119,195.244 172.778,194.471 186.703,186.431 			"/>
			<polygon fill="#C2C7D4" points="190.839,188.815 176.913,196.858 175.569,196.085 189.497,188.041 			"/>
			<polygon fill="#C2C7D4" points="193.631,190.43 179.706,198.472 178.371,197.699 192.29,189.654 			"/>
			<polygon fill="#C2C7D4" points="196.427,192.042 182.5,200.085 181.158,199.309 195.089,191.268 			"/>
			<polygon fill="#C2C7D4" points="199.219,193.65 185.294,201.695 183.953,200.922 197.883,192.879 			"/>
			<polygon fill="#C2C7D4" points="202.018,195.27 188.085,203.309 186.75,202.538 200.678,194.494 			"/>
			<g>
				<path fill="#C3F1C8" d="M233.148,161.634c-2.877,0.665-5.164,2.083-5.998,3.9l9.69,1.475L233.148,161.634z"/>
				<path fill="#FF6D00" d="M227.15,165.535c-0.085,0.203-0.168,0.412-0.221,0.618c-0.292,1.116,0,2.204,0.728,3.171l9.184-2.313
					L227.15,165.535z"/>
				<path fill="#F2C2A0" d="M237.241,172.793c2.99-0.069,5.71-0.903,7.499-2.218l-7.9-3.565L237.241,172.793z"/>
				<path fill="#A6D0F0" d="M236.84,167.01l7.9,3.565c1.034-0.763,1.749-1.688,2.019-2.701c0.818-3.166-2.958-6.103-8.429-6.586
					c-1.816-0.158-3.584-0.016-5.182,0.346L236.84,167.01z"/>
				<path fill="#FF6D00" d="M227.657,169.323c1.336,1.761,4.155,3.103,7.7,3.415c0.635,0.055,1.272,0.067,1.885,0.055l-0.401-5.783
					L227.657,169.323z"/>
			</g>
			<g>
				<path fill="#C3F1C8" d="M212.553,172.774c-2.878,0.663-5.164,2.083-5.998,3.897l9.69,1.479L212.553,172.774z"/>
				<path fill="#C3F1C8" d="M206.555,176.672c-0.08,0.204-0.169,0.415-0.222,0.62c-0.292,1.117,0,2.202,0.73,3.166l9.183-2.308
					L206.555,176.672z"/>
				<path fill="#A6D0F0" d="M216.647,183.931c2.988-0.062,5.708-0.898,7.493-2.218l-7.895-3.563L216.647,183.931z"/>
				<path fill="#F2C2A0" d="M216.245,178.15l7.895,3.563c1.036-0.763,1.755-1.682,2.024-2.697c0.818-3.168-2.958-6.107-8.435-6.585
					c-1.806-0.161-3.581-0.019-5.176,0.344L216.245,178.15z"/>
				<path fill="#FF6D00" d="M207.063,180.458c1.335,1.767,4.155,3.108,7.693,3.42c0.639,0.053,1.278,0.071,1.891,0.053l-0.402-5.781
					L207.063,180.458z"/>
			</g>
		</g>
	</g>
	<linearGradient id="SVGID_7_" gradientUnits="userSpaceOnUse" x1="230.9668" y1="228.5742" x2="281.2264" y2="228.5742">
		<stop  offset="0" style="stop-color:#686A6C"/>
		<stop  offset="0.3189" style="stop-color:#787878"/>
		<stop  offset="0.6205" style="stop-color:#4E5154"/>
		<stop  offset="1" style="stop-color:#6B6C6D"/>
	</linearGradient>
	<path fill="url(#SVGID_7_)" d="M273.685,238.791c-9.774,5.642-25.62,5.642-35.396,0c-3.09-1.782-5.202-3.925-6.338-6.188
		c-0.07-0.15-0.139-0.289-0.2-0.438c-1.046-2.353-1.046-4.822,0-7.175c0.061-0.148,0.129-0.289,0.2-0.439
		c1.136-2.261,3.248-4.403,6.338-6.186c9.776-5.651,25.621-5.651,35.396,0C283.452,224.004,283.452,233.151,273.685,238.791z"/>
	<linearGradient id="SVGID_8_" gradientUnits="userSpaceOnUse" x1="230.9658" y1="197.3057" x2="281.2255" y2="197.3057">
		<stop  offset="0" style="stop-color:#366A6C"/>
		<stop  offset="0.3189" style="stop-color:#3F7878"/>
		<stop  offset="0.6205" style="stop-color:#3A5154"/>
		<stop  offset="1" style="stop-color:#486C6D"/>
	</linearGradient>
	<rect x="230.966" y="165.16" fill="url(#SVGID_8_)" width="50.043" height="64.291"/>
	<linearGradient id="SVGID_9_" gradientUnits="userSpaceOnUse" x1="230.9648" y1="165.165" x2="281.0098" y2="165.165">
		<stop  offset="0" style="stop-color:#7E8183"/>
		<stop  offset="0.3189" style="stop-color:#8F8F8F"/>
		<stop  offset="0.6205" style="stop-color:#63676B"/>
		<stop  offset="1" style="stop-color:#828384"/>
	</linearGradient>
	<path fill="url(#SVGID_9_)" d="M273.68,154.95c9.773,5.641,9.773,14.787,0,20.432c-9.771,5.641-25.615,5.641-35.387,0
		c-9.771-5.645-9.771-14.791,0-20.432C248.065,149.307,263.909,149.307,273.68,154.95z"/>
	<linearGradient id="SVGID_10_" gradientUnits="userSpaceOnUse" x1="231.9111" y1="165.1631" x2="280.0654" y2="165.1631">
		<stop  offset="0" style="stop-color:#004A4B"/>
		<stop  offset="0.3189" style="stop-color:#005757"/>
		<stop  offset="0.6205" style="stop-color:#003133"/>
		<stop  offset="1" style="stop-color:#004B4C"/>
	</linearGradient>
	<path fill="url(#SVGID_10_)" d="M277.335,171.353c-1.109,1.174-2.547,2.276-4.324,3.262c-9.397,5.213-24.646,5.213-34.051,0
		c-1.803-1.003-3.264-2.121-4.365-3.32c-4.691-5.025-3.23-11.364,4.365-15.582c2.871-1.591,6.281-2.7,9.911-3.312
		c4.593-0.792,9.521-0.799,14.123-0.025c3.661,0.62,7.121,1.729,10.018,3.337C280.638,159.948,282.082,166.319,277.335,171.353z"/>
	<linearGradient id="SVGID_11_" gradientUnits="userSpaceOnUse" x1="255.9648" y1="151.416" x2="255.9648" y2="179.264">
		<stop  offset="0" style="stop-color:#E8EDF1"/>
		<stop  offset="0.3189" style="stop-color:#FDFDFD"/>
		<stop  offset="0.6205" style="stop-color:#C9D2D9"/>
		<stop  offset="1" style="stop-color:#EDF0F2"/>
	</linearGradient>
	<path fill="url(#SVGID_11_)" d="M277.335,171.353c-1.109,1.174-2.547,2.276-4.324,3.262c-9.397,5.213-24.646,5.213-34.051,0
		c-1.803-1.003-3.264-2.121-4.365-3.32c0.938-8.794,6.624-16.071,14.276-18.894c2.22-0.824,4.609-1.273,7.088-1.273
		c2.467,0,4.83,0.441,7.034,1.248C270.694,155.191,276.405,162.509,277.335,171.353z"/>
	<linearGradient id="SVGID_12_" gradientUnits="userSpaceOnUse" x1="235.5" y1="148.1973" x2="276.6461" y2="148.1973">
		<stop  offset="0" style="stop-color:#E8EDF1"/>
		<stop  offset="0.3189" style="stop-color:#FDFDFD"/>
		<stop  offset="0.6205" style="stop-color:#C9D2D9"/>
		<stop  offset="1" style="stop-color:#EDF0F2"/>
	</linearGradient>
	<path opacity="0.5" fill="url(#SVGID_12_)" d="M270.471,139.834c7.998,4.62,7.998,12.106,0,16.726
		c-8.001,4.618-20.972,4.618-28.97,0c-8-4.62-8-12.106,0-16.726C249.499,135.216,262.47,135.216,270.471,139.834z"/>
	<linearGradient id="SVGID_13_" gradientUnits="userSpaceOnUse" x1="235.502" y1="166.7148" x2="276.6461" y2="166.7148">
		<stop  offset="0" style="stop-color:#E8EDF1"/>
		<stop  offset="0.3189" style="stop-color:#FDFDFD"/>
		<stop  offset="0.6205" style="stop-color:#C9D2D9"/>
		<stop  offset="1" style="stop-color:#EDF0F2"/>
	</linearGradient>
	<path fill="url(#SVGID_13_)" d="M270.474,175.081c-8.003,4.616-20.975,4.616-28.978,0c-2.529-1.46-4.258-3.214-5.188-5.066
		c-0.057-0.123-0.115-0.237-0.164-0.359c-0.857-1.925-0.857-3.948,0-5.874c0.049-0.123,0.107-0.237,0.164-0.359
		c0.93-1.852,2.659-3.605,5.188-5.066c8.003-4.625,20.975-4.625,28.978,0C278.468,162.974,278.468,170.463,270.474,175.081z"/>
	<linearGradient id="SVGID_14_" gradientUnits="userSpaceOnUse" x1="235.5015" y1="157.4805" x2="276.6461" y2="157.4805">
		<stop  offset="0" style="stop-color:#E8EDF1"/>
		<stop  offset="0.3189" style="stop-color:#FDFDFD"/>
		<stop  offset="0.6205" style="stop-color:#C9D2D9"/>
		<stop  offset="1" style="stop-color:#EDF0F2"/>
	</linearGradient>
	<rect x="235.501" y="148.194" fill="url(#SVGID_14_)" width="40.967" height="18.573"/>
	<path fill="#FFFFFF" d="M270.471,139.834c7.998,4.62,7.998,12.106,0,16.726c-8.001,4.618-20.972,4.618-28.97,0
		c-8-4.62-8-12.106,0-16.726C249.499,135.216,262.47,135.216,270.471,139.834z"/>
	<linearGradient id="SVGID_15_" gradientUnits="userSpaceOnUse" x1="236.2734" y1="148.1973" x2="275.6963" y2="148.1973">
		<stop  offset="0" style="stop-color:#E8EDF1"/>
		<stop  offset="0.3189" style="stop-color:#FDFDFD"/>
		<stop  offset="0.6205" style="stop-color:#C9D2D9"/>
		<stop  offset="1" style="stop-color:#EDF0F2"/>
	</linearGradient>
	<path fill="url(#SVGID_15_)" d="M269.922,140.463c7.699,4.271,7.699,11.198,0,15.469c-7.696,4.271-20.177,4.271-27.875,0
		s-7.698-11.197,0-15.469C249.745,136.192,262.226,136.192,269.922,140.463z"/>
	<g>
		<defs>
			<path id="SVGID_16_" d="M291.817,77.539c-0.155,0.574-13.604,59.277-14.058,60.406c-1.076,1.255-3.902,5.477-3.184,6.61
				c2.442,3.847,0.89,8.3-4.654,11.376c-7.696,4.271-20.177,4.271-27.875,0c-3.035-1.685-4.873-3.781-5.515-5.964
				c-0.634-0.968-1.272-1.771-2.361-3.344c-1.896-1.73-26.266-39.805-26.381-43.301c-0.137-4.179,8.461-28.707,18.899-42.958
				c7.72-10.539,19.946-14.099,23.04-14.234C257.085,45.81,293.63,70.884,291.817,77.539z"/>
		</defs>
		<clipPath id="SVGID_17_">
			<use xlink:href="#SVGID_16_"  overflow="visible"/>
		</clipPath>
		<path clip-path="url(#SVGID_17_)" fill="#0D186B" d="M287.265,76.544c0,0-3.737-2.475-5.684-2.832
			c-0.238-0.074-0.518-0.097-0.854-0.056c-3.112,0.376-5.781,4.84-7.337,8.609c-1.556,3.768-1.037,6.547-3.838,12.199
			c-2.798,5.651-6.751,4.201-7.777,1.507c-1.376-3.613-1.49-10-1.744-12.622c-0.255-2.624-0.954-16.161-1.209-17.78
			c-0.155-0.981-0.43-5.667-1.044-9.607l3.384-3.085c0,0-3.719-2.464-5.67-2.83c-1.9-0.927-4.477,1.125-5.321,3.219
			c-1.384,3.432,0.944,16.276,0.741,20.255c-0.202,3.979-0.18,16.307-0.944,16.615c-0.763,0.309-1.684-6.121-3.194-10.607
			c-1.058-3.146-3.506-13.657-5.104-20.506l2.824-2.576c0,0-4.341-2.877-6.104-2.877c-0.005,0.007-0.011,0.017-0.017,0.025
			c-1.01-0.052-2.039,0.735-2.922,1.519c-1.911,1.697-1.794,5.957-1.221,8.31c0.574,2.352,2.874,16.84,3.703,20.735
			c0.827,3.896,2.769,14.167,2.355,14.618c-0.636,0.694-4.649-12.072-5.032-13.075c-0.27-0.711-2.681-7.337-4.626-11.908
			l2.494-2.274c0,0-4.341-2.876-6.104-2.876v0c-1.265-0.171-2.638,0.958-3.774,2.704c-1.655,2.546-0.32,6.096,0.126,7.523
			c0.446,1.426,5.135,17.323,6.091,20.908c0.954,3.586,3.63,9.604,2.101,11.609c-1.528,2.006-5.271-1.532-6.354-2.729
			c-0.558-0.617-1.755-1.929-2.99-3.234l1.357-1.302c-0.071-0.064-1.609-1.365-3.476-2.131c-1.047-0.429-6.361,3.166-6.523,4.714
			c-0.32,3.041,5.629,9.768,6.856,11.553c2.986,4.349,5.31,7.301,7.261,12.948c3.525,10.203,9.041,19.012,9.974,20.331
			c0.933,1.318,1.555,5.464,1.555,10.552c0,5.087,0.775,13.767,0.775,13.767l27.067-18.086c0,0,0-8.29-0.776-13.848
			c-0.778-5.558-0.313-13.189,1.711-18.746c2.022-5.559,5.443-13.66,7-18.934c1.556-5.276,2.333-10.269,4.512-16.266
			c2.176-5.997,3.489-9.542,3.489-9.542L287.265,76.544z"/>
		<linearGradient id="SVGID_18_" gradientUnits="userSpaceOnUse" x1="218.3242" y1="109.6743" x2="221.1489" y2="103.8198">
			<stop  offset="0.0276" style="stop-color:#16006A"/>
			<stop  offset="0.5979" style="stop-color:#2F00FF"/>
		</linearGradient>
		<path clip-path="url(#SVGID_17_)" fill="url(#SVGID_18_)" d="M225.302,108.76c-0.033-0.035-0.063-0.07-0.093-0.102
			c-0.558-0.617-1.755-1.929-2.99-3.234l1.357-1.302c-0.071-0.064-1.648-1.267-3.476-2.131c-4.159-1.967-6.523,2.906-6.523,5.176
			C213.577,107.404,221.547,109.875,225.302,108.76z"/>
		<linearGradient id="SVGID_19_" gradientUnits="userSpaceOnUse" x1="222.4399" y1="74.3062" x2="233.1235" y2="74.3062">
			<stop  offset="0.0276" style="stop-color:#16006A"/>
			<stop  offset="0.5979" style="stop-color:#2F00FF"/>
		</linearGradient>
		<path clip-path="url(#SVGID_17_)" fill="url(#SVGID_19_)" d="M233.083,79.919c-0.776-2.021-1.653-4.246-2.453-6.125l2.494-2.274
			c0,0-4.341-2.876-6.104-2.876v0c-1.265-0.171-2.638,0.958-3.774,2.704c-0.911,1.403-0.914,3.109-0.66,4.598
			C225.377,78.725,229.363,80.344,233.083,79.919z"/>
		<linearGradient id="SVGID_20_" gradientUnits="userSpaceOnUse" x1="237.8418" y1="63.2876" x2="242.9531" y2="55.424">
			<stop  offset="0.0276" style="stop-color:#16006A"/>
			<stop  offset="0.5979" style="stop-color:#2F00FF"/>
		</linearGradient>
		<path clip-path="url(#SVGID_17_)" fill="url(#SVGID_20_)" d="M243.411,66.698c0.019,0,0.039,0,0.06,0
			c-0.64-2.693-1.268-5.388-1.801-7.674l2.824-2.576c0,0-4.341-2.877-6.104-2.877c-0.005,0.007-0.011,0.017-0.017,0.025
			c-1.01-0.052-2.039,0.735-2.922,1.519c-1.911,1.697-1.794,5.957-1.221,8.31c0.032,0.133,0.07,0.308,0.113,0.514
			C236.581,66.54,240.071,67.949,243.411,66.698z"/>
		<linearGradient id="SVGID_21_" gradientUnits="userSpaceOnUse" x1="254.3848" y1="59.5332" x2="259.9139" y2="50.0547">
			<stop  offset="0.0276" style="stop-color:#16006A"/>
			<stop  offset="0.5979" style="stop-color:#2F00FF"/>
		</linearGradient>
		<path clip-path="url(#SVGID_17_)" fill="url(#SVGID_21_)" d="M258.816,65.536c-0.155-1.042-0.43-5.671-1.038-9.572l3.384-3.085
			c0,0-3.719-2.464-5.67-2.83c-1.9-0.927-4.477,1.125-5.321,3.219c-0.639,1.585-0.486,5.182-0.155,8.985
			C252.22,64.624,255.609,65.903,258.816,65.536z"/>
		<linearGradient id="SVGID_22_" gradientUnits="userSpaceOnUse" x1="270.708" y1="101.5742" x2="283.8362" y2="74.9168">
			<stop  offset="0.0276" style="stop-color:#16006A"/>
			<stop  offset="0.5979" style="stop-color:#2F00FF"/>
		</linearGradient>
		<path clip-path="url(#SVGID_17_)" fill="url(#SVGID_22_)" d="M279.511,89.975c2.176-5.997,3.489-9.542,3.489-9.542l4.265-3.888
			c0,0-3.737-2.475-5.684-2.832c-0.238-0.074-0.518-0.097-0.854-0.056c-3.112,0.376-5.781,4.84-7.337,8.609
			c-1.556,3.768-1.037,6.547-3.838,12.199c-1.283,2.592-2.81,3.688-4.187,3.856c0.063,0.95,0.229,1.885,0.554,2.789
			c0.862,3.925,4.552,6.71,8.438,7.152c0.237-0.708,0.452-1.387,0.641-2.022C276.555,100.965,277.332,95.972,279.511,89.975z"/>
		<path clip-path="url(#SVGID_17_)" fill="#2010F9" d="M267.073,98.543c1.025,2.694,4.977,4.145,7.776-1.507
			c2.801-5.651,2.281-8.431,3.837-12.199c1.555-3.768,4.226-8.232,7.338-8.61c3.111-0.376,1.695,4.52,0.915,7.689
			c-0.775,3.17,0.045,2.634-2.133,8.631c-2.18,5.997-2.955,10.991-4.511,16.266c-1.555,5.275-1.806,17.533-3.827,23.09
			c-2.024,5.559-5.274,12.714-4.496,18.271c0.777,5.558,0.39,10.166,0.39,10.166l-27.068,18.087c0,0-0.312-9.608-0.312-14.696
			c0-5.087-0.622-9.231-1.555-10.551c-0.934-1.319-8.09-16.579-9.801-21.384c-1.711-4.804-5.706-9.633-7.105-11.423
			c-1.401-1.79-8.253-9.885-8.608-12.818c-0.199-1.645,0.37-2.729,0.79-3.227c1.531-1.819,3.457-1.425,4.643-0.41
			c1.509,1.292,6.077,6.117,7.161,7.312c1.082,1.197,4.825,4.735,6.354,2.729c1.528-2.005-1.147-8.022-2.102-11.609
			c-0.956-3.587-5.644-19.482-6.091-20.908c-0.445-1.427-1.781-4.977-0.125-7.523c1.655-2.545,3.818-3.781,5.41-1.583
			c1.592,2.199,6.219,14.935,6.601,15.938c0.382,1.003,4.394,13.769,5.031,13.076c0.415-0.451-1.528-10.723-2.356-14.617
			c-0.827-3.896-3.129-18.384-3.702-20.736c-0.573-2.353-0.69-6.612,1.221-8.309c1.911-1.697,4.511-3.416,6.103,3.411
			c1.592,6.827,4.138,17.781,5.222,21.004c1.511,4.487,2.431,10.916,3.194,10.608c0.763-0.309,0.74-12.635,0.944-16.615
			c0.201-3.98-2.127-16.824-0.741-20.255c0.936-2.32,3.996-4.588,5.906-2.814c1.91,1.774,2.487,13.498,2.743,15.117
			c0.256,1.619,0.955,15.156,1.21,17.779C265.583,88.543,265.696,94.929,267.073,98.543z"/>
	</g>
	<g>
		<path fill="#EBEFF2" d="M239.779,161.276c0,0.795-0.558,1.118-1.248,0.72c-0.689-0.398-1.248-1.365-1.248-2.16
			c0-0.796,0.559-1.118,1.248-0.721C239.222,159.514,239.779,160.481,239.779,161.276z"/>
		<linearGradient id="SVGID_23_" gradientUnits="userSpaceOnUse" x1="237.749" y1="158.6978" x2="239.6322" y2="161.6965">
			<stop  offset="0" style="stop-color:#C9D2D9"/>
			<stop  offset="0.3189" style="stop-color:#FDFDFD"/>
			<stop  offset="0.6205" style="stop-color:#C9D2D9"/>
			<stop  offset="1" style="stop-color:#EDF0F2"/>
		</linearGradient>
		<path fill="url(#SVGID_23_)" d="M239.861,160.866c0,0.751-0.527,1.055-1.178,0.68c-0.651-0.375-1.179-1.289-1.179-2.04
			c0-0.751,0.528-1.055,1.179-0.68C239.334,159.202,239.861,160.114,239.861,160.866z"/>
		<path fill="#FFFFFF" d="M239.639,160.983c0,0.75-0.526,1.055-1.177,0.68c-0.65-0.375-1.179-1.289-1.179-2.04
			c0-0.75,0.528-1.055,1.179-0.68C239.113,159.319,239.639,160.232,239.639,160.983z"/>
		<path fill="#E9EDF2" d="M239.211,160.736c0.001,0.478-0.335,0.67-0.749,0.433c-0.413-0.239-0.748-0.819-0.748-1.297
			s0.335-0.672,0.748-0.433C238.876,159.679,239.211,160.258,239.211,160.736z"/>
		<g>
			<path fill="#768593" d="M238.382,159.901c0,0.121-0.084,0.169-0.188,0.108c-0.104-0.059-0.189-0.207-0.189-0.328
				c0-0.12,0.085-0.169,0.189-0.109C238.298,159.632,238.382,159.78,238.382,159.901z"/>
			<path fill="#768593" d="M238.382,160.609c0,0.121-0.084,0.169-0.188,0.109c-0.104-0.06-0.189-0.206-0.189-0.328
				c0-0.121,0.085-0.169,0.189-0.109C238.298,160.341,238.382,160.488,238.382,160.609z"/>
			<path fill="#768593" d="M238.921,160.216c0,0.122-0.085,0.17-0.19,0.11c-0.103-0.062-0.188-0.208-0.188-0.328
				c0-0.121,0.085-0.169,0.188-0.109C238.835,159.949,238.921,160.095,238.921,160.216z"/>
			<path fill="#768593" d="M238.921,160.925c0,0.122-0.085,0.169-0.19,0.109c-0.103-0.062-0.188-0.207-0.188-0.328
				c0-0.121,0.085-0.17,0.188-0.109C238.835,160.657,238.921,160.804,238.921,160.925z"/>
		</g>
		<g>
			<path fill="#8A96A4" d="M238.362,159.987c-0.032,0.053-0.096,0.065-0.169,0.022c-0.103-0.061-0.188-0.208-0.188-0.328
				c0-0.084,0.043-0.135,0.104-0.135c-0.014,0.022-0.021,0.053-0.021,0.089c0,0.119,0.085,0.266,0.188,0.326
				C238.309,159.979,238.334,159.987,238.362,159.987z"/>
			<path fill="#8A96A4" d="M238.362,160.696c-0.03,0.054-0.095,0.066-0.169,0.022c-0.103-0.06-0.188-0.206-0.188-0.329
				c0-0.085,0.041-0.134,0.104-0.134c-0.014,0.022-0.021,0.051-0.021,0.088c0,0.12,0.085,0.267,0.188,0.328
				C238.309,160.688,238.337,160.696,238.362,160.696z"/>
			<path fill="#8A96A4" d="M238.897,160.304c-0.031,0.052-0.093,0.064-0.167,0.022c-0.103-0.062-0.188-0.208-0.188-0.328
				c0-0.086,0.044-0.135,0.105-0.135c-0.014,0.022-0.022,0.052-0.022,0.088c0,0.12,0.083,0.269,0.189,0.327
				C238.846,160.294,238.871,160.304,238.897,160.304z"/>
			<path fill="#8A96A4" d="M238.897,161.012c-0.027,0.053-0.09,0.065-0.167,0.02c-0.103-0.057-0.188-0.205-0.188-0.327
				c0-0.085,0.042-0.133,0.105-0.133c-0.014,0.022-0.022,0.051-0.022,0.086c0,0.121,0.083,0.269,0.189,0.329
				C238.844,161.005,238.874,161.012,238.897,161.012z"/>
		</g>
		<path fill="#F4F6F9" d="M238.194,159.792c0,0,0.035,0.064,0.062,0.146c0.025,0.083,0.043,0.182,0.044,0.271
			c-0.001,0.088-0.019,0.168-0.044,0.218c-0.027,0.054-0.062,0.077-0.062,0.077s-0.038-0.065-0.062-0.147
			c-0.026-0.083-0.043-0.181-0.044-0.271c0.001-0.088,0.019-0.167,0.044-0.218C238.159,159.816,238.194,159.792,238.194,159.792z"/>
		<path fill="#FFFFFF" d="M238.192,160.209c0,0.083-0.015,0.154-0.039,0.205c-0.007-0.017-0.015-0.037-0.019-0.056
			c-0.028-0.083-0.047-0.181-0.047-0.271c0-0.083,0.016-0.157,0.042-0.206c0.007,0.016,0.014,0.037,0.019,0.056
			C238.176,160.021,238.192,160.12,238.192,160.209z"/>
		<path fill="#FFFFFF" d="M238.192,160.209c0,0.083-0.015,0.154-0.039,0.205c-0.007-0.017-0.015-0.037-0.019-0.056
			c-0.028-0.083-0.047-0.181-0.047-0.271c0-0.083,0.016-0.157,0.042-0.206c0.007,0.016,0.014,0.037,0.019,0.056
			C238.176,160.021,238.192,160.12,238.192,160.209z"/>
		<path fill="#F4F6F9" d="M238.684,160.09c0,0,0.036,0.066,0.06,0.146c0.028,0.083,0.047,0.182,0.047,0.271
			c0,0.089-0.019,0.168-0.045,0.22c-0.025,0.052-0.062,0.077-0.062,0.077s-0.036-0.066-0.061-0.146
			c-0.029-0.083-0.044-0.183-0.046-0.271c0.001-0.088,0.02-0.168,0.046-0.22C238.647,160.113,238.684,160.09,238.684,160.09z"/>
		<path fill="#FFFFFF" d="M238.683,160.506c0,0.084-0.014,0.156-0.04,0.207c-0.007-0.019-0.016-0.038-0.019-0.057
			c-0.027-0.083-0.047-0.182-0.047-0.272c0-0.083,0.017-0.156,0.042-0.206c0.009,0.017,0.015,0.037,0.019,0.056
			C238.666,160.318,238.683,160.419,238.683,160.506z"/>
	</g>
	<g>
		<path fill="#EBEFF2" d="M239.779,167.803c0,0.795-0.558,1.118-1.248,0.719c-0.689-0.396-1.248-1.365-1.248-2.16
			c0-0.795,0.559-1.118,1.248-0.721C239.222,166.04,239.779,167.008,239.779,167.803z"/>
		<linearGradient id="SVGID_24_" gradientUnits="userSpaceOnUse" x1="237.748" y1="165.2236" x2="239.6323" y2="168.2241">
			<stop  offset="0" style="stop-color:#C9D2D9"/>
			<stop  offset="0.3189" style="stop-color:#FDFDFD"/>
			<stop  offset="0.6205" style="stop-color:#C9D2D9"/>
			<stop  offset="1" style="stop-color:#EDF0F2"/>
		</linearGradient>
		<path fill="url(#SVGID_24_)" d="M239.861,167.393c0,0.75-0.527,1.054-1.178,0.68c-0.651-0.376-1.179-1.29-1.179-2.041
			s0.528-1.055,1.179-0.68C239.334,165.729,239.861,166.642,239.861,167.393z"/>
		<path fill="#FFFFFF" d="M239.639,167.51c0,0.75-0.526,1.055-1.177,0.68c-0.65-0.376-1.179-1.289-1.179-2.04
			c0-0.751,0.528-1.056,1.179-0.681C239.113,165.846,239.639,166.758,239.639,167.51z"/>
		<path fill="#E9EDF2" d="M239.211,167.262c0.001,0.478-0.335,0.671-0.749,0.433c-0.413-0.239-0.748-0.819-0.748-1.296
			c0-0.479,0.335-0.672,0.748-0.434C238.876,166.205,239.211,166.785,239.211,167.262z"/>
		<g>
			<path fill="#768593" d="M238.382,166.427c0,0.12-0.084,0.168-0.188,0.109c-0.104-0.06-0.189-0.207-0.189-0.329
				c0-0.12,0.085-0.168,0.189-0.109C238.298,166.159,238.382,166.306,238.382,166.427z"/>
			<path fill="#768593" d="M238.382,167.136c0,0.121-0.084,0.168-0.188,0.109c-0.104-0.06-0.189-0.207-0.189-0.328
				c0-0.121,0.085-0.169,0.189-0.109C238.298,166.868,238.382,167.014,238.382,167.136z"/>
			<path fill="#768593" d="M238.921,166.743c0,0.121-0.085,0.169-0.19,0.109c-0.103-0.061-0.188-0.208-0.188-0.328
				c0-0.121,0.085-0.169,0.188-0.109C238.835,166.475,238.921,166.621,238.921,166.743z"/>
			<path fill="#768593" d="M238.921,167.451c0,0.122-0.085,0.169-0.19,0.11c-0.103-0.062-0.188-0.207-0.188-0.328
				c0-0.121,0.085-0.169,0.188-0.109C238.835,167.184,238.921,167.331,238.921,167.451z"/>
		</g>
		<g>
			<path fill="#8A96A4" d="M238.362,166.514c-0.032,0.052-0.096,0.064-0.169,0.022c-0.103-0.061-0.188-0.208-0.188-0.329
				c0-0.085,0.043-0.134,0.104-0.134c-0.014,0.022-0.021,0.052-0.021,0.089c0,0.119,0.085,0.266,0.188,0.326
				C238.309,166.505,238.334,166.514,238.362,166.514z"/>
			<path fill="#8A96A4" d="M238.362,167.223c-0.03,0.053-0.095,0.066-0.169,0.021c-0.103-0.06-0.188-0.207-0.188-0.33
				c0-0.085,0.041-0.134,0.104-0.134c-0.014,0.022-0.021,0.051-0.021,0.089c0,0.12,0.085,0.267,0.188,0.328
				C238.309,167.215,238.337,167.223,238.362,167.223z"/>
			<path fill="#8A96A4" d="M238.897,166.83c-0.031,0.052-0.093,0.064-0.167,0.022c-0.103-0.061-0.188-0.208-0.188-0.328
				c0-0.085,0.044-0.135,0.105-0.135c-0.014,0.022-0.022,0.053-0.022,0.088c0,0.12,0.083,0.269,0.189,0.327
				C238.846,166.82,238.871,166.83,238.897,166.83z"/>
			<path fill="#8A96A4" d="M238.897,167.539c-0.027,0.054-0.09,0.065-0.167,0.02c-0.103-0.058-0.188-0.204-0.188-0.327
				c0-0.086,0.042-0.134,0.105-0.134c-0.014,0.022-0.022,0.05-0.022,0.087c0,0.121,0.083,0.268,0.189,0.329
				C238.844,167.531,238.874,167.539,238.897,167.539z"/>
		</g>
		<path fill="#F4F6F9" d="M238.194,166.318c0,0,0.035,0.065,0.062,0.147c0.025,0.082,0.043,0.183,0.044,0.271
			c-0.001,0.089-0.019,0.168-0.044,0.219c-0.027,0.054-0.062,0.078-0.062,0.078s-0.038-0.066-0.062-0.148
			c-0.026-0.082-0.043-0.181-0.044-0.272c0.001-0.088,0.019-0.166,0.044-0.218C238.159,166.343,238.194,166.318,238.194,166.318z"/>
		<path fill="#FFFFFF" d="M238.192,166.735c0,0.083-0.015,0.155-0.039,0.205c-0.007-0.017-0.015-0.036-0.019-0.056
			c-0.028-0.083-0.047-0.181-0.047-0.272c0-0.083,0.016-0.156,0.042-0.205c0.007,0.016,0.014,0.036,0.019,0.055
			C238.176,166.547,238.192,166.647,238.192,166.735z"/>
		<path fill="#FFFFFF" d="M238.192,166.735c0,0.083-0.015,0.155-0.039,0.205c-0.007-0.017-0.015-0.036-0.019-0.056
			c-0.028-0.083-0.047-0.181-0.047-0.272c0-0.083,0.016-0.156,0.042-0.205c0.007,0.016,0.014,0.036,0.019,0.055
			C238.176,166.547,238.192,166.647,238.192,166.735z"/>
		<path fill="#F4F6F9" d="M238.684,166.617c0,0,0.036,0.065,0.06,0.146c0.028,0.082,0.047,0.182,0.047,0.271
			c0,0.089-0.019,0.168-0.045,0.219c-0.025,0.052-0.062,0.077-0.062,0.077s-0.036-0.066-0.061-0.146
			c-0.029-0.084-0.044-0.182-0.046-0.271c0.001-0.089,0.02-0.168,0.046-0.22C238.647,166.64,238.684,166.617,238.684,166.617z"/>
		<path fill="#FFFFFF" d="M238.683,167.033c0,0.083-0.014,0.155-0.04,0.207c-0.007-0.019-0.016-0.037-0.019-0.057
			c-0.027-0.083-0.047-0.181-0.047-0.272c0-0.084,0.017-0.156,0.042-0.206c0.009,0.017,0.015,0.036,0.019,0.056
			C238.666,166.844,238.683,166.945,238.683,167.033z"/>
	</g>
	<g>
		<path fill="#D3DBE0" d="M241.314,191.427c0,1.946-1.364,2.734-3.052,1.761c-1.688-0.972-3.055-3.34-3.055-5.286
			c0-1.948,1.369-2.735,3.055-1.764C239.951,187.112,241.314,189.479,241.314,191.427z"/>
		<linearGradient id="SVGID_25_" gradientUnits="userSpaceOnUse" x1="236.3433" y1="185.1118" x2="240.9538" y2="192.4538">
			<stop  offset="0" style="stop-color:#42241E"/>
			<stop  offset="0.3189" style="stop-color:#846627"/>
			<stop  offset="0.6205" style="stop-color:#42241E"/>
			<stop  offset="1" style="stop-color:#5B352F"/>
		</linearGradient>
		<path fill="url(#SVGID_25_)" d="M241.514,190.423c0,1.836-1.288,2.581-2.881,1.661c-1.592-0.917-2.884-3.153-2.884-4.99
			c0-1.838,1.292-2.583,2.884-1.665C240.226,186.35,241.514,188.584,241.514,190.423z"/>
		<path fill="#938D85" d="M240.973,190.709c0,1.836-1.289,2.582-2.88,1.664c-1.59-0.919-2.883-3.153-2.883-4.992
			c0-1.837,1.292-2.583,2.883-1.666C239.684,186.636,240.973,188.87,240.973,190.709z"/>
		<path fill="#6B5946" d="M239.924,190.103c0.002,1.17-0.819,1.642-1.832,1.059c-1.012-0.585-1.832-2.005-1.832-3.173
			c0-1.172,0.819-1.645,1.832-1.06C239.105,187.516,239.924,188.935,239.924,190.103z"/>
		<g>
			<path d="M237.896,188.06c0,0.295-0.206,0.414-0.462,0.267c-0.255-0.146-0.462-0.507-0.462-0.803c0-0.293,0.208-0.412,0.462-0.267
				C237.69,187.402,237.896,187.763,237.896,188.06z"/>
			<path d="M237.896,189.792c0,0.296-0.206,0.414-0.462,0.267c-0.255-0.146-0.463-0.505-0.462-0.801
				c0-0.297,0.208-0.413,0.462-0.268C237.69,189.138,237.896,189.496,237.896,189.792z"/>
			<path d="M239.212,188.832c0,0.296-0.207,0.416-0.464,0.268c-0.253-0.148-0.459-0.509-0.459-0.801
				c0-0.297,0.207-0.414,0.459-0.268C239.005,188.176,239.212,188.535,239.212,188.832z"/>
			<path d="M239.212,190.567c0,0.297-0.207,0.413-0.464,0.267c-0.253-0.151-0.459-0.505-0.459-0.801
				c0-0.296,0.207-0.416,0.459-0.267C239.005,189.912,239.212,190.271,239.212,190.567z"/>
		</g>
		<g>
			<path fill="#513E2D" d="M237.846,188.271c-0.081,0.127-0.235,0.156-0.416,0.055c-0.252-0.15-0.46-0.509-0.46-0.803
				c0-0.208,0.107-0.329,0.256-0.329c-0.034,0.051-0.053,0.126-0.053,0.216c0,0.292,0.21,0.651,0.461,0.797
				C237.714,188.25,237.777,188.271,237.846,188.271z"/>
			<path fill="#513E2D" d="M237.846,190.007c-0.075,0.13-0.231,0.162-0.416,0.053c-0.252-0.146-0.46-0.505-0.46-0.805
				c0-0.209,0.101-0.329,0.256-0.329c-0.034,0.055-0.053,0.125-0.053,0.217c0,0.293,0.21,0.653,0.461,0.803
				C237.714,189.987,237.784,190.007,237.846,190.007z"/>
			<path fill="#513E2D" d="M239.156,189.046c-0.076,0.127-0.227,0.156-0.408,0.053c-0.251-0.148-0.459-0.509-0.459-0.801
				c0-0.211,0.106-0.333,0.257-0.333c-0.036,0.055-0.055,0.129-0.055,0.217c0,0.292,0.203,0.656,0.462,0.798
				C239.03,189.022,239.092,189.046,239.156,189.046z"/>
			<path fill="#513E2D" d="M239.156,190.779c-0.064,0.131-0.221,0.16-0.408,0.052c-0.251-0.143-0.459-0.502-0.459-0.802
				c0-0.211,0.101-0.327,0.257-0.327c-0.036,0.055-0.055,0.125-0.055,0.212c0,0.296,0.203,0.657,0.462,0.806
				C239.025,190.762,239.099,190.779,239.156,190.779z"/>
		</g>
		<path fill="#623D32" d="M237.434,187.792c0,0,0.086,0.157,0.151,0.358c0.063,0.201,0.106,0.447,0.111,0.665
			c-0.004,0.216-0.048,0.412-0.111,0.535c-0.065,0.13-0.151,0.189-0.151,0.189s-0.089-0.161-0.15-0.361
			c-0.066-0.201-0.107-0.445-0.11-0.665c0.003-0.216,0.049-0.408,0.11-0.534C237.349,187.853,237.434,187.792,237.434,187.792z"/>
		<path fill="#938D85" d="M237.431,188.813c0,0.203-0.036,0.378-0.096,0.502c-0.018-0.041-0.036-0.088-0.047-0.137
			c-0.066-0.203-0.115-0.445-0.115-0.665c0-0.204,0.041-0.385,0.101-0.503c0.02,0.041,0.035,0.089,0.049,0.137
			C237.389,188.351,237.431,188.597,237.431,188.813z"/>
		<path fill="#623D32" d="M238.633,188.524c0,0,0.088,0.159,0.146,0.356c0.068,0.204,0.113,0.445,0.113,0.665
			c0,0.217-0.045,0.412-0.108,0.54c-0.063,0.125-0.151,0.186-0.151,0.186s-0.087-0.161-0.148-0.359
			c-0.068-0.206-0.109-0.446-0.112-0.665c0.002-0.217,0.047-0.412,0.112-0.539C238.545,188.581,238.633,188.524,238.633,188.524z"/>
		<path fill="#938D85" d="M238.631,189.541c0,0.204-0.036,0.38-0.095,0.508c-0.021-0.045-0.04-0.092-0.049-0.141
			c-0.067-0.202-0.114-0.442-0.114-0.665c0-0.206,0.042-0.382,0.102-0.503c0.02,0.041,0.034,0.089,0.047,0.136
			C238.59,189.081,238.631,189.329,238.631,189.541z"/>
	</g>
	<g>
		<path fill="#D3DBE0" d="M241.314,200.872c0,1.945-1.364,2.736-3.052,1.761c-1.688-0.971-3.055-3.34-3.055-5.285
			c0-1.948,1.369-2.736,3.055-1.764C239.951,196.557,241.314,198.924,241.314,200.872z"/>
		<linearGradient id="SVGID_26_" gradientUnits="userSpaceOnUse" x1="236.3433" y1="194.5586" x2="240.9527" y2="201.8988">
			<stop  offset="0" style="stop-color:#42241E"/>
			<stop  offset="0.3189" style="stop-color:#846627"/>
			<stop  offset="0.6205" style="stop-color:#42241E"/>
			<stop  offset="1" style="stop-color:#5B352F"/>
		</linearGradient>
		<path fill="url(#SVGID_26_)" d="M241.514,199.868c0,1.837-1.288,2.581-2.881,1.662c-1.592-0.917-2.884-3.153-2.884-4.991
			s1.292-2.582,2.884-1.664C240.226,195.795,241.514,198.029,241.514,199.868z"/>
		<path fill="#938D85" d="M240.973,200.155c0,1.837-1.289,2.581-2.88,1.664c-1.59-0.921-2.883-3.154-2.883-4.992
			c0-1.837,1.292-2.582,2.883-1.666C239.684,196.081,240.973,198.316,240.973,200.155z"/>
		<path fill="#6B5946" d="M239.924,199.548c0.002,1.171-0.819,1.643-1.832,1.06c-1.012-0.586-1.832-2.004-1.832-3.172
			c0-1.172,0.819-1.646,1.832-1.061C239.105,196.961,239.924,198.381,239.924,199.548z"/>
		<g>
			<path d="M237.896,197.506c0,0.293-0.206,0.412-0.462,0.266c-0.255-0.146-0.462-0.506-0.462-0.803
				c0-0.295,0.208-0.413,0.462-0.267C237.69,196.848,237.896,197.209,237.896,197.506z"/>
			<path d="M237.896,199.238c0,0.297-0.206,0.414-0.462,0.268c-0.255-0.147-0.463-0.506-0.462-0.803
				c0-0.295,0.208-0.412,0.462-0.266C237.69,198.583,237.896,198.941,237.896,199.238z"/>
			<path d="M239.212,198.277c0,0.297-0.207,0.414-0.464,0.268c-0.253-0.148-0.459-0.51-0.459-0.803c0-0.296,0.207-0.412,0.459-0.266
				C239.005,197.622,239.212,197.98,239.212,198.277z"/>
			<path d="M239.212,200.013c0,0.296-0.207,0.413-0.464,0.267c-0.253-0.15-0.459-0.506-0.459-0.802s0.207-0.415,0.459-0.267
				C239.005,199.357,239.212,199.716,239.212,200.013z"/>
		</g>
		<g>
			<path fill="#513E2D" d="M237.846,197.717c-0.081,0.127-0.235,0.156-0.416,0.055c-0.252-0.149-0.46-0.509-0.46-0.803
				c0-0.209,0.107-0.329,0.256-0.329c-0.034,0.052-0.053,0.126-0.053,0.216c0,0.293,0.21,0.651,0.461,0.797
				C237.714,197.697,237.777,197.717,237.846,197.717z"/>
			<path fill="#513E2D" d="M237.846,199.453c-0.075,0.131-0.231,0.161-0.416,0.053c-0.252-0.147-0.46-0.506-0.46-0.806
				c0-0.208,0.101-0.327,0.256-0.327c-0.034,0.054-0.053,0.125-0.053,0.216c0,0.294,0.21,0.653,0.461,0.804
				C237.714,199.433,237.784,199.453,237.846,199.453z"/>
			<path fill="#513E2D" d="M239.156,198.492c-0.076,0.127-0.227,0.154-0.408,0.053c-0.251-0.148-0.459-0.51-0.459-0.803
				c0-0.21,0.106-0.331,0.257-0.331c-0.036,0.055-0.055,0.129-0.055,0.217c0,0.292,0.203,0.657,0.462,0.799
				C239.03,198.469,239.092,198.492,239.156,198.492z"/>
			<path fill="#513E2D" d="M239.156,200.225c-0.064,0.131-0.221,0.159-0.408,0.05c-0.251-0.141-0.459-0.501-0.459-0.802
				c0-0.209,0.101-0.326,0.257-0.326c-0.036,0.055-0.055,0.125-0.055,0.212c0,0.297,0.203,0.657,0.462,0.806
				C239.025,200.207,239.099,200.225,239.156,200.225z"/>
		</g>
		<path fill="#623D32" d="M237.434,197.237c0,0,0.086,0.159,0.151,0.359c0.063,0.2,0.106,0.446,0.111,0.665
			c-0.004,0.216-0.048,0.412-0.111,0.533c-0.065,0.131-0.151,0.189-0.151,0.189s-0.089-0.158-0.15-0.36
			c-0.066-0.202-0.107-0.444-0.11-0.665c0.003-0.217,0.049-0.408,0.11-0.534C237.349,197.298,237.434,197.237,237.434,197.237z"/>
		<path fill="#938D85" d="M237.431,198.26c0,0.202-0.036,0.378-0.096,0.5c-0.018-0.04-0.036-0.086-0.047-0.136
			c-0.066-0.203-0.115-0.444-0.115-0.665c0-0.203,0.041-0.384,0.101-0.502c0.02,0.041,0.035,0.088,0.049,0.136
			C237.389,197.797,237.431,198.043,237.431,198.26z"/>
		<path fill="#623D32" d="M238.633,197.969c0,0,0.088,0.16,0.146,0.356c0.068,0.204,0.113,0.445,0.113,0.666
			c0,0.216-0.045,0.411-0.108,0.538c-0.063,0.126-0.151,0.187-0.151,0.187s-0.087-0.161-0.148-0.358
			c-0.068-0.205-0.109-0.447-0.112-0.666c0.002-0.216,0.047-0.41,0.112-0.536C238.545,198.025,238.633,197.969,238.633,197.969z"/>
		<path fill="#938D85" d="M238.631,198.986c0,0.205-0.036,0.381-0.095,0.508c-0.021-0.045-0.04-0.092-0.049-0.141
			c-0.067-0.203-0.114-0.443-0.114-0.666c0-0.205,0.042-0.381,0.102-0.502c0.02,0.041,0.034,0.089,0.047,0.137
			C238.59,198.526,238.631,198.774,238.631,198.986z"/>
	</g>
	<g>
		<path fill="#D3DBE0" d="M241.314,209.846c0,1.946-1.364,2.736-3.052,1.762c-1.688-0.973-3.055-3.342-3.055-5.287
			c0-1.947,1.369-2.735,3.055-1.764C239.951,205.531,241.314,207.897,241.314,209.846z"/>
		<linearGradient id="SVGID_27_" gradientUnits="userSpaceOnUse" x1="236.3423" y1="203.5303" x2="240.9529" y2="210.8723">
			<stop  offset="0" style="stop-color:#42241E"/>
			<stop  offset="0.3189" style="stop-color:#846627"/>
			<stop  offset="0.6205" style="stop-color:#42241E"/>
			<stop  offset="1" style="stop-color:#5B352F"/>
		</linearGradient>
		<path fill="url(#SVGID_27_)" d="M241.514,208.842c0,1.836-1.288,2.58-2.881,1.663c-1.592-0.917-2.884-3.153-2.884-4.991
			c0-1.84,1.292-2.584,2.884-1.665C240.226,204.768,241.514,207.004,241.514,208.842z"/>
		<path fill="#938D85" d="M240.973,209.129c0,1.836-1.289,2.58-2.88,1.664c-1.59-0.921-2.883-3.154-2.883-4.992
			c0-1.836,1.292-2.582,2.883-1.666C239.684,205.055,240.973,207.289,240.973,209.129z"/>
		<path fill="#6B5946" d="M239.924,208.521c0.002,1.17-0.819,1.643-1.832,1.059c-1.012-0.584-1.832-2.004-1.832-3.171
			c0-1.173,0.819-1.646,1.832-1.062C239.105,205.936,239.924,207.355,239.924,208.521z"/>
		<g>
			<path d="M237.896,206.479c0,0.294-0.206,0.413-0.462,0.267c-0.255-0.146-0.462-0.507-0.462-0.804
				c0-0.294,0.208-0.412,0.462-0.267C237.69,205.821,237.896,206.182,237.896,206.479z"/>
			<path d="M237.896,208.211c0,0.297-0.206,0.414-0.462,0.27c-0.255-0.147-0.463-0.507-0.462-0.803c0-0.297,0.208-0.413,0.462-0.268
				C237.69,207.557,237.896,207.916,237.896,208.211z"/>
			<path d="M239.212,207.251c0,0.297-0.207,0.415-0.464,0.267c-0.253-0.148-0.459-0.509-0.459-0.801
				c0-0.297,0.207-0.414,0.459-0.268C239.005,206.596,239.212,206.955,239.212,207.251z"/>
			<path d="M239.212,208.986c0,0.296-0.207,0.413-0.464,0.266c-0.253-0.148-0.459-0.506-0.459-0.801
				c0-0.297,0.207-0.414,0.459-0.267C239.005,208.331,239.212,208.69,239.212,208.986z"/>
		</g>
		<g>
			<path fill="#513E2D" d="M237.846,206.691c-0.081,0.127-0.235,0.156-0.416,0.055c-0.252-0.15-0.46-0.51-0.46-0.804
				c0-0.208,0.107-0.329,0.256-0.329c-0.034,0.052-0.053,0.127-0.053,0.217c0,0.292,0.21,0.65,0.461,0.797
				C237.714,206.671,237.777,206.691,237.846,206.691z"/>
			<path fill="#513E2D" d="M237.846,208.426c-0.075,0.132-0.231,0.164-0.416,0.055c-0.252-0.147-0.46-0.507-0.46-0.808
				c0-0.208,0.101-0.327,0.256-0.327c-0.034,0.055-0.053,0.125-0.053,0.216c0,0.294,0.21,0.655,0.461,0.806
				C237.714,208.406,237.784,208.426,237.846,208.426z"/>
			<path fill="#513E2D" d="M239.156,207.465c-0.076,0.127-0.227,0.156-0.408,0.053c-0.251-0.148-0.459-0.509-0.459-0.801
				c0-0.211,0.106-0.332,0.257-0.332c-0.036,0.055-0.055,0.13-0.055,0.216c0,0.294,0.203,0.659,0.462,0.8
				C239.03,207.441,239.092,207.465,239.156,207.465z"/>
			<path fill="#513E2D" d="M239.156,209.199c-0.064,0.131-0.221,0.158-0.408,0.051c-0.251-0.143-0.459-0.504-0.459-0.803
				c0-0.21,0.101-0.326,0.257-0.326c-0.036,0.055-0.055,0.124-0.055,0.212c0,0.296,0.203,0.658,0.462,0.805
				C239.025,209.183,239.099,209.199,239.156,209.199z"/>
		</g>
		<path fill="#623D32" d="M237.434,206.211c0,0,0.086,0.159,0.151,0.359c0.063,0.2,0.106,0.445,0.111,0.665
			c-0.004,0.217-0.048,0.411-0.111,0.534c-0.065,0.131-0.151,0.188-0.151,0.188s-0.089-0.159-0.15-0.36
			c-0.066-0.202-0.107-0.444-0.11-0.664c0.003-0.217,0.049-0.407,0.11-0.535C237.349,206.271,237.434,206.211,237.434,206.211z"/>
		<path fill="#938D85" d="M237.431,207.232c0,0.203-0.036,0.379-0.096,0.502c-0.018-0.041-0.036-0.088-0.047-0.137
			c-0.066-0.202-0.115-0.444-0.115-0.664c0-0.203,0.041-0.385,0.101-0.503c0.02,0.039,0.035,0.089,0.049,0.135
			C237.389,206.771,237.431,207.016,237.431,207.232z"/>
		<path fill="#623D32" d="M238.633,206.943c0,0,0.088,0.158,0.146,0.356c0.068,0.203,0.113,0.444,0.113,0.665
			c0,0.217-0.045,0.41-0.108,0.537c-0.063,0.127-0.151,0.188-0.151,0.188s-0.087-0.163-0.148-0.359
			c-0.068-0.204-0.109-0.446-0.112-0.665c0.002-0.217,0.047-0.41,0.112-0.538C238.545,206.999,238.633,206.943,238.633,206.943z"/>
		<path fill="#938D85" d="M238.631,207.961c0,0.204-0.036,0.38-0.095,0.506c-0.021-0.045-0.04-0.092-0.049-0.141
			c-0.067-0.201-0.114-0.441-0.114-0.664c0-0.205,0.042-0.381,0.102-0.504c0.02,0.042,0.034,0.091,0.047,0.138
			C238.59,207.501,238.631,207.748,238.631,207.961z"/>
	</g>
	<g>
		<path fill="#D5D8DB" d="M236.936,151.023l-0.628,0.236v18.755c-0.057-0.123-0.115-0.237-0.164-0.359v-18.502l0.727-0.285
			L236.936,151.023z"/>
	</g>
	<polygon fill="#E2E7E8" points="305.649,275.628 305.865,275.501 305.865,275.276 203.295,216.059 130.683,257.977 
		130.683,258.209 131.672,258.783 131.468,258.899 234.031,318.126 306.645,276.203 	"/>
	<g>
		<polygon fill="#E9F0F4" points="306.194,262.052 235.824,302.871 136.445,245.294 136.449,245.073 206.812,204.672 
			306.198,261.831 		"/>
		<polygon fill="#FCFBFA" points="306.198,261.831 235.839,302.456 136.449,245.073 206.812,204.439 		"/>
		<g>
			<path fill="#6CD2F2" d="M225.887,269.496c-3.948,0.9-7.072,2.846-8.205,5.327l13.24,2.016L225.887,269.496z"/>
			<path fill="#9BA5E3" d="M217.682,274.823c-0.124,0.274-0.23,0.556-0.309,0.846c-0.391,1.529,0.011,3.007,0.987,4.317
				l12.562-3.147L217.682,274.823z"/>
			<path fill="#60C2EC" d="M231.462,284.724c4.085-0.075,7.796-1.227,10.24-3.017l-10.78-4.868L231.462,284.724z"/>
			<path fill="#C3F1C8" d="M230.922,276.839l10.78,4.868c1.405-1.046,2.388-2.303,2.752-3.706c1.117-4.304-4.039-8.338-11.509-8.98
				c-2.482-0.209-4.889-0.022-7.058,0.476L230.922,276.839z"/>
			<path fill="#DAEEB2" d="M218.36,279.986c1.83,2.401,5.689,4.252,10.522,4.663c0.876,0.082,1.742,0.103,2.58,0.074l-0.54-7.885
				L218.36,279.986z"/>
		</g>
		<g>
			<path fill="#A6D0F0" d="M194.239,251.224c-3.938,0.906-7.071,2.845-8.205,5.327l13.258,2.027L194.239,251.224z"/>
			<path fill="#F2C2A0" d="M186.035,256.551c-0.116,0.279-0.231,0.557-0.309,0.845c-0.394,1.531,0.013,3.022,1.001,4.337
				l12.566-3.154L186.035,256.551z"/>
			<path fill="#6CD2F2" d="M199.844,266.48c4.086-0.086,7.807-1.231,10.252-3.021l-10.804-4.882L199.844,266.48z"/>
			<path fill="#A6D0F0" d="M199.292,258.578l10.804,4.882c1.41-1.056,2.387-2.304,2.753-3.708c1.132-4.328-4.028-8.354-11.531-9.003
				c-2.476-0.217-4.901-0.026-7.079,0.475L199.292,258.578z"/>
			<path fill="#F2C2A0" d="M186.727,261.732c1.822,2.41,5.686,4.252,10.523,4.677c0.881,0.071,1.737,0.091,2.595,0.071l-0.552-7.902
				L186.727,261.732z"/>
		</g>
		<g>
			<polygon fill="#C2C7D4" points="230.54,227.513 212.042,238.188 209.838,236.916 228.345,226.245 			"/>
		</g>
		<g>
			<polygon fill="#C2C7D4" points="236.177,230.77 217.673,241.439 215.479,240.172 233.976,229.497 			"/>
		</g>
		<g>
			<polygon fill="#C2C7D4" points="241.816,234.024 223.32,244.699 221.118,243.429 239.627,232.749 			"/>
		</g>
		<g>
			<polygon fill="#C2C7D4" points="247.455,237.281 228.949,247.95 226.756,246.685 245.253,236.01 			"/>
		</g>
		<g>
			<polygon fill="#C2C7D4" points="253.094,240.537 234.596,251.211 232.386,249.935 250.904,239.262 			"/>
		</g>
		<g>
			<polygon fill="#C2C7D4" points="267.292,248.732 248.787,259.402 246.583,258.13 265.081,247.456 			"/>
		</g>
		<g>
			<polygon fill="#C2C7D4" points="272.923,251.983 254.435,262.664 252.223,261.387 270.712,250.708 			"/>
		</g>
		<g>
			<polygon fill="#C2C7D4" points="278.57,255.244 260.055,265.93 257.87,264.649 276.359,253.968 			"/>
		</g>
		<g>
			<polygon fill="#C2C7D4" points="284.209,258.5 265.705,269.185 263.5,267.899 281.997,257.226 			"/>
		</g>
		<g>
			<polygon fill="#C2C7D4" points="209.928,214.59 161.675,242.454 159.472,241.184 207.725,213.318 			"/>
		</g>
		<g>
			<polygon fill="#C2C7D4" points="215.193,217.629 159.182,249.969 156.98,248.696 212.983,216.352 			"/>
		</g>
		<g>
			<polygon fill="#C2C7D4" points="220.625,220.722 164.625,253.042 162.416,251.768 218.416,219.445 			"/>
		</g>
	</g>
	<g>
		<polygon fill="#E2E7E8" points="394.844,260.846 395.041,260.731 395.041,260.528 301.713,206.645 235.644,244.787 
			235.644,244.999 236.544,245.52 236.359,245.627 329.68,299.516 395.749,261.37 		"/>
		<g>
			<polygon fill="#E2E7E8" points="395.749,248.076 329.68,286.222 236.359,232.332 302.429,194.189 			"/>
			<polygon fill="#E9F0F4" points="395.041,247.438 328.958,285.762 235.644,231.703 235.644,231.493 301.713,193.558 
				395.041,247.233 			"/>
			<polygon fill="#FCFBFA" points="395.041,247.233 328.971,285.383 235.644,231.493 301.713,193.35 			"/>
			<g>
				<g>
					<polygon fill="#A6D0F0" points="297.337,226.688 299.238,227.789 326.433,212.083 324.531,210.982 					"/>
					<polygon fill="#FF6D00" points="295.428,225.584 297.337,226.688 315.929,215.947 314.028,214.846 					"/>
					<polygon fill="#F2C2A0" points="293.527,224.489 295.428,225.584 307.124,218.834 305.223,217.735 					"/>
					<polygon fill="#C3F1C8" points="291.627,223.39 293.527,224.489 316.37,211.299 314.469,210.197 					"/>
				</g>
				<g>
					<polygon fill="#A6D0F0" points="283.465,218.681 285.367,219.777 306.039,207.844 304.138,206.746 					"/>
					<polygon fill="#FF6D00" points="281.564,217.576 283.465,218.681 297.604,210.514 295.698,209.42 					"/>
					<polygon fill="#F2C2A0" points="279.663,216.479 281.564,217.576 290.451,212.443 288.551,211.349 					"/>
					<polygon fill="#C3F1C8" points="277.755,215.382 279.663,216.479 285.863,212.896 283.97,211.794 					"/>
				</g>
				<g>
					<polygon fill="#A6D0F0" points="326.713,243.277 328.615,244.375 342.204,236.529 340.303,235.425 					"/>
					<polygon fill="#FF6D00" points="324.799,242.18 326.713,243.277 345.305,232.542 343.396,231.437 					"/>
					<polygon fill="#F2C2A0" points="322.896,241.082 324.799,242.18 336.493,235.425 334.593,234.326 					"/>
					<polygon fill="#C3F1C8" points="320.996,239.98 322.896,241.082 345.738,227.888 343.838,226.79 					"/>
				</g>
				<g>
					<polygon fill="#A6D0F0" points="312.835,235.269 314.742,236.373 319.088,233.863 317.188,232.757 					"/>
					<polygon fill="#FF6D00" points="310.934,234.173 312.835,235.269 326.974,227.112 325.073,226.012 					"/>
					<polygon fill="#F2C2A0" points="309.032,233.076 310.934,234.173 330.7,222.764 328.792,221.662 					"/>
					<polygon fill="#C3F1C8" points="307.131,231.974 309.032,233.076 315.24,229.487 313.34,228.389 					"/>
				</g>
				<polygon fill="#C2C7D4" points="353.37,239.187 370.202,248.9 371.816,247.967 354.991,238.252 				"/>
				<polygon fill="#C2C7D4" points="349.994,241.141 366.827,250.852 368.44,249.92 351.61,240.202 				"/>
				<polygon fill="#C2C7D4" points="346.618,243.086 363.451,252.804 365.066,251.865 348.233,242.148 				"/>
				<polygon fill="#C2C7D4" points="343.245,245.033 360.07,254.749 361.691,253.818 344.865,244.101 				"/>
				<polygon fill="#C2C7D4" points="339.869,246.985 356.701,256.701 358.315,255.768 341.49,246.052 				"/>
				<polygon fill="#C2C7D4" points="336.493,248.934 353.319,258.647 354.933,257.716 338.107,247.999 				"/>
				<polygon fill="#C2C7D4" points="326.578,255.917 343.404,265.634 345.024,264.699 328.199,254.986 				"/>
				<polygon fill="#C2C7D4" points="323.203,257.865 340.028,267.584 341.649,266.649 324.823,256.932 				"/>
				<polygon fill="#C2C7D4" points="319.828,259.816 336.652,269.533 338.268,268.598 321.449,258.881 				"/>
				<polygon fill="#C2C7D4" points="316.453,261.766 333.277,271.481 334.898,270.545 318.067,260.831 				"/>
				<polygon fill="#C2C7D4" points="313.077,263.708 329.903,273.428 331.522,272.493 314.692,262.776 				"/>
				<polygon fill="#C2C7D4" points="309.694,265.663 326.528,275.377 328.142,274.446 311.315,264.729 				"/>
				<g>
					<path fill="#C3F1C8" d="M272.082,225.025c3.478,0.804,6.241,2.517,7.248,4.712l-11.707,1.784L272.082,225.025z"/>
					<path fill="#FF6D00" d="M279.33,229.737c0.103,0.247,0.205,0.498,0.269,0.747c0.353,1.349,0,2.664-0.88,3.832l-11.096-2.795
						L279.33,229.737z"/>
					<path fill="#F2C2A0" d="M267.139,238.509c-3.612-0.084-6.897-1.093-9.062-2.681l9.546-4.307L267.139,238.509z"/>
					<path fill="#A6D0F0" d="M267.623,231.521l-9.546,4.307c-1.25-0.922-2.112-2.039-2.438-3.264
						c-0.988-3.825,3.573-7.372,10.185-7.956c2.195-0.192,4.332-0.019,6.258,0.417L267.623,231.521z"/>
					<path fill="#FF6D00" d="M278.719,234.316c-1.613,2.128-5.021,3.749-9.303,4.124c-0.766,0.068-1.538,0.084-2.277,0.068
						l0.484-6.987L278.719,234.316z"/>
				</g>
				<g>
					<path fill="#C3F1C8" d="M296.967,238.485c3.478,0.802,6.24,2.517,7.247,4.709l-11.707,1.786L296.967,238.485z"/>
					<path fill="#F2C2A0" d="M304.214,243.194c0.097,0.245,0.205,0.5,0.27,0.75c0.351,1.35,0,2.66-0.882,3.824l-11.095-2.788
						L304.214,243.194z"/>
					<path fill="#A6D0F0" d="M292.021,251.964c-3.611-0.072-6.897-1.084-9.054-2.68l9.539-4.304L292.021,251.964z"/>
					<path fill="#C3F1C8" d="M292.507,244.98l-9.539,4.304c-1.252-0.921-2.118-2.032-2.443-3.257
						c-0.989-3.828,3.574-7.38,10.189-7.957c2.183-0.195,4.326-0.021,6.253,0.415L292.507,244.98z"/>
					<path fill="#FF6D00" d="M303.602,247.769c-1.614,2.136-5.021,3.756-9.295,4.132c-0.772,0.063-1.545,0.087-2.285,0.063
						l0.485-6.983L303.602,247.769z"/>
				</g>
			</g>
		</g>
	</g>
	<polygon fill="#E2E7E8" points="169.411,138.351 161.03,143.265 171.105,149.361 179.463,144.536 	"/>
	<circle id="Ellipse_506" fill="#FFFFFF" cx="256.25" cy="116.25" r="11.146"/>
	<circle id="Ellipse_507" fill="#0C0CA5" cx="256.25" cy="116.25" r="3.715"/>
	<path id="Path_6477" fill="#FFFFFF" d="M266.829,136.243c0.74,4.034-1.931,7.903-5.964,8.644c-4.034,0.739-7.903-1.931-8.644-5.965
		c-0.002-0.012-0.004-0.024-0.006-0.036c-0.743-4.046,2.395-5.45,6.439-6.192C262.701,131.95,266.087,132.197,266.829,136.243z"/>
</g>
<g id="Layer_2" display="none">
	<path id="Path_6474" display="inline" fill="#0C0CA5" d="M308.954,252.725c-5.8,1.701-11.6,3.4-17.399,5
		c-4.101-13.799-8.2-27.699-12.3-41.5l23.6-4.299C304.954,225.525,306.954,239.125,308.954,252.725z"/>
	<path id="Path_6475" display="inline" fill="#0C0CA5" d="M262.654,257.426l-20.1,7.199c-3.5-13.3-7-26.5-10.5-39.8l23.6-4.3
		C258.055,232.825,260.354,245.125,262.654,257.426z"/>
	
		<ellipse id="Ellipse_504" transform="matrix(-0.6463 -0.7631 0.7631 -0.6463 201.1299 633.8889)" display="inline" fill="#0C0CA5" cx="247.475" cy="270.331" rx="7.5" ry="20.001"/>
	<path id="Path_6476" display="inline" fill="#0C0CA5" d="M288.854,259.926c8.4-7.101,17.4-10.4,20.1-7.201
		c2.7,3.201-2,11.5-10.399,18.601c-8.4,7.101-17.4,10.399-20.101,7.2C275.755,275.426,280.454,267.025,288.854,259.926z"/>
	<circle id="Ellipse_505" display="inline" fill="#2010F9" cx="256.454" cy="157.426" r="79"/>
	<path id="Path_6517" display="inline" fill="#2010F9" d="M309.093,148.605c1.53-6.676,21.095-7.887,43.709-2.704
		c22.613,5.183,40.079,15.075,38.55,21.751c-1.53,6.675-21.477,7.605-44.091,2.422C324.647,164.892,307.563,155.279,309.093,148.605
		z"/>
	<g id="Group_1586" transform="translate(-33.643 -44.574)" display="inline">
		<g id="Group_1577">
			<path id="Path_6480" fill="#6C63FF" d="M306.698,103c4.6-1.701,10.2-2.5,16.1-2.9c5.7-0.4,4-4.9-1.7-4.5
				c-10.1,0.699-19.399,2.8-26,6.699c-41.899-1.6-77.1,6-78.899,17c-0.8,5.301,6.7,6.801,19.3,7.201l10.8,10.199
				c35,5.1,69.967,10.167,104.9,15.2c-1.4-7-2.8-14-4.2-20.899c13,0.699,21.2-0.201,22-5.601
				C370.597,115.399,343.497,105.899,306.698,103z"/>
		</g>
	</g>
</g>
</svg>
