<?xml version="1.0" encoding="utf-8"?>
<!-- Generator: Adobe Illustrator 16.0.0, SVG Export Plug-In . SVG Version: 6.00 Build 0)  -->
<!DOCTYPE svg PUBLIC "-//W3C//DTD SVG 1.1//EN" "http://www.w3.org/Graphics/SVG/1.1/DTD/svg11.dtd">
<svg version="1.1" id="Layer_1" xmlns="http://www.w3.org/2000/svg" xmlns:xlink="http://www.w3.org/1999/xlink" x="0px" y="0px"
	 width="1010px" height="452px" viewBox="0 0 1010 452" enable-background="new 0 0 1010 452" xml:space="preserve">
<g>
	<defs>
		<polyline id="SVGID_1_" points="-86,615 1104.55,615 1104.55,-226.89 -86,-226.89 		"/>
	</defs>
	<clipPath id="SVGID_2_">
		<use xlink:href="#SVGID_1_"  overflow="visible"/>
	</clipPath>
	<g clip-path="url(#SVGID_2_)">
		<defs>
			<polyline id="SVGID_3_" points="-86,-226.89 1104.55,-226.89 1104.55,615 -86,615 			"/>
		</defs>
		<clipPath id="SVGID_4_">
			<use xlink:href="#SVGID_3_"  overflow="visible"/>
		</clipPath>
		<g clip-path="url(#SVGID_4_)">
			<defs>
				<rect id="SVGID_5_" x="1124.55" y="-226.89" width="1190.55" height="841.89"/>
			</defs>
			<clipPath id="SVGID_6_">
				<use xlink:href="#SVGID_5_"  overflow="visible"/>
			</clipPath>
			<g clip-path="url(#SVGID_6_)">
				<defs>
					<rect id="SVGID_7_" x="1124.55" y="-226.89" width="1190.55" height="841.89"/>
				</defs>
				<clipPath id="SVGID_8_">
					<use xlink:href="#SVGID_7_"  overflow="visible"/>
				</clipPath>
				<g opacity="0.12" clip-path="url(#SVGID_8_)">
					<g>
						<defs>
							<rect id="SVGID_9_" x="495.579" y="-271.785" width="2340.521" height="2340.516"/>
						</defs>
						<clipPath id="SVGID_10_">
							<use xlink:href="#SVGID_9_"  overflow="visible"/>
						</clipPath>
					</g>
				</g>
				<g opacity="0.12" clip-path="url(#SVGID_8_)">
					<g>
						<defs>
							<rect id="SVGID_11_" x="-413.08" y="-647.68" width="3092.3" height="3092.31"/>
						</defs>
						<clipPath id="SVGID_12_">
							<use xlink:href="#SVGID_11_"  overflow="visible"/>
						</clipPath>
					</g>
				</g>
				<g opacity="0.12" clip-path="url(#SVGID_8_)">
					<g>
						<defs>
							<rect id="SVGID_13_" x="-1366.79" y="-1068.61" width="3934.18" height="3934.17"/>
						</defs>
						<clipPath id="SVGID_14_">
							<use xlink:href="#SVGID_13_"  overflow="visible"/>
						</clipPath>
					</g>
				</g>
				<g opacity="0.12" clip-path="url(#SVGID_8_)">
					<g>
						<defs>
							<rect id="SVGID_15_" x="837.945" y="-994.96" width="3786.854" height="3786.86"/>
						</defs>
						<clipPath id="SVGID_16_">
							<use xlink:href="#SVGID_15_"  overflow="visible"/>
						</clipPath>
					</g>
				</g>
			</g>
		</g>
	</g>
	<g clip-path="url(#SVGID_2_)">
		<defs>
			<polyline id="SVGID_17_" points="-86,615 1104.55,615 1104.55,-226.89 -86,-226.89 			"/>
		</defs>
		<clipPath id="SVGID_18_">
			<use xlink:href="#SVGID_17_"  overflow="visible"/>
		</clipPath>
		<g opacity="0.12" clip-path="url(#SVGID_18_)">
			<g>
				<defs>
					<rect id="SVGID_19_" x="495.578" y="-271.785" width="2340.521" height="2340.516"/>
				</defs>
				<clipPath id="SVGID_20_">
					<use xlink:href="#SVGID_19_"  overflow="visible"/>
				</clipPath>
			</g>
		</g>
		<g opacity="0.12" clip-path="url(#SVGID_18_)">
			<g>
				<defs>
					<rect id="SVGID_21_" x="-413.083" y="-647.68" width="3092.303" height="3092.31"/>
				</defs>
				<clipPath id="SVGID_22_">
					<use xlink:href="#SVGID_21_"  overflow="visible"/>
				</clipPath>
			</g>
		</g>
		<g opacity="0.12" clip-path="url(#SVGID_18_)">
			<g>
				<defs>
					<rect id="SVGID_23_" x="-1366.79" y="-1068.61" width="3934.18" height="3934.17"/>
				</defs>
				<clipPath id="SVGID_24_">
					<use xlink:href="#SVGID_23_"  overflow="visible"/>
				</clipPath>
			</g>
		</g>
		<g opacity="0.12" clip-path="url(#SVGID_18_)">
			<g>
				<defs>
					<rect id="SVGID_25_" x="837.945" y="-994.96" width="3786.854" height="3786.86"/>
				</defs>
				<clipPath id="SVGID_26_">
					<use xlink:href="#SVGID_25_"  overflow="visible"/>
				</clipPath>
			</g>
		</g>
	</g>
	<g clip-path="url(#SVGID_2_)">
		<defs>
			<polyline id="SVGID_27_" points="-86,615 1104.55,615 1104.55,-226.89 -86,-226.89 			"/>
		</defs>
		<clipPath id="SVGID_28_">
			<use xlink:href="#SVGID_27_"  overflow="visible"/>
		</clipPath>
		<path clip-path="url(#SVGID_28_)" fill="#0023FF" d="M100.496,313.44c35.073-4.284,63.612-29.233,79.541-59.868
			c19.952-38.369,19.297-83.668,13.765-125.453c-4.527-34.195-16.577-85.987,26.071-101.327
			c34.307-12.341,83.651,6.405,94.873,42.633c6.421,20.729,0.045,42.951-8.819,61.944c-8.823,18.907-21.13,35.852-30.946,54.219
			c-9.499,17.775-17.323,37.508-16.025,58.027c1.001,15.825,7.588,30.471,18.27,42.124c21.942,23.937,56.82,33.589,88.338,28.441
			c39.132-6.389,72.517-31.077,100.946-57.371c14.324-13.248,29.25-28.031,34.513-47.445c4.506-16.619,1.043-35.026-12.897-46.09
			c-25.308-20.086-66.89-11.74-92.118,4.04c-14.245,8.909-25.967,22.374-29.36,39.183c-3.649,18.076,2.22,37.16,13.268,51.605
			c11.493,15.027,27.983,25.277,45.393,32.146c20.075,7.92,42.246,11.9,63.8,9.52c35.957-3.971,67.665-26.374,78.457-61.58
			c4.851-15.823,6.449-33.075,14.18-47.902c9.422-18.074,28.659-24.992,48.042-19.382c20.384,5.901,35.752,23.474,47.798,40.058
			c11.892,16.372,21.554,35.037,24.533,55.247c5.715,38.774-18.614,78.476-56.655,89.346c-35.864,10.248-83.639-6.152-93.064-45.599
			c-4.42-18.499,4.83-35.124,21.996-42.679c17.967-7.904,39.56-6.52,57.996-1.107c20.056,5.887,37.664,17.546,51.307,33.32
			c13.763,15.916,23.574,34.685,35.202,52.108c18.85,28.243,47.222,56.973,84.31,50.01c14.317-2.688,27.495-11.016,33.826-24.433
			c1.365-2.895-2.944-5.435-4.318-2.523c-7.301,15.476-23.992,22.917-40.51,23.038c-18.835,0.137-35.43-9.88-48.419-22.854
			c-28.505-28.467-40.838-69.823-73.29-94.806c-15.292-11.771-33.625-19.437-52.735-22.1c-17.003-2.369-35.699-1.244-50.857,7.554
			c-13.748,7.98-21.942,22.432-20.526,38.418c1.444,16.292,10.91,31.609,23.536,41.721c27.941,22.376,70.317,24.105,99.923,4.017
			c30.098-20.421,43.942-57.66,35.532-92.831c-4.62-19.319-14.666-37.007-26.677-52.66c-11.444-14.914-25.107-29.677-43.058-36.549
			c-16.133-6.176-35.362-4.914-48.464,7.128c-11.729,10.782-15.761,27.157-19.302,42.073c-4.074,17.158-8.129,34.031-19.866,47.793
			c-12.343,14.473-29.559,24.207-48.042,28.351c-22.24,4.986-45.668,2.162-67.05-5.202c-19.377-6.673-38.586-17.619-50.554-34.717
			c-11.496-16.421-16.024-38.527-6.872-57.066c8.02-16.246,24.202-26.922,40.831-32.904c16.182-5.822,34.471-8.383,51.343-4.093
			c18.798,4.78,31.608,19.486,30.205,39.494c-1.547,22.059-17.797,38.846-33.086,53.139c-14.942,13.969-30.811,27.093-48.368,37.665
			c-32.241,19.41-70.966,28.888-106.697,13.23c-14.725-6.451-28.19-16.692-36.697-30.498c-10.284-16.686-11.187-36.481-5.892-55.05
			c11.515-40.38,44.7-70.811,53.33-112.426c3.831-18.472,1.852-38.064-9.478-53.645c-10.217-14.051-25.811-23.405-42.216-28.501
			c-16.249-5.048-34.721-6.137-50.882-0.154c-15.928,5.897-27.341,18.676-31.788,35.04c-4.685,17.234-2.435,35.616,0.092,53.005
			c3.266,22.467,6.311,44.879,5.931,67.642c-0.675,40.331-12.604,81.138-43.826,108.419c-13.459,11.762-29.961,19.94-47.792,22.118
			C97.343,308.825,97.304,313.831,100.496,313.44"/>
		<polygon clip-path="url(#SVGID_28_)" points="882.153,389.14 866.664,347.532 866.157,347.532 850.568,389.14 848.239,395.214 
			841.76,412.627 834.876,412.627 861.805,341.762 871.22,341.762 897.946,412.627 890.96,412.627 884.481,395.214 		"/>
		<path clip-path="url(#SVGID_28_)" d="M915.863,360.187h6.378v9.11h0.506c2.126-4.859,6.885-10.427,14.882-10.427h3.847v6.479
			h-4.353c-9.517,0-14.781,7.694-14.781,18.831v28.447h-6.479V360.187z"/>
		<path clip-path="url(#SVGID_28_)" d="M969.517,397.947v-32.396h-10.124v-5.365h10.63v-15.489h5.973v15.489h16.704v5.365h-16.704
			v32.294c0,6.378,2.633,9.111,9.011,9.111h6.884v5.669h-6.985C975.488,412.626,969.517,408.374,969.517,397.947"/>
		<path clip-path="url(#SVGID_28_)" d="M8.173,323.209l5.973-1.721c0.607,7.593,5.871,11.541,14.578,11.541
			c8.605,0,13.262-4.354,13.262-10.226c0-16.096-31.991-3.947-31.991-24.803c0-8.808,7.997-14.173,18.324-14.173
			c9.313,0,18.121,5.265,19.032,14.78l-5.77,1.622c-0.608-6.48-6.176-10.732-13.465-10.732c-7.188,0-11.845,3.441-11.845,8.606
			c0,14.475,32.092,2.326,32.092,24.599c0,9.718-7.998,16.197-20.146,16.197C16.17,338.9,9.286,332.016,8.173,323.209"/>
		<path clip-path="url(#SVGID_28_)" d="M76.404,322.906v-32.396H66.28v-5.366h10.63v-15.488h5.973v15.488h16.705v5.366H82.883
			v32.293c0,6.378,2.632,9.112,9.01,9.112h6.884v5.669h-6.985C82.377,337.585,76.404,333.333,76.404,322.906"/>
	</g>
	<g clip-path="url(#SVGID_2_)">
		<defs>
			<polyline id="SVGID_29_" points="-86,-226.89 1104.55,-226.89 1104.55,615 -86,615 			"/>
		</defs>
		<clipPath id="SVGID_30_">
			<use xlink:href="#SVGID_29_"  overflow="visible"/>
		</clipPath>
		<g clip-path="url(#SVGID_30_)">
			<defs>
				<rect id="SVGID_31_" x="-80.749" y="639" width="1190.55" height="841.891"/>
			</defs>
			<clipPath id="SVGID_32_">
				<use xlink:href="#SVGID_31_"  overflow="visible"/>
			</clipPath>
			<g clip-path="url(#SVGID_32_)">
				<defs>
					<rect id="SVGID_33_" x="-80.749" y="639" width="1190.55" height="841.891"/>
				</defs>
				<clipPath id="SVGID_34_">
					<use xlink:href="#SVGID_33_"  overflow="visible"/>
				</clipPath>
				<g opacity="0.12" clip-path="url(#SVGID_34_)">
					<g>
						<defs>
							<rect id="SVGID_35_" x="-2788.45" y="-129.069" width="3786.851" height="3786.859"/>
						</defs>
						<clipPath id="SVGID_36_">
							<use xlink:href="#SVGID_35_"  overflow="visible"/>
						</clipPath>
					</g>
				</g>
				<g opacity="0.12" clip-path="url(#SVGID_34_)">
					<g>
						<defs>
							<rect id="SVGID_37_" x="-1743.1" y="383.521" width="2761.69" height="2761.688"/>
						</defs>
						<clipPath id="SVGID_38_">
							<use xlink:href="#SVGID_37_"  overflow="visible"/>
						</clipPath>
					</g>
				</g>
			</g>
		</g>
		<g clip-path="url(#SVGID_30_)">
			<defs>
				<rect id="SVGID_39_" x="1124.55" y="635" width="1190.55" height="841.89"/>
			</defs>
			<clipPath id="SVGID_40_">
				<use xlink:href="#SVGID_39_"  overflow="visible"/>
			</clipPath>
			<g clip-path="url(#SVGID_40_)">
				<defs>
					<rect id="SVGID_41_" x="1124.55" y="635" width="1190.55" height="841.89"/>
				</defs>
				<clipPath id="SVGID_42_">
					<use xlink:href="#SVGID_41_"  overflow="visible"/>
				</clipPath>
				<g opacity="0.12" clip-path="url(#SVGID_42_)">
					<g>
						<defs>
							<rect id="SVGID_43_" x="495.579" y="-271.79" width="2340.521" height="2340.521"/>
						</defs>
						<clipPath id="SVGID_44_">
							<use xlink:href="#SVGID_43_"  overflow="visible"/>
						</clipPath>
					</g>
				</g>
				<g opacity="0.12" clip-path="url(#SVGID_42_)">
					<g>
						<defs>
							<rect id="SVGID_45_" x="-413.08" y="-647.68" width="3092.3" height="3092.31"/>
						</defs>
						<clipPath id="SVGID_46_">
							<use xlink:href="#SVGID_45_"  overflow="visible"/>
						</clipPath>
					</g>
				</g>
				<g opacity="0.12" clip-path="url(#SVGID_42_)">
					<g>
						<defs>
							<rect id="SVGID_47_" x="-1366.79" y="-1068.61" width="3934.18" height="3934.17"/>
						</defs>
						<clipPath id="SVGID_48_">
							<use xlink:href="#SVGID_47_"  overflow="visible"/>
						</clipPath>
					</g>
				</g>
				<g opacity="0.12" clip-path="url(#SVGID_42_)">
					<g>
						<defs>
							<rect id="SVGID_49_" x="837.945" y="-994.96" width="3786.854" height="3786.86"/>
						</defs>
						<clipPath id="SVGID_50_">
							<use xlink:href="#SVGID_49_"  overflow="visible"/>
						</clipPath>
					</g>
				</g>
			</g>
		</g>
		<g clip-path="url(#SVGID_30_)">
			<defs>
				<rect id="SVGID_51_" x="2335.1" y="635" width="1190.551" height="841.89"/>
			</defs>
			<clipPath id="SVGID_52_">
				<use xlink:href="#SVGID_51_"  overflow="visible"/>
			</clipPath>
			<g clip-path="url(#SVGID_52_)">
				<defs>
					<rect id="SVGID_53_" x="2335.1" y="635" width="1190.551" height="841.89"/>
				</defs>
				<clipPath id="SVGID_54_">
					<use xlink:href="#SVGID_53_"  overflow="visible"/>
				</clipPath>
				<g opacity="0.12" clip-path="url(#SVGID_54_)">
					<g>
						<defs>
							<rect id="SVGID_55_" x="495.58" y="-271.79" width="2340.52" height="2340.521"/>
						</defs>
						<clipPath id="SVGID_56_">
							<use xlink:href="#SVGID_55_"  overflow="visible"/>
						</clipPath>
					</g>
				</g>
				<g opacity="0.12" clip-path="url(#SVGID_54_)">
					<g>
						<defs>
							<rect id="SVGID_57_" x="-413.08" y="-647.68" width="3092.3" height="3092.31"/>
						</defs>
						<clipPath id="SVGID_58_">
							<use xlink:href="#SVGID_57_"  overflow="visible"/>
						</clipPath>
					</g>
				</g>
				<g opacity="0.12" clip-path="url(#SVGID_54_)">
					<g>
						<defs>
							<rect id="SVGID_59_" x="-1366.79" y="-1068.61" width="3934.18" height="3934.17"/>
						</defs>
						<clipPath id="SVGID_60_">
							<use xlink:href="#SVGID_59_"  overflow="visible"/>
						</clipPath>
					</g>
				</g>
				<g opacity="0.12" clip-path="url(#SVGID_54_)">
					<g>
						<defs>
							<rect id="SVGID_61_" x="837.95" y="-994.96" width="3786.85" height="3786.86"/>
						</defs>
						<clipPath id="SVGID_62_">
							<use xlink:href="#SVGID_61_"  overflow="visible"/>
						</clipPath>
					</g>
				</g>
			</g>
		</g>
		<g clip-path="url(#SVGID_30_)">
			<defs>
				<rect id="SVGID_63_" x="2335.1" y="596" width="1190.551" height="841.89"/>
			</defs>
			<clipPath id="SVGID_64_">
				<use xlink:href="#SVGID_63_"  overflow="visible"/>
			</clipPath>
			<g clip-path="url(#SVGID_64_)">
				<defs>
					<rect id="SVGID_65_" x="2335.1" y="596" width="1190.551" height="841.89"/>
				</defs>
				<clipPath id="SVGID_66_">
					<use xlink:href="#SVGID_65_"  overflow="visible"/>
				</clipPath>
				<g opacity="0.12" clip-path="url(#SVGID_66_)">
					<g>
						<defs>
							<rect id="SVGID_67_" x="797.47" y="-686.68" width="3092.3" height="3092.31"/>
						</defs>
						<clipPath id="SVGID_68_">
							<use xlink:href="#SVGID_67_"  overflow="visible"/>
						</clipPath>
					</g>
				</g>
				<g opacity="0.12" clip-path="url(#SVGID_66_)">
					<g>
						<defs>
							<rect id="SVGID_69_" x="-156.24" y="-1107.61" width="3934.18" height="3934.17"/>
						</defs>
						<clipPath id="SVGID_70_">
							<use xlink:href="#SVGID_69_"  overflow="visible"/>
						</clipPath>
					</g>
				</g>
			</g>
		</g>
		<g clip-path="url(#SVGID_30_)">
			<defs>
				<rect id="SVGID_71_" x="3545.648" y="576" width="1190.551" height="841.89"/>
			</defs>
			<clipPath id="SVGID_72_">
				<use xlink:href="#SVGID_71_"  overflow="visible"/>
			</clipPath>
			<g clip-path="url(#SVGID_72_)">
				<defs>
					<rect id="SVGID_73_" x="3545.648" y="576" width="1190.551" height="841.89"/>
				</defs>
				<clipPath id="SVGID_74_">
					<use xlink:href="#SVGID_73_"  overflow="visible"/>
				</clipPath>
				<g opacity="0.12" clip-path="url(#SVGID_74_)">
					<g>
						<defs>
							<rect id="SVGID_75_" x="1054.311" y="-1127.61" width="3934.18" height="3934.17"/>
						</defs>
						<clipPath id="SVGID_76_">
							<use xlink:href="#SVGID_75_"  overflow="visible"/>
						</clipPath>
					</g>
				</g>
			</g>
		</g>
		<g clip-path="url(#SVGID_30_)">
			<defs>
				<rect id="SVGID_77_" x="3544.653" y="737.499" width="1190.55" height="841.89"/>
			</defs>
			<clipPath id="SVGID_78_">
				<use xlink:href="#SVGID_77_"  overflow="visible"/>
			</clipPath>
			<g clip-path="url(#SVGID_78_)">
				<defs>
					<rect id="SVGID_79_" x="3544.653" y="737.499" width="1190.55" height="841.89"/>
				</defs>
				<clipPath id="SVGID_80_">
					<use xlink:href="#SVGID_79_"  overflow="visible"/>
				</clipPath>
				<g opacity="0.12" clip-path="url(#SVGID_80_)">
					<g>
						<defs>
							<rect id="SVGID_81_" x="1053.311" y="-966.11" width="3934.18" height="3934.17"/>
						</defs>
						<clipPath id="SVGID_82_">
							<use xlink:href="#SVGID_81_"  overflow="visible"/>
						</clipPath>
					</g>
				</g>
			</g>
		</g>
		<g clip-path="url(#SVGID_30_)">
			<defs>
				<rect id="SVGID_83_" x="-86" y="1496.89" width="1190.55" height="841.891"/>
			</defs>
			<clipPath id="SVGID_84_">
				<use xlink:href="#SVGID_83_"  overflow="visible"/>
			</clipPath>
			<g clip-path="url(#SVGID_84_)">
				<defs>
					<rect id="SVGID_85_" x="-86" y="1496.89" width="1190.55" height="841.891"/>
				</defs>
				<clipPath id="SVGID_86_">
					<use xlink:href="#SVGID_85_"  overflow="visible"/>
				</clipPath>
				<g opacity="0.12" clip-path="url(#SVGID_86_)">
					<g>
						<defs>
							<rect id="SVGID_87_" x="-1925.52" y="590.101" width="2340.516" height="2340.52"/>
						</defs>
						<clipPath id="SVGID_88_">
							<use xlink:href="#SVGID_87_"  overflow="visible"/>
						</clipPath>
					</g>
				</g>
				<g opacity="0.12" clip-path="url(#SVGID_86_)">
					<g>
						<defs>
							<rect id="SVGID_89_" x="-2834.18" y="214.21" width="3092.3" height="3092.31"/>
						</defs>
						<clipPath id="SVGID_90_">
							<use xlink:href="#SVGID_89_"  overflow="visible"/>
						</clipPath>
					</g>
				</g>
				<g opacity="0.12" clip-path="url(#SVGID_86_)">
					<g>
						<defs>
							<rect id="SVGID_91_" x="-3787.89" y="-206.72" width="3934.177" height="3934.17"/>
						</defs>
						<clipPath id="SVGID_92_">
							<use xlink:href="#SVGID_91_"  overflow="visible"/>
						</clipPath>
					</g>
				</g>
				<g opacity="0.12" clip-path="url(#SVGID_86_)">
					<g>
						<defs>
							<rect id="SVGID_93_" x="-1583.15" y="-133.069" width="3786.85" height="3786.859"/>
						</defs>
						<clipPath id="SVGID_94_">
							<use xlink:href="#SVGID_93_"  overflow="visible"/>
						</clipPath>
					</g>
				</g>
				<g opacity="0.12" clip-path="url(#SVGID_86_)">
					<g>
						<defs>
							<rect id="SVGID_95_" x="-537.799" y="379.521" width="2761.688" height="2761.688"/>
						</defs>
						<clipPath id="SVGID_96_">
							<use xlink:href="#SVGID_95_"  overflow="visible"/>
						</clipPath>
					</g>
				</g>
			</g>
		</g>
		<g clip-path="url(#SVGID_30_)">
			<defs>
				<rect id="SVGID_97_" x="-86" y="1457.89" width="1190.55" height="841.891"/>
			</defs>
			<clipPath id="SVGID_98_">
				<use xlink:href="#SVGID_97_"  overflow="visible"/>
			</clipPath>
			<g clip-path="url(#SVGID_98_)">
				<defs>
					<rect id="SVGID_99_" x="-86" y="1457.89" width="1190.55" height="841.891"/>
				</defs>
				<clipPath id="SVGID_100_">
					<use xlink:href="#SVGID_99_"  overflow="visible"/>
				</clipPath>
				<g opacity="0.12" clip-path="url(#SVGID_100_)">
					<g>
						<defs>
							<rect id="SVGID_101_" x="-714.971" y="551.101" width="2340.521" height="2340.52"/>
						</defs>
						<clipPath id="SVGID_102_">
							<use xlink:href="#SVGID_101_"  overflow="visible"/>
						</clipPath>
					</g>
				</g>
				<g opacity="0.12" clip-path="url(#SVGID_100_)">
					<g>
						<defs>
							<rect id="SVGID_103_" x="-1623.63" y="175.21" width="3092.3" height="3092.31"/>
						</defs>
						<clipPath id="SVGID_104_">
							<use xlink:href="#SVGID_103_"  overflow="visible"/>
						</clipPath>
					</g>
				</g>
				<g opacity="0.12" clip-path="url(#SVGID_100_)">
					<g>
						<defs>
							<rect id="SVGID_105_" x="-2577.34" y="-245.72" width="3934.18" height="3934.17"/>
						</defs>
						<clipPath id="SVGID_106_">
							<use xlink:href="#SVGID_105_"  overflow="visible"/>
						</clipPath>
					</g>
				</g>
				<g opacity="0.12" clip-path="url(#SVGID_100_)">
					<g>
						<defs>
							<rect id="SVGID_107_" x="-372.605" y="-172.069" width="3786.855" height="3786.859"/>
						</defs>
						<clipPath id="SVGID_108_">
							<use xlink:href="#SVGID_107_"  overflow="visible"/>
						</clipPath>
					</g>
				</g>
				<g opacity="0.12" clip-path="url(#SVGID_100_)">
					<g>
						<defs>
							<rect id="SVGID_109_" x="672.751" y="340.521" width="2761.688" height="2761.688"/>
						</defs>
						<clipPath id="SVGID_110_">
							<use xlink:href="#SVGID_109_"  overflow="visible"/>
						</clipPath>
					</g>
				</g>
			</g>
		</g>
		<g clip-path="url(#SVGID_30_)">
			<defs>
				<rect id="SVGID_111_" x="1124.55" y="1499.89" width="1190.55" height="841.891"/>
			</defs>
			<clipPath id="SVGID_112_">
				<use xlink:href="#SVGID_111_"  overflow="visible"/>
			</clipPath>
			<g clip-path="url(#SVGID_112_)">
				<defs>
					<rect id="SVGID_113_" x="1124.55" y="1499.89" width="1190.55" height="841.891"/>
				</defs>
				<clipPath id="SVGID_114_">
					<use xlink:href="#SVGID_113_"  overflow="visible"/>
				</clipPath>
				<g opacity="0.12" clip-path="url(#SVGID_114_)">
					<g>
						<defs>
							<rect id="SVGID_115_" x="-714.97" y="593.101" width="2340.52" height="2340.52"/>
						</defs>
						<clipPath id="SVGID_116_">
							<use xlink:href="#SVGID_115_"  overflow="visible"/>
						</clipPath>
					</g>
				</g>
				<g opacity="0.12" clip-path="url(#SVGID_114_)">
					<g>
						<defs>
							<rect id="SVGID_117_" x="-1623.63" y="217.21" width="3092.3" height="3092.31"/>
						</defs>
						<clipPath id="SVGID_118_">
							<use xlink:href="#SVGID_117_"  overflow="visible"/>
						</clipPath>
					</g>
				</g>
				<g opacity="0.12" clip-path="url(#SVGID_114_)">
					<g>
						<defs>
							<rect id="SVGID_119_" x="-2577.34" y="-203.72" width="3934.18" height="3934.17"/>
						</defs>
						<clipPath id="SVGID_120_">
							<use xlink:href="#SVGID_119_"  overflow="visible"/>
						</clipPath>
					</g>
				</g>
				<g opacity="0.12" clip-path="url(#SVGID_114_)">
					<g>
						<defs>
							<rect id="SVGID_121_" x="-372.6" y="-130.069" width="3786.85" height="3786.859"/>
						</defs>
						<clipPath id="SVGID_122_">
							<use xlink:href="#SVGID_121_"  overflow="visible"/>
						</clipPath>
					</g>
				</g>
				<g opacity="0.12" clip-path="url(#SVGID_114_)">
					<g>
						<defs>
							<rect id="SVGID_123_" x="672.751" y="382.521" width="2761.688" height="2761.688"/>
						</defs>
						<clipPath id="SVGID_124_">
							<use xlink:href="#SVGID_123_"  overflow="visible"/>
						</clipPath>
					</g>
				</g>
			</g>
		</g>
		<g clip-path="url(#SVGID_30_)">
			<defs>
				<rect id="SVGID_125_" x="1089.55" y="1445.89" width="1190.55" height="841.891"/>
			</defs>
			<clipPath id="SVGID_126_">
				<use xlink:href="#SVGID_125_"  overflow="visible"/>
			</clipPath>
			<g clip-path="url(#SVGID_126_)">
				<defs>
					<rect id="SVGID_127_" x="1089.55" y="1445.89" width="1190.55" height="841.891"/>
				</defs>
				<clipPath id="SVGID_128_">
					<use xlink:href="#SVGID_127_"  overflow="visible"/>
				</clipPath>
				<g opacity="0.12" clip-path="url(#SVGID_128_)">
					<g>
						<defs>
							<rect id="SVGID_129_" x="460.579" y="539.1" width="2340.521" height="2340.521"/>
						</defs>
						<clipPath id="SVGID_130_">
							<use xlink:href="#SVGID_129_"  overflow="visible"/>
						</clipPath>
					</g>
				</g>
				<g opacity="0.12" clip-path="url(#SVGID_128_)">
					<g>
						<defs>
							<rect id="SVGID_131_" x="-448.08" y="163.21" width="3092.3" height="3092.31"/>
						</defs>
						<clipPath id="SVGID_132_">
							<use xlink:href="#SVGID_131_"  overflow="visible"/>
						</clipPath>
					</g>
				</g>
				<g opacity="0.12" clip-path="url(#SVGID_128_)">
					<g>
						<defs>
							<rect id="SVGID_133_" x="-1401.79" y="-257.72" width="3934.18" height="3934.17"/>
						</defs>
						<clipPath id="SVGID_134_">
							<use xlink:href="#SVGID_133_"  overflow="visible"/>
						</clipPath>
					</g>
				</g>
				<g opacity="0.12" clip-path="url(#SVGID_128_)">
					<g>
						<defs>
							<rect id="SVGID_135_" x="802.945" y="-184.069" width="3786.854" height="3786.859"/>
						</defs>
						<clipPath id="SVGID_136_">
							<use xlink:href="#SVGID_135_"  overflow="visible"/>
						</clipPath>
					</g>
				</g>
			</g>
		</g>
		<g clip-path="url(#SVGID_30_)">
			<defs>
				<rect id="SVGID_137_" x="2335.1" y="1499.89" width="1190.551" height="841.891"/>
			</defs>
			<clipPath id="SVGID_138_">
				<use xlink:href="#SVGID_137_"  overflow="visible"/>
			</clipPath>
			<g clip-path="url(#SVGID_138_)">
				<defs>
					<rect id="SVGID_139_" x="2335.1" y="1499.89" width="1190.551" height="841.891"/>
				</defs>
				<clipPath id="SVGID_140_">
					<use xlink:href="#SVGID_139_"  overflow="visible"/>
				</clipPath>
				<g opacity="0.12" clip-path="url(#SVGID_140_)">
					<g>
						<defs>
							<rect id="SVGID_141_" x="495.58" y="593.101" width="2340.52" height="2340.52"/>
						</defs>
						<clipPath id="SVGID_142_">
							<use xlink:href="#SVGID_141_"  overflow="visible"/>
						</clipPath>
					</g>
				</g>
				<g opacity="0.12" clip-path="url(#SVGID_140_)">
					<g>
						<defs>
							<rect id="SVGID_143_" x="-413.08" y="217.21" width="3092.3" height="3092.31"/>
						</defs>
						<clipPath id="SVGID_144_">
							<use xlink:href="#SVGID_143_"  overflow="visible"/>
						</clipPath>
					</g>
				</g>
				<g opacity="0.12" clip-path="url(#SVGID_140_)">
					<g>
						<defs>
							<rect id="SVGID_145_" x="-1366.79" y="-203.72" width="3934.18" height="3934.17"/>
						</defs>
						<clipPath id="SVGID_146_">
							<use xlink:href="#SVGID_145_"  overflow="visible"/>
						</clipPath>
					</g>
				</g>
				<g opacity="0.12" clip-path="url(#SVGID_140_)">
					<g>
						<defs>
							<rect id="SVGID_147_" x="837.95" y="-130.069" width="3786.85" height="3786.859"/>
						</defs>
						<clipPath id="SVGID_148_">
							<use xlink:href="#SVGID_147_"  overflow="visible"/>
						</clipPath>
					</g>
				</g>
			</g>
		</g>
		<g clip-path="url(#SVGID_30_)">
			<defs>
				<rect id="SVGID_149_" x="2300.1" y="1445.89" width="1190.551" height="841.891"/>
			</defs>
			<clipPath id="SVGID_150_">
				<use xlink:href="#SVGID_149_"  overflow="visible"/>
			</clipPath>
			<g clip-path="url(#SVGID_150_)">
				<defs>
					<rect id="SVGID_151_" x="2300.1" y="1445.89" width="1190.551" height="841.891"/>
				</defs>
				<clipPath id="SVGID_152_">
					<use xlink:href="#SVGID_151_"  overflow="visible"/>
				</clipPath>
				<g opacity="0.12" clip-path="url(#SVGID_152_)">
					<g>
						<defs>
							<rect id="SVGID_153_" x="762.47" y="163.21" width="3092.3" height="3092.31"/>
						</defs>
						<clipPath id="SVGID_154_">
							<use xlink:href="#SVGID_153_"  overflow="visible"/>
						</clipPath>
					</g>
				</g>
				<g opacity="0.12" clip-path="url(#SVGID_152_)">
					<g>
						<defs>
							<rect id="SVGID_155_" x="-191.24" y="-257.72" width="3934.18" height="3934.17"/>
						</defs>
						<clipPath id="SVGID_156_">
							<use xlink:href="#SVGID_155_"  overflow="visible"/>
						</clipPath>
					</g>
				</g>
			</g>
		</g>
		<g clip-path="url(#SVGID_30_)">
			<defs>
				<rect id="SVGID_157_" x="3545.648" y="1499.89" width="1190.551" height="841.891"/>
			</defs>
			<clipPath id="SVGID_158_">
				<use xlink:href="#SVGID_157_"  overflow="visible"/>
			</clipPath>
			<g clip-path="url(#SVGID_158_)">
				<defs>
					<rect id="SVGID_159_" x="3545.648" y="1499.89" width="1190.551" height="841.891"/>
				</defs>
				<clipPath id="SVGID_160_">
					<use xlink:href="#SVGID_159_"  overflow="visible"/>
				</clipPath>
				<g opacity="0.12" clip-path="url(#SVGID_160_)">
					<g>
						<defs>
							<rect id="SVGID_161_" x="797.47" y="217.21" width="3092.3" height="3092.31"/>
						</defs>
						<clipPath id="SVGID_162_">
							<use xlink:href="#SVGID_161_"  overflow="visible"/>
						</clipPath>
					</g>
				</g>
				<g opacity="0.12" clip-path="url(#SVGID_160_)">
					<g>
						<defs>
							<rect id="SVGID_163_" x="-156.24" y="-203.72" width="3934.18" height="3934.17"/>
						</defs>
						<clipPath id="SVGID_164_">
							<use xlink:href="#SVGID_163_"  overflow="visible"/>
						</clipPath>
					</g>
				</g>
			</g>
		</g>
	</g>
</g>
</svg>
