<?xml version="1.0" encoding="utf-8"?>
<!-- Generator: Adobe Illustrator 16.0.0, SVG Export Plug-In . SVG Version: 6.00 Build 0)  -->
<!DOCTYPE svg PUBLIC "-//W3C//DTD SVG 1.1//EN" "http://www.w3.org/Graphics/SVG/1.1/DTD/svg11.dtd">
<svg version="1.1" id="Layer_1" xmlns="http://www.w3.org/2000/svg" xmlns:xlink="http://www.w3.org/1999/xlink" x="0px" y="0px"
	 width="100px" height="47.333px" viewBox="0 0 100 47.333" enable-background="new 0 0 100 47.333" xml:space="preserve">
<path fill="#010101" d="M3.259,11.747l0.565-0.163c0.058,0.718,0.555,1.091,1.379,1.091c0.814,0,1.254-0.411,1.254-0.967
	c0-1.522-3.025-0.374-3.025-2.345c0-0.833,0.756-1.34,1.733-1.34c0.88,0,1.713,0.498,1.8,1.397L6.418,9.573
	C6.362,8.96,5.835,8.558,5.145,8.558c-0.68,0-1.12,0.325-1.12,0.814c0,1.369,3.036,0.22,3.036,2.326
	c0,0.919-0.757,1.533-1.905,1.533C4.016,13.231,3.365,12.579,3.259,11.747"/>
<path fill="#010101" d="M9.713,11.718V8.654H8.755V8.146h1.006V6.682h0.564v1.465h1.581v0.508h-1.581v3.054
	c0,0.603,0.249,0.862,0.853,0.862h0.651v0.537h-0.661C10.278,13.106,9.713,12.704,9.713,11.718"/>
<path fill="#010101" d="M90.211,33.081h0.604v0.861h0.047c0.201-0.46,0.652-0.987,1.408-0.987h0.363v0.613h-0.412
	c-0.898,0-1.398,0.728-1.398,1.781v2.69h-0.611V33.081z"/>
<path fill="#010101" d="M95.285,36.651v-3.063h-0.957v-0.509h1.004v-1.464h0.566v1.464h1.58v0.509h-1.58v3.054
	c0,0.604,0.248,0.861,0.852,0.861h0.652v0.537H96.74C95.852,38.04,95.285,37.638,95.285,36.651"/>
<polygon fill="#010101" points="87.021,35.819 85.557,31.883 85.51,31.883 84.035,35.819 83.814,36.393 83.201,38.04 82.551,38.04 
	85.098,31.338 85.988,31.338 88.516,38.04 87.855,38.04 87.242,36.393 "/>
<path fill="#0023FF" d="M81.582,35.146h-4.529l-0.045-0.148c-0.016-0.054-1.598-5.246-5.092-5.246c-0.033,0-0.064,0-0.096,0.001
	c-3.602,0.097-6.41,5.232-6.438,5.285l-0.059,0.108h-4.705V12.422l-5.301-6.575l-6.596,7.089l0.615,17.832h-1.533l-0.55-17.43
	l-5.759-7.366l-6,7.968l0.514,13.674h-1.33l-0.513-16.61l-7.011-8.099l-6.419,8.225h-7.224v-0.412h7.022l6.604-8.462l7.437,8.588
	l0.002,0.074l0.502,16.282h0.502l-0.503-13.391l6.412-8.516l6.173,7.896l0.542,17.165h0.705L48.304,12.78l7.038-7.563l5.689,7.06
	v22.455h4.047c0.443-0.785,3.148-5.296,6.73-5.393c1.619-0.045,3.098,0.907,4.287,2.752c0.727,1.127,1.131,2.246,1.262,2.641h4.225
	V35.146z"/>
<path fill="#0023FF" d="M27.144,12.006c-1.483,0-2.69-1.205-2.69-2.688s1.207-2.689,2.69-2.689c1.482,0,2.689,1.206,2.689,2.689
	S28.626,12.006,27.144,12.006 M27.144,7.04c-1.256,0-2.277,1.022-2.277,2.277c0,1.256,1.021,2.277,2.277,2.277
	c1.255,0,2.276-1.021,2.276-2.277C29.42,8.062,28.399,7.04,27.144,7.04"/>
<path fill="#0023FF" d="M33.517,21.583h-3.575v-4.737h3.575V21.583z M30.354,21.171h2.75v-3.913h-2.75V21.171z"/>
<path fill="#0023FF" d="M29.257,21.583h-4.092v-4.737h4.092V21.583z M25.577,21.171h3.267v-3.913h-3.267V21.171z"/>
<path fill="#0023FF" d="M24.159,21.971h-3.641v-4.803h3.641V21.971z M20.931,21.557h2.814v-3.976h-2.814V21.557z"/>
<path fill="#0023FF" d="M24.159,28.103h-3.641v-4.285h3.641V28.103z M20.931,27.689h2.814v-3.46h-2.814V27.689z"/>
<path fill="#0023FF" d="M29.257,28.103h-3.576v-4.544h3.576V28.103z M26.094,27.689h2.75v-3.719h-2.75V27.689z"/>
<path fill="#0023FF" d="M33.517,27.845h-3.575v-4.544h3.575V27.845z M30.354,27.432h2.75v-3.719h-2.75V27.432z"/>
<path fill="#0023FF" d="M43.328,15.322h-3.512v-4.996h3.512V15.322z M40.229,14.909h2.687V10.74h-2.687V14.909z"/>
<path fill="#0023FF" d="M47.265,22.358h-4.35v-5.771h4.35V22.358z M43.328,21.944h3.524v-4.943h-3.524V21.944z"/>
<path fill="#0023FF" d="M40.746,22.745h-4.415v-6.157h4.415V22.745z M36.744,22.332h3.589V17h-3.589V22.332z"/>
<path fill="#0023FF" d="M47.265,28.231h-2.93V24.85h2.93V28.231z M44.748,27.818h2.104v-2.558h-2.104V27.818z"/>
<path fill="#0023FF" d="M43.715,28.005h-3.156V24.85h3.156V28.005z M40.972,27.593h2.331v-2.332h-2.331V27.593z"/>
<path fill="#0023FF" d="M39.262,28.231h-2.93V24.85h2.93V28.231z M36.744,27.818h2.105v-2.558h-2.105V27.818z"/>
<path fill="#0023FF" d="M57.012,17.001H52.08V12.79l0.012-0.034c0.399-1.143,1.495-1.877,2.664-1.783
	c1.021,0.083,1.904,0.783,2.244,1.785l0.012,0.032V17.001z M52.492,16.588h4.105v-3.729c-0.295-0.83-1.027-1.408-1.873-1.476
	c-0.971-0.075-1.886,0.529-2.232,1.476V16.588z"/>
<path fill="#0023FF" d="M57.012,23.714H52.08v-4.116l0.043-0.056c0.1-0.133,1.021-1.281,2.561-1.212
	c1.35,0.063,2.141,1.021,2.285,1.212l0.043,0.056V23.714z M52.492,23.301h4.105v-3.563c-0.197-0.244-0.863-0.947-1.932-0.995
	c-1.207-0.056-1.977,0.76-2.174,0.995V23.301z"/>
<path fill="#0023FF" d="M57.012,30.62H52.08v-3.823l0.04-0.055c0.04-0.056,1.013-1.358,2.634-1.248
	c1.318,0.093,2.08,1.056,2.219,1.25l0.039,0.053V30.62z M52.492,30.207h4.105v-3.275c-0.188-0.242-0.826-0.952-1.873-1.024
	c-1.244-0.085-2.047,0.8-2.232,1.026V30.207z"/>
</svg>
