<?xml version="1.0" encoding="utf-8"?>
<!-- Generator: Adobe Illustrator 16.0.0, SVG Export Plug-In . SVG Version: 6.00 Build 0)  -->
<!DOCTYPE svg PUBLIC "-//W3C//DTD SVG 1.1//EN" "http://www.w3.org/Graphics/SVG/1.1/DTD/svg11.dtd">
<svg version="1.1" id="b7c4787f-e4a8-4036-aa60-d215daeece2d"
	 xmlns="http://www.w3.org/2000/svg" xmlns:xlink="http://www.w3.org/1999/xlink" x="0px" y="0px" width="989.07px"
	 height="610.336px" viewBox="0 0 989.07 610.336" enable-background="new 0 0 989.07 610.336" xml:space="preserve">
<title>goals</title>
<rect x="282.955" y="188.186" transform="matrix(-0.8603 -0.5098 0.5098 -0.8603 1117.1857 720.5166)" fill="#F2F2F2" width="748.72" height="38"/>
<rect x="142.956" y="220.186" transform="matrix(-0.8603 -0.5098 0.5098 -0.8603 840.4314 708.6774)" fill="#F2F2F2" width="748.72" height="38"/>
<circle fill="#0023FF" cx="569.511" cy="245.756" r="201.669"/>
<path opacity="0.3" fill="#6C63FF" enable-background="new    " d="M569.511,282.583c-19.854,0-35.95-16.095-35.95-35.95
	s16.096-35.95,35.95-35.95s35.949,16.095,35.949,35.95l0,0C605.438,266.478,589.355,282.56,569.511,282.583z M569.511,212.437
	c-18.886,0-34.196,15.31-34.196,34.196s15.311,34.196,34.196,34.196s34.196-15.31,34.196-34.196l0,0
	C603.686,227.756,588.388,212.458,569.511,212.437L569.511,212.437z"/>
<path opacity="0.3" fill="#FFFFFF" enable-background="new    " d="M569.511,315.025c-37.772,0-68.392-30.621-68.392-68.393
	s30.619-68.392,68.392-68.392c37.771,0,68.392,30.62,68.392,68.392l0,0C637.86,284.387,607.265,314.982,569.511,315.025z
	 M569.511,179.995c-36.804,0-66.639,29.835-66.639,66.638s29.835,66.639,66.639,66.639s66.638-29.835,66.638-66.639
	C636.107,209.847,606.297,180.036,569.511,179.995L569.511,179.995z"/>
<path opacity="0.3" fill="#FFFFFF" enable-background="new    " d="M569.511,343.083c-53.269,0-96.45-43.182-96.45-96.45
	s43.183-96.45,96.45-96.45s96.45,43.182,96.45,96.45C665.9,299.876,622.754,343.023,569.511,343.083z M569.511,151.937
	c-52.3,0-94.696,42.397-94.696,94.696s42.396,94.697,94.696,94.697s94.696-42.398,94.696-94.697l0,0
	C664.148,194.358,621.785,151.996,569.511,151.937L569.511,151.937z"/>
<path opacity="0.3" fill="#FFFFFF" enable-background="new    " d="M569.511,379.909c-73.489,0-133.276-59.787-133.276-133.276
	c0-73.489,59.787-133.276,133.276-133.276s133.276,59.788,133.276,133.276C702.787,320.122,643,379.909,569.511,379.909z
	 M569.511,115.11c-72.522,0-131.523,59.001-131.523,131.523c0,72.521,59.001,131.523,131.523,131.523
	c72.521,0,131.522-59.002,131.522-131.523C701.033,174.111,642.032,115.11,569.511,115.11L569.511,115.11z"/>
<path opacity="0.3" fill="#FFFFFF" enable-background="new    " d="M569.511,410.598c-90.411,0-163.966-73.554-163.966-163.965
	c0-90.411,73.555-163.965,163.966-163.965s163.965,73.555,163.965,163.965C733.476,337.044,659.922,410.598,569.511,410.598z
	 M569.511,84.421c-89.444,0-162.212,72.768-162.212,162.211c0,89.444,72.768,162.212,162.212,162.212
	s162.212-72.768,162.212-162.212C731.723,157.189,658.955,84.421,569.511,84.421z"/>
<circle opacity="0.3" fill="#6C63FF" enable-background="new    " cx="569.511" cy="245.756" r="16.659"/>
<circle opacity="0.3" fill="#6C63FF" enable-background="new    " cx="612.475" cy="293.981" r="16.659"/>
<circle opacity="0.3" fill="#6C63FF" enable-background="new    " cx="495.857" cy="286.967" r="16.659"/>
<circle fill="#2F2E41" cx="569.511" cy="245.756" r="7.891"/>
<circle fill="#2F2E41" cx="495.857" cy="286.967" r="7.891"/>
<circle fill="#2F2E41" cx="612.475" cy="294.858" r="7.891"/>
<circle fill="#0C0CA5" cx="937.775" cy="157.197" r="7.892"/>
<polygon fill="#2F2E41" points="569.949,246.194 568.195,246.194 568.195,155.882 916.293,155.882 916.293,157.636 569.949,157.636 
	"/>
<path fill="#2F2E41" d="M937.775,179.995c-12.591,0-22.798-10.207-22.798-22.797c0-12.591,10.207-22.797,22.798-22.797
	c12.59,0,22.797,10.207,22.797,22.797C960.559,169.782,950.359,179.98,937.775,179.995z M937.775,136.153
	c-11.622,0-21.044,9.422-21.044,21.044s9.422,21.043,21.044,21.043s21.043-9.421,21.043-21.043
	C958.806,145.581,949.392,136.167,937.775,136.153L937.775,136.153z"/>
<circle fill="#0C0CA5" cx="885.166" cy="384.294" r="7.892"/>
<path fill="#2F2E41" d="M885.166,407.091c-12.591,0-22.798-10.207-22.798-22.798c0-12.59,10.207-22.797,22.798-22.797
	c12.59,0,22.797,10.207,22.797,22.797l0,0C907.949,396.878,897.751,407.077,885.166,407.091z M885.166,363.25
	c-11.622,0-21.044,9.422-21.044,21.043c0,11.623,9.422,21.044,21.044,21.044s21.043-9.421,21.043-21.044
	C906.196,372.677,896.782,363.264,885.166,363.25L885.166,363.25z"/>
<circle fill="#0C0CA5" cx="251.225" cy="194.024" r="7.891"/>
<path fill="#2F2E41" d="M251.225,216.821c-12.591,0-22.797-10.207-22.797-22.797c0-12.59,10.207-22.797,22.797-22.797
	s22.797,10.207,22.797,22.797C274.008,206.608,263.81,216.807,251.225,216.821z M251.225,172.98
	c-11.622,0-21.043,9.421-21.044,21.043c0,11.622,9.422,21.044,21.044,21.044s21.043-9.421,21.043-21.044l0,0
	C272.255,182.407,262.842,172.993,251.225,172.98L251.225,172.98z"/>
<polygon fill="#2F2E41" points="496.735,286.967 494.981,286.967 494.981,198.394 273.132,194.9 273.159,193.147 496.735,196.668 
	"/>
<polygon fill="#2F2E41" points="863.245,385.17 611.598,385.17 611.598,294.858 613.352,294.858 613.352,383.417 863.245,383.417 
	"/>
<ellipse fill="#F2F2F2" cx="579.402" cy="469.447" rx="192.023" ry="6.138"/>
<path fill="#FFB8B8" d="M120.584,111.65c0,0,9.858,28.059,3.792,32.375c-6.067,4.317,20.474,39.569,20.474,39.569l31.85-8.634
	l-17.44-29.497c0,0-2.275-29.497-2.275-33.814C156.984,107.333,120.584,111.65,120.584,111.65z"/>
<path fill="#0C0CA5" d="M120.584,111.65c0,0,9.858,28.059,3.792,32.375c-6.067,4.317,20.474,39.569,20.474,39.569l31.85-8.634
	l-17.44-29.497c0,0-2.275-29.497-2.275-33.814C156.984,107.333,120.584,111.65,120.584,111.65z"/>
<path fill="#2F2E41" d="M104.038,311.655c0,0-2.878,35.972,0,54.678c2.877,18.705,7.194,70.505,7.194,70.505s0,97.844,15.828,99.283
	c15.828,1.438,27.339,2.878,28.778-2.877s-7.194-8.635-2.877-11.512c4.316-2.878,5.755-12.95,0-24.462
	c-5.756-11.51,0-128.06,0-128.06l27.339,73.382c0,0,2.877,60.435,5.755,69.067c2.878,8.632-2.878,24.461,7.194,25.898
	c10.072,1.44,21.583-7.194,27.339-10.069c5.756-2.88-8.634-2.88-5.756-4.317c2.878-1.439,11.512-5.757,8.634-7.194
	c-2.878-1.44-5.756-70.505-5.756-70.505s-7.914-147.487-17.986-153.242c-10.073-5.757-16.547,4.157-16.547,4.157L104.038,311.655z"
	/>
<path fill="#2F2E41" d="M129.937,530.364v11.512c0,0-12.95,31.291,0,31.291s23.022,3.243,23.022-1.074v-38.849L129.937,530.364z"/>
<path fill="#2F2E41" d="M214.831,530.346v11.51c0,0,12.95,31.291,0,31.291c-12.95,0-23.022,3.243-23.022-1.074v-38.849
	L214.831,530.346z"/>
<circle fill="#0023FF" cx="140.729" cy="106.614" r="25.9"/>
<path fill="#D0CDE1" d="M132.815,154.816c0,0,7.194,21.583,18.705,17.267l11.511-4.316l20.145,138.132
	c0,0-15.828,23.023-38.85,8.635C121.304,300.144,132.815,154.816,132.815,154.816z"/>
<path fill="#3F3D56" d="M152.959,150.5l6.475-13.669c0,0,38.13,17.986,43.885,23.742c5.756,5.755,5.756,14.388,5.756,14.388
	l-10.072,35.973c0,0,2.877,79.138,2.877,82.016c0,2.879,10.072,18.706,2.878,12.949c-7.195-5.755-8.633-11.51-14.389-2.877
	c-5.755,8.634-18.705,18.706-18.705,18.706L152.959,150.5z"/>
<path fill="#0023FF" d="M203.32,254.099l-4.316,40.29c0,0-25.9,23.021-20.145,24.459c5.756,1.44,8.633-4.314,8.633-4.314
	s10.072,10.072,15.828,4.314c5.756-5.755,20.145-60.431,20.145-60.431L203.32,254.099z"/>
<path fill="#94A200" d="M141.281,70.01c-5.742-0.205-11.886-0.307-16.728,2.788c-2.227,1.553-4.181,3.465-5.781,5.659
	c-4.715,5.96-8.789,13.46-7.037,20.855l2.033-0.794c0,1.975-0.438,3.924-1.285,5.707c0.287-0.833,1.246,0.514,0.989,1.356
	l-2.241,7.351c3.653-1.125,7.526,0.923,8.652,4.577c0.07,0.227,0.128,0.457,0.175,0.689c0.256-8.538,1.142-18.329,8.068-23.329
	c3.493-2.521,7.913-3.291,12.167-3.975c3.923-0.63,8.037-1.231,11.795,0.061c3.758,1.292,6.959,5.135,6.106,9.017
	c1.733-0.597,3.671,0.611,4.528,2.232c0.726,1.69,1.043,3.528,0.927,5.364c1.847,1.305,3.949-1.287,4.702-3.42
	c1.767-5.007,3.337-10.336,2.386-15.56c-0.952-5.223-5.208-10.215-10.518-10.233c0.645-0.708,0.989-1.639,0.959-2.595l-4.376-0.37
	c1.111-0.158,2.133-0.697,2.89-1.525C157.936,75.8,144.122,70.112,141.281,70.01z"/>
<path fill="#3F3D56" d="M140.009,146.183c0,0-11.713-11.478-15.929-10.775c-4.215,0.703-9.971,10.775-9.971,10.775
	s-34.533,11.511-33.095,23.022c1.439,11.511,17.267,67.627,17.267,67.627s12.95,67.628,1.439,74.822
	c-11.511,7.192,54.677,25.899,56.116,17.267c1.439-8.634,4.316-94.967,0-107.917C151.52,208.055,140.009,146.183,140.009,146.183z"
	/>
<path fill="#0023FF" d="M93.965,267.05l20.145,8.635c0,0,38.85,5.755,38.85-10.074c0-15.828-38.85-7.194-38.85-7.194l-12.951-4.142
	L93.965,267.05z"/>
<path fill="#3F3D56" d="M190.37,169.206h17.792c0,0,12.424,54.678,13.863,60.433c1.439,5.756,4.317,33.094,2.877,33.094
	c-1.438,0-30.216-5.756-30.216-1.438L190.37,169.206z"/>
<path fill="#3F3D56" d="M98.282,160.572l-17.267,4.317l-12.95,76.261c0,0-4.316,20.145,2.878,21.583
	c7.194,1.44,27.339,12.952,27.339,12.952s2.878-21.585,8.633-21.585l-14.389-11.511l8.633-50.361L98.282,160.572z"/>
<circle id="Ellipse_506" fill="#FFFFFF" cx="141.792" cy="105.066" r="8.783"/>
<circle id="Ellipse_507" fill="#0C0CA5" cx="141.792" cy="105.066" r="2.927"/>
<path id="Path_6477" fill="#FFFFFF" d="M148.641,121.522c0.287,3.219-2.089,6.061-5.308,6.349c-3.219,0.287-6.06-2.089-6.349-5.308
	c0-0.01-0.001-0.019-0.002-0.029c-0.289-3.228,2.274-4.102,5.502-4.391C145.714,117.854,148.353,118.293,148.641,121.522z"/>
<path fill="#2F2E41" d="M124.035,566.168c0,0,3,18,25.5,10.5c3-2.667,3-2.667,3-2.667l-0.5-6.333L124.035,566.168z"/>
<path fill="#2F2E41" d="M191.868,572.501c0,0,3,18,25.5,10.5c3-2.667,3-2.667,3-2.667l0.104-13.229L191.868,572.501z"/>
<path fill="#2F2E41" d="M215.504,583.512c0,0,5.344-0.969,4.813-3.938S215.504,583.512,215.504,583.512z"/>
<path fill="#2F2E41" d="M147.994,577.086c0,0,5.292-0.458,4.917-5.875S147.994,577.086,147.994,577.086z"/>
</svg>
