<svg xmlns="http://www.w3.org/2000/svg" xmlns:xlink="http://www.w3.org/1999/xlink" width="430.878" height="424.308" viewBox="0 0 430.878 424.308">
  <defs>
    <filter id="logo-symbol" x="0" y="0" width="430.878" height="424.308" filterUnits="userSpaceOnUse">
      <feOffset dy="3" input="SourceAlpha"/>
      <feGaussianBlur stdDeviation="3" result="blur"/>
      <feFlood flood-opacity="0.161"/>
      <feComposite operator="in" in2="blur"/>
      <feComposite in="SourceGraphic"/>
    </filter>
  </defs>
  <g id="strategic-trofi" transform="translate(-478 -310.628)">
    <g id="strategic-trofi-2" data-name="strategic-trofi" transform="translate(-201.486 -74.98)">
      <g transform="matrix(1, 0, 0, 1, 679.49, 385.61)" filter="url(#logo-symbol)">
        <path id="logo-symbol-2" data-name="logo-symbol" d="M309.18,142.818C292.364,63.29,223.982,4.941,142.809.319c-50.253-2.862-91.35,13.345-118.172,57.4C4.816,90.284-1.651,126.636.346,164.409c1.705,32.248,15.429,59.159,38.91,81C77.5,280.98,123.811,295.537,170.6,297.014c14.879-.9,25.245-.9,35.509-2.986C279.328,279.109,324.122,213.483,309.18,142.818ZM187.787,229.581c-4.421.324-8.887.046-13.333.046-33.1-.78-63.5-9.23-88.656-32.037-12.411-11.253-19.341-25.184-19.3-42.055.05-20.536,2.99-40.465,12.654-59.072,8.737-16.821,22.7-27.19,40.881-28.82C177.491,62.481,233.021,96,244.286,160.178,250.567,195.957,224.252,226.915,187.787,229.581Z" transform="matrix(-0.89, -0.45, 0.45, -0.89, 287.04, 412.31)" fill="#fff" fill-rule="evenodd"/>
      </g>
    </g>
    <g id="Group_215" data-name="Group 215" transform="translate(660.296 484)">
      <g id="Group_57" data-name="Group 57" transform="translate(0)">
        <path id="Path_44" data-name="Path 44" d="M151.474,454.884H136.131v-2.169a10.824,10.824,0,0,0-3.34-7.824,6.518,6.518,0,0,1,5.5-3.034v-4.34a10.878,10.878,0,0,0-9.172,5.043,10.769,10.769,0,0,0-7.7.005,10.871,10.871,0,0,0-9.172-5.048v4.34a6.54,6.54,0,0,1,5.51,3.034,10.84,10.84,0,0,0-3.335,7.824v2.169H99.081a10.853,10.853,0,1,0,0,21.707,30.093,30.093,0,0,0,11-2.1c.021,11.987,11.638,19.043,13.028,22.781.467,1.257-.951,4.419,0,5.37.768.773,3.663.848,4.339,0,.848-1.042-.478-4.119,0-5.37,1.428-3.722,12.98-10.773,13.028-22.738a30.391,30.391,0,0,0,11,2.062,10.856,10.856,0,1,0-.011-21.712Zm-32.716-2.175a6.514,6.514,0,0,1,13.028,0v2.169H118.758ZM99.07,472.251a6.514,6.514,0,0,1,0-13.029h22.636A26.178,26.178,0,0,1,99.07,472.251Zm26.2-10.515a30.274,30.274,0,0,0,10.22,10.343c.1.059.2.118.29.177h-21.1A30.373,30.373,0,0,0,125.272,461.736Zm-.005,31.722a34.261,34.261,0,0,1-7.459-8.174h14.913A34.485,34.485,0,0,1,125.266,493.458Zm9.64-12.523H115.627a18.736,18.736,0,0,1-1.079-4.339H136A18.9,18.9,0,0,1,134.906,480.935Zm16.567-8.684a26.292,26.292,0,0,1-22.641-13.029h22.641a6.514,6.514,0,0,1,0,13.029Z" transform="translate(-88.222 -437.516)" fill="#6d758d"/>
      </g>
    </g>
  </g>
</svg>
