<?xml version="1.0" encoding="utf-8"?>
<!-- Generator: Adobe Illustrator 16.0.0, SVG Export Plug-In . SVG Version: 6.00 Build 0)  -->
<!DOCTYPE svg PUBLIC "-//W3C//DTD SVG 1.1//EN" "http://www.w3.org/Graphics/SVG/1.1/DTD/svg11.dtd">
<svg version="1.1" id="Layer_1" xmlns="http://www.w3.org/2000/svg" xmlns:xlink="http://www.w3.org/1999/xlink" x="0px" y="0px"
	 width="841.891px" height="495px" viewBox="0 0 841.891 495" enable-background="new 0 0 841.891 495" xml:space="preserve">
<g>
	<g>
		<defs>
			<rect id="SVGID_1_" x="4147.975" y="-33.986" width="487.301" height="50.063"/>
		</defs>
		<clipPath id="SVGID_2_">
			<use xlink:href="#SVGID_1_"  overflow="visible"/>
		</clipPath>
		<g clip-path="url(#SVGID_2_)">
			<text transform="matrix(1.0015 0 0 1 4336.0005 -1.135)" font-family="'Arial-BoldMT'" font-size="22.9352">S</text>
		</g>
	</g>
	<g>
		<defs>
			<rect id="SVGID_3_" x="4147.975" y="-33.986" width="487.301" height="50.063"/>
		</defs>
		<clipPath id="SVGID_4_">
			<use xlink:href="#SVGID_3_"  overflow="visible"/>
		</clipPath>
		<g clip-path="url(#SVGID_4_)">
			<text transform="matrix(1.0015 0 0 1 4351.3169 -1.135)" font-family="'Arial-BoldMT'" font-size="22.9352">t</text>
		</g>
	</g>
	<g>
		<defs>
			<rect id="SVGID_5_" x="4147.975" y="-33.986" width="487.301" height="50.063"/>
		</defs>
		<clipPath id="SVGID_6_">
			<use xlink:href="#SVGID_5_"  overflow="visible"/>
		</clipPath>
		<g clip-path="url(#SVGID_6_)">
			<text transform="matrix(1.0015 0 0 1 4358.9634 -1.135)" font-family="'Arial-BoldMT'" font-size="22.9352">r</text>
		</g>
	</g>
	<g>
		<defs>
			<rect id="SVGID_7_" x="4147.975" y="-33.986" width="487.301" height="50.063"/>
		</defs>
		<clipPath id="SVGID_8_">
			<use xlink:href="#SVGID_7_"  overflow="visible"/>
		</clipPath>
		<g clip-path="url(#SVGID_8_)">
			<text transform="matrix(1.0015 0 0 1 4367.9009 -1.135)" font-family="'Arial-BoldMT'" font-size="22.9352">e</text>
		</g>
	</g>
	<g>
		<defs>
			<rect id="SVGID_9_" x="4147.975" y="-33.986" width="487.301" height="50.063"/>
		</defs>
		<clipPath id="SVGID_10_">
			<use xlink:href="#SVGID_9_"  overflow="visible"/>
		</clipPath>
		<g clip-path="url(#SVGID_10_)">
			<text transform="matrix(1.0015 0 0 1 4380.6724 -1.135)" font-family="'Arial-BoldMT'" font-size="22.9352">n</text>
		</g>
	</g>
	<g>
		<defs>
			<rect id="SVGID_11_" x="4147.975" y="-33.986" width="487.301" height="50.063"/>
		</defs>
		<clipPath id="SVGID_12_">
			<use xlink:href="#SVGID_11_"  overflow="visible"/>
		</clipPath>
		<g clip-path="url(#SVGID_12_)">
			<text transform="matrix(1.0015 0 0 1 4394.7017 -1.135)" font-family="'Arial-BoldMT'" font-size="22.9352">g</text>
		</g>
	</g>
	<g>
		<defs>
			<rect id="SVGID_13_" x="4147.975" y="-33.986" width="487.301" height="50.063"/>
		</defs>
		<clipPath id="SVGID_14_">
			<use xlink:href="#SVGID_13_"  overflow="visible"/>
		</clipPath>
		<g clip-path="url(#SVGID_14_)">
			<text transform="matrix(1.0015 0 0 1 4408.729 -1.135)" font-family="'Arial-BoldMT'" font-size="22.9352">t</text>
		</g>
	</g>
	<g>
		<defs>
			<rect id="SVGID_15_" x="4147.975" y="-33.986" width="487.301" height="50.063"/>
		</defs>
		<clipPath id="SVGID_16_">
			<use xlink:href="#SVGID_15_"  overflow="visible"/>
		</clipPath>
		<g clip-path="url(#SVGID_16_)">
			<text transform="matrix(1.0015 0 0 1 4416.3774 -1.135)" font-family="'Arial-BoldMT'" font-size="22.9352">h</text>
		</g>
	</g>
	<g>
		<defs>
			<rect id="SVGID_17_" x="4147.975" y="-33.986" width="487.301" height="50.063"/>
		</defs>
		<clipPath id="SVGID_18_">
			<use xlink:href="#SVGID_17_"  overflow="visible"/>
		</clipPath>
		<g clip-path="url(#SVGID_18_)">
			<text transform="matrix(1.0015 0 0 1 4430.4028 -1.135)" font-family="'Arial-BoldMT'" font-size="22.9352">s</text>
		</g>
	</g>
	<g>
		<defs>
			<rect id="SVGID_19_" x="4147.975" y="-33.986" width="487.301" height="50.063"/>
		</defs>
		<clipPath id="SVGID_20_">
			<use xlink:href="#SVGID_19_"  overflow="visible"/>
		</clipPath>
		<g clip-path="url(#SVGID_20_)">
			<text transform="matrix(1.0015 0 0 1 4443.1606 -1.135)" font-family="'Arial-BoldMT'" font-size="22.9352"> </text>
		</g>
	</g>
	<g>
		<defs>
			<rect id="SVGID_21_" x="4147.975" y="-33.986" width="487.301" height="50.063"/>
		</defs>
		<clipPath id="SVGID_22_">
			<use xlink:href="#SVGID_21_"  overflow="visible"/>
		</clipPath>
		<g clip-path="url(#SVGID_22_)">
			<text transform="matrix(1.0015 0 0 1 4449.5239 -1.135)" font-family="'Arial-BoldMT'" font-size="22.9352"> </text>
		</g>
	</g>
</g>
<g>
	<g>
		<defs>
			<rect id="SVGID_23_" x="4692.844" y="-31.986" width="534.303" height="50.063"/>
		</defs>
		<clipPath id="SVGID_24_">
			<use xlink:href="#SVGID_23_"  overflow="visible"/>
		</clipPath>
		<g clip-path="url(#SVGID_24_)">
			<text transform="matrix(1.0981 0 0 1 4874.9497 0.865)" font-family="'Arial-BoldMT'" font-size="22.9352">O</text>
		</g>
	</g>
	<g>
		<defs>
			<rect id="SVGID_25_" x="4692.844" y="-31.986" width="534.303" height="50.063"/>
		</defs>
		<clipPath id="SVGID_26_">
			<use xlink:href="#SVGID_25_"  overflow="visible"/>
		</clipPath>
		<g clip-path="url(#SVGID_26_)">
			<text transform="matrix(1.0981 0 0 1 4894.5376 0.865)" font-family="'Arial-BoldMT'" font-size="22.9352">p</text>
		</g>
	</g>
	<g>
		<defs>
			<rect id="SVGID_27_" x="4692.844" y="-31.986" width="534.303" height="50.063"/>
		</defs>
		<clipPath id="SVGID_28_">
			<use xlink:href="#SVGID_27_"  overflow="visible"/>
		</clipPath>
		<g clip-path="url(#SVGID_28_)">
			<text transform="matrix(1.0981 0 0 1 4909.9146 0.865)" font-family="'Arial-BoldMT'" font-size="22.9352">p</text>
		</g>
	</g>
	<g>
		<defs>
			<rect id="SVGID_29_" x="4692.844" y="-31.986" width="534.303" height="50.063"/>
		</defs>
		<clipPath id="SVGID_30_">
			<use xlink:href="#SVGID_29_"  overflow="visible"/>
		</clipPath>
		<g clip-path="url(#SVGID_30_)">
			<text transform="matrix(1.0981 0 0 1 4925.2954 0.865)" font-family="'Arial-BoldMT'" font-size="22.9352">o</text>
		</g>
	</g>
	<g>
		<defs>
			<rect id="SVGID_31_" x="4692.844" y="-31.986" width="534.303" height="50.063"/>
		</defs>
		<clipPath id="SVGID_32_">
			<use xlink:href="#SVGID_31_"  overflow="visible"/>
		</clipPath>
		<g clip-path="url(#SVGID_32_)">
			<text transform="matrix(1.0981 0 0 1 4940.6763 0.865)" font-family="'Arial-BoldMT'" font-size="22.9352">r</text>
		</g>
	</g>
	<g>
		<defs>
			<rect id="SVGID_33_" x="4692.844" y="-31.986" width="534.303" height="50.063"/>
		</defs>
		<clipPath id="SVGID_34_">
			<use xlink:href="#SVGID_33_"  overflow="visible"/>
		</clipPath>
		<g clip-path="url(#SVGID_34_)">
			<text transform="matrix(1.0981 0 0 1 4950.4771 0.865)" font-family="'Arial-BoldMT'" font-size="22.9352">t</text>
		</g>
	</g>
	<g>
		<defs>
			<rect id="SVGID_35_" x="4692.844" y="-31.986" width="534.303" height="50.063"/>
		</defs>
		<clipPath id="SVGID_36_">
			<use xlink:href="#SVGID_35_"  overflow="visible"/>
		</clipPath>
		<g clip-path="url(#SVGID_36_)">
			<text transform="matrix(1.0981 0 0 1 4958.8618 0.865)" font-family="'Arial-BoldMT'" font-size="22.9352">u</text>
		</g>
	</g>
	<g>
		<defs>
			<rect id="SVGID_37_" x="4692.844" y="-31.986" width="534.303" height="50.063"/>
		</defs>
		<clipPath id="SVGID_38_">
			<use xlink:href="#SVGID_37_"  overflow="visible"/>
		</clipPath>
		<g clip-path="url(#SVGID_38_)">
			<text transform="matrix(1.0981 0 0 1 4974.2427 0.865)" font-family="'Arial-BoldMT'" font-size="22.9352">n</text>
		</g>
	</g>
	<g>
		<defs>
			<rect id="SVGID_39_" x="4692.844" y="-31.986" width="534.303" height="50.063"/>
		</defs>
		<clipPath id="SVGID_40_">
			<use xlink:href="#SVGID_39_"  overflow="visible"/>
		</clipPath>
		<g clip-path="url(#SVGID_40_)">
			<text transform="matrix(1.0981 0 0 1 4989.6235 0.865)" font-family="'Arial-BoldMT'" font-size="22.9352">i</text>
		</g>
	</g>
	<g>
		<defs>
			<rect id="SVGID_41_" x="4692.844" y="-31.986" width="534.303" height="50.063"/>
		</defs>
		<clipPath id="SVGID_42_">
			<use xlink:href="#SVGID_41_"  overflow="visible"/>
		</clipPath>
		<g clip-path="url(#SVGID_42_)">
			<text transform="matrix(1.0981 0 0 1 4996.6177 0.865)" font-family="'Arial-BoldMT'" font-size="22.9352">t</text>
		</g>
	</g>
	<g>
		<defs>
			<rect id="SVGID_43_" x="4692.844" y="-31.986" width="534.303" height="50.063"/>
		</defs>
		<clipPath id="SVGID_44_">
			<use xlink:href="#SVGID_43_"  overflow="visible"/>
		</clipPath>
		<g clip-path="url(#SVGID_44_)">
			<text transform="matrix(1.0981 0 0 1 5005.0024 0.865)" font-family="'Arial-BoldMT'" font-size="22.9352">i</text>
		</g>
	</g>
	<g>
		<defs>
			<rect id="SVGID_45_" x="4692.844" y="-31.986" width="534.303" height="50.063"/>
		</defs>
		<clipPath id="SVGID_46_">
			<use xlink:href="#SVGID_45_"  overflow="visible"/>
		</clipPath>
		<g clip-path="url(#SVGID_46_)">
			<text transform="matrix(1.0981 0 0 1 5011.9985 0.865)" font-family="'Arial-BoldMT'" font-size="22.9352">e</text>
		</g>
	</g>
	<g>
		<defs>
			<rect id="SVGID_47_" x="4692.844" y="-31.986" width="534.303" height="50.063"/>
		</defs>
		<clipPath id="SVGID_48_">
			<use xlink:href="#SVGID_47_"  overflow="visible"/>
		</clipPath>
		<g clip-path="url(#SVGID_48_)">
			<text transform="matrix(1.0981 0 0 1 5026.0024 0.865)" font-family="'Arial-BoldMT'" font-size="22.9352">s</text>
		</g>
	</g>
	<g>
		<defs>
			<rect id="SVGID_49_" x="4692.844" y="-31.986" width="534.303" height="50.063"/>
		</defs>
		<clipPath id="SVGID_50_">
			<use xlink:href="#SVGID_49_"  overflow="visible"/>
		</clipPath>
		<g clip-path="url(#SVGID_50_)">
			<text transform="matrix(1.0981 0 0 1 5039.9868 0.865)" font-family="'Arial-BoldMT'" font-size="22.9352"> </text>
		</g>
	</g>
</g>
<g>
	<g>
		<defs>
			<rect id="SVGID_51_" x="4147.975" y="228.846" width="487.301" height="50.063"/>
		</defs>
		<clipPath id="SVGID_52_">
			<use xlink:href="#SVGID_51_"  overflow="visible"/>
		</clipPath>
		<g clip-path="url(#SVGID_52_)">
			<text transform="matrix(1.0015 0 0 1 4321.897 261.697)" font-family="'Arial-BoldMT'" font-size="22.9352">W</text>
		</g>
	</g>
	<g>
		<defs>
			<rect id="SVGID_53_" x="4147.975" y="228.846" width="487.301" height="50.063"/>
		</defs>
		<clipPath id="SVGID_54_">
			<use xlink:href="#SVGID_53_"  overflow="visible"/>
		</clipPath>
		<g clip-path="url(#SVGID_54_)">
			<text transform="matrix(1.0015 0 0 1 4343.5728 261.697)" font-family="'Arial-BoldMT'" font-size="22.9352">e</text>
		</g>
	</g>
	<g>
		<defs>
			<rect id="SVGID_55_" x="4147.975" y="228.846" width="487.301" height="50.063"/>
		</defs>
		<clipPath id="SVGID_56_">
			<use xlink:href="#SVGID_55_"  overflow="visible"/>
		</clipPath>
		<g clip-path="url(#SVGID_56_)">
			<text transform="matrix(1.0015 0 0 1 4356.3452 261.697)" font-family="'Arial-BoldMT'" font-size="22.9352">a</text>
		</g>
	</g>
	<g>
		<defs>
			<rect id="SVGID_57_" x="4147.975" y="228.846" width="487.301" height="50.063"/>
		</defs>
		<clipPath id="SVGID_58_">
			<use xlink:href="#SVGID_57_"  overflow="visible"/>
		</clipPath>
		<g clip-path="url(#SVGID_58_)">
			<text transform="matrix(1.0015 0 0 1 4369.1157 261.697)" font-family="'Arial-BoldMT'" font-size="22.9352">k</text>
		</g>
	</g>
	<g>
		<defs>
			<rect id="SVGID_59_" x="4147.975" y="228.846" width="487.301" height="50.063"/>
		</defs>
		<clipPath id="SVGID_60_">
			<use xlink:href="#SVGID_59_"  overflow="visible"/>
		</clipPath>
		<g clip-path="url(#SVGID_60_)">
			<text transform="matrix(1.0015 0 0 1 4381.8872 261.697)" font-family="'Arial-BoldMT'" font-size="22.9352">n</text>
		</g>
	</g>
	<g>
		<defs>
			<rect id="SVGID_61_" x="4147.975" y="228.846" width="487.301" height="50.063"/>
		</defs>
		<clipPath id="SVGID_62_">
			<use xlink:href="#SVGID_61_"  overflow="visible"/>
		</clipPath>
		<g clip-path="url(#SVGID_62_)">
			<text transform="matrix(1.0015 0 0 1 4395.9165 261.697)" font-family="'Arial-BoldMT'" font-size="22.9352">e</text>
		</g>
	</g>
	<g>
		<defs>
			<rect id="SVGID_63_" x="4147.975" y="228.846" width="487.301" height="50.063"/>
		</defs>
		<clipPath id="SVGID_64_">
			<use xlink:href="#SVGID_63_"  overflow="visible"/>
		</clipPath>
		<g clip-path="url(#SVGID_64_)">
			<text transform="matrix(1.0015 0 0 1 4408.688 261.697)" font-family="'Arial-BoldMT'" font-size="22.9352">s</text>
		</g>
	</g>
	<g>
		<defs>
			<rect id="SVGID_65_" x="4147.975" y="228.846" width="487.301" height="50.063"/>
		</defs>
		<clipPath id="SVGID_66_">
			<use xlink:href="#SVGID_65_"  overflow="visible"/>
		</clipPath>
		<g clip-path="url(#SVGID_66_)">
			<text transform="matrix(1.0015 0 0 1 4421.4595 261.697)" font-family="'Arial-BoldMT'" font-size="22.9352">s</text>
		</g>
	</g>
	<g>
		<defs>
			<rect id="SVGID_67_" x="4147.975" y="228.846" width="487.301" height="50.063"/>
		</defs>
		<clipPath id="SVGID_68_">
			<use xlink:href="#SVGID_67_"  overflow="visible"/>
		</clipPath>
		<g clip-path="url(#SVGID_68_)">
			<text transform="matrix(1.0015 0 0 1 4434.2329 261.697)" font-family="'Arial-BoldMT'" font-size="22.9352">e</text>
		</g>
	</g>
	<g>
		<defs>
			<rect id="SVGID_69_" x="4147.975" y="228.846" width="487.301" height="50.063"/>
		</defs>
		<clipPath id="SVGID_70_">
			<use xlink:href="#SVGID_69_"  overflow="visible"/>
		</clipPath>
		<g clip-path="url(#SVGID_70_)">
			<text transform="matrix(1.0015 0 0 1 4447.0024 261.697)" font-family="'Arial-BoldMT'" font-size="22.9352">s</text>
		</g>
	</g>
	<g>
		<defs>
			<rect id="SVGID_71_" x="4147.975" y="228.846" width="487.301" height="50.063"/>
		</defs>
		<clipPath id="SVGID_72_">
			<use xlink:href="#SVGID_71_"  overflow="visible"/>
		</clipPath>
		<g clip-path="url(#SVGID_72_)">
			<text transform="matrix(1.0015 0 0 1 4459.7603 261.697)" font-family="'Arial-BoldMT'" font-size="22.9352"> </text>
		</g>
	</g>
	<g>
		<defs>
			<rect id="SVGID_73_" x="4147.975" y="228.846" width="487.301" height="50.063"/>
		</defs>
		<clipPath id="SVGID_74_">
			<use xlink:href="#SVGID_73_"  overflow="visible"/>
		</clipPath>
		<g clip-path="url(#SVGID_74_)">
			<text transform="matrix(1.0015 0 0 1 4466.1235 261.697)" font-family="'Arial-BoldMT'" font-size="22.9352"> </text>
		</g>
	</g>
</g>
<g>
	<g>
		<defs>
			<rect id="SVGID_75_" x="4692.844" y="229.846" width="534.303" height="50.063"/>
		</defs>
		<clipPath id="SVGID_76_">
			<use xlink:href="#SVGID_75_"  overflow="visible"/>
		</clipPath>
		<g clip-path="url(#SVGID_76_)">
			<text transform="matrix(1.0981 0 0 1 4912.7446 262.697)" font-family="'Arial-BoldMT'" font-size="22.9352">T</text>
		</g>
	</g>
	<g>
		<defs>
			<rect id="SVGID_77_" x="4692.844" y="229.846" width="534.303" height="50.063"/>
		</defs>
		<clipPath id="SVGID_78_">
			<use xlink:href="#SVGID_77_"  overflow="visible"/>
		</clipPath>
		<g clip-path="url(#SVGID_78_)">
			<text transform="matrix(1.0981 0 0 1 4928.1255 262.697)" font-family="'Arial-BoldMT'" font-size="22.9352">h</text>
		</g>
	</g>
	<g>
		<defs>
			<rect id="SVGID_79_" x="4692.844" y="229.846" width="534.303" height="50.063"/>
		</defs>
		<clipPath id="SVGID_80_">
			<use xlink:href="#SVGID_79_"  overflow="visible"/>
		</clipPath>
		<g clip-path="url(#SVGID_80_)">
			<text transform="matrix(1.0981 0 0 1 4943.5083 262.697)" font-family="'Arial-BoldMT'" font-size="22.9352">r</text>
		</g>
	</g>
	<g>
		<defs>
			<rect id="SVGID_81_" x="4692.844" y="229.846" width="534.303" height="50.063"/>
		</defs>
		<clipPath id="SVGID_82_">
			<use xlink:href="#SVGID_81_"  overflow="visible"/>
		</clipPath>
		<g clip-path="url(#SVGID_82_)">
			<text transform="matrix(1.0981 0 0 1 4953.3071 262.697)" font-family="'Arial-BoldMT'" font-size="22.9352">e</text>
		</g>
	</g>
	<g>
		<defs>
			<rect id="SVGID_83_" x="4692.844" y="229.846" width="534.303" height="50.063"/>
		</defs>
		<clipPath id="SVGID_84_">
			<use xlink:href="#SVGID_83_"  overflow="visible"/>
		</clipPath>
		<g clip-path="url(#SVGID_84_)">
			<text transform="matrix(1.0981 0 0 1 4967.311 262.697)" font-family="'Arial-BoldMT'" font-size="22.9352">a</text>
		</g>
	</g>
	<g>
		<defs>
			<rect id="SVGID_85_" x="4692.844" y="229.846" width="534.303" height="50.063"/>
		</defs>
		<clipPath id="SVGID_86_">
			<use xlink:href="#SVGID_85_"  overflow="visible"/>
		</clipPath>
		<g clip-path="url(#SVGID_86_)">
			<text transform="matrix(1.0981 0 0 1 4981.313 262.697)" font-family="'Arial-BoldMT'" font-size="22.9352">t</text>
		</g>
	</g>
	<g>
		<defs>
			<rect id="SVGID_87_" x="4692.844" y="229.846" width="534.303" height="50.063"/>
		</defs>
		<clipPath id="SVGID_88_">
			<use xlink:href="#SVGID_87_"  overflow="visible"/>
		</clipPath>
		<g clip-path="url(#SVGID_88_)">
			<text transform="matrix(1.0981 0 0 1 4989.6997 262.697)" font-family="'Arial-BoldMT'" font-size="22.9352">s</text>
		</g>
	</g>
	<g>
		<defs>
			<rect id="SVGID_89_" x="4692.844" y="229.846" width="534.303" height="50.063"/>
		</defs>
		<clipPath id="SVGID_90_">
			<use xlink:href="#SVGID_89_"  overflow="visible"/>
		</clipPath>
		<g clip-path="url(#SVGID_90_)">
			<text transform="matrix(1.0981 0 0 1 5003.6919 262.697)" font-family="'Arial-BoldMT'" font-size="22.9352"> </text>
		</g>
	</g>
</g>
<rect x="4169.178" y="26.054" fill="none" width="512.936" height="232.583"/>
<text transform="matrix(1.0015 0 0 1 4169.1782 41.0544)" fill="#231F20" font-family="'Archia-Regular'" font-size="20">• Global scope</text>
<text transform="matrix(1.0015 0 0 1 4169.1782 67.0544)" fill="#231F20" font-family="'Archia-Regular'" font-size="20">• Simple interface</text>
<text transform="matrix(1.0015 0 0 1 4169.1782 93.0544)" fill="#231F20" font-family="'Archia-Regular'" font-size="20">• Easy flow navigation</text>
<text transform="matrix(1.0015 0 0 1 4169.1782 119.0544)" fill="#231F20" font-family="'Archia-Regular'" font-size="20">• Strong online customer service</text>
<text transform="matrix(1.0015 0 0 1 4169.1782 145.0544)" fill="#231F20" font-family="'Archia-Regular'" font-size="20">• Messenger online Chat 24 hours </text>
<text transform="matrix(1.0015 0 0 1 4169.1782 171.0544)" fill="#231F20" font-family="'Archia-Regular'" font-size="20">• Categorized  Artwork</text>
<text transform="matrix(1.0015 0 0 1 4169.1782 197.0544)" fill="#231F20" font-family="'Archia-Regular'" font-size="20">• Selected Artists and Photographers worldwide</text>
<rect x="4158.372" y="295.883" fill="none" width="540.838" height="328.578"/>
<text transform="matrix(1.0015 0 0 1 4158.3716 310.8826)" fill="#231F20" font-family="'Archia-Regular'" font-size="20">• Selection exclusively for professional artists</text>
<text transform="matrix(1.0015 0 0 1 4158.3716 336.8826)" fill="#231F20" font-family="'Archia-Regular'" font-size="20">• Artists need to have studied at the most reputable </text>
<text transform="matrix(1.0015 0 0 1 4158.3716 362.8826)" fill="#231F20" font-family="'Archia-Regular'" font-size="20">art             school in order to get selected</text>
<text transform="matrix(1.0015 0 0 1 4158.3716 388.8826)" fill="#231F20" font-family="'Archia-Regular'" font-size="20">• No option to render the design  with 3D visual ef</text>
<text transform="matrix(1.0015 0 0 1 4663.6001 388.8826)" fill="#231F20" font-family="'Archia-Regular'" font-size="20">-</text>
<text transform="matrix(1.0015 0 0 1 4158.3716 414.8826)" fill="#231F20" font-family="'Archia-Regular'" font-size="20">fects </text>
<text transform="matrix(1.0015 0 0 1 4158.3716 440.8826)" fill="#231F20" font-family="'Archia-Regular'" font-size="20">• Artists who have not exhibited in the past are not </text>
<text transform="matrix(1.0015 0 0 1 4158.3716 466.8826)" fill="#231F20" font-family="'Archia-Regular'" font-size="20">able to get selected </text>
<text transform="matrix(1.0015 0 0 1 4158.3716 492.8826)" fill="#231F20" font-family="'Archia-Regular'" font-size="20">• Missing the guidelines for young artists to create </text>
<text transform="matrix(1.0015 0 0 1 4158.3716 518.8826)" fill="#231F20" font-family="'Archia-Regular'" font-size="20">profesional profile</text>
<text transform="matrix(1.0015 0 0 1 4158.3716 544.8826)" fill="#231F20" font-family="'Archia-Regular'" font-size="20"> </text>
<rect x="4712.877" y="26.649" fill="none" width="511.539" height="306.079"/>
<text transform="matrix(1.0015 0 0 1 4712.8774 41.6501)" fill="#231F20" font-family="'Archia-Regular'" font-size="20">• An option for all artists without limitations to </text>
<text transform="matrix(1.0015 0 0 1 4712.8774 65.6501)" fill="#231F20" font-family="'Archia-Regular'" font-size="20">grow globally</text>
<text transform="matrix(1.0015 0 0 1 4712.8774 113.6501)" fill="#231F20" font-family="'Archia-Regular'" font-size="20">• A methodology to select talented artists </text>
<text transform="matrix(1.0015 0 0 1 4712.8774 137.6501)" fill="#231F20" font-family="'Archia-Regular'" font-size="20">through</text>
<text transform="matrix(1.0015 0 0 1 4712.8774 161.6501)" fill="#231F20" font-family="'Archia-Regular'" font-size="20"> their skills rather than their certifications</text>
<rect x="4711.977" y="291.982" fill="none" width="495.039" height="330.611"/>
<text transform="matrix(1.0015 0 0 1 4711.9771 306.9822)" fill="#231F20" font-family="'Archia-Regular'" font-size="20">• Sites such as  ArtRabbit, Artmap and Affort</text>
<text transform="matrix(1.0015 0 0 1 5162.4028 306.9822)" fill="#231F20" font-family="'Archia-Regular'" font-size="20">-</text>
<text transform="matrix(1.0015 0 0 1 4711.9771 330.9822)" fill="#231F20" font-family="'Archia-Regular'" font-size="20">able Art are other comparable applications </text>
<text transform="matrix(1.0015 0 0 1 4711.9771 378.9822)" fill="#231F20" font-family="'Archia-Regular'" font-size="20">• 3D visual art applications as  Artland,Exhibbit </text>
<text transform="matrix(1.0015 0 0 1 4711.9771 402.9822)" fill="#231F20" font-family="'Archia-Regular'" font-size="20">and LIFT are also competitors threads</text>
<text transform="matrix(1.0015 0 0 1 4711.9771 450.9822)" fill="#231F20" font-family="'Archia-Regular'" font-size="20">• Groups on Facebook as Art Curators, Art Class </text>
<text transform="matrix(1.0015 0 0 1 4711.9771 474.9822)" fill="#231F20" font-family="'Archia-Regular'" font-size="20">curator and Print Matters</text>
<text transform="matrix(1.0015 0 0 1 4711.9771 498.9822)" fill="#231F20" font-family="'Archia-Regular'" font-size="20"> </text>
<line fill="none" stroke="#3B55A4" stroke-width="2.1457" stroke-miterlimit="10" x1="4693.436" y1="-87.208" x2="4693.436" y2="575.759"/>
<rect x="4148.523" y="-69.692" fill="none" width="397.479" height="43.498"/>
<text transform="matrix(1.0015 0 0 1 4148.5239 -52.4915)" font-family="'Archia-Bold'" font-size="22.9352">SWOT Profile</text>
<path fill="none" stroke="#3B55A4" stroke-width="3" stroke-miterlimit="10" d="M5247.105,562.259c0,6.628-5.373,12-12,12H4129.663
	c-6.629,0-12-5.372-12-12V-73.708c0-6.627,5.371-12,12-12h1105.442c6.627,0,12,5.373,12,12V562.259z"/>
<g>
	<g>
		<defs>
			<rect id="SVGID_91_" x="42.064" y="52.37" width="344.059" height="35.346"/>
		</defs>
		<clipPath id="SVGID_92_">
			<use xlink:href="#SVGID_91_"  overflow="visible"/>
		</clipPath>
		<g clip-path="url(#SVGID_92_)">
			<text transform="matrix(1.0015 0 0 1 174.8186 75.5632)" font-family="'Arial-BoldMT'" font-size="16.1934">S</text>
		</g>
	</g>
	<g>
		<defs>
			<rect id="SVGID_93_" x="42.064" y="52.37" width="344.059" height="35.346"/>
		</defs>
		<clipPath id="SVGID_94_">
			<use xlink:href="#SVGID_93_"  overflow="visible"/>
		</clipPath>
		<g clip-path="url(#SVGID_94_)">
			<text transform="matrix(1.0015 0 0 1 185.6331 75.5632)" font-family="'Arial-BoldMT'" font-size="16.1934">t</text>
		</g>
	</g>
	<g>
		<defs>
			<rect id="SVGID_95_" x="42.064" y="52.37" width="344.059" height="35.346"/>
		</defs>
		<clipPath id="SVGID_96_">
			<use xlink:href="#SVGID_95_"  overflow="visible"/>
		</clipPath>
		<g clip-path="url(#SVGID_96_)">
			<text transform="matrix(1.0015 0 0 1 191.0325 75.5632)" font-family="'Arial-BoldMT'" font-size="16.1934">r</text>
		</g>
	</g>
	<g>
		<defs>
			<rect id="SVGID_97_" x="42.064" y="52.37" width="344.059" height="35.346"/>
		</defs>
		<clipPath id="SVGID_98_">
			<use xlink:href="#SVGID_97_"  overflow="visible"/>
		</clipPath>
		<g clip-path="url(#SVGID_98_)">
			<text transform="matrix(1.0015 0 0 1 197.3435 75.5632)" font-family="'Arial-BoldMT'" font-size="16.1934">e</text>
		</g>
	</g>
	<g>
		<defs>
			<rect id="SVGID_99_" x="42.064" y="52.37" width="344.059" height="35.346"/>
		</defs>
		<clipPath id="SVGID_100_">
			<use xlink:href="#SVGID_99_"  overflow="visible"/>
		</clipPath>
		<g clip-path="url(#SVGID_100_)">
			<text transform="matrix(1.0015 0 0 1 206.3596 75.5632)" font-family="'Arial-BoldMT'" font-size="16.1934">n</text>
		</g>
	</g>
	<g>
		<defs>
			<rect id="SVGID_101_" x="42.064" y="52.37" width="344.059" height="35.346"/>
		</defs>
		<clipPath id="SVGID_102_">
			<use xlink:href="#SVGID_101_"  overflow="visible"/>
		</clipPath>
		<g clip-path="url(#SVGID_102_)">
			<text transform="matrix(1.0015 0 0 1 216.2654 75.5632)" font-family="'Arial-BoldMT'" font-size="16.1934">g</text>
		</g>
	</g>
	<g>
		<defs>
			<rect id="SVGID_103_" x="42.064" y="52.37" width="344.059" height="35.346"/>
		</defs>
		<clipPath id="SVGID_104_">
			<use xlink:href="#SVGID_103_"  overflow="visible"/>
		</clipPath>
		<g clip-path="url(#SVGID_104_)">
			<text transform="matrix(1.0015 0 0 1 226.1692 75.5632)" font-family="'Arial-BoldMT'" font-size="16.1934">t</text>
		</g>
	</g>
	<g>
		<defs>
			<rect id="SVGID_105_" x="42.064" y="52.37" width="344.059" height="35.346"/>
		</defs>
		<clipPath id="SVGID_106_">
			<use xlink:href="#SVGID_105_"  overflow="visible"/>
		</clipPath>
		<g clip-path="url(#SVGID_106_)">
			<text transform="matrix(1.0015 0 0 1 231.5691 75.5632)" font-family="'Arial-BoldMT'" font-size="16.1934">h</text>
		</g>
	</g>
	<g>
		<defs>
			<rect id="SVGID_107_" x="42.064" y="52.37" width="344.059" height="35.346"/>
		</defs>
		<clipPath id="SVGID_108_">
			<use xlink:href="#SVGID_107_"  overflow="visible"/>
		</clipPath>
		<g clip-path="url(#SVGID_108_)">
			<text transform="matrix(1.0015 0 0 1 241.4729 75.5632)" font-family="'Arial-BoldMT'" font-size="16.1934">s</text>
		</g>
	</g>
	<g>
		<defs>
			<rect id="SVGID_109_" x="42.064" y="52.37" width="344.059" height="35.346"/>
		</defs>
		<clipPath id="SVGID_110_">
			<use xlink:href="#SVGID_109_"  overflow="visible"/>
		</clipPath>
		<g clip-path="url(#SVGID_110_)">
			<text transform="matrix(1.0015 0 0 1 250.4802 75.5632)" font-family="'Arial-BoldMT'" font-size="16.1934"> </text>
		</g>
	</g>
	<g>
		<defs>
			<rect id="SVGID_111_" x="42.064" y="52.37" width="344.059" height="35.346"/>
		</defs>
		<clipPath id="SVGID_112_">
			<use xlink:href="#SVGID_111_"  overflow="visible"/>
		</clipPath>
		<g clip-path="url(#SVGID_112_)">
			<text transform="matrix(1.0015 0 0 1 254.9734 75.5632)" font-family="'Arial-BoldMT'" font-size="16.1934"> </text>
		</g>
	</g>
</g>
<g>
	<g>
		<defs>
			<rect id="SVGID_113_" x="426.769" y="53.781" width="377.245" height="35.347"/>
		</defs>
		<clipPath id="SVGID_114_">
			<use xlink:href="#SVGID_113_"  overflow="visible"/>
		</clipPath>
		<g clip-path="url(#SVGID_114_)">
			<text transform="matrix(1.0981 0 0 1 555.3445 76.9753)" font-family="'Arial-BoldMT'" font-size="16.1934">O</text>
		</g>
	</g>
	<g>
		<defs>
			<rect id="SVGID_115_" x="426.769" y="53.781" width="377.245" height="35.347"/>
		</defs>
		<clipPath id="SVGID_116_">
			<use xlink:href="#SVGID_115_"  overflow="visible"/>
		</clipPath>
		<g clip-path="url(#SVGID_116_)">
			<text transform="matrix(1.0981 0 0 1 569.1746 76.9753)" font-family="'Arial-BoldMT'" font-size="16.1934">p</text>
		</g>
	</g>
	<g>
		<defs>
			<rect id="SVGID_117_" x="426.769" y="53.781" width="377.245" height="35.347"/>
		</defs>
		<clipPath id="SVGID_118_">
			<use xlink:href="#SVGID_117_"  overflow="visible"/>
		</clipPath>
		<g clip-path="url(#SVGID_118_)">
			<text transform="matrix(1.0981 0 0 1 580.032 76.9753)" font-family="'Arial-BoldMT'" font-size="16.1934">p</text>
		</g>
	</g>
	<g>
		<defs>
			<rect id="SVGID_119_" x="426.769" y="53.781" width="377.245" height="35.347"/>
		</defs>
		<clipPath id="SVGID_120_">
			<use xlink:href="#SVGID_119_"  overflow="visible"/>
		</clipPath>
		<g clip-path="url(#SVGID_120_)">
			<text transform="matrix(1.0981 0 0 1 590.8914 76.9753)" font-family="'Arial-BoldMT'" font-size="16.1934">o</text>
		</g>
	</g>
	<g>
		<defs>
			<rect id="SVGID_121_" x="426.769" y="53.781" width="377.245" height="35.347"/>
		</defs>
		<clipPath id="SVGID_122_">
			<use xlink:href="#SVGID_121_"  overflow="visible"/>
		</clipPath>
		<g clip-path="url(#SVGID_122_)">
			<text transform="matrix(1.0981 0 0 1 601.7507 76.9753)" font-family="'Arial-BoldMT'" font-size="16.1934">r</text>
		</g>
	</g>
	<g>
		<defs>
			<rect id="SVGID_123_" x="426.769" y="53.781" width="377.245" height="35.347"/>
		</defs>
		<clipPath id="SVGID_124_">
			<use xlink:href="#SVGID_123_"  overflow="visible"/>
		</clipPath>
		<g clip-path="url(#SVGID_124_)">
			<text transform="matrix(1.0981 0 0 1 608.6707 76.9753)" font-family="'Arial-BoldMT'" font-size="16.1934">t</text>
		</g>
	</g>
	<g>
		<defs>
			<rect id="SVGID_125_" x="426.769" y="53.781" width="377.245" height="35.347"/>
		</defs>
		<clipPath id="SVGID_126_">
			<use xlink:href="#SVGID_125_"  overflow="visible"/>
		</clipPath>
		<g clip-path="url(#SVGID_126_)">
			<text transform="matrix(1.0981 0 0 1 614.5906 76.9753)" font-family="'Arial-BoldMT'" font-size="16.1934">u</text>
		</g>
	</g>
	<g>
		<defs>
			<rect id="SVGID_127_" x="426.769" y="53.781" width="377.245" height="35.347"/>
		</defs>
		<clipPath id="SVGID_128_">
			<use xlink:href="#SVGID_127_"  overflow="visible"/>
		</clipPath>
		<g clip-path="url(#SVGID_128_)">
			<text transform="matrix(1.0981 0 0 1 625.45 76.9753)" font-family="'Arial-BoldMT'" font-size="16.1934">n</text>
		</g>
	</g>
	<g>
		<defs>
			<rect id="SVGID_129_" x="426.769" y="53.781" width="377.245" height="35.347"/>
		</defs>
		<clipPath id="SVGID_130_">
			<use xlink:href="#SVGID_129_"  overflow="visible"/>
		</clipPath>
		<g clip-path="url(#SVGID_130_)">
			<text transform="matrix(1.0981 0 0 1 636.3093 76.9753)" font-family="'Arial-BoldMT'" font-size="16.1934">i</text>
		</g>
	</g>
	<g>
		<defs>
			<rect id="SVGID_131_" x="426.769" y="53.781" width="377.245" height="35.347"/>
		</defs>
		<clipPath id="SVGID_132_">
			<use xlink:href="#SVGID_131_"  overflow="visible"/>
		</clipPath>
		<g clip-path="url(#SVGID_132_)">
			<text transform="matrix(1.0981 0 0 1 641.2488 76.9753)" font-family="'Archia-Bold'" font-size="16.1934">t</text>
		</g>
	</g>
	<g>
		<defs>
			<rect id="SVGID_133_" x="426.769" y="53.781" width="377.245" height="35.347"/>
		</defs>
		<clipPath id="SVGID_134_">
			<use xlink:href="#SVGID_133_"  overflow="visible"/>
		</clipPath>
		<g clip-path="url(#SVGID_134_)">
			<text transform="matrix(1.0981 0 0 1 647.1687 76.9753)" font-family="'Arial-BoldMT'" font-size="16.1934">i</text>
		</g>
	</g>
	<g>
		<defs>
			<rect id="SVGID_135_" x="426.769" y="53.781" width="377.245" height="35.347"/>
		</defs>
		<clipPath id="SVGID_136_">
			<use xlink:href="#SVGID_135_"  overflow="visible"/>
		</clipPath>
		<g clip-path="url(#SVGID_136_)">
			<text transform="matrix(1.0981 0 0 1 652.1082 76.9753)" font-family="'Arial-BoldMT'" font-size="16.1934">e</text>
		</g>
	</g>
	<g>
		<defs>
			<rect id="SVGID_137_" x="426.769" y="53.781" width="377.245" height="35.347"/>
		</defs>
		<clipPath id="SVGID_138_">
			<use xlink:href="#SVGID_137_"  overflow="visible"/>
		</clipPath>
		<g clip-path="url(#SVGID_138_)">
			<text transform="matrix(1.0981 0 0 1 661.9968 76.9753)" font-family="'Arial-BoldMT'" font-size="16.1934">s</text>
		</g>
	</g>
	<g>
		<defs>
			<rect id="SVGID_139_" x="426.769" y="53.781" width="377.245" height="35.347"/>
		</defs>
		<clipPath id="SVGID_140_">
			<use xlink:href="#SVGID_139_"  overflow="visible"/>
		</clipPath>
		<g clip-path="url(#SVGID_140_)">
			<text transform="matrix(1.0981 0 0 1 671.8699 76.9753)" font-family="'Arial-BoldMT'" font-size="16.1934"> </text>
		</g>
	</g>
</g>
<g>
	<g>
		<defs>
			<rect id="SVGID_141_" x="42.064" y="237.942" width="344.059" height="35.347"/>
		</defs>
		<clipPath id="SVGID_142_">
			<use xlink:href="#SVGID_141_"  overflow="visible"/>
		</clipPath>
		<g clip-path="url(#SVGID_142_)">
			<text transform="matrix(1.0015 0 0 1 164.8621 261.1355)" font-family="'Arial-BoldMT'" font-size="16.1934">W</text>
		</g>
	</g>
	<g>
		<defs>
			<rect id="SVGID_143_" x="42.064" y="237.942" width="344.059" height="35.347"/>
		</defs>
		<clipPath id="SVGID_144_">
			<use xlink:href="#SVGID_143_"  overflow="visible"/>
		</clipPath>
		<g clip-path="url(#SVGID_144_)">
			<text transform="matrix(1.0015 0 0 1 180.1653 261.1355)" font-family="'Arial-BoldMT'" font-size="16.1934">e</text>
		</g>
	</g>
	<g>
		<defs>
			<rect id="SVGID_145_" x="42.064" y="237.942" width="344.059" height="35.347"/>
		</defs>
		<clipPath id="SVGID_146_">
			<use xlink:href="#SVGID_145_"  overflow="visible"/>
		</clipPath>
		<g clip-path="url(#SVGID_146_)">
			<text transform="matrix(1.0015 0 0 1 189.1833 261.1355)" font-family="'Arial-BoldMT'" font-size="16.1934">a</text>
		</g>
	</g>
	<g>
		<defs>
			<rect id="SVGID_147_" x="42.064" y="237.942" width="344.059" height="35.347"/>
		</defs>
		<clipPath id="SVGID_148_">
			<use xlink:href="#SVGID_147_"  overflow="visible"/>
		</clipPath>
		<g clip-path="url(#SVGID_148_)">
			<text transform="matrix(1.0015 0 0 1 198.2004 261.1355)" font-family="'Arial-BoldMT'" font-size="16.1934">k</text>
		</g>
	</g>
	<g>
		<defs>
			<rect id="SVGID_149_" x="42.064" y="237.942" width="344.059" height="35.347"/>
		</defs>
		<clipPath id="SVGID_150_">
			<use xlink:href="#SVGID_149_"  overflow="visible"/>
		</clipPath>
		<g clip-path="url(#SVGID_150_)">
			<text transform="matrix(1.0015 0 0 1 207.2185 261.1355)" font-family="'Arial-BoldMT'" font-size="16.1934">n</text>
		</g>
	</g>
	<g>
		<defs>
			<rect id="SVGID_151_" x="42.064" y="237.942" width="344.059" height="35.347"/>
		</defs>
		<clipPath id="SVGID_152_">
			<use xlink:href="#SVGID_151_"  overflow="visible"/>
		</clipPath>
		<g clip-path="url(#SVGID_152_)">
			<text transform="matrix(1.0015 0 0 1 217.1233 261.1355)" font-family="'Arial-BoldMT'" font-size="16.1934">e</text>
		</g>
	</g>
	<g>
		<defs>
			<rect id="SVGID_153_" x="42.064" y="237.942" width="344.059" height="35.347"/>
		</defs>
		<clipPath id="SVGID_154_">
			<use xlink:href="#SVGID_153_"  overflow="visible"/>
		</clipPath>
		<g clip-path="url(#SVGID_154_)">
			<text transform="matrix(1.0015 0 0 1 226.1404 261.1355)" font-family="'Arial-BoldMT'" font-size="16.1934">s</text>
		</g>
	</g>
	<g>
		<defs>
			<rect id="SVGID_155_" x="42.064" y="237.942" width="344.059" height="35.347"/>
		</defs>
		<clipPath id="SVGID_156_">
			<use xlink:href="#SVGID_155_"  overflow="visible"/>
		</clipPath>
		<g clip-path="url(#SVGID_156_)">
			<text transform="matrix(1.0015 0 0 1 235.1584 261.1355)" font-family="'Arial-BoldMT'" font-size="16.1934">s</text>
		</g>
	</g>
	<g>
		<defs>
			<rect id="SVGID_157_" x="42.064" y="237.942" width="344.059" height="35.347"/>
		</defs>
		<clipPath id="SVGID_158_">
			<use xlink:href="#SVGID_157_"  overflow="visible"/>
		</clipPath>
		<g clip-path="url(#SVGID_158_)">
			<text transform="matrix(1.0015 0 0 1 244.1765 261.1355)" font-family="'Arial-BoldMT'" font-size="16.1934">e</text>
		</g>
	</g>
	<g>
		<defs>
			<rect id="SVGID_159_" x="42.064" y="237.942" width="344.059" height="35.347"/>
		</defs>
		<clipPath id="SVGID_160_">
			<use xlink:href="#SVGID_159_"  overflow="visible"/>
		</clipPath>
		<g clip-path="url(#SVGID_160_)">
			<text transform="matrix(1.0015 0 0 1 253.1926 261.1355)" font-family="'Arial-BoldMT'" font-size="16.1934">s</text>
		</g>
	</g>
	<g>
		<defs>
			<rect id="SVGID_161_" x="42.064" y="237.942" width="344.059" height="35.347"/>
		</defs>
		<clipPath id="SVGID_162_">
			<use xlink:href="#SVGID_161_"  overflow="visible"/>
		</clipPath>
		<g clip-path="url(#SVGID_162_)">
			<text transform="matrix(1.0015 0 0 1 262.1995 261.1355)" font-family="'Arial-BoldMT'" font-size="16.1934"> </text>
		</g>
	</g>
	<g>
		<defs>
			<rect id="SVGID_163_" x="42.064" y="237.942" width="344.059" height="35.347"/>
		</defs>
		<clipPath id="SVGID_164_">
			<use xlink:href="#SVGID_163_"  overflow="visible"/>
		</clipPath>
		<g clip-path="url(#SVGID_164_)">
			<text transform="matrix(1.0015 0 0 1 266.6926 261.1355)" font-family="'Arial-BoldMT'" font-size="16.1934"> </text>
		</g>
	</g>
</g>
<g>
	<g>
		<defs>
			<rect id="SVGID_165_" x="426.769" y="238.647" width="377.245" height="35.348"/>
		</defs>
		<clipPath id="SVGID_166_">
			<use xlink:href="#SVGID_165_"  overflow="visible"/>
		</clipPath>
		<g clip-path="url(#SVGID_166_)">
			<text transform="matrix(1.0981 0 0 1 582.03 261.8416)" font-family="'Arial-BoldMT'" font-size="16.1934">T</text>
		</g>
	</g>
	<g>
		<defs>
			<rect id="SVGID_167_" x="426.769" y="238.647" width="377.245" height="35.348"/>
		</defs>
		<clipPath id="SVGID_168_">
			<use xlink:href="#SVGID_167_"  overflow="visible"/>
		</clipPath>
		<g clip-path="url(#SVGID_168_)">
			<text transform="matrix(1.0981 0 0 1 592.8894 261.8416)" font-family="'Arial-BoldMT'" font-size="16.1934">h</text>
		</g>
	</g>
	<g>
		<defs>
			<rect id="SVGID_169_" x="426.769" y="238.647" width="377.245" height="35.348"/>
		</defs>
		<clipPath id="SVGID_170_">
			<use xlink:href="#SVGID_169_"  overflow="visible"/>
		</clipPath>
		<g clip-path="url(#SVGID_170_)">
			<text transform="matrix(1.0981 0 0 1 603.7507 261.8416)" font-family="'Arial-BoldMT'" font-size="16.1934">r</text>
		</g>
	</g>
	<g>
		<defs>
			<rect id="SVGID_171_" x="426.769" y="238.647" width="377.245" height="35.348"/>
		</defs>
		<clipPath id="SVGID_172_">
			<use xlink:href="#SVGID_171_"  overflow="visible"/>
		</clipPath>
		<g clip-path="url(#SVGID_172_)">
			<text transform="matrix(1.0981 0 0 1 610.6687 261.8416)" font-family="'Arial-BoldMT'" font-size="16.1934">e</text>
		</g>
	</g>
	<g>
		<defs>
			<rect id="SVGID_173_" x="426.769" y="238.647" width="377.245" height="35.348"/>
		</defs>
		<clipPath id="SVGID_174_">
			<use xlink:href="#SVGID_173_"  overflow="visible"/>
		</clipPath>
		<g clip-path="url(#SVGID_174_)">
			<text transform="matrix(1.0981 0 0 1 620.5554 261.8416)" font-family="'Arial-BoldMT'" font-size="16.1934">a</text>
		</g>
	</g>
	<g>
		<defs>
			<rect id="SVGID_175_" x="426.769" y="238.647" width="377.245" height="35.348"/>
		</defs>
		<clipPath id="SVGID_176_">
			<use xlink:href="#SVGID_175_"  overflow="visible"/>
		</clipPath>
		<g clip-path="url(#SVGID_176_)">
			<text transform="matrix(1.0981 0 0 1 630.4421 261.8416)" font-family="'Arial-BoldMT'" font-size="16.1934">t</text>
		</g>
	</g>
	<g>
		<defs>
			<rect id="SVGID_177_" x="426.769" y="238.647" width="377.245" height="35.348"/>
		</defs>
		<clipPath id="SVGID_178_">
			<use xlink:href="#SVGID_177_"  overflow="visible"/>
		</clipPath>
		<g clip-path="url(#SVGID_178_)">
			<text transform="matrix(1.0981 0 0 1 636.364 261.8416)" font-family="'Arial-BoldMT'" font-size="16.1934">s</text>
		</g>
	</g>
	<g>
		<defs>
			<rect id="SVGID_179_" x="426.769" y="238.647" width="377.245" height="35.348"/>
		</defs>
		<clipPath id="SVGID_180_">
			<use xlink:href="#SVGID_179_"  overflow="visible"/>
		</clipPath>
		<g clip-path="url(#SVGID_180_)">
			<text transform="matrix(1.0981 0 0 1 646.2449 261.8416)" font-family="'Arial-BoldMT'" font-size="16.1934"> </text>
		</g>
	</g>
</g>
<rect x="40.035" y="94.76" fill="none" width="362.158" height="164.215"/>
<text transform="matrix(1.0015 0 0 1 40.0339 105.3503)" fill="#0023FF" font-family="'Archia-Regular'" font-size="14.121">• </text>
<text transform="matrix(1.0015 0 0 1 50.5559 105.3503)" fill="#231F20" font-family="'Archia-Regular'" font-size="14.121">Global scope</text>
<text transform="matrix(1.0015 0 0 1 40.0339 123.7078)" fill="#0023FF" font-family="'Archia-Regular'" font-size="14.121">•</text>
<text transform="matrix(1.0015 0 0 1 46.5959 123.7078)" fill="#231F20" font-family="'Archia-Regular'" font-size="14.121"> Simple interface</text>
<text transform="matrix(1.0015 0 0 1 40.0339 142.0642)" fill="#0023FF" font-family="'Archia-Regular'" font-size="14.121">• </text>
<text transform="matrix(1.0015 0 0 1 50.5559 142.0642)" fill="#231F20" font-family="'Archia-Regular'" font-size="14.121">Easy flow navigation</text>
<text transform="matrix(1.0015 0 0 1 40.0339 160.4226)" fill="#0023FF" font-family="'Archia-Regular'" font-size="14.121">• </text>
<text transform="matrix(1.0015 0 0 1 50.5559 160.4226)" fill="#231F20" font-family="'Archia-Regular'" font-size="14.121">Strong online customer service</text>
<text transform="matrix(1.0015 0 0 1 40.0339 178.7791)" fill="#0023FF" font-family="'Archia-Regular'" font-size="14.121">• </text>
<text transform="matrix(1.0015 0 0 1 50.5559 178.7791)" fill="#231F20" font-family="'Archia-Regular'" font-size="14.121">Messenger online Chat 24 hours </text>
<text transform="matrix(1.0015 0 0 1 40.0339 197.1375)" fill="#0023FF" font-family="'Archia-Regular'" font-size="14.121">•</text>
<text transform="matrix(1.0015 0 0 1 46.5959 197.1375)" fill="#231F20" font-family="'Archia-Regular'" font-size="14.121"> Categorized  Artwork</text>
<text transform="matrix(1.0015 0 0 1 40.0339 215.4939)" fill="#0023FF" font-family="'Archia-Regular'" font-size="14.121">• </text>
<text transform="matrix(1.0015 0 0 1 50.5559 215.4939)" fill="#231F20" font-family="'Archia-Regular'" font-size="14.121">Selected Artists and Photographers worldwide</text>
<rect x="41.405" y="285.273" fill="none" width="381.858" height="231.992"/>
<text transform="matrix(1.0015 0 0 1 41.4045 295.863)" fill="#0023FF" font-family="'Archia-Regular'" font-size="14.121">• </text>
<text transform="matrix(1.0015 0 0 1 51.9265 295.863)" fill="#231F20" font-family="'Archia-Regular'" font-size="14.121">Selection exclusively for professional artists</text>
<text transform="matrix(1.0015 0 0 1 41.4045 318.863)" fill="#0023FF" font-family="'Archia-Regular'" font-size="14.121">• </text>
<text transform="matrix(1.0015 0 0 1 51.9265 318.863)" fill="#231F20" font-family="'Archia-Regular'" font-size="14.121">Artists need to have studied at the most reputable </text>
<text transform="matrix(1.0015 0 0 1 41.4045 337.2195)" fill="#231F20" font-family="'Archia-Regular'" font-size="14.121">art school in order to get selected</text>
<text transform="matrix(1.0015 0 0 1 41.4045 360.2195)" fill="#0023FF" font-family="'Archia-Regular'" font-size="14.121">• </text>
<text transform="matrix(1.0015 0 0 1 51.9265 360.2195)" fill="#231F20" font-family="'Archia-Regular'" font-size="14.121">Difficulties for Artists to networking</text>
<text transform="matrix(1.0015 0 0 1 41.4045 383.2195)" fill="#0023FF" font-family="'Archia-Regular'" font-size="14.121">• </text>
<text transform="matrix(1.0015 0 0 1 51.9265 383.2195)" fill="#231F20" font-family="'Archia-Regular'" font-size="14.121">Artists who have not exhibited in the past are not </text>
<text transform="matrix(1.0015 0 0 1 41.4045 401.5779)" fill="#231F20" font-family="'Archia-Regular'" font-size="14.121">able to get selected </text>
<text transform="matrix(1.0015 0 0 1 41.4045 425.5779)" fill="#0023FF" font-family="'Archia-Regular'" font-size="14.121">• </text>
<text transform="matrix(1.0015 0 0 1 51.9265 425.5779)" fill="#231F20" font-family="'Archia-Regular'" font-size="14.121">Missing the guidelines for young artists to create </text>
<text transform="matrix(1.0015 0 0 1 41.4045 443.9343)" fill="#231F20" font-family="'Archia-Regular'" font-size="14.121">profesional profile</text>
<text transform="matrix(1.0015 0 0 1 41.4045 462.2917)" fill="#231F20" font-family="'Archia-Regular'" font-size="14.121"> </text>
<rect x="439.914" y="95.181" fill="none" width="361.173" height="134.107"/>
<text transform="matrix(1.0015 0 0 1 439.9148 105.7722)" fill="#0023FF" font-family="'Archia-Regular'" font-size="14.121">• </text>
<text transform="matrix(1.0015 0 0 1 450.4363 105.7722)" fill="#231F20" font-family="'Archia-Regular'" font-size="14.121">An option for all artists without limitations to </text>
<text transform="matrix(1.0015 0 0 1 439.9148 122.7175)" fill="#231F20" font-family="'Archia-Regular'" font-size="14.121">grow globally</text>
<text transform="matrix(1.0015 0 0 1 439.9148 158.0203)" fill="#0023FF" font-family="'Archia-Regular'" font-size="14.121">• </text>
<text transform="matrix(1.0015 0 0 1 450.4363 158.0203)" fill="#231F20" font-family="'Archia-Regular'" font-size="14.121">A methodology to select talented artists </text>
<text transform="matrix(1.0015 0 0 1 439.9148 174.9656)" fill="#231F20" font-family="'Archia-Regular'" font-size="14.121">through their skills rather than their certifications</text>
<rect x="440.277" y="282.519" fill="none" width="349.523" height="233.429"/>
<text transform="matrix(1.0015 0 0 1 440.2761 293.1091)" fill="#0023FF" font-family="'Archia-Regular'" font-size="14.121">• </text>
<text transform="matrix(1.0015 0 0 1 450.7986 293.1091)" fill="#231F20" font-family="'Archia-Regular'" font-size="14.121">Sites such as  ArtRabbit, Singulart and Affort</text>
<text transform="matrix(1.0015 0 0 1 771.1687 293.1091)" fill="#231F20" font-family="'Archia-Regular'" font-size="14.121">-</text>
<text transform="matrix(1.0015 0 0 1 440.2761 310.0535)" fill="#231F20" font-family="'Archia-Regular'" font-size="14.121">able Art are other comparable applications </text>
<text transform="matrix(1.0015 0 0 1 440.2761 345.3562)" fill="#0023FF" font-family="'Archia-Regular'" font-size="14.121">• </text>
<text transform="matrix(1.0015 0 0 1 450.7986 345.3562)" fill="#231F20" font-family="'Archia-Regular'" font-size="14.121">3D visual art applications as  Artland,Exhibbit </text>
<text transform="matrix(1.0015 0 0 1 440.2761 362.3005)" fill="#231F20" font-family="'Archia-Regular'" font-size="14.121">and LIFT are also competitors threads</text>
<text transform="matrix(1.0015 0 0 1 440.2761 396.1912)" fill="#231F20" font-family="'Archia-Regular'" font-size="14.121">Groups on Facebook as Art Curators, Art Class </text>
<text transform="matrix(1.0015 0 0 1 440.2761 413.1365)" fill="#231F20" font-family="'Archia-Regular'" font-size="14.121">curator and Print Matters</text>
<text transform="matrix(1.0015 0 0 1 440.2761 430.0828)" fill="#231F20" font-family="'Archia-Regular'" font-size="14.121"> </text>
<rect x="20.452" y="31.159" fill="none" width="797.307" height="30.711"/>
<text transform="matrix(1.0015 0 0 1 336.9421 49.9089)" fill="#0023FF" font-family="'Archia-Bold'" font-size="25">SWOT Profile</text>
<path fill="none" stroke="#0023FF" stroke-width="2" stroke-miterlimit="10" d="M819.667,473.347c0,4.681-3.794,8.474-8.473,8.474
	H30.695c-4.68,0-8.473-3.793-8.473-8.474V24.323c0-4.679,3.793-8.473,8.473-8.473h780.499c4.68,0,8.474,3.793,8.474,8.473
	L819.667,473.347L819.667,473.347z"/>
</svg>
