<?xml version="1.0" encoding="utf-8"?>
<!-- Generator: Adobe Illustrator 16.0.0, SVG Export Plug-In . SVG Version: 6.00 Build 0)  -->
<!DOCTYPE svg PUBLIC "-//W3C//DTD SVG 1.1//EN" "http://www.w3.org/Graphics/SVG/1.1/DTD/svg11.dtd">
<svg version="1.1" id="Layer_1" xmlns="http://www.w3.org/2000/svg" xmlns:xlink="http://www.w3.org/1999/xlink" x="0px" y="0px"
	 width="323.984px" height="320.984px" viewBox="0 0 323.984 320.984" enable-background="new 0 0 323.984 320.984"
	 xml:space="preserve">
<rect x="-55.608" y="-52.108" display="none" fill="#FFFFFF" width="800" height="800"/>
<g display="none">
	<g display="inline">
		<defs>
			<rect id="SVGID_1_" x="-55.608" y="-52.108" width="800" height="800"/>
		</defs>
		<clipPath id="SVGID_2_">
			<use xlink:href="#SVGID_1_"  overflow="visible"/>
		</clipPath>
		<path clip-path="url(#SVGID_2_)" d="M222.801,717.557v-0.281c-0.38,0.436-0.755,0.79-1.123,1.063
			c-0.369,0.272-0.771,0.479-1.202,0.62c-0.432,0.146-0.902,0.214-1.413,0.214c-0.677,0-1.305-0.144-1.88-0.429
			c-0.577-0.287-1.075-0.695-1.496-1.229c-0.422-0.53-0.741-1.154-0.958-1.874c-0.218-0.717-0.327-1.495-0.327-2.33
			c0-1.767,0.432-3.146,1.295-4.133s1.999-1.48,3.408-1.48c0.813,0,1.501,0.142,2.06,0.42c0.561,0.278,1.105,0.711,1.637,1.287
			v-4.172c0-0.581,0.115-1.018,0.348-1.315c0.23-0.296,0.56-0.444,0.989-0.444c0.428,0,0.757,0.136,0.988,0.409
			c0.231,0.274,0.348,0.675,0.348,1.207v12.47c0,0.539-0.124,0.94-0.373,1.212c-0.249,0.269-0.569,0.402-0.963,0.402
			c-0.388,0-0.706-0.139-0.959-0.418C222.927,718.473,222.801,718.076,222.801,717.557 M217.239,713.404
			c0,0.769,0.119,1.419,0.357,1.957c0.238,0.539,0.564,0.944,0.979,1.217c0.415,0.272,0.867,0.411,1.357,0.411
			c0.497,0,0.949-0.13,1.361-0.39c0.411-0.258,0.739-0.656,0.983-1.19c0.246-0.534,0.368-1.205,0.368-2.005
			c0-0.754-0.122-1.4-0.368-1.943c-0.244-0.541-0.576-0.954-0.994-1.241c-0.418-0.285-0.875-0.429-1.372-0.429
			c-0.517,0-0.979,0.146-1.388,0.438c-0.407,0.293-0.724,0.713-0.947,1.264C217.351,712.043,217.239,712.678,217.239,713.404"/>
	</g>
	<g display="inline">
		<defs>
			<rect id="SVGID_3_" x="-55.608" y="-52.108" width="800" height="800"/>
		</defs>
		<clipPath id="SVGID_4_">
			<use xlink:href="#SVGID_3_"  overflow="visible"/>
		</clipPath>
		<path clip-path="url(#SVGID_4_)" d="M235.269,714.12h-5.53c0.007,0.643,0.136,1.207,0.389,1.697
			c0.251,0.49,0.587,0.861,1.004,1.108c0.418,0.249,0.88,0.372,1.384,0.372c0.338,0,0.646-0.038,0.927-0.117
			c0.28-0.081,0.55-0.204,0.813-0.374c0.264-0.169,0.504-0.351,0.726-0.544c0.22-0.193,0.506-0.458,0.858-0.788
			c0.146-0.123,0.354-0.188,0.623-0.188c0.289,0,0.523,0.081,0.702,0.241c0.181,0.159,0.271,0.381,0.271,0.673
			c0,0.256-0.102,0.552-0.3,0.896c-0.202,0.343-0.505,0.671-0.907,0.982c-0.405,0.315-0.911,0.575-1.523,0.782
			c-0.61,0.208-1.313,0.313-2.107,0.313c-1.815,0-3.228-0.52-4.235-1.555c-1.008-1.034-1.512-2.439-1.512-4.215
			c0-0.837,0.124-1.611,0.372-2.326c0.249-0.715,0.611-1.325,1.088-1.837c0.476-0.512,1.063-0.901,1.761-1.176
			c0.697-0.272,1.47-0.409,2.32-0.409c1.104,0,2.052,0.232,2.841,0.699c0.792,0.466,1.385,1.069,1.776,1.806
			c0.394,0.739,0.592,1.493,0.592,2.258c0,0.715-0.204,1.175-0.611,1.385C236.582,714.013,236.008,714.12,235.269,714.12
			 M229.739,712.514h5.127c-0.068-0.967-0.331-1.691-0.782-2.17c-0.453-0.481-1.047-0.72-1.787-0.72
			c-0.703,0-1.282,0.241-1.733,0.728C230.11,710.841,229.837,711.56,229.739,712.514"/>
	</g>
	<g display="inline">
		<defs>
			<rect id="SVGID_5_" x="-55.608" y="-52.108" width="800" height="800"/>
		</defs>
		<clipPath id="SVGID_6_">
			<use xlink:href="#SVGID_5_"  overflow="visible"/>
		</clipPath>
		<path clip-path="url(#SVGID_6_)" d="M248.152,715.474c0,0.779-0.189,1.448-0.57,2.004c-0.379,0.557-0.939,0.979-1.683,1.266
			c-0.741,0.285-1.646,0.429-2.708,0.429c-1.016,0-1.885-0.155-2.61-0.467c-0.724-0.309-1.26-0.698-1.604-1.163
			c-0.346-0.469-0.519-0.935-0.519-1.405c0-0.312,0.11-0.575,0.332-0.796s0.501-0.33,0.839-0.33c0.296,0,0.524,0.071,0.684,0.217
			s0.311,0.35,0.455,0.609c0.29,0.507,0.638,0.88,1.042,1.131c0.403,0.247,0.954,0.373,1.651,0.373c0.566,0,1.03-0.129,1.394-0.381
			c0.361-0.253,0.543-0.541,0.543-0.863c0-0.499-0.188-0.857-0.564-1.086s-0.997-0.448-1.859-0.653
			c-0.974-0.241-1.766-0.496-2.376-0.764c-0.612-0.265-1.101-0.615-1.467-1.05c-0.364-0.435-0.549-0.972-0.549-1.604
			c0-0.565,0.169-1.103,0.508-1.606c0.34-0.503,0.838-0.904,1.498-1.206c0.658-0.3,1.453-0.45,2.386-0.45
			c0.731,0,1.391,0.075,1.973,0.229c0.584,0.148,1.072,0.354,1.461,0.61c0.39,0.254,0.688,0.537,0.89,0.849
			c0.204,0.312,0.306,0.612,0.306,0.911c0,0.323-0.108,0.59-0.325,0.799c-0.217,0.204-0.526,0.312-0.927,0.312
			c-0.291,0-0.537-0.083-0.741-0.251c-0.203-0.165-0.437-0.414-0.699-0.744c-0.214-0.276-0.464-0.498-0.755-0.664
			c-0.29-0.166-0.684-0.246-1.182-0.246c-0.512,0-0.936,0.104-1.273,0.325c-0.338,0.218-0.508,0.486-0.508,0.812
			c0,0.298,0.124,0.541,0.373,0.729c0.249,0.191,0.583,0.351,1.005,0.474c0.421,0.124,1,0.274,1.74,0.454
			c0.876,0.215,1.592,0.471,2.148,0.767c0.556,0.297,0.977,0.646,1.265,1.053C248.009,714.497,248.152,714.957,248.152,715.474"/>
	</g>
	<g display="inline">
		<defs>
			<rect id="SVGID_7_" x="-55.608" y="-52.108" width="800" height="800"/>
		</defs>
		<clipPath id="SVGID_8_">
			<use xlink:href="#SVGID_7_"  overflow="visible"/>
		</clipPath>
		<path clip-path="url(#SVGID_8_)" d="M251.04,706.361c-0.393,0-0.729-0.121-1.009-0.361c-0.28-0.24-0.42-0.584-0.42-1.026
			c0-0.4,0.143-0.729,0.43-0.988c0.286-0.26,0.62-0.39,0.999-0.39c0.367,0,0.691,0.118,0.975,0.354
			c0.282,0.234,0.425,0.575,0.425,1.024c0,0.438-0.14,0.776-0.415,1.021C251.748,706.238,251.42,706.361,251.04,706.361
			 M252.439,709.281v8.173c0,0.565-0.135,0.993-0.404,1.283s-0.611,0.437-1.026,0.437c-0.413,0-0.751-0.148-1.01-0.446
			c-0.259-0.296-0.388-0.722-0.388-1.272v-8.09c0-0.558,0.129-0.979,0.388-1.263c0.259-0.283,0.597-0.426,1.01-0.426
			c0.415,0,0.757,0.143,1.026,0.426C252.304,708.385,252.439,708.778,252.439,709.281"/>
	</g>
	<g display="inline">
		<defs>
			<rect id="SVGID_9_" x="-55.608" y="-52.108" width="800" height="800"/>
		</defs>
		<clipPath id="SVGID_10_">
			<use xlink:href="#SVGID_9_"  overflow="visible"/>
		</clipPath>
		<path clip-path="url(#SVGID_10_)" d="M264.826,709.748v8.213c0,0.938-0.102,1.747-0.302,2.427
			c-0.199,0.675-0.521,1.233-0.963,1.676c-0.442,0.44-1.021,0.771-1.734,0.983c-0.715,0.216-1.604,0.32-2.668,0.32
			c-0.973,0-1.843-0.136-2.61-0.409c-0.765-0.272-1.354-0.626-1.771-1.056c-0.413-0.432-0.621-0.875-0.621-1.331
			c0-0.345,0.117-0.628,0.353-0.843c0.234-0.22,0.519-0.328,0.849-0.328c0.414,0,0.776,0.183,1.088,0.549
			c0.151,0.187,0.308,0.375,0.471,0.564c0.162,0.19,0.343,0.354,0.539,0.486c0.197,0.136,0.434,0.234,0.709,0.302
			c0.276,0.063,0.594,0.098,0.953,0.098c0.732,0,1.3-0.102,1.704-0.306c0.404-0.202,0.688-0.488,0.849-0.854
			c0.163-0.364,0.259-0.756,0.285-1.176c0.028-0.417,0.048-1.088,0.063-2.015c-0.437,0.608-0.938,1.07-1.507,1.389
			c-0.569,0.315-1.248,0.477-2.035,0.477c-0.946,0-1.772-0.242-2.481-0.726c-0.707-0.484-1.251-1.159-1.63-2.03
			c-0.38-0.871-0.569-1.874-0.569-3.013c0-0.849,0.115-1.617,0.347-2.298c0.231-0.688,0.561-1.263,0.988-1.732
			c0.429-0.469,0.923-0.822,1.481-1.061c0.559-0.239,1.173-0.357,1.843-0.357c0.801,0,1.495,0.155,2.082,0.46
			c0.587,0.31,1.133,0.79,1.636,1.446v-0.384c0-0.489,0.121-0.868,0.363-1.141c0.242-0.268,0.553-0.403,0.933-0.403
			c0.546,0,0.907,0.179,1.087,0.533C264.735,708.566,264.826,709.079,264.826,709.748 M256.633,713.332c0,1.146,0.25,2.015,0.75,2.6
			c0.501,0.588,1.149,0.882,1.943,0.882c0.468,0,0.912-0.128,1.329-0.379c0.419-0.251,0.759-0.633,1.022-1.142
			c0.261-0.506,0.393-1.121,0.393-1.848c0-1.152-0.253-2.051-0.761-2.691c-0.508-0.642-1.177-0.964-2.005-0.964
			c-0.809,0-1.455,0.309-1.941,0.923C256.875,711.326,256.633,712.199,256.633,713.332"/>
	</g>
	<g display="inline">
		<defs>
			<rect id="SVGID_11_" x="-55.608" y="-52.108" width="800" height="800"/>
		</defs>
		<clipPath id="SVGID_12_">
			<use xlink:href="#SVGID_11_"  overflow="visible"/>
		</clipPath>
		<path clip-path="url(#SVGID_12_)" d="M269.318,709.241v0.341c0.496-0.655,1.04-1.138,1.631-1.443
			c0.59-0.307,1.268-0.462,2.035-0.462c0.746,0,1.412,0.164,1.999,0.487c0.586,0.325,1.025,0.783,1.314,1.375
			c0.188,0.348,0.308,0.721,0.362,1.12c0.056,0.401,0.084,0.912,0.084,1.534v5.26c0,0.567-0.129,0.995-0.389,1.284
			c-0.259,0.29-0.595,0.436-1.009,0.436c-0.423,0-0.764-0.146-1.026-0.444c-0.263-0.296-0.393-0.723-0.393-1.273v-4.714
			c0-0.931-0.131-1.645-0.39-2.138c-0.259-0.492-0.774-0.741-1.549-0.741c-0.503,0-0.962,0.15-1.377,0.451
			c-0.414,0.301-0.718,0.714-0.911,1.237c-0.138,0.421-0.207,1.207-0.207,2.361v3.541c0,0.573-0.134,1.004-0.398,1.291
			c-0.266,0.285-0.609,0.429-1.03,0.429c-0.408,0-0.742-0.146-1.005-0.444c-0.263-0.296-0.394-0.723-0.394-1.273v-8.173
			c0-0.538,0.117-0.94,0.352-1.207c0.234-0.264,0.556-0.397,0.963-0.397c0.249,0,0.474,0.06,0.675,0.177
			c0.199,0.12,0.36,0.294,0.481,0.528C269.258,708.615,269.318,708.902,269.318,709.241"/>
	</g>
	<g display="inline">
		<defs>
			<rect id="SVGID_13_" x="-55.608" y="-52.108" width="800" height="800"/>
		</defs>
		<clipPath id="SVGID_14_">
			<use xlink:href="#SVGID_13_"  overflow="visible"/>
		</clipPath>
		<path clip-path="url(#SVGID_14_)" d="M286.52,714.12h-5.53c0.008,0.643,0.136,1.207,0.389,1.697
			c0.252,0.49,0.586,0.861,1.004,1.108c0.417,0.249,0.879,0.372,1.383,0.372c0.339,0,0.647-0.038,0.928-0.117
			c0.279-0.081,0.55-0.204,0.813-0.374c0.263-0.169,0.503-0.351,0.726-0.544c0.22-0.193,0.507-0.458,0.858-0.788
			c0.146-0.123,0.353-0.188,0.621-0.188c0.291,0,0.525,0.081,0.705,0.241c0.18,0.159,0.27,0.381,0.27,0.673
			c0,0.256-0.101,0.552-0.3,0.896c-0.201,0.343-0.504,0.671-0.907,0.982c-0.404,0.315-0.911,0.575-1.522,0.782
			c-0.61,0.208-1.313,0.313-2.107,0.313c-1.815,0-3.228-0.52-4.236-1.555c-1.007-1.034-1.512-2.439-1.512-4.215
			c0-0.837,0.125-1.611,0.373-2.326s0.611-1.325,1.088-1.837c0.476-0.512,1.063-0.901,1.76-1.176
			c0.697-0.272,1.471-0.409,2.321-0.409c1.104,0,2.051,0.232,2.841,0.699c0.791,0.466,1.383,1.069,1.777,1.806
			c0.393,0.739,0.591,1.493,0.591,2.258c0,0.715-0.203,1.175-0.611,1.385C287.833,714.013,287.258,714.12,286.52,714.12
			 M280.989,712.514h5.126c-0.068-0.967-0.329-1.691-0.781-2.17c-0.453-0.481-1.048-0.72-1.787-0.72
			c-0.704,0-1.282,0.241-1.734,0.728C281.359,710.841,281.086,711.56,280.989,712.514"/>
	</g>
	<g display="inline">
		<defs>
			<rect id="SVGID_15_" x="-55.608" y="-52.108" width="800" height="800"/>
		</defs>
		<clipPath id="SVGID_16_">
			<use xlink:href="#SVGID_15_"  overflow="visible"/>
		</clipPath>
		<path clip-path="url(#SVGID_16_)" d="M298.045,717.557v-0.281c-0.38,0.436-0.754,0.79-1.124,1.063
			c-0.368,0.272-0.769,0.479-1.2,0.62c-0.432,0.146-0.902,0.214-1.413,0.214c-0.679,0-1.305-0.144-1.88-0.429
			c-0.577-0.287-1.076-0.695-1.497-1.229c-0.421-0.53-0.74-1.154-0.958-1.874c-0.218-0.717-0.326-1.495-0.326-2.33
			c0-1.767,0.431-3.146,1.294-4.133s2-1.48,3.408-1.48c0.814,0,1.502,0.142,2.061,0.42c0.56,0.278,1.105,0.711,1.636,1.287v-4.172
			c0-0.581,0.116-1.018,0.348-1.315c0.23-0.296,0.562-0.444,0.989-0.444s0.758,0.136,0.988,0.409
			c0.231,0.274,0.348,0.675,0.348,1.207v12.47c0,0.539-0.125,0.94-0.372,1.212c-0.249,0.269-0.569,0.402-0.964,0.402
			c-0.387,0-0.706-0.139-0.959-0.418C298.171,718.473,298.045,718.076,298.045,717.557 M292.484,713.404
			c0,0.769,0.118,1.419,0.356,1.957c0.238,0.539,0.564,0.944,0.979,1.217c0.414,0.272,0.866,0.411,1.355,0.411
			c0.498,0,0.952-0.13,1.362-0.39c0.411-0.258,0.739-0.656,0.984-1.19s0.368-1.205,0.368-2.005c0-0.754-0.123-1.4-0.368-1.943
			c-0.245-0.541-0.576-0.954-0.994-1.241c-0.419-0.285-0.876-0.429-1.373-0.429c-0.517,0-0.98,0.146-1.387,0.438
			c-0.407,0.293-0.724,0.713-0.948,1.264C292.595,712.043,292.484,712.678,292.484,713.404"/>
	</g>
	<g display="inline">
		<defs>
			<rect id="SVGID_17_" x="-55.608" y="-52.108" width="800" height="800"/>
		</defs>
		<clipPath id="SVGID_18_">
			<use xlink:href="#SVGID_17_"  overflow="visible"/>
		</clipPath>
		<path clip-path="url(#SVGID_18_)" d="M309.601,705.088v4.316c0.531-0.552,1.073-0.976,1.626-1.268
			c0.552-0.294,1.236-0.44,2.051-0.44c0.94,0,1.762,0.225,2.471,0.667c0.706,0.446,1.255,1.092,1.646,1.938
			c0.39,0.845,0.586,1.849,0.586,3.009c0,0.855-0.109,1.641-0.327,2.355c-0.217,0.716-0.534,1.336-0.947,1.858
			c-0.415,0.524-0.917,0.932-1.507,1.219c-0.591,0.286-1.242,0.429-1.953,0.429c-0.435,0-0.844-0.052-1.227-0.155
			c-0.384-0.103-0.71-0.238-0.979-0.409c-0.268-0.168-0.498-0.343-0.688-0.521c-0.191-0.179-0.441-0.448-0.752-0.809v0.28
			c0,0.53-0.127,0.934-0.383,1.207c-0.255,0.272-0.579,0.406-0.974,0.406c-0.4,0-0.72-0.134-0.958-0.406
			c-0.239-0.273-0.356-0.678-0.356-1.207v-12.347c0-0.572,0.114-1.008,0.346-1.299c0.23-0.294,0.555-0.44,0.969-0.44
			c0.436,0,0.771,0.141,1.004,0.419C309.484,704.173,309.601,704.569,309.601,705.088 M309.736,713.488
			c0,1.124,0.257,1.988,0.771,2.592c0.516,0.604,1.19,0.909,2.026,0.909c0.71,0,1.323-0.31,1.837-0.929
			c0.516-0.617,0.772-1.504,0.772-2.655c0-0.745-0.106-1.39-0.321-1.928c-0.214-0.539-0.517-0.955-0.911-1.248
			c-0.394-0.292-0.853-0.438-1.377-0.438c-0.539,0-1.02,0.146-1.44,0.438c-0.422,0.293-0.753,0.718-0.994,1.272
			C309.857,712.058,309.736,712.72,309.736,713.488"/>
	</g>
	<g display="inline">
		<defs>
			<rect id="SVGID_19_" x="-55.608" y="-52.108" width="800" height="800"/>
		</defs>
		<clipPath id="SVGID_20_">
			<use xlink:href="#SVGID_19_"  overflow="visible"/>
		</clipPath>
		<path clip-path="url(#SVGID_20_)" d="M321.646,719.525l0.259-0.633l-3.48-8.761c-0.214-0.503-0.321-0.871-0.321-1.101
			c0-0.239,0.063-0.465,0.187-0.671c0.125-0.209,0.295-0.375,0.513-0.499c0.218-0.125,0.443-0.187,0.679-0.187
			c0.407,0,0.714,0.13,0.922,0.39c0.208,0.258,0.39,0.628,0.549,1.112l2.393,6.96l2.269-6.474c0.179-0.523,0.341-0.936,0.486-1.232
			c0.145-0.296,0.298-0.496,0.461-0.599c0.162-0.104,0.392-0.157,0.688-0.157c0.215,0,0.419,0.058,0.616,0.173
			c0.197,0.113,0.349,0.266,0.456,0.46c0.105,0.192,0.161,0.396,0.161,0.611c-0.029,0.13-0.073,0.315-0.135,0.56
			c-0.063,0.241-0.139,0.488-0.229,0.735l-3.687,9.65c-0.318,0.851-0.629,1.516-0.934,1.997c-0.304,0.484-0.705,0.857-1.206,1.114
			c-0.501,0.26-1.176,0.391-2.024,0.391c-0.828,0-1.45-0.09-1.863-0.269c-0.416-0.182-0.622-0.509-0.622-0.986
			c0-0.323,0.098-0.574,0.296-0.75c0.196-0.177,0.488-0.266,0.873-0.266c0.153,0,0.302,0.021,0.447,0.063
			c0.179,0.04,0.334,0.062,0.465,0.062c0.324,0,0.58-0.046,0.767-0.146c0.187-0.096,0.354-0.265,0.502-0.503
			C321.281,720.34,321.453,719.987,321.646,719.525"/>
	</g>
	<g display="inline">
		<defs>
			<rect id="SVGID_21_" x="-55.608" y="-52.108" width="800" height="800"/>
		</defs>
		<clipPath id="SVGID_22_">
			<use xlink:href="#SVGID_21_"  overflow="visible"/>
		</clipPath>
		<path clip-path="url(#SVGID_22_)" d="M362.605,707.921h0.676v-0.85c0-0.888,0.108-1.588,0.334-2.11
			c0.222-0.522,0.604-0.901,1.142-1.142c0.535-0.235,1.268-0.354,2.198-0.354c1.657,0,2.479,0.398,2.479,1.214
			c0,0.259-0.087,0.484-0.263,0.67c-0.168,0.187-0.375,0.28-0.608,0.28c-0.108,0-0.303-0.021-0.574-0.064
			c-0.259-0.037-0.492-0.062-0.68-0.062c-0.51,0-0.835,0.151-0.986,0.452c-0.139,0.302-0.214,0.729-0.214,1.291v0.673h0.691
			c1.078,0,1.613,0.324,1.613,0.979c0,0.455-0.14,0.751-0.428,0.877c-0.286,0.124-0.681,0.186-1.188,0.186h-0.69v7.493
			c0,0.559-0.132,0.981-0.401,1.272c-0.265,0.299-0.604,0.442-1.028,0.442c-0.399,0-0.729-0.145-1.001-0.442
			c-0.267-0.291-0.396-0.715-0.396-1.272v-7.493h-0.779c-0.424,0-0.743-0.091-0.974-0.284c-0.229-0.187-0.344-0.436-0.344-0.739
			C361.184,708.258,361.658,707.921,362.605,707.921"/>
	</g>
	<g display="inline">
		<defs>
			<rect id="SVGID_23_" x="-55.608" y="-52.108" width="800" height="800"/>
		</defs>
		<clipPath id="SVGID_24_">
			<use xlink:href="#SVGID_23_"  overflow="visible"/>
		</clipPath>
		<path clip-path="url(#SVGID_24_)" d="M371.863,715.09v2.362c0,0.571-0.145,1.003-0.408,1.286c-0.269,0.29-0.608,0.432-1.021,0.432
			c-0.415,0-0.75-0.144-1.011-0.438c-0.257-0.287-0.395-0.715-0.395-1.28v-7.876c0-1.271,0.458-1.905,1.376-1.905
			c0.474,0,0.81,0.146,1.019,0.444c0.207,0.298,0.322,0.735,0.346,1.316c0.337-0.581,0.683-1.02,1.035-1.316
			c0.361-0.298,0.831-0.444,1.427-0.444c0.6,0,1.169,0.146,1.729,0.444c0.562,0.298,0.842,0.695,0.842,1.184
			c0,0.343-0.122,0.633-0.356,0.852c-0.24,0.229-0.495,0.341-0.771,0.341c-0.108,0-0.36-0.066-0.755-0.195
			c-0.397-0.122-0.752-0.189-1.05-0.189c-0.415,0-0.757,0.113-1.017,0.326c-0.265,0.224-0.47,0.541-0.615,0.967
			c-0.141,0.43-0.238,0.944-0.298,1.531C371.886,713.519,371.863,714.241,371.863,715.09"/>
	</g>
	<g display="inline">
		<defs>
			<rect id="SVGID_25_" x="-55.608" y="-52.108" width="800" height="800"/>
		</defs>
		<clipPath id="SVGID_26_">
			<use xlink:href="#SVGID_25_"  overflow="visible"/>
		</clipPath>
		<path clip-path="url(#SVGID_26_)" d="M384.861,714.116h-5.533c0.012,0.642,0.137,1.212,0.389,1.699
			c0.256,0.487,0.588,0.858,1.008,1.109c0.42,0.247,0.877,0.371,1.384,0.371c0.339,0,0.646-0.037,0.927-0.122
			c0.277-0.076,0.55-0.201,0.813-0.372c0.264-0.167,0.503-0.349,0.724-0.546c0.223-0.188,0.509-0.453,0.863-0.782
			c0.146-0.124,0.353-0.19,0.62-0.19c0.291,0,0.521,0.081,0.707,0.243c0.181,0.16,0.266,0.381,0.266,0.673
			c0,0.255-0.098,0.553-0.292,0.893c-0.204,0.348-0.505,0.674-0.911,0.987c-0.408,0.313-0.916,0.575-1.524,0.78
			c-0.608,0.206-1.313,0.311-2.106,0.311c-1.821,0-3.23-0.516-4.238-1.551c-1.007-1.037-1.516-2.443-1.516-4.216
			c0-0.838,0.128-1.613,0.379-2.328c0.245-0.718,0.606-1.327,1.088-1.84c0.476-0.515,1.06-0.903,1.759-1.176
			c0.695-0.273,1.47-0.409,2.32-0.409c1.104,0,2.051,0.232,2.843,0.705c0.788,0.46,1.39,1.063,1.776,1.804
			c0.394,0.741,0.59,1.491,0.59,2.263c0,0.706-0.204,1.166-0.611,1.38C386.173,714.011,385.6,714.116,384.861,714.116
			 M379.328,712.508h5.126c-0.066-0.965-0.323-1.688-0.775-2.166c-0.456-0.48-1.047-0.721-1.789-0.721
			c-0.705,0-1.284,0.241-1.736,0.731C379.701,710.838,379.424,711.556,379.328,712.508"/>
	</g>
	<g display="inline">
		<defs>
			<rect id="SVGID_27_" x="-55.608" y="-52.108" width="800" height="800"/>
		</defs>
		<clipPath id="SVGID_28_">
			<use xlink:href="#SVGID_27_"  overflow="visible"/>
		</clipPath>
		<path clip-path="url(#SVGID_28_)" d="M396.624,714.116h-5.529c0.006,0.642,0.136,1.212,0.385,1.699
			c0.254,0.487,0.588,0.858,1.006,1.109c0.417,0.247,0.877,0.371,1.386,0.371c0.335,0,0.646-0.037,0.92-0.122
			c0.283-0.076,0.553-0.201,0.818-0.372c0.264-0.167,0.503-0.349,0.724-0.546c0.218-0.188,0.508-0.453,0.861-0.782
			c0.146-0.124,0.354-0.19,0.619-0.19c0.292,0,0.525,0.081,0.709,0.243c0.179,0.16,0.262,0.381,0.262,0.673
			c0,0.255-0.095,0.553-0.298,0.893c-0.192,0.348-0.496,0.674-0.905,0.987c-0.403,0.313-0.916,0.575-1.521,0.78
			c-0.606,0.206-1.316,0.311-2.108,0.311c-1.819,0-3.227-0.516-4.238-1.551c-1.007-1.037-1.514-2.443-1.514-4.216
			c0-0.838,0.125-1.613,0.379-2.328c0.247-0.718,0.609-1.327,1.086-1.84c0.477-0.515,1.062-0.903,1.759-1.176
			c0.696-0.273,1.476-0.409,2.321-0.409c1.103,0,2.049,0.232,2.851,0.705c0.786,0.46,1.381,1.063,1.769,1.804
			c0.393,0.741,0.594,1.491,0.594,2.263c0,0.706-0.209,1.166-0.609,1.38C397.934,714.011,397.361,714.116,396.624,714.116
			 M391.093,712.508h5.127c-0.07-0.965-0.332-1.688-0.779-2.166c-0.46-0.48-1.05-0.721-1.791-0.721
			c-0.705,0-1.283,0.241-1.738,0.731C391.46,710.838,391.185,711.556,391.093,712.508"/>
	</g>
	<g display="inline">
		<defs>
			<rect id="SVGID_29_" x="-55.608" y="-52.108" width="800" height="800"/>
		</defs>
		<clipPath id="SVGID_30_">
			<use xlink:href="#SVGID_29_"  overflow="visible"/>
		</clipPath>
		<path clip-path="url(#SVGID_30_)" d="M402.817,709.262v0.338c0.531-0.656,1.084-1.137,1.664-1.443
			c0.563-0.312,1.218-0.467,1.941-0.467c0.866,0,1.675,0.229,2.406,0.674c0.732,0.45,1.308,1.106,1.733,1.971
			c0.424,0.866,0.639,1.887,0.639,3.067c0,0.867-0.123,1.671-0.365,2.4c-0.245,0.729-0.587,1.338-1.015,1.832
			c-0.428,0.49-0.934,0.873-1.514,1.139c-0.593,0.265-1.213,0.396-1.886,0.396c-0.806,0-1.486-0.162-2.034-0.487
			c-0.547-0.317-1.07-0.799-1.571-1.423v4.244c0,1.237-0.453,1.863-1.355,1.863c-0.535,0-0.883-0.159-1.06-0.479
			c-0.166-0.326-0.255-0.788-0.255-1.408v-12.206c0-0.538,0.116-0.937,0.349-1.207c0.234-0.26,0.559-0.396,0.966-0.396
			c0.401,0,0.727,0.136,0.978,0.406C402.694,708.354,402.817,708.745,402.817,709.262 M408.361,713.371
			c0-0.748-0.115-1.39-0.343-1.923c-0.229-0.537-0.543-0.945-0.943-1.229c-0.4-0.288-0.854-0.433-1.344-0.433
			c-0.78,0-1.438,0.309-1.973,0.92c-0.536,0.617-0.809,1.521-0.809,2.718c0,1.12,0.268,2,0.804,2.624
			c0.53,0.626,1.185,0.937,1.978,0.937c0.466,0,0.904-0.138,1.305-0.406c0.405-0.273,0.725-0.684,0.963-1.229
			C408.24,714.802,408.361,714.141,408.361,713.371"/>
	</g>
	<g display="inline">
		<defs>
			<rect id="SVGID_31_" x="-55.608" y="-52.108" width="800" height="800"/>
		</defs>
		<clipPath id="SVGID_32_">
			<use xlink:href="#SVGID_31_"  overflow="visible"/>
		</clipPath>
		<path clip-path="url(#SVGID_32_)" d="M414.05,706.355c-0.396,0-0.73-0.126-1.008-0.366c-0.283-0.243-0.422-0.579-0.422-1.021
			c0-0.402,0.143-0.73,0.433-0.992c0.285-0.256,0.618-0.388,0.997-0.388c0.37,0,0.691,0.114,0.974,0.348
			c0.282,0.237,0.426,0.583,0.426,1.032c0,0.435-0.139,0.774-0.411,1.021C414.76,706.229,414.432,706.355,414.05,706.355
			 M415.449,709.275v8.18c0,0.563-0.134,0.991-0.401,1.278c-0.272,0.294-0.612,0.438-1.027,0.438s-0.748-0.146-1.012-0.442
			c-0.255-0.301-0.388-0.725-0.388-1.271v-8.1c0-0.557,0.133-0.976,0.388-1.259c0.264-0.287,0.597-0.427,1.012-0.427
			s0.755,0.14,1.027,0.427C415.315,708.381,415.449,708.777,415.449,709.275"/>
	</g>
	<g display="inline">
		<defs>
			<rect id="SVGID_33_" x="-55.608" y="-52.108" width="800" height="800"/>
		</defs>
		<clipPath id="SVGID_34_">
			<use xlink:href="#SVGID_33_"  overflow="visible"/>
		</clipPath>
		<path clip-path="url(#SVGID_34_)" d="M424.564,717.879l-2.49-4.105l-1.535,1.448v2.253c0,0.544-0.145,0.961-0.433,1.253
			c-0.281,0.298-0.617,0.442-0.988,0.442c-0.434,0-0.778-0.144-1.025-0.438c-0.246-0.287-0.375-0.715-0.375-1.28V705.39
			c0-0.626,0.127-1.104,0.361-1.435c0.243-0.331,0.595-0.49,1.039-0.49c0.437,0,0.778,0.147,1.035,0.445
			c0.256,0.296,0.386,0.735,0.386,1.313v6.861l3.182-3.34c0.393-0.41,0.688-0.697,0.898-0.85c0.207-0.151,0.458-0.227,0.752-0.227
			c0.356,0,0.648,0.112,0.892,0.338c0.229,0.223,0.35,0.506,0.35,0.843c0,0.413-0.386,0.969-1.149,1.659l-1.503,1.376l2.899,4.562
			c0.211,0.341,0.37,0.592,0.462,0.771c0.091,0.174,0.144,0.349,0.144,0.504c0,0.449-0.126,0.801-0.373,1.063
			c-0.244,0.259-0.57,0.387-0.966,0.387c-0.345,0-0.614-0.089-0.801-0.278C425.139,718.703,424.881,718.365,424.564,717.879"/>
	</g>
	<g display="inline">
		<defs>
			<rect id="SVGID_35_" x="-55.608" y="-52.108" width="800" height="800"/>
		</defs>
		<clipPath id="SVGID_36_">
			<use xlink:href="#SVGID_35_"  overflow="visible"/>
		</clipPath>
		<path clip-path="url(#SVGID_36_)" d="M430.711,719.17c-0.43,0-0.795-0.137-1.105-0.415c-0.311-0.271-0.469-0.661-0.469-1.161
			c0-0.42,0.15-0.784,0.446-1.084c0.302-0.306,0.663-0.458,1.1-0.458c0.435,0,0.803,0.152,1.116,0.448
			c0.305,0.302,0.46,0.67,0.46,1.094c0,0.494-0.155,0.882-0.46,1.156C431.485,719.034,431.124,719.17,430.711,719.17"/>
	</g>
	<g display="inline">
		<defs>
			<rect id="SVGID_37_" x="-55.608" y="-52.108" width="800" height="800"/>
		</defs>
		<clipPath id="SVGID_38_">
			<use xlink:href="#SVGID_37_"  overflow="visible"/>
		</clipPath>
		<path clip-path="url(#SVGID_38_)" d="M444.775,715.671c0,0.349-0.104,0.728-0.317,1.127c-0.209,0.403-0.531,0.782-0.967,1.146
			c-0.43,0.362-0.971,0.655-1.629,0.875c-0.656,0.222-1.396,0.334-2.215,0.334c-1.751,0-3.116-0.511-4.098-1.525
			c-0.977-1.021-1.469-2.388-1.469-4.102c0-1.164,0.225-2.187,0.677-3.078c0.443-0.889,1.095-1.578,1.94-2.065
			c0.852-0.488,1.872-0.73,3.048-0.73c0.734,0,1.403,0.106,2.021,0.321c0.611,0.213,1.126,0.492,1.555,0.829
			c0.421,0.342,0.747,0.7,0.968,1.081c0.228,0.384,0.339,0.74,0.339,1.075c0,0.337-0.124,0.624-0.375,0.857
			c-0.257,0.235-0.563,0.354-0.913,0.354c-0.239,0-0.437-0.063-0.592-0.182c-0.156-0.122-0.333-0.314-0.521-0.591
			c-0.347-0.521-0.705-0.918-1.086-1.178c-0.375-0.265-0.854-0.395-1.436-0.395c-0.828,0-1.508,0.323-2.021,0.979
			c-0.509,0.648-0.766,1.548-0.766,2.677c0,0.532,0.066,1.024,0.198,1.47c0.127,0.442,0.317,0.823,0.566,1.138
			c0.251,0.313,0.55,0.552,0.901,0.714c0.354,0.168,0.741,0.247,1.159,0.247c0.568,0,1.056-0.133,1.457-0.396
			c0.411-0.262,0.768-0.661,1.075-1.2c0.173-0.317,0.358-0.564,0.558-0.746c0.196-0.179,0.443-0.271,0.735-0.271
			c0.347,0,0.632,0.134,0.856,0.396C444.658,715.094,444.775,715.375,444.775,715.671"/>
	</g>
	<g display="inline">
		<defs>
			<rect id="SVGID_39_" x="-55.608" y="-52.108" width="800" height="800"/>
		</defs>
		<clipPath id="SVGID_40_">
			<use xlink:href="#SVGID_39_"  overflow="visible"/>
		</clipPath>
		<path clip-path="url(#SVGID_40_)" d="M456.976,713.424c0,0.839-0.132,1.619-0.388,2.332c-0.269,0.711-0.646,1.322-1.144,1.828
			c-0.497,0.513-1.094,0.903-1.781,1.179c-0.695,0.271-1.472,0.409-2.332,0.409c-0.855,0-1.627-0.139-2.313-0.418
			c-0.679-0.271-1.275-0.669-1.771-1.18c-0.502-0.521-0.882-1.127-1.147-1.827c-0.249-0.703-0.381-1.479-0.381-2.323
			c0-0.857,0.134-1.643,0.39-2.354c0.265-0.714,0.645-1.323,1.134-1.825c0.491-0.503,1.084-0.891,1.777-1.168
			c0.703-0.271,1.473-0.406,2.313-0.406c0.855,0,1.635,0.137,2.332,0.415c0.697,0.275,1.291,0.672,1.793,1.179
			c0.499,0.518,0.877,1.122,1.134,1.822C456.846,711.797,456.976,712.57,456.976,713.424 M454.137,713.424
			c0-1.154-0.256-2.052-0.76-2.691c-0.506-0.65-1.189-0.97-2.046-0.97c-0.554,0-1.041,0.146-1.463,0.431
			c-0.422,0.284-0.743,0.707-0.972,1.27c-0.228,0.562-0.343,1.214-0.343,1.962c0,0.738,0.11,1.382,0.336,1.935
			c0.229,0.557,0.548,0.978,0.967,1.271c0.421,0.29,0.91,0.44,1.475,0.44c0.855,0,1.54-0.324,2.046-0.974
			C453.882,715.454,454.137,714.558,454.137,713.424"/>
	</g>
	<g display="inline">
		<defs>
			<rect id="SVGID_41_" x="-55.608" y="-52.108" width="800" height="800"/>
		</defs>
		<clipPath id="SVGID_42_">
			<use xlink:href="#SVGID_41_"  overflow="visible"/>
		</clipPath>
		<path clip-path="url(#SVGID_42_)" d="M467.763,713.631v3.759c0,0.596-0.132,1.037-0.402,1.338
			c-0.271,0.298-0.624,0.445-1.066,0.445c-0.429,0-0.777-0.147-1.037-0.445c-0.269-0.301-0.404-0.742-0.404-1.338v-4.504
			c0-0.714-0.023-1.27-0.07-1.664c-0.049-0.386-0.184-0.713-0.395-0.962c-0.215-0.256-0.556-0.386-1.017-0.386
			c-0.926,0-1.532,0.318-1.826,0.962c-0.292,0.629-0.443,1.543-0.443,2.733v3.819c0,0.586-0.134,1.03-0.394,1.333
			c-0.272,0.298-0.62,0.45-1.053,0.45s-0.782-0.152-1.055-0.45c-0.274-0.303-0.41-0.747-0.41-1.333v-8.092
			c0-0.531,0.12-0.938,0.365-1.212c0.249-0.278,0.573-0.415,0.97-0.415c0.391,0,0.711,0.135,0.973,0.389
			c0.259,0.259,0.387,0.617,0.387,1.073v0.266c0.494-0.583,1.021-1.016,1.576-1.286c0.563-0.283,1.18-0.422,1.867-0.422
			c0.709,0,1.319,0.143,1.829,0.426c0.512,0.284,0.932,0.714,1.266,1.282c0.479-0.575,0.989-1.005,1.538-1.286
			c0.545-0.281,1.147-0.422,1.813-0.422c0.77,0,1.439,0.156,2,0.458c0.556,0.302,0.973,0.741,1.25,1.304
			c0.24,0.517,0.359,1.318,0.359,2.417v5.521c0,0.596-0.132,1.037-0.399,1.338c-0.27,0.298-0.626,0.445-1.066,0.445
			c-0.431,0-0.78-0.152-1.053-0.45c-0.272-0.303-0.411-0.747-0.411-1.333v-4.756c0-0.609-0.025-1.096-0.074-1.459
			c-0.052-0.368-0.194-0.679-0.417-0.926c-0.233-0.245-0.58-0.375-1.04-0.375c-0.372,0-0.727,0.118-1.063,0.339
			c-0.336,0.215-0.598,0.519-0.786,0.886C467.87,711.575,467.763,712.421,467.763,713.631"/>
	</g>
	<g display="inline">
		<defs>
			<rect id="SVGID_43_" x="-55.608" y="-52.108" width="800" height="800"/>
		</defs>
		<clipPath id="SVGID_44_">
			<use xlink:href="#SVGID_43_"  overflow="visible"/>
		</clipPath>
		<path clip-path="url(#SVGID_44_)" d="M336.143,712.738c-0.002-0.004-0.002-0.011-0.002-0.02
			C336.141,712.727,336.141,712.734,336.143,712.738"/>
	</g>
	<g display="inline">
		<defs>
			<rect id="SVGID_45_" x="-55.608" y="-52.108" width="800" height="800"/>
		</defs>
		<clipPath id="SVGID_46_">
			<use xlink:href="#SVGID_45_"  overflow="visible"/>
		</clipPath>
		<path clip-path="url(#SVGID_46_)" d="M336.286,713.643h0.003c-0.054-0.258-0.096-0.513-0.129-0.769
			C336.193,713.133,336.235,713.387,336.286,713.643"/>
	</g>
	<g display="inline">
		<defs>
			<rect id="SVGID_47_" x="-55.608" y="-52.108" width="800" height="800"/>
		</defs>
		<clipPath id="SVGID_48_">
			<use xlink:href="#SVGID_47_"  overflow="visible"/>
		</clipPath>
		<path clip-path="url(#SVGID_48_)" d="M337.222,716.267c-0.007-0.012-0.013-0.023-0.02-0.036
			C337.21,716.244,337.216,716.256,337.222,716.267"/>
	</g>
	<g display="inline">
		<defs>
			<rect id="SVGID_49_" x="-55.608" y="-52.108" width="800" height="800"/>
		</defs>
		<clipPath id="SVGID_50_">
			<use xlink:href="#SVGID_49_"  overflow="visible"/>
		</clipPath>
		<path clip-path="url(#SVGID_50_)" d="M337.133,716.093c-0.023-0.05-0.048-0.1-0.07-0.147
			C337.084,715.996,337.108,716.044,337.133,716.093"/>
	</g>
	<g display="inline">
		<defs>
			<rect id="SVGID_51_" x="-55.608" y="-52.108" width="800" height="800"/>
		</defs>
		<clipPath id="SVGID_52_">
			<use xlink:href="#SVGID_51_"  overflow="visible"/>
		</clipPath>
		<path clip-path="url(#SVGID_52_)" d="M336.549,714.652c0.139,0.438,0.306,0.86,0.498,1.264c-0.195-0.41-0.359-0.835-0.493-1.264
			H336.549z"/>
	</g>
	<g display="inline">
		<defs>
			<rect id="SVGID_53_" x="-55.608" y="-52.108" width="800" height="800"/>
		</defs>
		<clipPath id="SVGID_54_">
			<use xlink:href="#SVGID_53_"  overflow="visible"/>
		</clipPath>
		<path clip-path="url(#SVGID_54_)" d="M347.088,701.904c0.546,0,0.95,0.043,1.411,0.121l0.132-0.832c0,0-1.275-0.393-2.956-0.256
			l-0.132-0.451c0.522-0.111,0.914-0.575,0.914-1.129c0-0.635-0.517-1.148-1.152-1.148s-1.15,0.515-1.15,1.148
			c0,0.554,0.391,1.018,0.912,1.129l0.146,0.504c-1.782,0.245-3.2,0.94-3.2,0.94l0.251,0.768c1.078-0.356,2.014-0.577,2.861-0.668
			C345.954,701.942,346.58,701.904,347.088,701.904"/>
	</g>
	<g display="inline">
		<defs>
			<rect id="SVGID_55_" x="-55.608" y="-52.108" width="800" height="800"/>
		</defs>
		<clipPath id="SVGID_56_">
			<use xlink:href="#SVGID_55_"  overflow="visible"/>
		</clipPath>
		<path clip-path="url(#SVGID_56_)" d="M337.201,706.11l0.007-0.008c0.042-0.054,0.082-0.105,0.123-0.156l-0.341-0.245l-0.532-0.39
			c-0.03,0.043-0.867,0.812-1.527,2.234c-0.028-0.044-0.062-0.091-0.099-0.132c-0.198-0.217-0.475-0.325-0.827-0.319h-0.016
			c-0.218,0-0.367-0.073-0.465-0.16c0.097-0.123,0.155-0.279,0.155-0.451c0-0.401-0.326-0.729-0.729-0.729s-0.729,0.327-0.729,0.729
			c0,0.404,0.325,0.73,0.729,0.73c0.063,0,0.123-0.013,0.182-0.023c0.18,0.2,0.464,0.372,0.881,0.364
			c0.215-0.002,0.371,0.053,0.477,0.17c0.121,0.132,0.162,0.322,0.174,0.467c-0.001,0.002-0.001,0.004-0.003,0.004
			c-0.475,1.297-0.339,2.911-0.339,2.911l1.153,0.047c0.022-0.588,0.106-1.616,0.404-2.432
			C336.453,707.141,337.172,706.152,337.201,706.11"/>
	</g>
	<g display="inline">
		<defs>
			<rect id="SVGID_57_" x="-55.608" y="-52.108" width="800" height="800"/>
		</defs>
		<clipPath id="SVGID_58_">
			<use xlink:href="#SVGID_57_"  overflow="visible"/>
		</clipPath>
		<path clip-path="url(#SVGID_58_)" d="M357.119,702.867c-0.398,0-0.728,0.326-0.728,0.729c0,0.063,0.008,0.122,0.024,0.179
			c-0.2,0.182-0.375,0.468-0.368,0.885c0.004,0.216-0.051,0.371-0.169,0.478c-0.092,0.081-0.208,0.126-0.32,0.153
			c-0.858-1.203-1.915-1.937-1.915-1.937l-0.828,0.887c0.626,0.567,1.265,1.281,1.885,2.17c0.431,0.614,0.871,1.408,1.239,2.197
			l1.116-0.53c0,0-0.51-1.26-1.229-2.39c0.124-0.045,0.25-0.112,0.36-0.211c0.22-0.195,0.326-0.475,0.319-0.825
			c-0.002-0.227,0.071-0.38,0.162-0.481c0.125,0.096,0.28,0.155,0.448,0.155c0.405,0,0.73-0.326,0.73-0.729
			C357.847,703.194,357.524,702.867,357.119,702.867"/>
	</g>
	<g display="inline">
		<defs>
			<rect id="SVGID_59_" x="-55.608" y="-52.108" width="800" height="800"/>
		</defs>
		<clipPath id="SVGID_60_">
			<use xlink:href="#SVGID_59_"  overflow="visible"/>
		</clipPath>
		<path clip-path="url(#SVGID_60_)" d="M354.223,712.902c-1.538,0.747-4.066,1.738-7.396,2.202
			c-1.307,0.181-2.573,0.247-3.738,0.247c-1.517,0-2.856-0.113-3.885-0.243c-1.173-0.146-2.091-0.328-2.652-0.455
			c0.136,0.428,0.299,0.852,0.495,1.263c0.003,0.011,0.009,0.023,0.015,0.029c0.022,0.049,0.046,0.099,0.07,0.146
			c0.023,0.048,0.048,0.095,0.071,0.14c0.007,0.013,0.012,0.024,0.019,0.036c0.329,0.622,0.727,1.192,1.179,1.688
			c1.57,1.718,3.17,1.989,3.185,1.991l0.025,0.002l0.022,0.009c0.015,0.007,1.434,0.465,3.59,0.465c2.119,0,4.202-0.429,6.187-1.272
			c1.469-0.752,2.86-1.895,3.548-2.912c0.532-0.788,0.918-1.627,1.146-2.5c0.121-0.465,0.217-1.208,0.158-1.991
			C355.831,712.037,355.147,712.451,354.223,712.902"/>
	</g>
	<g display="inline">
		<defs>
			<rect id="SVGID_61_" x="-55.608" y="-52.108" width="800" height="800"/>
		</defs>
		<clipPath id="SVGID_62_">
			<use xlink:href="#SVGID_61_"  overflow="visible"/>
		</clipPath>
		<path clip-path="url(#SVGID_62_)" d="M337.694,706.474c-0.045,0.065-0.711,1.009-1.238,2.458
			c-0.394,1.084-0.377,2.664-0.377,2.681v0.005c0,0.37,0.021,0.736,0.063,1.102c0,0.009,0,0.015,0.002,0.019
			c0.004,0.048,0.012,0.094,0.016,0.141c0.034,0.253,0.076,0.509,0.13,0.767c0.764,0.193,5.319,1.256,10.412,0.547
			c3.191-0.443,5.614-1.389,7.087-2.102c1.222-0.592,2.008-1.129,2.312-1.352c-0.304-1.119-1.136-2.88-1.899-3.977
			c-2.188-3.124-4.545-3.925-5.755-4.125c-0.463-0.074-0.832-0.119-1.356-0.119c-0.486,0-1.092,0.04-1.9,0.126
			c-0.811,0.083-1.713,0.296-2.761,0.649c-1.47,0.491-2.8,1.263-3.847,2.23l-0.035,0.034
			C338.39,705.702,338.066,706.002,337.694,706.474 M351.073,705.75c1.048,0,1.901,0.852,1.901,1.897
			c0,1.05-0.854,1.902-1.901,1.902s-1.899-0.854-1.899-1.902C349.173,706.6,350.025,705.75,351.073,705.75 M342.086,705.672
			c1.697,0,3.072,1.376,3.072,3.072c0,1.695-1.375,3.068-3.072,3.068c-1.694,0-3.069-1.373-3.069-3.068
			C339.017,707.048,340.392,705.672,342.086,705.672"/>
	</g>
</g>
<text transform="matrix(1.0049 0 0 1 101.8494 259.6316)" fill="#32A2ED" font-family="'ArialMT'" font-size="37">Upload</text>
<text transform="matrix(1.0049 0 0 1 93.1892 301.6316)" fill="#32A2ED" font-family="'ArialMT'" font-size="37">invoices</text>
<g>
	<defs>
		<rect id="SVGID_63_" x="-55.608" y="-52.108" width="800" height="800"/>
	</defs>
	<clipPath id="SVGID_64_">
		<use xlink:href="#SVGID_63_"  overflow="visible"/>
	</clipPath>
	<g clip-path="url(#SVGID_64_)">
		<defs>
			<rect id="SVGID_65_" x="73.376" y="359.71" width="182.14" height="182.138"/>
		</defs>
		<clipPath id="SVGID_66_">
			<use xlink:href="#SVGID_65_"  overflow="visible"/>
		</clipPath>
		<g clip-path="url(#SVGID_66_)">
			<defs>
				<rect id="SVGID_67_" x="73.376" y="359.71" width="182.14" height="182.138"/>
			</defs>
			<defs>
				<rect id="SVGID_68_" x="73.376" y="359.71" width="182.14" height="182.138"/>
			</defs>
			<defs>
				<rect id="SVGID_69_" x="73.376" y="359.71" width="182.14" height="182.138"/>
			</defs>
			<defs>
				<rect id="SVGID_70_" x="73.376" y="359.71" width="182.14" height="182.138"/>
			</defs>
			<defs>
				<rect id="SVGID_71_" x="73.376" y="359.71" width="182.14" height="182.138"/>
			</defs>
			<defs>
				<rect id="SVGID_72_" x="73.376" y="359.71" width="182.14" height="182.138"/>
			</defs>
			<clipPath id="SVGID_73_">
				<use xlink:href="#SVGID_67_"  overflow="visible"/>
			</clipPath>
			<clipPath id="SVGID_74_" clip-path="url(#SVGID_73_)">
				<use xlink:href="#SVGID_68_"  overflow="visible"/>
			</clipPath>
			<clipPath id="SVGID_75_" clip-path="url(#SVGID_74_)">
				<use xlink:href="#SVGID_69_"  overflow="visible"/>
			</clipPath>
			<clipPath id="SVGID_76_" clip-path="url(#SVGID_75_)">
				<use xlink:href="#SVGID_70_"  overflow="visible"/>
			</clipPath>
			<clipPath id="SVGID_77_" clip-path="url(#SVGID_76_)">
				<use xlink:href="#SVGID_71_"  overflow="visible"/>
			</clipPath>
			<clipPath id="SVGID_78_" clip-path="url(#SVGID_77_)">
				<use xlink:href="#SVGID_72_"  overflow="visible"/>
			</clipPath>
			<path clip-path="url(#SVGID_78_)" d="M193.496,510.136l-17.725,31.009c-3.714,0.463-7.489,0.702-11.326,0.702
				c-27.559,0-52.296-12.309-69.009-31.711H193.496z"/>
			<path clip-path="url(#SVGID_78_)" d="M230.071,455.387l18,31.438c-11.803,27.28-36.58,47.687-66.506,53.399L230.071,455.387z"/>
			<path clip-path="url(#SVGID_78_)" d="M255.515,450.778c0,10.73-1.867,21.027-5.291,30.593L201.342,396h35.813
				C248.672,411.258,255.515,430.234,255.515,450.778"/>
			<path clip-path="url(#SVGID_78_)" d="M233.46,391.421h-98.004l17.919-31.035c3.628-0.441,7.326-0.676,11.071-0.676
				C192.006,359.71,216.747,372.016,233.46,391.421"/>
			<path clip-path="url(#SVGID_78_)" d="M147.565,361.287l-48.882,84.688L80.8,414.778
				C92.628,387.401,117.517,366.938,147.565,361.287"/>
			<path clip-path="url(#SVGID_78_)" d="M78.652,420.237l48.897,85.32H91.743c-11.523-15.258-18.367-34.235-18.367-54.779
				C73.376,440.069,75.243,429.793,78.652,420.237"/>
		</g>
	</g>
	<g clip-path="url(#SVGID_64_)" enable-background="new    ">
		<text transform="matrix(1.0049 0 0 1 24.5403 599.5046)" font-family="'ArialMT'" font-size="52.0918">Photography</text>
	</g>
	<g clip-path="url(#SVGID_64_)" enable-background="new    ">
		<text transform="matrix(1.0049 0 0 1 115.2366 644.1863)" font-family="'ArialMT'" font-size="22.2487">S</text>
	</g>
	<g clip-path="url(#SVGID_64_)" enable-background="new    ">
		<text transform="matrix(1.0049 0 0 1 127.4221 644.1863)" font-family="'ArialMT'" font-size="22.2487" letter-spacing="0.995">T</text>
	</g>
	<g clip-path="url(#SVGID_64_)" enable-background="new    ">
		<text transform="matrix(1.0049 0 0 1 140.7468 644.1863)" font-family="'ArialMT'" font-size="22.2487" letter-spacing="0.995">UDI</text>
	</g>
	<g clip-path="url(#SVGID_64_)" enable-background="new    ">
		<text transform="matrix(1.0049 0 0 1 182.1521 644.1863)" font-family="'ArialMT'" font-size="22.2487">O</text>
	</g>
	<g clip-path="url(#SVGID_64_)">
		<defs>
			<rect id="SVGID_79_" x="-55.608" y="-52.108" width="800" height="800"/>
		</defs>
		<clipPath id="SVGID_80_">
			<use xlink:href="#SVGID_79_"  overflow="visible"/>
		</clipPath>
		
			<path clip-path="url(#SVGID_80_)" fill="none" stroke="#2ECEBF" stroke-width="4" stroke-linecap="round" stroke-linejoin="round" stroke-miterlimit="10" d="
			M236.947,374.348c20.241,19.213,32.869,46.365,32.869,76.466c0,29.936-12.482,56.949-32.519,76.141"/>
	</g>
	<g clip-path="url(#SVGID_64_)">
		<defs>
			<rect id="SVGID_81_" x="-55.608" y="-52.108" width="800" height="800"/>
		</defs>
		<clipPath id="SVGID_82_">
			<use xlink:href="#SVGID_81_"  overflow="visible"/>
		</clipPath>
		
			<path clip-path="url(#SVGID_82_)" fill="none" stroke="#2ECEBF" stroke-width="4" stroke-linecap="round" stroke-linejoin="round" stroke-miterlimit="10" d="
			M91.944,527.291c-20.241-19.213-32.869-46.365-32.869-76.477c0-30.1,12.628-57.254,32.869-76.467"/>
	</g>
	<g clip-path="url(#SVGID_64_)">
		<defs>
			<rect id="SVGID_83_" x="-55.608" y="-52.108" width="800" height="800"/>
		</defs>
		<clipPath id="SVGID_84_">
			<use xlink:href="#SVGID_83_"  overflow="visible"/>
		</clipPath>
		
			<path clip-path="url(#SVGID_84_)" fill="none" stroke="#2ECEBF" stroke-width="4" stroke-linecap="round" stroke-linejoin="round" stroke-miterlimit="10" d="
			M55.481,507.046c-8.709-16.841-13.631-35.957-13.631-56.231c0-20.186,4.879-39.225,13.518-56.012"/>
	</g>
	<g clip-path="url(#SVGID_64_)">
		<defs>
			<rect id="SVGID_85_" x="-55.608" y="-52.108" width="800" height="800"/>
		</defs>
		<clipPath id="SVGID_86_">
			<use xlink:href="#SVGID_85_"  overflow="visible"/>
		</clipPath>
		
			<path clip-path="url(#SVGID_86_)" fill="none" stroke="#2ECEBF" stroke-width="4" stroke-linecap="round" stroke-linejoin="round" stroke-miterlimit="10" d="
			M273.657,507.046c8.709-16.841,13.631-35.957,13.631-56.231c0-20.186-4.879-39.225-13.518-56.012"/>
	</g>
	<g clip-path="url(#SVGID_64_)">
		<defs>
			<rect id="SVGID_87_" x="-55.608" y="-52.108" width="800" height="800"/>
		</defs>
		<clipPath id="SVGID_88_">
			<use xlink:href="#SVGID_87_"  overflow="visible"/>
		</clipPath>
		<polygon clip-path="url(#SVGID_88_)" fill="#2ECEBF" points="164.446,408.169 178.291,436.22 209.249,440.719 186.847,462.555 
			192.135,493.387 164.446,478.831 136.757,493.387 142.045,462.555 119.643,440.719 150.601,436.22 		"/>
	</g>
	<g clip-path="url(#SVGID_64_)" enable-background="new    ">
		<text transform="matrix(0.9614 -0.2926 0.2912 0.9567 453.2634 408.656)" font-family="'ArialMT'" font-size="35.5993">D</text>
	</g>
	<g clip-path="url(#SVGID_64_)" enable-background="new    ">
		<text transform="matrix(0.9839 -0.2044 0.2034 0.9791 478.4304 401.3494)" font-family="'ArialMT'" font-size="35.598">I</text>
	</g>
	<g clip-path="url(#SVGID_64_)" enable-background="new    ">
		<text transform="matrix(0.9993 -0.1059 0.1054 0.9944 488.9285 398.6863)" font-family="'ArialMT'" font-size="35.598">G</text>
	</g>
	<g clip-path="url(#SVGID_64_)" enable-background="new    ">
		<text transform="matrix(1.0049 -0.006 0.0059 1 518.2283 396.0359)" font-family="'ArialMT'" font-size="35.5979">I</text>
	</g>
	<g clip-path="url(#SVGID_64_)" enable-background="new    ">
		<text transform="matrix(1.0028 0.0657 -0.0654 0.9979 527.4734 395.7332)" font-family="'ArialMT'" font-size="35.5993">T</text>
	</g>
	<g clip-path="url(#SVGID_64_)" enable-background="new    ">
		<text transform="matrix(0.9892 0.1773 -0.1764 0.9843 546.7673 396.6951)" font-family="'ArialMT'" font-size="35.5979">A</text>
	</g>
	<g clip-path="url(#SVGID_64_)" enable-background="new    ">
		<text transform="matrix(0.9618 0.2912 -0.2898 0.9571 574.0095 401.7947)" font-family="'ArialMT'" font-size="35.5979">L</text>
	</g>
	<g clip-path="url(#SVGID_64_)">
		<defs>
			<rect id="SVGID_89_" x="-55.608" y="-52.108" width="800" height="800"/>
		</defs>
		<clipPath id="SVGID_90_">
			<use xlink:href="#SVGID_89_"  overflow="visible"/>
		</clipPath>
		<polygon clip-path="url(#SVGID_90_)" points="381.359,573.786 430.306,573.786 430.306,622.732 381.359,622.732 393.225,598.26 		
			"/>
	</g>
	<g clip-path="url(#SVGID_64_)">
		<defs>
			<rect id="SVGID_91_" x="-55.608" y="-52.108" width="800" height="800"/>
		</defs>
		<clipPath id="SVGID_92_">
			<use xlink:href="#SVGID_91_"  overflow="visible"/>
		</clipPath>
		<polygon clip-path="url(#SVGID_92_)" points="668.507,573.786 619.56,573.786 619.56,622.732 668.507,622.732 656.641,598.26 		
			"/>
	</g>
	<g clip-path="url(#SVGID_64_)">
		<defs>
			<rect id="SVGID_93_" x="-55.608" y="-52.108" width="800" height="800"/>
		</defs>
		<clipPath id="SVGID_94_">
			<use xlink:href="#SVGID_93_"  overflow="visible"/>
		</clipPath>
		<rect x="404.296" y="549.584" clip-path="url(#SVGID_94_)" fill="#2ECEBF" width="241.273" height="48.405"/>
	</g>
	<g clip-path="url(#SVGID_64_)">
		<defs>
			<rect id="SVGID_95_" x="-55.608" y="-52.108" width="800" height="800"/>
		</defs>
		<clipPath id="SVGID_96_">
			<use xlink:href="#SVGID_95_"  overflow="visible"/>
		</clipPath>
		
			<rect x="404.296" y="549.584" clip-path="url(#SVGID_96_)" fill="none" stroke="#000000" stroke-width="4" stroke-linecap="round" stroke-linejoin="round" stroke-miterlimit="10" width="241.273" height="48.405"/>
	</g>
	<g clip-path="url(#SVGID_64_)" enable-background="new    ">
		<text transform="matrix(1.0049 0 0 1 422.321 586.5828)" fill="#FFFFFF" font-family="'ArialMT'" font-size="24.7208">PH</text>
	</g>
	<g clip-path="url(#SVGID_64_)" enable-background="new    ">
		<text transform="matrix(1.0049 0 0 1 452.28 586.5828)" fill="#FFFFFF" font-family="'ArialMT'" font-size="24.7208">O</text>
	</g>
	<g clip-path="url(#SVGID_64_)" enable-background="new    ">
		<text transform="matrix(1.0049 0 0 1 468.8757 586.5828)" fill="#FFFFFF" font-family="'ArialMT'" font-size="24.7208">T</text>
	</g>
	<g clip-path="url(#SVGID_64_)" enable-background="new    ">
		<text transform="matrix(1.0049 0 0 1 480.7234 586.5828)" fill="#FFFFFF" font-family="'ArialMT'" font-size="24.7208">OG</text>
	</g>
	<g clip-path="url(#SVGID_64_)" enable-background="new    ">
		<text transform="matrix(1.0049 0 0 1 514.3855 586.5828)" fill="#FFFFFF" font-family="'ArialMT'" font-size="24.7208">R</text>
	</g>
	<g clip-path="url(#SVGID_64_)" enable-background="new    ">
		<text transform="matrix(1.0049 0 0 1 528.0222 586.5828)" fill="#FFFFFF" font-family="'ArialMT'" font-size="24.7208">A</text>
	</g>
	<g clip-path="url(#SVGID_64_)" enable-background="new    ">
		<text transform="matrix(1.0049 0 0 1 543.4734 586.5828)" fill="#FFFFFF" font-family="'ArialMT'" font-size="24.7208">P</text>
	</g>
	<g clip-path="url(#SVGID_64_)" enable-background="new    ">
		<text transform="matrix(1.0049 0 0 1 556.9636 586.5828)" fill="#FFFFFF" font-family="'ArialMT'" font-size="24.7208">H</text>
	</g>
	<g clip-path="url(#SVGID_64_)" enable-background="new    ">
		<text transform="matrix(1.0049 0 0 1 571.2234 586.5828)" fill="#FFFFFF" font-family="'ArialMT'" font-size="24.7208">Y</text>
	</g>
	<g clip-path="url(#SVGID_64_)" enable-background="new    ">
		<text transform="matrix(1.0049 0 0 1 461.7751 644.1863)" font-family="'ArialMT'" font-size="40.8391">S</text>
	</g>
	<g clip-path="url(#SVGID_64_)" enable-background="new    ">
		<text transform="matrix(1.0049 0 0 1 482.4597 644.1863)" font-family="'ArialMT'" font-size="40.8391">t</text>
	</g>
	<g clip-path="url(#SVGID_64_)" enable-background="new    ">
		<text transform="matrix(1.0049 0 0 1 496.4539 644.1863)" font-family="'ArialMT'" font-size="40.8391">udi</text>
	</g>
	<g clip-path="url(#SVGID_64_)" enable-background="new    ">
		<text transform="matrix(1.0049 0 0 1 553.1687 644.1863)" font-family="'ArialMT'" font-size="40.8391">o</text>
	</g>
	<g clip-path="url(#SVGID_64_)">
		<defs>
			<rect id="SVGID_97_" x="-55.608" y="-52.108" width="800" height="800"/>
		</defs>
		<clipPath id="SVGID_98_">
			<use xlink:href="#SVGID_97_"  overflow="visible"/>
		</clipPath>
		<path clip-path="url(#SVGID_98_)" d="M572.355,537.565h-94.844c-13.403,0-24.27-10.865-24.27-24.269v-51.752
			c0-13.403,10.865-24.27,24.27-24.27h94.844c13.402,0,24.269,10.865,24.269,24.27v51.752
			C596.624,526.7,585.758,537.565,572.355,537.565"/>
	</g>
	<g clip-path="url(#SVGID_64_)">
		<defs>
			<rect id="SVGID_99_" x="-55.608" y="-52.108" width="800" height="800"/>
		</defs>
		<clipPath id="SVGID_100_">
			<use xlink:href="#SVGID_99_"  overflow="visible"/>
		</clipPath>
		<path clip-path="url(#SVGID_100_)" fill="#FFFFFF" d="M588.969,487.421c0,25.035-20.295,45.331-45.331,45.331
			c-25.035,0-45.331-20.295-45.331-45.331s20.296-45.331,45.331-45.331C568.675,442.09,588.969,462.385,588.969,487.421"/>
	</g>
	<g clip-path="url(#SVGID_64_)">
		<defs>
			<rect id="SVGID_101_" x="-55.608" y="-52.108" width="800" height="800"/>
		</defs>
		<clipPath id="SVGID_102_">
			<use xlink:href="#SVGID_101_"  overflow="visible"/>
		</clipPath>
		<path clip-path="url(#SVGID_102_)" d="M585.876,487.421c0,23.326-18.91,42.236-42.237,42.236s-42.237-18.91-42.237-42.236
			c0-23.327,18.91-42.237,42.237-42.237S585.876,464.094,585.876,487.421"/>
	</g>
	<g clip-path="url(#SVGID_64_)">
		<defs>
			<rect id="SVGID_103_" x="-55.608" y="-52.108" width="800" height="800"/>
		</defs>
		<clipPath id="SVGID_104_">
			<use xlink:href="#SVGID_103_"  overflow="visible"/>
		</clipPath>
		<path clip-path="url(#SVGID_104_)" fill="#FFFFFF" d="M572.038,487.421c0,15.685-12.715,28.398-28.398,28.398
			c-15.687,0-28.4-12.715-28.4-28.398c0-15.687,12.715-28.4,28.4-28.4C559.323,459.02,572.038,471.735,572.038,487.421"/>
	</g>
	<g clip-path="url(#SVGID_64_)">
		<defs>
			<rect id="SVGID_105_" x="-55.608" y="-52.108" width="800" height="800"/>
		</defs>
		<clipPath id="SVGID_106_">
			<use xlink:href="#SVGID_105_"  overflow="visible"/>
		</clipPath>
		
			<line clip-path="url(#SVGID_106_)" fill="none" stroke="#FFFFFF" stroke-width="4" stroke-linecap="round" stroke-linejoin="round" stroke-miterlimit="10" x1="484.638" y1="459.953" x2="484.638" y2="527.755"/>
	</g>
	<g clip-path="url(#SVGID_64_)">
		<defs>
			<rect id="SVGID_107_" x="-55.608" y="-52.108" width="800" height="800"/>
		</defs>
		<clipPath id="SVGID_108_">
			<use xlink:href="#SVGID_107_"  overflow="visible"/>
		</clipPath>
		
			<circle clip-path="url(#SVGID_108_)" fill="none" stroke="#FFFFFF" stroke-width="4" stroke-linecap="round" stroke-linejoin="round" stroke-miterlimit="10" cx="470.053" cy="457.546" r="6.757"/>
	</g>
	<g clip-path="url(#SVGID_64_)">
		<defs>
			<rect id="SVGID_109_" x="-55.608" y="-52.108" width="800" height="800"/>
		</defs>
		<clipPath id="SVGID_110_">
			<use xlink:href="#SVGID_109_"  overflow="visible"/>
		</clipPath>
		<polygon clip-path="url(#SVGID_110_)" points="552.331,418.786 497.535,418.786 495.268,437.276 554.598,437.276 		"/>
	</g>
	<g clip-path="url(#SVGID_64_)">
		<defs>
			<rect id="SVGID_111_" x="-55.608" y="-52.108" width="800" height="800"/>
		</defs>
		<clipPath id="SVGID_112_">
			<use xlink:href="#SVGID_111_"  overflow="visible"/>
		</clipPath>
		<path clip-path="url(#SVGID_112_)" fill="#FFFFFF" d="M534.574,433.124h-19.282c-2.594,0-4.695-2.103-4.695-4.695
			s2.103-4.697,4.695-4.697h19.282c2.595,0,4.697,2.104,4.697,4.697S537.167,433.124,534.574,433.124"/>
	</g>
	<g clip-path="url(#SVGID_64_)">
		<defs>
			<rect id="SVGID_113_" x="-55.608" y="-52.108" width="800" height="800"/>
		</defs>
		<clipPath id="SVGID_114_">
			<use xlink:href="#SVGID_113_"  overflow="visible"/>
		</clipPath>
		
			<line clip-path="url(#SVGID_114_)" fill="none" stroke="#000000" stroke-width="4" stroke-linecap="round" stroke-linejoin="round" stroke-miterlimit="10" x1="404.911" y1="481.824" x2="430.923" y2="481.824"/>
	</g>
	<g clip-path="url(#SVGID_64_)">
		<defs>
			<rect id="SVGID_115_" x="-55.608" y="-52.108" width="800" height="800"/>
		</defs>
		<clipPath id="SVGID_116_">
			<use xlink:href="#SVGID_115_"  overflow="visible"/>
		</clipPath>
		
			<line clip-path="url(#SVGID_116_)" fill="none" stroke="#000000" stroke-width="4" stroke-linecap="round" stroke-linejoin="round" stroke-miterlimit="10" x1="618.944" y1="481.824" x2="644.954" y2="481.824"/>
	</g>
	<g clip-path="url(#SVGID_64_)">
		<defs>
			<rect id="SVGID_117_" x="-55.608" y="-52.108" width="800" height="800"/>
		</defs>
		<clipPath id="SVGID_118_">
			<use xlink:href="#SVGID_117_"  overflow="visible"/>
		</clipPath>
		
			<line clip-path="url(#SVGID_118_)" fill="none" stroke="#000000" stroke-width="4" stroke-linecap="round" stroke-linejoin="round" stroke-miterlimit="10" x1="414.704" y1="434.342" x2="438.592" y2="444.632"/>
	</g>
	<g clip-path="url(#SVGID_64_)">
		<defs>
			<rect id="SVGID_119_" x="-55.608" y="-52.108" width="800" height="800"/>
		</defs>
		<clipPath id="SVGID_120_">
			<use xlink:href="#SVGID_119_"  overflow="visible"/>
		</clipPath>
		
			<line clip-path="url(#SVGID_120_)" fill="none" stroke="#000000" stroke-width="4" stroke-linecap="round" stroke-linejoin="round" stroke-miterlimit="10" x1="611.274" y1="519.017" x2="635.162" y2="529.307"/>
	</g>
	<g clip-path="url(#SVGID_64_)">
		<defs>
			<rect id="SVGID_121_" x="-55.608" y="-52.108" width="800" height="800"/>
		</defs>
		<clipPath id="SVGID_122_">
			<use xlink:href="#SVGID_121_"  overflow="visible"/>
		</clipPath>
		
			<line clip-path="url(#SVGID_122_)" fill="none" stroke="#000000" stroke-width="4" stroke-linecap="round" stroke-linejoin="round" stroke-miterlimit="10" x1="413.414" y1="526.193" x2="437.582" y2="516.578"/>
	</g>
	<g clip-path="url(#SVGID_64_)">
		<defs>
			<rect id="SVGID_123_" x="-55.608" y="-52.108" width="800" height="800"/>
		</defs>
		<clipPath id="SVGID_124_">
			<use xlink:href="#SVGID_123_"  overflow="visible"/>
		</clipPath>
		
			<line clip-path="url(#SVGID_124_)" fill="none" stroke="#000000" stroke-width="4" stroke-linecap="round" stroke-linejoin="round" stroke-miterlimit="10" x1="612.285" y1="447.071" x2="636.453" y2="437.456"/>
	</g>
	<g clip-path="url(#SVGID_64_)">
		<defs>
			<rect id="SVGID_125_" x="-55.608" y="-52.108" width="800" height="800"/>
		</defs>
		<clipPath id="SVGID_126_">
			<use xlink:href="#SVGID_125_"  overflow="visible"/>
		</clipPath>
		
			<line clip-path="url(#SVGID_126_)" fill="none" stroke="#2ECEBF" stroke-width="4" stroke-linecap="round" stroke-linejoin="round" stroke-miterlimit="10" x1="437.278" y1="420.431" x2="456.274" y2="433.736"/>
	</g>
	<g clip-path="url(#SVGID_64_)">
		<defs>
			<rect id="SVGID_127_" x="-55.608" y="-52.108" width="800" height="800"/>
		</defs>
		<clipPath id="SVGID_128_">
			<use xlink:href="#SVGID_127_"  overflow="visible"/>
		</clipPath>
		
			<line clip-path="url(#SVGID_128_)" fill="none" stroke="#2ECEBF" stroke-width="4" stroke-linecap="round" stroke-linejoin="round" stroke-miterlimit="10" x1="419.54" y1="500.394" x2="442.381" y2="496.37"/>
	</g>
	<g clip-path="url(#SVGID_64_)">
		<defs>
			<rect id="SVGID_129_" x="-55.608" y="-52.108" width="800" height="800"/>
		</defs>
		<clipPath id="SVGID_130_">
			<use xlink:href="#SVGID_129_"  overflow="visible"/>
		</clipPath>
		
			<line clip-path="url(#SVGID_130_)" fill="none" stroke="#2ECEBF" stroke-width="4" stroke-linecap="round" stroke-linejoin="round" stroke-miterlimit="10" x1="607.486" y1="467.279" x2="630.326" y2="463.255"/>
	</g>
	<g clip-path="url(#SVGID_64_)">
		<defs>
			<rect id="SVGID_131_" x="-55.608" y="-52.108" width="800" height="800"/>
		</defs>
		<clipPath id="SVGID_132_">
			<use xlink:href="#SVGID_131_"  overflow="visible"/>
		</clipPath>
		
			<line clip-path="url(#SVGID_132_)" fill="none" stroke="#2ECEBF" stroke-width="4" stroke-linecap="round" stroke-linejoin="round" stroke-miterlimit="10" x1="420.292" y1="459.403" x2="442.969" y2="464.262"/>
	</g>
	<g clip-path="url(#SVGID_64_)">
		<defs>
			<rect id="SVGID_133_" x="-55.608" y="-52.108" width="800" height="800"/>
		</defs>
		<clipPath id="SVGID_134_">
			<use xlink:href="#SVGID_133_"  overflow="visible"/>
		</clipPath>
		
			<line clip-path="url(#SVGID_134_)" fill="none" stroke="#2ECEBF" stroke-width="4" stroke-linecap="round" stroke-linejoin="round" stroke-miterlimit="10" x1="606.897" y1="499.386" x2="629.574" y2="504.245"/>
	</g>
	<g clip-path="url(#SVGID_64_)">
		<defs>
			<rect id="SVGID_135_" x="-55.608" y="-52.108" width="800" height="800"/>
		</defs>
		<clipPath id="SVGID_136_">
			<use xlink:href="#SVGID_135_"  overflow="visible"/>
		</clipPath>
		
			<line clip-path="url(#SVGID_136_)" fill="none" stroke="#2ECEBF" stroke-width="4" stroke-linecap="round" stroke-linejoin="round" stroke-miterlimit="10" x1="435.087" y1="539.963" x2="454.557" y2="527.363"/>
	</g>
	<g clip-path="url(#SVGID_64_)">
		<defs>
			<rect id="SVGID_137_" x="-55.608" y="-52.108" width="800" height="800"/>
		</defs>
		<clipPath id="SVGID_138_">
			<use xlink:href="#SVGID_137_"  overflow="visible"/>
		</clipPath>
		
			<line clip-path="url(#SVGID_138_)" fill="none" stroke="#2ECEBF" stroke-width="4" stroke-linecap="round" stroke-linejoin="round" stroke-miterlimit="10" x1="595.308" y1="436.285" x2="614.779" y2="423.685"/>
	</g>
	<path id="XMLID_15_" opacity="0.2" clip-path="url(#SVGID_64_)" fill="#415659" d="M238.99,70.607
		c-1.017,0-2.024,0.037-3.023,0.104c-3.377-19.616-20.469-34.542-41.049-34.542c-9.413,0-18.094,3.123-25.069,8.388
		c-7.538-13.298-21.818-22.273-38.196-22.273c-24.233,0-43.879,19.646-43.879,43.879c0,1.535,0.08,3.053,0.233,4.547
		c-0.994-0.066-1.998-0.104-3.01-0.104c-24.233,0-43.879,19.645-43.879,43.878c0,24.234,19.646,43.88,43.879,43.88H238.99
		c24.233,0,43.878-19.646,43.878-43.88C282.868,90.252,263.223,70.607,238.99,70.607z"/>
	<path id="XMLID_14_" opacity="0.2" clip-path="url(#SVGID_64_)" fill="#415659" d="M238.99,70.607
		c-1.017,0-2.024,0.037-3.023,0.104c-3.377-19.616-20.469-34.542-41.049-34.542c-9.413,0-18.094,3.123-25.069,8.388
		c-7.538-13.298-21.818-22.273-38.196-22.273c-24.233,0-43.879,19.646-43.879,43.879c0,1.535,0.08,3.053,0.233,4.547
		c-0.994-0.066-1.998-0.104-3.01-0.104c-24.233,0-43.879,19.645-43.879,43.878c0,24.234,19.646,43.88,43.879,43.88H238.99
		c24.233,0,43.878-19.646,43.878-43.88C282.868,90.252,263.223,70.607,238.99,70.607z"/>
	<path clip-path="url(#SVGID_64_)" fill="#C3DEE8" d="M149.458,32.011c-4.064-1.299-8.396-2-12.89-2
		c-23.386,0-42.342,18.957-42.342,42.342c0,1.48,0.075,2.944,0.225,4.389c-0.96-0.064-1.929-0.101-2.905-0.101
		c-23.384,0-42.342,18.957-42.342,42.341c0,7.68,2.047,14.881,5.624,21.09c-1.616-19.104,1.275-55.579,47.067-54.686
		C101.426,72.912,103.638,33.809,149.458,32.011z"/>
	<path opacity="0.3" clip-path="url(#SVGID_64_)" fill="#415659" d="M106.212,158.365H238.99c24.233,0,43.878-19.646,43.878-43.88
		c0-5.175-0.902-10.137-2.547-14.748C251.469,156.561,153.889,151.532,106.212,158.365z"/>
	<polygon id="XMLID_13_" clip-path="url(#SVGID_64_)" fill="#2D568E" points="137.084,168.157 137.084,221.685 186.9,221.685 
		186.9,168.157 208.277,168.157 161.992,121.874 115.708,168.157 	"/>
	<path clip-path="url(#SVGID_64_)" fill="#3966A5" d="M125.501,158.365h72.982l-8.692-8.693c-21.574,3.47-43.469,4.842-62.005,6.407
		L125.501,158.365z"/>
	<polygon clip-path="url(#SVGID_64_)" fill="#32A2ED" points="125.501,158.365 115.708,168.157 137.084,168.157 137.084,221.685 
		186.9,221.685 186.9,168.157 208.277,168.157 198.483,158.365 	"/>
	<path clip-path="url(#SVGID_64_)" fill="#1291D8" d="M186.9,168.157c0,0,0,37.084-28.692,53.528H186.9V168.157z"/>
</g>
</svg>
