<?xml version="1.0" encoding="utf-8"?>
<!-- Generator: Adobe Illustrator 16.0.0, SVG Export Plug-In . SVG Version: 6.00 Build 0)  -->
<!DOCTYPE svg PUBLIC "-//W3C//DTD SVG 1.1//EN" "http://www.w3.org/Graphics/SVG/1.1/DTD/svg11.dtd">
<svg version="1.1" id="Layer_1" xmlns="http://www.w3.org/2000/svg" xmlns:xlink="http://www.w3.org/1999/xlink" x="0px" y="0px"
	 width="500px" height="500px" viewBox="0 0 500 500" enable-background="new 0 0 500 500" xml:space="preserve">
<g id="OBJECTS">
	<g opacity="0.4">
		
			<image overflow="visible" opacity="0.75" enable-background="new    " width="1971" height="1842" xlink:href="BBED5D5A.png"  transform="matrix(0.2396 0 0 0.2396 30.3484 21.1865)">
		</image>
		<g>
			<path fill="#FFFFFF" d="M51.874,414.999l4.095,1.786c0,0,1.417-1.638,2.047-1.34s3.307-0.149,3.307-0.149l2.205,0.596
				c0,0-1.338-2.827-1.102-3.051s0.551-0.299,0.708-0.596c0.158-0.298,0.787-0.818,0.787-0.818l-0.395-0.596
				c0,0,0.63-0.372,1.104-0.074c0.473,0.298,0.867,0.298,1.181,0.968c0.315,0.669,0.551,0.596,0.474,1.267
				c-0.079,0.669-0.315,0.892-0.158,1.265c0.158,0.371,0.709,0.819,0.709,0.819s1.181-0.373,1.417-0.373
				c0.235,0,1.181,0.298,1.181,0.298s0.945,0.148,1.417-0.074c0.473-0.224,1.26-0.521,1.654-0.67
				c0.394-0.148,1.417-0.818,1.731-0.521c0.315,0.298,1.34,0.67,1.496,1.115c0.158,0.446,0.315,0.671,0.315,0.969
				s0.079,0.445,0.394,0.743c0.315,0.298,2.6,0.372,2.6,0.372l1.022-1.34l1.733,1.488c0,0,1.811,0.447,2.205,0.373
				c0.394-0.075,3.07-0.297,3.07-0.297s-0.235-1.564-0.235-1.787c0-0.224,0.314-0.521,0.314-0.521s0.474-0.074,0.474-0.297
				c0-0.224,0-0.521,0.079-0.744s0.394-0.597,0.63-0.67c0.235-0.074,0.788-0.074,0.788-0.074l-0.395,1.19
				c0.236,0.446,0.395,0.298,0.551,0.67c0.158,0.371,0.395,0.894,0.395,0.894s-0.079,0.073,0.236,0.372
				c0.314,0.298,1.023,0.596,1.26,0.669c0.236,0.075,1.339,0.597,1.497,0.3c0.157-0.3,0.235-1.043,0.472-0.896
				c0.236,0.149,0.788,0.373,1.104,0.671c0.314,0.298,1.969,0.817,2.361,0.67c0.394-0.148,0.866-0.67,1.104-0.745
				c0.235-0.073-0.395-0.818,0.787-0.297c1.181,0.521,1.812,0.817,2.048,0.894c0.235,0.074,2.126,0.297,2.126,0.297l1.181-0.894
				c0,0,0.079-0.445,0.472-0.521c0.395-0.075,1.813-0.148,2.284-0.075c0.473,0.075,0.551,0.299,1.182,0.075
				c0.63-0.224,1.103-0.745,1.103-0.745s0.472-0.223,0.63-0.445c0.157-0.224,0.236-0.744,0.473-0.67s1.024,0.372,1.024,0.372
				l0.708,0.743l1.417,0.521l0.788-0.521c0,0,0.079-0.371,0.472-0.298c0.396,0.075,1.339,0.225,1.733,0.447
				c0.394,0.224,1.968-0.298,1.968-0.298s0.315-0.597,0.552-0.597s1.496,0.149,1.496,0.149s0.945,0.67,1.183,0.818
				c0.235,0.148,1.417,0.298,1.417,0.298l1.103-0.225l0.945-0.223l1.811,0.521l4.332,2.68l0.84,0.694c0,0,1.575-0.397,2.311,0
				c0.734,0.396,1.26,0.596,1.47,0.991c0.21,0.397,1.05,0.793,1.05,0.793s2.625,0.3,3.255,0.1c0.63-0.197,1.05-0.396,1.681-0.396
				c0.63,0,1.47-0.596,2.31,0.1c0.84,0.694,2.205,0.991,2.521,0.991c0.313,0,1.05,0.199,1.68-0.099c0.63-0.297,2.1-0.794,2.52-0.992
				c0.421-0.197,1.576-0.396,1.996-0.694s0.314-0.793,1.681-0.396c1.363,0.396,2.52,0.795,3.674,0.694
				c1.155-0.1,4.62-0.396,4.935-0.694c0.315-0.297,1.261-0.992,1.261-0.992l1.68-0.893c0,0,1.995-0.198,2.52,0.099
				c0.525,0.297,1.156,0.497,1.785,0.596c0.63,0.101,3.255-0.396,3.78-0.396c0.524,0,0.84-0.595,1.68-0.198
				c0.84,0.397,1.995,1.092,1.995,1.092l1.261,0.397c0,0,2.311,0,2.939,0.595c0.63,0.597,0.42,1.489,0.84,1.985
				c0.42,0.495,0.629,0.693,1.26,0.991c0.629,0.298,1.155,0.298,1.891,0.497c0.734,0.197,1.154-0.199,1.995,0.991
				c0.84,1.19,0.944,1.093,1.26,1.39c0.314,0.297,2.729-1.19,2.729-1.19s1.155-0.496,1.891-0.198
				c0.734,0.298,1.05,0.396,1.784,0.596c0.735,0.197,1.891,0.497,1.891,0.497l0.945-1.391l2.414-0.693c0,0,1.471,0.693,1.681,0.991
				c0.209,0.298,0.734,1.093,0.734,1.093l1.261-0.497l-1.365,1.687c0,0,1.261,1.29,1.785,1.29s3.045-0.595,3.045-0.595
				s0-1.688,0.944-0.397c0.945,1.29,1.051,1.391,1.681,1.59c0.629,0.196,1.575,0.692,2.31,0.196
				c0.735-0.496,2.205-2.479,2.521-2.777c0.314-0.298,5.145-0.795,5.564-0.694c0.42,0.1,1.785,0.595,2.625,1.092
				c0.84,0.495,1.155,0.595,1.575,0.895c0.42,0.297,1.575,0.297,1.995,0.297s2.205-0.101,2.625-0.198s1.365-0.596,2.415-0.199
				c1.05,0.397,2.939,0.695,2.939,0.695s0.734-1.787,1.154-1.886c0.42-0.101,1.785-0.495,2.625-0.396
				c0.84,0.1,2.521,0.396,2.521,0.396h1.574c0,0,3.36-2.978,4.726-2.778s2.415,0.396,2.415,0.396s0.733,0.596,1.996,0.496
				c1.26-0.101,3.464-0.101,3.884-0.693c0.42-0.597,0.104-0.993,0.944-0.795c0.84,0.198,1.471,0.396,2.101,0.695
				c0.63,0.297,2.521,0.692,2.521,0.692s0.421-0.594,1.364-0.494c0.944,0.099,2.521,0.197,2.521,0.794
				c0,0.595-0.21,0.495,0.21,1.091s0.841,0.693,1.574,0.992c0.734,0.297,1.891,0.495,2.939,0.495c1.051,0,2.311-0.099,2.626,0
				c0.314,0.1,1.574,1.191,1.574,1.191l3.148,0.693c0,0,1.681-0.099,2.311-0.596c0.631-0.496,1.575-1.19,1.785-0.595
				c0.209,0.595,0.104,0.894,0.314,1.29c0.21,0.396,0.524,0.693,0.524,0.693s1.47-0.497,1.574-0.196
				c0.104,0.297,0.421,1.783,0.421,1.783l0.419,0.301l0.734-2.084c0,0,0.735-0.695,1.575-0.695s1.785,0.695,1.892-0.1
				c0.104-0.794-0.105-1.688,0.419-2.184c0.524-0.497,2.835-0.794,2.835-0.794s3.149,0.396,3.255,0.1c0.104-0.298,0-0.1,0.42-0.694
				c0.42-0.596-0.315-0.993,0.735-0.894c1.05,0.1,2.939,0.496,3.779,0.694s2.938,0.496,3.254,0.1
				c0.314-0.396,0.841-0.595,0.841-0.595s0.524-0.597,0.944-0.695c0.42-0.098,0.84-0.497,1.681-0.099
				c0.84,0.396,1.994,0.693,2.31,0.595c0.315-0.101,0.42-0.101,0.945-0.298c0.523-0.198,1.153-0.297,1.68,0.1
				c0.525,0.397,0.631,0.694,1.365,0.496s3.255-0.496,3.255-0.496s0.63-0.595,1.89-1.29c1.26-0.693,1.995-1.189,2.414-1.489
				c0.421-0.297,1.155,0.102,1.365-0.396c0.21-0.496-0.314-1.487,0.735-1.786c1.049-0.298,3.885-0.1,3.885-0.1l2.31,0.497
				l0.525,0.793c0,0,1.153,0.299,1.574,0.1c0.42-0.198,1.89-0.893,2.625-0.794c0.733,0.1,4.199,0.694,4.829,0.794
				s1.891,0.1,2.415,0.397c0.524,0.297,2.1,0.794,2.1,0.794s1.995,0.496,2.416,0.197c0.419-0.297,1.469-0.794,1.784-0.991
				c0.313-0.198,0.631-0.101,0.734-0.397c0.104-0.297-0.21-0.596,0.735-0.496c0.944,0.101,2.414,0.596,2.938,0.496
				s1.261-0.596,1.785-0.694c0.524-0.1,2.204-0.495,3.044-0.1c0.84,0.397,1.681,0.694,1.681,0.694s0.524,0.396,0.944,0.198
				s3.149-1.091,3.149-1.091l6.51-0.597l1.05,0.397l3.57-0.299L374,418.47l5.46-1.091c0,0,1.417-0.595,2.203,0
				c0.788,0.596,1.262,1.041,2.049,1.489c0.788,0.446,3.308,0.297,3.779,0c0.473-0.299,1.416-1.34,2.521-1.489
				c1.102-0.148,5.197,0.149,5.827,0.596c0.629,0.445,2.047,1.042,2.833,1.19c0.788,0.149,5.04-1.786,5.04-1.786
				s0.474,0,0.788-0.595c0.314-0.597,0.631-1.937,1.103-2.084c0.473-0.148,0.473-0.744,1.731-0.446
				c1.26,0.298,1.261,0.595,2.049,0.298c0.786-0.298,2.204-1.341,2.991-1.341s1.891-0.148,2.362,0.447
				c0.472,0.595,0.157-0.299,0.473,0.596c0.314,0.893,0.473,0.893,0.473,1.637c0,0.745-0.631,0.745,0.157,1.34
				c0.787,0.597,0.945,0.446,1.732,0.744c0.787,0.297,2.047,0.297,2.677,0.596s0.787,1.19,1.262,1.488
				c0.472,0.297,0.63,0.745,1.416,0.446c0.788-0.298,2.678-1.19,3.15-1.34c0.472-0.148,1.417-0.596,2.047-1.042
				s0.157-1.19,1.891-1.339c1.732-0.149,2.677-0.597,4.095-0.148c1.417,0.445,2.992,0.445,3.465-0.298
				c0.472-0.745,0.472-0.745,0.472-0.745s0.788-1.488,1.575-1.785c0.787-0.298,1.575-1.488,2.835-1.34
				c1.261,0.148,3.149,0.595,3.149,0.595s-0.787-0.595,1.104-0.595s5.983,0.148,5.983,0.148s1.104,0.894,1.891,1.487
				c0.787,0.597,1.575,1.341,1.575,1.341l3.149,1.487c0,0,2.205,0.299,2.991,0.148c0.788-0.148,2.362-1.19,3.15-1.637
				c0.787-0.446,2.835-1.042,2.835-1.042s3.149-11.609,2.203-12.802c-0.944-1.188-1.889-0.893-2.203-2.679
				c-0.316-1.787,0-1.487,0.314-3.871c0.313-2.381,0.63-2.678,0.63-4.167c0-1.488,0-5.357,0-5.357s0-3.273,0-5.357s0-5.656,0-5.656
				v-6.252l-2.205-3.87c0,0,0.313-2.084,0.313-3.571c0-1.488,0.63-1.19,1.262-5.953c0.63-4.765,0.943-6.55,0.943-6.55
				s2.521-14.289,0.63-17.563c-1.889-3.276-4.724-5.061-4.724-9.229s0.314-8.336,0.314-8.336s1.26-2.382,1.573-4.466
				c0.315-2.083,0.946-3.87,0.63-7.441c-0.313-3.571-0.313-3.869-0.63-5.062c-0.313-1.189-3.989-16.074-3.148-19.25
				c0.84-3.176,1.261-8.335,1.261-8.335l1.679-11.114c0,0-1.26-8.732-1.26-11.51c0-2.779-0.419-7.145,0-9.525
				c0.42-2.382,0.42-6.749,0.42-6.749l1.68-6.35l1.681-9.129l-0.84-5.557c0,0-0.841-1.588-1.26-3.572
				c-0.421-1.985-0.421-1.985-0.421-3.572c0-1.588,0.421-0.397,0-2.779c-0.419-2.381-1.679-6.351-1.679-7.541
				c0-1.191,0-13.098,0-13.098s0-4.366,0-5.955c0-1.587,1.26-3.572,1.26-7.541c0-3.969,0-10.32,0-10.32s-2.521-3.175-2.521-5.16
				c0-1.984,0.84-10.32,0.84-10.32l1.681-9.526c0,0-1.26-7.938-1.681-10.717c-0.419-2.778-0.419-3.572-0.419-3.572
				s0.84-2.381,1.259-3.572c0.42-1.19,1.26-2.381,1.26-2.381l0.84-6.35v-1.985l3.78-24.807c0,0-3.78-8.931-2.52-11.908
				c1.259-2.977,1.259-6.549,1.259-6.549l-2.521-4.763l-0.63-5.358l-2.52-2.381l-2.521,0.595l-2.52,1.191h-3.779l-3.779-2.977
				c0,0-8.189,0.744-9.136,2.083c-0.943,1.34-3.148,1.191-3.148,1.191s-3.149-1.191-3.466-1.638
				c-0.313-0.446-0.944-1.786-0.944-1.786s-0.63-1.19-1.89-0.148c-1.261,1.042,0.944,0.446-1.261,1.042
				c-2.205,0.595-2.205,1.042-3.622,0.595c-1.418-0.447-1.26-0.893-2.52-0.447c-1.261,0.447-2.362,0.893-2.362,0.893h-2.993
				l-1.417-1.042l-1.89-2.382c0,0-0.787-1.786-2.362-0.893c-1.573,0.893-0.944,0.745-1.573,0.893
				c-0.632,0.149-0.475,0.596-1.419-0.446c-0.943-1.042-1.261-1.638-1.261-1.638s-0.472-0.744-0.943-1.488
				c-0.474-0.745-0.474-2.828-0.474-2.828l0.474-1.936c0,0,0.63-0.893-0.631-1.488c-1.26-0.595-1.26-1.19-1.89-0.893
				c-0.63,0.297-0.945,0.893-0.945,0.893l-0.63,1.191l-1.574,0.745l-1.104-0.596l-0.787,0.148l-1.261,1.488l-1.731-0.446
				l-0.944-0.446l-2.048-0.745l-2.834,1.042L393,34.998c0,0,0.314-0.149-1.103-0.447c-1.417-0.297-2.204-0.447-2.204-0.447
				l-2.521,0.298l-1.732-0.745l-1.102,0.446l-1.262,1.19l-1.891-0.297c0,0,0.473-2.382-2.204-0.149
				c-2.678,2.232-2.678,2.232-2.678,2.232l-1.731,1.488l-2.205-0.148l-0.944-0.298l-2.047,0.298l-1.418-0.596l-2.048-0.892
				l-1.103,0.744l-2.834,0.893c-1.891,0-2.993-0.148-2.993-0.148l-2.992,0.297l-0.63,0.447l-2.52,0.595l-3.938,0.149l-0.158,1.786
				c0,0,0.474,1.19-0.156,1.488c-0.631,0.298-2.048,0.149-2.048,0.149l-1.731-0.595l-3.465-1.489c0,0-0.63-0.893-1.261-0.447
				c-0.631,0.447-0.631,0.447-0.631,0.447s-0.629,0.745-1.73,0.745c-1.103,0-1.261-1.042-3.309-1.191
				c-2.047-0.148-3.148-1.19-4.094-0.297c-0.946,0.893,0.629-0.447-0.946,0.893c-1.573,1.34-3.307,1.19-3.307,1.19l-2.835-1.488
				c0,0-2.205-0.744-3.308-1.19c-1.103-0.446-1.261-0.596-2.048-0.744s-1.574,0-1.574,0l-0.629,0.744c0,0,0.629,0.446,0.472,1.19
				c-0.157,0.744-0.314,1.191-0.314,1.191s-1.104,0.447-1.418,0.893c-0.314,0.446-0.314-0.893-0.473,0.893
				c-0.157,1.786,1.891,1.339-0.157,2.381s-1.731,0.446-2.048,1.042c-0.313,0.595-0.157-0.596-0.313,0.595
				c-0.157,1.191,0.473,0.447-0.157,1.191c-0.63,0.745-1.418,1.637-1.418,1.637s-0.315,0.149-0.944,0.149
				c-0.63,0-1.891-0.298-1.891-0.298s-0.473-0.447,0-0.744c0.473-0.298,1.418-1.638,1.418-1.638v-1.042l-1.418-0.148
				c0,0-0.63-0.447-0.944-0.893c-0.313-0.447-0.157-0.447,0.157-0.894c0.314-0.446,1.26-0.596,0.314-1.19
				c-0.944-0.596-2.361-2.084-2.361-2.084c-0.787,0.446-0.945,1.191-0.945,1.191l-0.314,0.744c0,0-0.787-1.042-1.418-1.489
				c-0.63-0.446,0.474-0.446-0.63-0.446c-1.103,0-1.26,2.084-1.26,2.084l-1.103,0.298l-2.205-0.894
				c-0.473-0.595-0.473-0.744-0.629-1.19c-0.158-0.446,0.472,0.148-0.158-0.446c-0.63-0.596-1.575,0.595-2.047,0.744
				c-0.474,0.148,0-0.596-0.474,0.148c-0.474,0.744-0.474,0.744-0.474,0.744s0.158-0.595-0.314,0.596
				c-0.472,1.191-0.419,1.141-1.889,1.339c-1.471,0.199-4.831-0.794-4.831-0.794l0.211,0.993c0,0-2.31,0.199-3.569-0.596
				c-1.262-0.794,0,0.199-1.262-0.794c-1.259-0.993,1.892-2.183-1.889-1.389c-3.779,0.794-2.73-0.198-3.779,0.794
				c-1.051,0.992-0.211,2.183-1.051,0.992c-0.84-1.19-1.68-1.587-1.68-1.587l-2.101-0.794l-4.619-3.175l-1.261,0.596l-0.84,1.786
				v1.19v1.191l-6.51,0.396c-0.21,1.588-0.42,2.382-0.42,2.382l-2.94,0.595l-2.52-0.992c0,0,0.42-1.191-1.681-0.595
				c-2.1,0.595,0.21,3.771-3.568,3.969c-3.78,0.198-5.67,0.397-6.72-0.397c-1.05-0.793-0.63,0-1.68-1.39
				c-1.05-1.389-1.05-1.389-1.05-1.389s2.1,0.396,0,0c-2.1-0.397-2.1-0.199-2.521,0.595c-0.42,0.793-0.42,0.793-0.42,0.793
				s-2.31,1.588-3.569,0.596c-1.261-0.993-2.101-1.985-2.729-2.779c-0.63-0.793-0.63-0.793-0.63-0.793s-0.209-0.993-0.84-1.191
				c-0.63-0.199-2.729-1.786-3.149-0.794c-0.42,0.993-0.63,1.588-0.63,1.588l-1.89,2.381c0,0,0,0.596-1.891,0.199
				c-1.89-0.397-2.31-0.595-2.939-1.19c-0.629-0.596,0.63-0.992-0.629-0.596c-1.26,0.396-2.311,2.58-2.311,2.58
				s0.841,0.199-1.89-0.198c-2.729-0.397-2.729-0.198-3.99-0.992c-1.26-0.793-3.569-2.382-3.779-2.977
				c-0.21-0.596,0.209-2.382-1.471-2.581c-1.68-0.198,0.63-2.778-3.779,0.199s-5.88,3.573-6.51,3.771
				c-0.63,0.199-1.47,0.397-1.47,0.397l-1.889,0.397c0,0-3.57-1.389-5.25-1.191c-1.681,0.199-1.471-2.381-3.569,0
				c-2.101,2.382-2.31,3.572-3.15,3.771c-0.84,0.198-2.1,0.992-3.779-0.596c-1.681-1.587-1.681-2.183-2.521-2.58
				s2.311-1.786-1.68-0.793c-3.99,0.992-3.99,0.992-3.99,0.992s0,2.183-2.938,0.397c-2.94-1.786-1.471-2.382-4.62-2.779
				s-3.36-1.587-4.62-0.794c-1.26,0.794-2.101,1.191-2.101,1.191l-1.049,0.199l-1.47,0.992c-0.84,1.191-0.84,1.191-0.84,1.191
				l0.629,2.381l-1.26,0.794h-1.05c-0.841,1.786-0.841,1.786-0.841,1.786s-4.128-0.731-4.409-0.198
				c-0.631,1.19-0.631,1.19-0.631,1.19l-2.1-0.198l-0.84-1.587l-1.47-1.39l-1.261-0.397l0.63-2.183c0,0,1.471-0.397-1.05-0.794
				c-2.52-0.396-3.358-0.199-3.358-0.199c-1.051,0.596-1.051,0.596-1.051,0.596s-1.05-1.19-1.26-0.199
				c-0.21,0.993,0.209,1.588-0.84,1.786c-1.05,0.199-1.05,0.199-1.05,0.199s-2.101-0.794-3.15-0.794
				c-1.049,0-0.42-0.397-1.889,0.198c-1.47,0.596,1.26-0.396-1.47,0.596c-2.73,0.993-0.42,0-2.73,0.993c-2.31,0.992-2.729,0-4.2,0
				c-1.47,0,1.681-4.962-2.52,0c-4.2,4.96-3.15,7.739-6.09,8.136c-2.939,0.397-1.05,0.793-2.939,0.397
				c-1.89-0.397-1.26,0.992-1.89-0.397c-0.63-1.389-0.84-2.58-0.84-2.58s-0.42-0.993,0.42-1.588c0.84-0.596,0.629-2.183-0.84-2.183
				c-1.471,0-0.631-0.992-1.471,0c-0.84,0.992,1.681,0.992-0.84,0.992c-2.52,0,0.84,0.794-2.52,0
				c-3.36-0.793-1.891-0.595-3.36-0.793c-1.47-0.199,0,0-2.31,0c-2.311,0-2.311,0-3.149-0.199c-0.84-0.198,0.84,0-1.68-0.595
				c-2.521-0.596-1.471-0.794-3.15-0.993c-1.68-0.198-0.21-0.794-1.68-0.198c-1.471,0.595-2.101-4.763-2.939-4.366
				c-0.84,0.397-1.47,0-1.89,1.389s0.209,0.596-0.42,1.389c-0.63,0.794,0.629,0.794-0.63,0.794c-1.26,0-0.841-2.381-1.261,0
				c-0.42,2.382-0.63,2.977-0.63,2.977l-0.84,0.397l-1.47-0.595l-0.84-0.199l-2.311,0.794L61.64,50.92c0,0-1.049-0.595-1.049,0.199
				c0,0.793-0.84,1.786-0.84,1.786s-0.21,0.595-1.471,0.198c-1.259-0.397-1.259-0.397-1.259-0.397s-0.42,0.199-0.841-1.19
				c-0.42-1.389,0-3.374-1.26-2.779c-1.261,0.596-1.261,0.596-1.261,0.596s-2.52,0.198-2.729,0.794
				c-0.21,0.595-0.21,0.595-0.21,0.595l-1.522,3.175l0.474,1.042c0,0,0.944,0,0.787,1.191c-0.157,1.19,2.205,0.744-0.157,1.19
				c-2.362,0.447-2.362,0.447-2.362,0.447l-1.417,4.912l0.788,1.786c0,0,0.63,1.042,0.63,1.638s-0.157,1.935-0.157,1.935
				s0,0-0.157,0.745c-0.157,0.744-0.157,1.935-0.157,1.935s0,1.488,0,2.828s-0.158,1.638,0,2.679c0.157,1.042,0.472,2.68,0.472,2.68
				v1.786l0.473,1.34l-0.156,1.34l-0.315,1.935c0,0-1.26,1.787-1.417,2.53c-0.157,0.745,0,1.489,0,1.489s-3.78,11.61-3.148,15.777
				c0.63,4.168,1.26,5.358,1.89,9.525c0.63,4.168,0.63,8.931,0.63,8.931s-2.52,6.549-3.78,9.526c-1.26,2.977-1.89,2.977-1.26,5.359
				c0.629,2.381,2.521,4.763,3.149,6.549c0.629,1.786,1.89,2.381,1.89,4.763c0,2.381-1.26,6.549-1.26,6.549
				s-1.891,5.954-1.891,8.931s2.521,10.121,2.521,10.121l1.89,2.977v7.74c0,0-1.26,4.167-1.89,5.954
				c-0.63,1.786-1.89,5.358-3.149,7.145c-1.26,1.785-1.26,1.785-1.26,1.785s0.629,19.647,0.629,21.434c0,1.786,0,3.572,1.26,6.549
				c1.261,2.977,1.261,9.527,1.261,9.527s-1.261,2.976-0.63,6.548c0.63,3.573,3.148,8.336,3.148,8.336l2.521,4.166
				c0,0,0,5.955-0.63,7.74c-0.631,1.785-0.631,4.764-0.631,4.764s-1.26,5.357-1.26,8.334c0,2.979,1.26,1.787,0,5.358
				c-1.26,3.572-4.409,8.933-4.409,8.933l-0.63,5.953l1.891,4.762c0,0,2.52,2.978,3.148,7.739c0.63,4.764,1.89,4.764,1.89,7.741
				s0,5.357,0,5.357l3.78,14.288l-3.149,3.572c0,0-3.78,1.787-4.41,4.168s0,7.146,0,7.146s1.26,1.786,1.26,3.572
				c0,1.785,1.89-0.597,0.629,3.571c-1.26,4.166-2.52,4.166-3.148,6.551c-0.631,2.381-1.261,2.977-1.261,4.761
				c0,1.787,0.629,1.787,1.261,3.573c0.63,1.786,1.89-1.786,0.63,3.571c-1.261,5.358-1.891,6.549-1.891,10.121
				s1.261,7.146,1.261,7.146s3.148,5.357,3.779,7.146c0.63,1.785,2.521,1.189,1.26,4.167c-1.26,2.978,0,0-1.26,2.978
				s-1.89,4.763-1.89,4.763v2.382L51.874,414.999z"/>
		</g>
	</g>
	<path fill="#FFFFFF" d="M51.874,414.999l4.095,1.786c0,0,1.417-1.638,2.047-1.34s3.307-0.149,3.307-0.149l2.205,0.596
		c0,0-1.338-2.827-1.102-3.051s0.551-0.299,0.708-0.596c0.158-0.298,0.787-0.818,0.787-0.818l-0.395-0.596
		c0,0,0.63-0.372,1.104-0.074c0.473,0.298,0.867,0.298,1.181,0.968c0.315,0.669,0.551,0.596,0.474,1.267
		c-0.079,0.669-0.315,0.892-0.158,1.265c0.158,0.371,0.709,0.819,0.709,0.819s1.181-0.373,1.417-0.373
		c0.235,0,1.181,0.298,1.181,0.298s0.945,0.148,1.417-0.074c0.473-0.224,1.26-0.521,1.654-0.67c0.394-0.148,1.417-0.818,1.731-0.521
		c0.315,0.298,1.34,0.67,1.496,1.115c0.158,0.446,0.315,0.671,0.315,0.969s0.079,0.445,0.394,0.743c0.315,0.298,2.6,0.372,2.6,0.372
		l1.022-1.34l1.733,1.488c0,0,1.811,0.447,2.205,0.373c0.394-0.075,3.07-0.297,3.07-0.297s-0.235-1.564-0.235-1.787
		c0-0.224,0.314-0.521,0.314-0.521s0.474-0.074,0.474-0.297c0-0.224,0-0.521,0.079-0.744s0.394-0.597,0.63-0.67
		c0.235-0.074,0.788-0.074,0.788-0.074l-0.395,1.19c0.236,0.446,0.395,0.298,0.551,0.67c0.158,0.371,0.395,0.894,0.395,0.894
		s-0.079,0.073,0.236,0.372c0.314,0.298,1.023,0.596,1.26,0.669c0.236,0.075,1.339,0.597,1.497,0.3
		c0.157-0.3,0.235-1.043,0.472-0.896c0.236,0.149,0.788,0.373,1.104,0.671c0.314,0.298,1.969,0.817,2.361,0.67
		c0.394-0.148,0.866-0.67,1.104-0.745c0.235-0.073-0.395-0.818,0.787-0.297c1.181,0.521,1.812,0.817,2.048,0.894
		c0.235,0.074,2.126,0.297,2.126,0.297l1.181-0.894c0,0,0.079-0.445,0.472-0.521c0.395-0.075,1.813-0.148,2.284-0.075
		c0.473,0.075,0.551,0.299,1.182,0.075c0.63-0.224,1.103-0.745,1.103-0.745s0.472-0.223,0.63-0.445
		c0.157-0.224,0.236-0.744,0.473-0.67s1.024,0.372,1.024,0.372l0.708,0.743l1.417,0.521l0.788-0.521c0,0,0.079-0.371,0.472-0.298
		c0.396,0.075,1.339,0.225,1.733,0.447c0.394,0.224,1.968-0.298,1.968-0.298s0.315-0.597,0.552-0.597s1.496,0.149,1.496,0.149
		s0.945,0.67,1.183,0.818c0.235,0.148,1.417,0.298,1.417,0.298l1.103-0.225l0.945-0.223l1.811,0.521l4.332,2.68l0.84,0.694
		c0,0,1.575-0.397,2.311,0c0.734,0.396,1.26,0.596,1.47,0.991c0.21,0.397,1.05,0.793,1.05,0.793s2.625,0.3,3.255,0.1
		c0.63-0.197,1.05-0.396,1.681-0.396c0.63,0,1.47-0.596,2.31,0.1c0.84,0.694,2.205,0.991,2.521,0.991c0.313,0,1.05,0.199,1.68-0.099
		c0.63-0.297,2.1-0.794,2.52-0.992c0.421-0.197,1.576-0.396,1.996-0.694s0.314-0.793,1.681-0.396
		c1.363,0.396,2.52,0.795,3.674,0.694c1.155-0.1,4.62-0.396,4.935-0.694c0.315-0.297,1.261-0.992,1.261-0.992l1.68-0.893
		c0,0,1.995-0.198,2.52,0.099c0.525,0.297,1.156,0.497,1.785,0.596c0.63,0.101,3.255-0.396,3.78-0.396
		c0.524,0,0.84-0.595,1.68-0.198c0.84,0.397,1.995,1.092,1.995,1.092l1.261,0.397c0,0,2.311,0,2.939,0.595
		c0.63,0.597,0.42,1.489,0.84,1.985c0.42,0.495,0.629,0.693,1.26,0.991c0.629,0.298,1.155,0.298,1.891,0.497
		c0.734,0.197,1.154-0.199,1.995,0.991c0.84,1.19,0.944,1.093,1.26,1.39c0.314,0.297,2.729-1.19,2.729-1.19s1.155-0.496,1.891-0.198
		c0.734,0.298,1.05,0.396,1.784,0.596c0.735,0.197,1.891,0.497,1.891,0.497l0.945-1.391l2.414-0.693c0,0,1.471,0.693,1.681,0.991
		c0.209,0.298,0.734,1.093,0.734,1.093l1.261-0.497l-1.365,1.687c0,0,1.261,1.29,1.785,1.29s3.045-0.595,3.045-0.595
		s0-1.688,0.944-0.397c0.945,1.29,1.051,1.391,1.681,1.59c0.629,0.196,1.575,0.692,2.31,0.196c0.735-0.496,2.205-2.479,2.521-2.777
		c0.314-0.298,5.145-0.795,5.564-0.694c0.42,0.1,1.785,0.595,2.625,1.092c0.84,0.495,1.155,0.595,1.575,0.895
		c0.42,0.297,1.575,0.297,1.995,0.297s2.205-0.101,2.625-0.198s1.365-0.596,2.415-0.199c1.05,0.397,2.939,0.695,2.939,0.695
		s0.734-1.787,1.154-1.886c0.42-0.101,1.785-0.495,2.625-0.396c0.84,0.1,2.521,0.396,2.521,0.396h1.574c0,0,3.36-2.978,4.726-2.778
		s2.415,0.396,2.415,0.396s0.733,0.596,1.996,0.496c1.26-0.101,3.464-0.101,3.884-0.693c0.42-0.597,0.104-0.993,0.944-0.795
		c0.84,0.198,1.471,0.396,2.101,0.695c0.63,0.297,2.521,0.692,2.521,0.692s0.421-0.594,1.364-0.494
		c0.944,0.099,2.521,0.197,2.521,0.794c0,0.595-0.21,0.495,0.21,1.091s0.841,0.693,1.574,0.992c0.734,0.297,1.891,0.495,2.939,0.495
		c1.051,0,2.311-0.099,2.626,0c0.314,0.1,1.574,1.191,1.574,1.191l3.148,0.693c0,0,1.681-0.099,2.311-0.596
		c0.631-0.496,1.575-1.19,1.785-0.595c0.209,0.595,0.104,0.894,0.314,1.29c0.21,0.396,0.524,0.693,0.524,0.693
		s1.47-0.497,1.574-0.196c0.104,0.297,0.421,1.783,0.421,1.783l0.419,0.301l0.734-2.084c0,0,0.735-0.695,1.575-0.695
		s1.785,0.695,1.892-0.1c0.104-0.794-0.105-1.688,0.419-2.184c0.524-0.497,2.835-0.794,2.835-0.794s3.149,0.396,3.255,0.1
		c0.104-0.298,0-0.1,0.42-0.694c0.42-0.596-0.315-0.993,0.735-0.894c1.05,0.1,2.939,0.496,3.779,0.694s2.938,0.496,3.254,0.1
		c0.314-0.396,0.841-0.595,0.841-0.595s0.524-0.597,0.944-0.695c0.42-0.098,0.84-0.497,1.681-0.099
		c0.84,0.396,1.994,0.693,2.31,0.595c0.315-0.101,0.42-0.101,0.945-0.298c0.523-0.198,1.153-0.297,1.68,0.1
		c0.525,0.397,0.631,0.694,1.365,0.496s3.255-0.496,3.255-0.496s0.63-0.595,1.89-1.29c1.26-0.693,1.995-1.189,2.414-1.489
		c0.421-0.297,1.155,0.102,1.365-0.396c0.21-0.496-0.314-1.487,0.735-1.786c1.049-0.298,3.885-0.1,3.885-0.1l2.31,0.497l0.525,0.793
		c0,0,1.153,0.299,1.574,0.1c0.42-0.198,1.89-0.893,2.625-0.794c0.733,0.1,4.199,0.694,4.829,0.794s1.891,0.1,2.415,0.397
		c0.524,0.297,2.1,0.794,2.1,0.794s1.995,0.496,2.416,0.197c0.419-0.297,1.469-0.794,1.784-0.991
		c0.313-0.198,0.631-0.101,0.734-0.397c0.104-0.297-0.21-0.596,0.735-0.496c0.944,0.101,2.414,0.596,2.938,0.496
		s1.261-0.596,1.785-0.694c0.524-0.1,2.204-0.495,3.044-0.1c0.84,0.397,1.681,0.694,1.681,0.694s0.524,0.396,0.944,0.198
		s3.149-1.091,3.149-1.091l6.51-0.597l1.05,0.397l3.57-0.299L374,418.47l5.46-1.091c0,0,1.417-0.595,2.203,0
		c0.788,0.596,1.262,1.041,2.049,1.489c0.788,0.446,3.308,0.297,3.779,0c0.473-0.299,1.416-1.34,2.521-1.489
		c1.102-0.148,5.197,0.149,5.827,0.596c0.629,0.445,2.047,1.042,2.833,1.19c0.788,0.149,5.04-1.786,5.04-1.786s0.474,0,0.788-0.595
		c0.314-0.597,0.631-1.937,1.103-2.084c0.473-0.148,0.473-0.744,1.731-0.446c1.26,0.298,1.261,0.595,2.049,0.298
		c0.786-0.298,2.204-1.341,2.991-1.341s1.891-0.148,2.362,0.447c0.472,0.595,0.157-0.299,0.473,0.596
		c0.314,0.893,0.473,0.893,0.473,1.637c0,0.745-0.631,0.745,0.157,1.34c0.787,0.597,0.945,0.446,1.732,0.744
		c0.787,0.297,2.047,0.297,2.677,0.596s0.787,1.19,1.262,1.488c0.472,0.297,0.63,0.745,1.416,0.446
		c0.788-0.298,2.678-1.19,3.15-1.34c0.472-0.148,1.417-0.596,2.047-1.042s0.157-1.19,1.891-1.339
		c1.732-0.149,2.677-0.597,4.095-0.148c1.417,0.445,2.992,0.445,3.465-0.298c0.472-0.745,0.472-0.745,0.472-0.745
		s0.788-1.488,1.575-1.785c0.787-0.298,1.575-1.488,2.835-1.34c1.261,0.148,3.149,0.595,3.149,0.595s-0.787-0.595,1.104-0.595
		s5.983,0.148,5.983,0.148s1.104,0.894,1.891,1.487c0.787,0.597,1.575,1.341,1.575,1.341l3.149,1.487c0,0,2.205,0.299,2.991,0.148
		c0.788-0.148,2.362-1.19,3.15-1.637c0.787-0.446,2.835-1.042,2.835-1.042s3.149-11.609,2.203-12.802
		c-0.944-1.188-1.889-0.893-2.203-2.679c-0.316-1.787,0-1.487,0.314-3.871c0.313-2.381,0.63-2.678,0.63-4.167
		c0-1.488,0-5.357,0-5.357s0-3.273,0-5.357s0-5.656,0-5.656v-6.252l-2.205-3.87c0,0,0.313-2.084,0.313-3.571
		c0-1.488,0.63-1.19,1.262-5.953c0.63-4.765,0.943-6.55,0.943-6.55s2.521-14.289,0.63-17.563c-1.889-3.276-4.724-5.061-4.724-9.229
		s0.314-8.336,0.314-8.336s1.26-2.382,1.573-4.466c0.315-2.083,0.946-3.87,0.63-7.441c-0.313-3.571-0.313-3.869-0.63-5.062
		c-0.313-1.189-3.989-16.074-3.148-19.25c0.84-3.176,1.261-8.335,1.261-8.335l1.679-11.114c0,0-1.26-8.732-1.26-11.51
		c0-2.779-0.419-7.145,0-9.525c0.42-2.382,0.42-6.749,0.42-6.749l1.68-6.35l1.681-9.129l-0.84-5.557c0,0-0.841-1.588-1.26-3.572
		c-0.421-1.985-0.421-1.985-0.421-3.572c0-1.588,0.421-0.397,0-2.779c-0.419-2.381-1.679-6.351-1.679-7.541
		c0-1.191,0-13.098,0-13.098s0-4.366,0-5.955c0-1.587,1.26-3.572,1.26-7.541c0-3.969,0-10.32,0-10.32s-2.521-3.175-2.521-5.16
		c0-1.984,0.84-10.32,0.84-10.32l1.681-9.526c0,0-1.26-7.938-1.681-10.717c-0.419-2.778-0.419-3.572-0.419-3.572
		s0.84-2.381,1.259-3.572c0.42-1.19,1.26-2.381,1.26-2.381l0.84-6.35v-1.985l3.78-24.807c0,0-3.78-8.931-2.52-11.908
		c1.259-2.977,1.259-6.549,1.259-6.549l-2.521-4.763l-0.63-5.358l-2.52-2.381l-2.521,0.595l-2.52,1.191h-3.779l-3.779-2.977
		c0,0-8.189,0.744-9.136,2.083c-0.943,1.34-3.148,1.191-3.148,1.191s-3.149-1.191-3.466-1.638c-0.313-0.446-0.944-1.786-0.944-1.786
		s-0.63-1.19-1.89-0.148c-1.261,1.042,0.944,0.446-1.261,1.042c-2.205,0.595-2.205,1.042-3.622,0.595
		c-1.418-0.447-1.26-0.893-2.52-0.447c-1.261,0.447-2.362,0.893-2.362,0.893h-2.993l-1.417-1.042l-1.89-2.382
		c0,0-0.787-1.786-2.362-0.893c-1.573,0.893-0.944,0.745-1.573,0.893c-0.632,0.149-0.475,0.596-1.419-0.446
		c-0.943-1.042-1.261-1.638-1.261-1.638s-0.472-0.744-0.943-1.488c-0.474-0.745-0.474-2.828-0.474-2.828l0.474-1.936
		c0,0,0.63-0.893-0.631-1.488c-1.26-0.595-1.26-1.19-1.89-0.893c-0.63,0.297-0.945,0.893-0.945,0.893l-0.63,1.191l-1.574,0.745
		l-1.104-0.596l-0.787,0.148l-1.261,1.488l-1.731-0.446l-0.944-0.446l-2.048-0.745l-2.834,1.042L393,34.998
		c0,0,0.314-0.149-1.103-0.447c-1.417-0.297-2.204-0.447-2.204-0.447l-2.521,0.298l-1.732-0.745l-1.102,0.446l-1.262,1.19
		l-1.891-0.297c0,0,0.473-2.382-2.204-0.149c-2.678,2.232-2.678,2.232-2.678,2.232l-1.731,1.488l-2.205-0.148l-0.944-0.298
		l-2.047,0.298l-1.418-0.596l-2.048-0.892l-1.103,0.744l-2.834,0.893c-1.891,0-2.993-0.148-2.993-0.148l-2.992,0.297l-0.63,0.447
		l-2.52,0.595l-3.938,0.149l-0.158,1.786c0,0,0.474,1.19-0.156,1.488c-0.631,0.298-2.048,0.149-2.048,0.149l-1.731-0.595
		l-3.465-1.489c0,0-0.63-0.893-1.261-0.447c-0.631,0.447-0.631,0.447-0.631,0.447s-0.629,0.745-1.73,0.745
		c-1.103,0-1.261-1.042-3.309-1.191c-2.047-0.148-3.148-1.19-4.094-0.297c-0.946,0.893,0.629-0.447-0.946,0.893
		c-1.573,1.34-3.307,1.19-3.307,1.19l-2.835-1.488c0,0-2.205-0.744-3.308-1.19c-1.103-0.446-1.261-0.596-2.048-0.744
		s-1.574,0-1.574,0l-0.629,0.744c0,0,0.629,0.446,0.472,1.19c-0.157,0.744-0.314,1.191-0.314,1.191s-1.104,0.447-1.418,0.893
		c-0.314,0.446-0.314-0.893-0.473,0.893c-0.157,1.786,1.891,1.339-0.157,2.381s-1.731,0.446-2.048,1.042
		c-0.313,0.595-0.157-0.596-0.313,0.595c-0.157,1.191,0.473,0.447-0.157,1.191c-0.63,0.745-1.418,1.637-1.418,1.637
		s-0.315,0.149-0.944,0.149c-0.63,0-1.891-0.298-1.891-0.298s-0.473-0.447,0-0.744c0.473-0.298,1.418-1.638,1.418-1.638v-1.042
		l-1.418-0.148c0,0-0.63-0.447-0.944-0.893c-0.313-0.447-0.157-0.447,0.157-0.894c0.314-0.446,1.26-0.596,0.314-1.19
		c-0.944-0.596-2.361-2.084-2.361-2.084c-0.787,0.446-0.945,1.191-0.945,1.191l-0.314,0.744c0,0-0.787-1.042-1.418-1.489
		c-0.63-0.446,0.474-0.446-0.63-0.446c-1.103,0-1.26,2.084-1.26,2.084l-1.103,0.298l-2.205-0.894
		c-0.473-0.595-0.473-0.744-0.629-1.19c-0.158-0.446,0.472,0.148-0.158-0.446c-0.63-0.596-1.575,0.595-2.047,0.744
		c-0.474,0.148,0-0.596-0.474,0.148c-0.474,0.744-0.474,0.744-0.474,0.744s0.158-0.595-0.314,0.596
		c-0.472,1.191-0.419,1.141-1.889,1.339c-1.471,0.199-4.831-0.794-4.831-0.794l0.211,0.993c0,0-2.31,0.199-3.569-0.596
		c-1.262-0.794,0,0.199-1.262-0.794c-1.259-0.993,1.892-2.183-1.889-1.389c-3.779,0.794-2.73-0.198-3.779,0.794
		c-1.051,0.992-0.211,2.183-1.051,0.992c-0.84-1.19-1.68-1.587-1.68-1.587l-2.101-0.794l-4.619-3.175l-1.261,0.596l-0.84,1.786v1.19
		v1.191l-6.51,0.396c-0.21,1.588-0.42,2.382-0.42,2.382l-2.94,0.595l-2.52-0.992c0,0,0.42-1.191-1.681-0.595
		c-2.1,0.595,0.21,3.771-3.568,3.969c-3.78,0.198-5.67,0.397-6.72-0.397c-1.05-0.793-0.63,0-1.68-1.39
		c-1.05-1.389-1.05-1.389-1.05-1.389s2.1,0.396,0,0c-2.1-0.397-2.1-0.199-2.521,0.595c-0.42,0.793-0.42,0.793-0.42,0.793
		s-2.31,1.588-3.569,0.596c-1.261-0.993-2.101-1.985-2.729-2.779c-0.63-0.793-0.63-0.793-0.63-0.793s-0.209-0.993-0.84-1.191
		c-0.63-0.199-2.729-1.786-3.149-0.794c-0.42,0.993-0.63,1.588-0.63,1.588l-1.89,2.381c0,0,0,0.596-1.891,0.199
		c-1.89-0.397-2.31-0.595-2.939-1.19c-0.629-0.596,0.63-0.992-0.629-0.596c-1.26,0.396-2.311,2.58-2.311,2.58
		s0.841,0.199-1.89-0.198c-2.729-0.397-2.729-0.198-3.99-0.992c-1.26-0.793-3.569-2.382-3.779-2.977
		c-0.21-0.596,0.209-2.382-1.471-2.581c-1.68-0.198,0.63-2.778-3.779,0.199s-5.88,3.573-6.51,3.771
		c-0.63,0.199-1.47,0.397-1.47,0.397l-1.889,0.397c0,0-3.57-1.389-5.25-1.191c-1.681,0.199-1.471-2.381-3.569,0
		c-2.101,2.382-2.31,3.572-3.15,3.771c-0.84,0.198-2.1,0.992-3.779-0.596c-1.681-1.587-1.681-2.183-2.521-2.58
		s2.311-1.786-1.68-0.793c-3.99,0.992-3.99,0.992-3.99,0.992s0,2.183-2.938,0.397c-2.94-1.786-1.471-2.382-4.62-2.779
		s-3.36-1.587-4.62-0.794c-1.26,0.794-2.101,1.191-2.101,1.191l-1.049,0.199l-1.47,0.992c-0.84,1.191-0.84,1.191-0.84,1.191
		l0.629,2.381l-1.26,0.794h-1.05c-0.841,1.786-0.841,1.786-0.841,1.786s-4.128-0.731-4.409-0.198c-0.631,1.19-0.631,1.19-0.631,1.19
		l-2.1-0.198l-0.84-1.587l-1.47-1.39l-1.261-0.397l0.63-2.183c0,0,1.471-0.397-1.05-0.794c-2.52-0.396-3.358-0.199-3.358-0.199
		c-1.051,0.596-1.051,0.596-1.051,0.596s-1.05-1.19-1.26-0.199c-0.21,0.993,0.209,1.588-0.84,1.786
		c-1.05,0.199-1.05,0.199-1.05,0.199s-2.101-0.794-3.15-0.794c-1.049,0-0.42-0.397-1.889,0.198c-1.47,0.596,1.26-0.396-1.47,0.596
		c-2.73,0.993-0.42,0-2.73,0.993c-2.31,0.992-2.729,0-4.2,0c-1.47,0,1.681-4.962-2.52,0c-4.2,4.96-3.15,7.739-6.09,8.136
		c-2.939,0.397-1.05,0.793-2.939,0.397c-1.89-0.397-1.26,0.992-1.89-0.397c-0.63-1.389-0.84-2.58-0.84-2.58s-0.42-0.993,0.42-1.588
		c0.84-0.596,0.629-2.183-0.84-2.183c-1.471,0-0.631-0.992-1.471,0c-0.84,0.992,1.681,0.992-0.84,0.992c-2.52,0,0.84,0.794-2.52,0
		c-3.36-0.793-1.891-0.595-3.36-0.793c-1.47-0.199,0,0-2.31,0c-2.311,0-2.311,0-3.149-0.199c-0.84-0.198,0.84,0-1.68-0.595
		c-2.521-0.596-1.471-0.794-3.15-0.993c-1.68-0.198-0.21-0.794-1.68-0.198c-1.471,0.595-2.101-4.763-2.939-4.366
		c-0.84,0.397-1.47,0-1.89,1.389s0.209,0.596-0.42,1.389c-0.63,0.794,0.629,0.794-0.63,0.794c-1.26,0-0.841-2.381-1.261,0
		c-0.42,2.382-0.63,2.977-0.63,2.977l-0.84,0.397l-1.47-0.595l-0.84-0.199l-2.311,0.794L61.64,50.92c0,0-1.049-0.595-1.049,0.199
		c0,0.793-0.84,1.786-0.84,1.786s-0.21,0.595-1.471,0.198c-1.259-0.397-1.259-0.397-1.259-0.397s-0.42,0.199-0.841-1.19
		c-0.42-1.389,0-3.374-1.26-2.779c-1.261,0.596-1.261,0.596-1.261,0.596s-2.52,0.198-2.729,0.794c-0.21,0.595-0.21,0.595-0.21,0.595
		l-1.522,3.175l0.474,1.042c0,0,0.944,0,0.787,1.191c-0.157,1.19,2.205,0.744-0.157,1.19c-2.362,0.447-2.362,0.447-2.362,0.447
		l-1.417,4.912l0.788,1.786c0,0,0.63,1.042,0.63,1.638s-0.157,1.935-0.157,1.935s0,0-0.157,0.745
		c-0.157,0.744-0.157,1.935-0.157,1.935s0,1.488,0,2.828s-0.158,1.638,0,2.679c0.157,1.042,0.472,2.68,0.472,2.68v1.786l0.473,1.34
		l-0.156,1.34l-0.315,1.935c0,0-1.26,1.787-1.417,2.53c-0.157,0.745,0,1.489,0,1.489s-3.78,11.61-3.148,15.777
		c0.63,4.168,1.26,5.358,1.89,9.525c0.63,4.168,0.63,8.931,0.63,8.931s-2.52,6.549-3.78,9.526c-1.26,2.977-1.89,2.977-1.26,5.359
		c0.629,2.381,2.521,4.763,3.149,6.549c0.629,1.786,1.89,2.381,1.89,4.763c0,2.381-1.26,6.549-1.26,6.549s-1.891,5.954-1.891,8.931
		s2.521,10.121,2.521,10.121l1.89,2.977v7.74c0,0-1.26,4.167-1.89,5.954c-0.63,1.786-1.89,5.358-3.149,7.145
		c-1.26,1.785-1.26,1.785-1.26,1.785s0.629,19.647,0.629,21.434c0,1.786,0,3.572,1.26,6.549c1.261,2.977,1.261,9.527,1.261,9.527
		s-1.261,2.976-0.63,6.548c0.63,3.573,3.148,8.336,3.148,8.336l2.521,4.166c0,0,0,5.955-0.63,7.74
		c-0.631,1.785-0.631,4.764-0.631,4.764s-1.26,5.357-1.26,8.334c0,2.979,1.26,1.787,0,5.358c-1.26,3.572-4.409,8.933-4.409,8.933
		l-0.63,5.953l1.891,4.762c0,0,2.52,2.978,3.148,7.739c0.63,4.764,1.89,4.764,1.89,7.741s0,5.357,0,5.357l3.78,14.288l-3.149,3.572
		c0,0-3.78,1.787-4.41,4.168s0,7.146,0,7.146s1.26,1.786,1.26,3.572c0,1.785,1.89-0.597,0.629,3.571
		c-1.26,4.166-2.52,4.166-3.148,6.551c-0.631,2.381-1.261,2.977-1.261,4.761c0,1.787,0.629,1.787,1.261,3.573
		c0.63,1.786,1.89-1.786,0.63,3.571c-1.261,5.358-1.891,6.549-1.891,10.121s1.261,7.146,1.261,7.146s3.148,5.357,3.779,7.146
		c0.63,1.785,2.521,1.189,1.26,4.167c-1.26,2.978,0,0-1.26,2.978s-1.89,4.763-1.89,4.763v2.382L51.874,414.999z"/>
	<path fill="#45C3EF" d="M336.781,74.039c0-0.367-0.292-0.459-0.292-0.459l-0.097-0.552c0-0.276-0.193-0.276-0.485-0.551
		c-0.292-0.276-0.485,0-0.777,0s-0.975,0-1.361-0.184c-0.389-0.184,0,0-0.292-0.644c-0.292-0.643,0,0,0.292-0.275
		c0.291-0.275,0.389-0.092,0.681-0.092s0.194-0.367,0.194-0.367s0,0,0-0.276c0-0.276-0.194-0.276-0.097-0.644
		c0.097-0.368,1.36-0.735,1.36-0.735s-0.098-0.368-0.194-0.736c-0.098-0.367,0.292-0.643,0.292-0.643l0.484-0.736l-0.097-1.287
		l-0.097-0.551l-0.391-0.735v-0.735c0,0,0.194-0.092,0.486-0.46s0.195-0.275,0.292-0.551c0.097-0.275-0.097-0.735-0.097-0.735
		s0,0,0-0.275s0,0-0.391-1.103c-0.389-1.103,0,0-0.389-0.275c-0.389-0.276-0.195,0-0.778-0.276c-0.584-0.275,0,0-0.098-0.644
		c-0.097-0.643,0,0,0.487-0.827c0.484-0.828,0,0,0.583-0.276c0.584-0.276,0,0,0.484-0.459c0.487-0.46,0,0-0.389-0.919
		s-0.097-0.552-0.097-0.552l0.193-0.551l0.194-0.459L336,54.464V53.82l0.292-1.195l-0.099-0.919l-0.973-1.378l0.875-0.46
		l0.098-0.918L336,48.398v-0.735l0.097-0.735L336,46.56c0,0-0.683-0.919-0.583-1.562c0.097-0.644,0.192-0.46,0.68-0.919
		s0-1.471,0-1.471s0,0-0.194-0.459c-0.193-0.459,0,0-0.292-0.735s0,0-0.292-0.551c-0.291-0.552-0.389-0.368-0.389-0.368
		l-0.388-0.275c0,0,0,0-0.292-0.459c-0.292-0.46,0,0,0.097-0.736c0.097-0.735,0,0,0.778-0.551c0.776-0.551,0,0,0.389-0.735
		c0.389-0.735,0,0,0.194-0.735c0.193-0.736,0,0,0.389-0.46c0.389-0.459,0,0,0.487-0.735c0.484-0.735,0,0,0.192-0.551
		c0.195-0.552,0,0-0.192-0.735c-0.195-0.736,0,0-0.391-0.736c-0.389-0.735,0,0,0.099-0.735c0.097-0.735,0.192-1.47,0.192-1.47
		l-0.192-0.552l-0.875-1.011l0.097-0.644l0.389-0.459l-0.389-1.195l0.292-0.643l0.68-0.551l0.292-0.735l0.195-0.552l0.097-0.643
		c0,0-0.097-0.552-0.097-1.011s-0.098-0.551-0.195-0.828c-0.097-0.275,0.634-0.972,0.634-0.972H175.629
		c0.023,0.109,0.037,0.197,0.025,0.238c-0.146,0.551-0.146,0.827-0.146,1.516s0,0.965,0.292,1.516
		c0.292,0.551,0.438,1.241,0.438,1.241l-0.292,0.827l-0.146,0.551l-0.146,0.828c0,0,0.438,0.965,0.438,1.654
		c0,0.689,0,0.689,0,0.689l-0.292,0.827v0.551c0,0,0.292,0.138,0.438,0.689c0.146,0.552,0.729,0.414,0.438,1.517
		c-0.292,1.103-0.292,1.103-0.292,1.103s-0.146,0.551-0.146,0.965s0,1.379,0,1.379s-0.474,0.448-0.547,0.724
		c-0.072,0.275-0.108,0.31-0.182,0.482s-0.219,0.345-0.219,0.345s-0.037,0.311,0.037,0.448c0.072,0.138,0.182,0.241,0.292,0.31
		c0.108,0.069,0.4,0.276,0.511,0.276s0.292-0.103,0.364,0.069c0.072,0.172,0.108,0.379,0.108,0.379l0.109,0.276l0.4,0.242
		l0.183,0.137l0.108,0.242l0.109,0.172l0.255,0.31l0.184,0.31c0,0,0.146-0.172,0.108,0.276s0.036,0.276-0.037,0.448
		c-0.072,0.173-0.072,0.173-0.072,0.173l-0.329,0.207l-0.475,0.207l-0.108,0.207l0.108,0.345l-0.219,0.517l-0.401,0.345
		c0,0-0.036,0-0.072,0.172c-0.037,0.172,0.108-0.138-0.037,0.172c-0.146,0.31-0.146,0.311-0.146,0.311l-0.072,0.344l0.036,0.448
		c0,0,0.146,0.724-0.108,1.551c-0.255,0.827-0.146,1.103-0.146,1.31s0.021,0.083,0.103,0.524c0.081,0.441,0.373,0.441,0.227,0.854
		c-0.146,0.413-0.219,0.689-0.219,0.689s-0.146,0.276-0.219,0.414c-0.073,0.137,0.072,0.414,0.072,0.414l0.184,0.379l0.219,0.482
		l0.146,0.724c0,0-0.475,0.655-0.62,1.758c-0.146,1.103,0.219,2.068,0.219,2.068l0.219,1.309l-0.219,1.172l-0.438,1.034l0.365,1.172
		l0.656,1.034c0,0,0.292,0.62,0.146,0.896c-0.146,0.276-0.292,0.551-0.292,0.551l-0.219,0.483l0.656,1.31l0.365,0.827l-0.146,0.827
		l-0.438,0.552l-0.292,0.551l-0.583,0.414l-0.073,0.896c0,0,0.146,0,0.219,0.621c0.073,0.62,0,0.068,0.073,0.62
		c0.073,0.551-0.583-0.069,0.073,0.551c0.655,0.62,0.655,0.62,0.655,0.62l-0.292,0.483l-0.51,0.138l-0.438,0.137l-0.438,0.552
		l-0.219,0.308h162.489l-0.634-0.215C336.781,74.774,336.781,74.406,336.781,74.039z"/>
</g>
<g id="Layer_4">
	
		<image overflow="visible" enable-background="new    " width="4000" height="3000" xlink:href="../../st-artamsterdam/inspiration/wireframe-start-3.png"  transform="matrix(0.1056 0 0 0.1056 27.5349 78.001)">
	</image>
</g>
<g id="DESIGNED_BY_FREEPIK">
</g>
</svg>
